%TF.GenerationSoftware,KiCad,Pcbnew,7.0.6*%
%TF.CreationDate,2023-08-07T10:19:30-05:00*%
%TF.ProjectId,mqtt_particle_sensor,6d717474-5f70-4617-9274-69636c655f73,C*%
%TF.SameCoordinates,Original*%
%TF.FileFunction,Copper,L2,Bot*%
%TF.FilePolarity,Positive*%
%FSLAX46Y46*%
G04 Gerber Fmt 4.6, Leading zero omitted, Abs format (unit mm)*
G04 Created by KiCad (PCBNEW 7.0.6) date 2023-08-07 10:19:30*
%MOMM*%
%LPD*%
G01*
G04 APERTURE LIST*
G04 Aperture macros list*
%AMRoundRect*
0 Rectangle with rounded corners*
0 $1 Rounding radius*
0 $2 $3 $4 $5 $6 $7 $8 $9 X,Y pos of 4 corners*
0 Add a 4 corners polygon primitive as box body*
4,1,4,$2,$3,$4,$5,$6,$7,$8,$9,$2,$3,0*
0 Add four circle primitives for the rounded corners*
1,1,$1+$1,$2,$3*
1,1,$1+$1,$4,$5*
1,1,$1+$1,$6,$7*
1,1,$1+$1,$8,$9*
0 Add four rect primitives between the rounded corners*
20,1,$1+$1,$2,$3,$4,$5,0*
20,1,$1+$1,$4,$5,$6,$7,0*
20,1,$1+$1,$6,$7,$8,$9,0*
20,1,$1+$1,$8,$9,$2,$3,0*%
G04 Aperture macros list end*
%TA.AperFunction,ComponentPad*%
%ADD10R,3.500000X3.500000*%
%TD*%
%TA.AperFunction,ComponentPad*%
%ADD11RoundRect,0.750000X-1.000000X0.750000X-1.000000X-0.750000X1.000000X-0.750000X1.000000X0.750000X0*%
%TD*%
%TA.AperFunction,ComponentPad*%
%ADD12RoundRect,0.875000X-0.875000X0.875000X-0.875000X-0.875000X0.875000X-0.875000X0.875000X0.875000X0*%
%TD*%
%TA.AperFunction,ComponentPad*%
%ADD13R,1.600000X1.600000*%
%TD*%
%TA.AperFunction,ComponentPad*%
%ADD14O,1.600000X1.600000*%
%TD*%
%TA.AperFunction,ComponentPad*%
%ADD15O,0.800000X1.300000*%
%TD*%
%TA.AperFunction,ComponentPad*%
%ADD16RoundRect,0.200000X0.200000X0.450000X-0.200000X0.450000X-0.200000X-0.450000X0.200000X-0.450000X0*%
%TD*%
%TA.AperFunction,ComponentPad*%
%ADD17C,1.600000*%
%TD*%
%TA.AperFunction,ComponentPad*%
%ADD18R,2.100000X1.900000*%
%TD*%
%TA.AperFunction,ComponentPad*%
%ADD19O,2.100000X1.900000*%
%TD*%
%TA.AperFunction,ViaPad*%
%ADD20C,0.600000*%
%TD*%
%TA.AperFunction,Conductor*%
%ADD21C,0.381000*%
%TD*%
%TA.AperFunction,Conductor*%
%ADD22C,0.889000*%
%TD*%
G04 APERTURE END LIST*
D10*
%TO.P,J2,1*%
%TO.N,Net-(PS1-+VIN)*%
X63500000Y-53340000D03*
D11*
%TO.P,J2,2*%
%TO.N,GND*%
X63500000Y-47340000D03*
D12*
%TO.P,J2,3*%
%TO.N,N/C*%
X58800000Y-50340000D03*
%TD*%
D13*
%TO.P,U2,1,~{RESET}/PB5*%
%TO.N,unconnected-(U2-~{RESET}{slash}PB5-Pad1)*%
X47000000Y-82560000D03*
D14*
%TO.P,U2,2,XTAL1/PB3*%
%TO.N,TX*%
X47000000Y-85100000D03*
%TO.P,U2,3,XTAL2/PB4*%
%TO.N,RX*%
X47000000Y-87640000D03*
%TO.P,U2,4,GND*%
%TO.N,GND*%
X47000000Y-90180000D03*
%TO.P,U2,5,AREF/PB0*%
%TO.N,SDA*%
X54620000Y-90180000D03*
%TO.P,U2,6,PB1*%
%TO.N,unconnected-(U2-PB1-Pad6)*%
X54620000Y-87640000D03*
%TO.P,U2,7,PB2*%
%TO.N,SCL*%
X54620000Y-85100000D03*
%TO.P,U2,8,VCC*%
%TO.N,+3V3*%
X54620000Y-82560000D03*
%TD*%
D15*
%TO.P,U3,8,GND*%
%TO.N,GND*%
X62715000Y-104200000D03*
%TO.P,U3,7,RX*%
%TO.N,RX*%
X63965000Y-104200000D03*
%TO.P,U3,6,TX*%
%TO.N,TX*%
X65215000Y-104200000D03*
%TO.P,U3,5,RES*%
%TO.N,unconnected-(U3-RES-Pad5)*%
X66465000Y-104200000D03*
%TO.P,U3,4*%
%TO.N,N/C*%
X67715000Y-104200000D03*
%TO.P,U3,3*%
X68965000Y-104200000D03*
%TO.P,U3,2,Vcc*%
%TO.N,+5V*%
X70215000Y-104200000D03*
D16*
%TO.P,U3,1,Vout*%
%TO.N,unconnected-(U3-Vout-Pad1)*%
X71465000Y-104200000D03*
%TD*%
D13*
%TO.P,C3,1*%
%TO.N,Net-(PS1-+VIN)*%
X50800000Y-63500000D03*
D17*
%TO.P,C3,2*%
%TO.N,GND*%
X50800000Y-66000000D03*
%TD*%
D18*
%TO.P,A1,1,~{RST}*%
%TO.N,RESET*%
X127635000Y-63500000D03*
D19*
%TO.P,A1,2,A*%
%TO.N,unconnected-(A1-A-Pad2)*%
X127635000Y-66040000D03*
%TO.P,A1,3,EN*%
%TO.N,unconnected-(A1-EN-Pad3)*%
X127635000Y-68580000D03*
%TO.P,A1,4,16*%
%TO.N,RESET*%
X127635000Y-71120000D03*
%TO.P,A1,5,14*%
%TO.N,unconnected-(A1-14-Pad5)*%
X127635000Y-73660000D03*
%TO.P,A1,6,12*%
%TO.N,unconnected-(A1-12-Pad6)*%
X127635000Y-76200000D03*
%TO.P,A1,7,13*%
%TO.N,unconnected-(A1-13-Pad7)*%
X127635000Y-78740000D03*
%TO.P,A1,8,V+*%
%TO.N,unconnected-(A1-V+-Pad8)*%
X127635000Y-81280000D03*
%TO.P,A1,9,VBat*%
%TO.N,+5V*%
X127635000Y-83820000D03*
%TO.P,A1,10,GND*%
%TO.N,GND*%
X127635000Y-86360000D03*
%TO.P,A1,11,GND*%
X107315000Y-86360000D03*
%TO.P,A1,12,LDO*%
%TO.N,unconnected-(A1-LDO-Pad12)*%
X107315000Y-83820000D03*
%TO.P,A1,13,3V*%
%TO.N,+3V3*%
X107315000Y-81280000D03*
%TO.P,A1,14,15*%
%TO.N,unconnected-(A1-15-Pad14)*%
X107315000Y-78740000D03*
%TO.P,A1,15,2*%
%TO.N,unconnected-(A1-2-Pad15)*%
X107315000Y-76200000D03*
%TO.P,A1,16,0*%
%TO.N,ONLINE*%
X107315000Y-73660000D03*
%TO.P,A1,17,4*%
%TO.N,SDA*%
X107315000Y-71120000D03*
%TO.P,A1,18,5*%
%TO.N,SCL*%
X107315000Y-68580000D03*
%TO.P,A1,19,RX*%
%TO.N,unconnected-(A1-RX-Pad19)*%
X107315000Y-66040000D03*
%TO.P,A1,20,TX*%
%TO.N,unconnected-(A1-TX-Pad20)*%
X107315000Y-63500000D03*
%TD*%
D20*
%TO.N,RESET*%
X121920000Y-53340000D03*
%TO.N,+3V3*%
X81280000Y-45720000D03*
X127000000Y-45720000D03*
%TO.N,ONLINE*%
X131445000Y-97790000D03*
%TO.N,Net-(PS1-+VIN)*%
X111760000Y-53340000D03*
%TD*%
D21*
%TO.N,RESET*%
X127635000Y-63500000D02*
X129540000Y-63500000D01*
X129540000Y-71120000D02*
X127635000Y-71120000D01*
X121920000Y-60960000D02*
X124460000Y-63500000D01*
X130810000Y-64770000D02*
X130810000Y-69850000D01*
X121920000Y-53340000D02*
X121920000Y-60960000D01*
X124460000Y-63500000D02*
X127635000Y-63500000D01*
X129540000Y-63500000D02*
X130810000Y-64770000D01*
X130810000Y-69850000D02*
X129540000Y-71120000D01*
%TO.N,GND*%
X131731015Y-98480500D02*
X119435500Y-98480500D01*
X132135500Y-90860500D02*
X132135500Y-98076015D01*
X119435500Y-98480500D02*
X107315000Y-86360000D01*
X132135500Y-98076015D02*
X131731015Y-98480500D01*
X127635000Y-86360000D02*
X132135500Y-90860500D01*
%TO.N,unconnected-(A1-15-Pad14)*%
X107315000Y-78740000D02*
X105410000Y-78740000D01*
%TO.N,ONLINE*%
X107315000Y-73660000D02*
X131445000Y-97790000D01*
%TO.N,SDA*%
X107315000Y-71120000D02*
X86360000Y-71120000D01*
X64138684Y-90252000D02*
X60246684Y-86360000D01*
X55880000Y-88920000D02*
X54620000Y-90180000D01*
X58420000Y-86360000D02*
X55880000Y-88900000D01*
X55880000Y-88900000D02*
X55880000Y-88920000D01*
X86360000Y-71120000D02*
X67228000Y-90252000D01*
X67228000Y-90252000D02*
X64138684Y-90252000D01*
X60246684Y-86360000D02*
X58420000Y-86360000D01*
%TO.N,SCL*%
X64379342Y-89671000D02*
X65455658Y-89671000D01*
X54620000Y-85100000D02*
X59808342Y-85100000D01*
X86546658Y-68580000D02*
X107315000Y-68580000D01*
X65455658Y-89671000D02*
X86546658Y-68580000D01*
X59808342Y-85100000D02*
X64379342Y-89671000D01*
D22*
%TO.N,Net-(PS1-+VIN)*%
X63500000Y-53340000D02*
X54610000Y-53340000D01*
X54610000Y-53340000D02*
X50800000Y-57150000D01*
X63500000Y-53340000D02*
X111760000Y-53340000D01*
X50800000Y-57150000D02*
X50800000Y-63500000D01*
%TD*%
%TA.AperFunction,Conductor*%
%TO.N,+3V3*%
G36*
X109004709Y-76346526D02*
G01*
X109054783Y-76377005D01*
X130255597Y-97577819D01*
X130289082Y-97639142D01*
X130284098Y-97708834D01*
X130242226Y-97764767D01*
X130176762Y-97789184D01*
X130167916Y-97789500D01*
X119773084Y-97789500D01*
X119706045Y-97769815D01*
X119685403Y-97753181D01*
X108835581Y-86903359D01*
X108802096Y-86842036D01*
X108805980Y-86775417D01*
X108825934Y-86717297D01*
X108865500Y-86480192D01*
X108865500Y-86239808D01*
X108825934Y-86002703D01*
X108825926Y-86002681D01*
X108747883Y-85775347D01*
X108747881Y-85775342D01*
X108633470Y-85563930D01*
X108633466Y-85563924D01*
X108485830Y-85374242D01*
X108485827Y-85374239D01*
X108485825Y-85374236D01*
X108308969Y-85211429D01*
X108281995Y-85193806D01*
X108236641Y-85140663D01*
X108227217Y-85071432D01*
X108256718Y-85008096D01*
X108281992Y-84986195D01*
X108308969Y-84968571D01*
X108485825Y-84805764D01*
X108625626Y-84626148D01*
X108633466Y-84616075D01*
X108633470Y-84616069D01*
X108633472Y-84616067D01*
X108747882Y-84404656D01*
X108825934Y-84177297D01*
X108865500Y-83940192D01*
X108865500Y-83699808D01*
X108825934Y-83462703D01*
X108807114Y-83407883D01*
X108747883Y-83235347D01*
X108747881Y-83235342D01*
X108633470Y-83023930D01*
X108633466Y-83023924D01*
X108485830Y-82834242D01*
X108485827Y-82834239D01*
X108485825Y-82834236D01*
X108308969Y-82671429D01*
X108281537Y-82653506D01*
X108236184Y-82600363D01*
X108226760Y-82531132D01*
X108256262Y-82467796D01*
X108281543Y-82445891D01*
X108308656Y-82428177D01*
X108485455Y-82265422D01*
X108633052Y-82075790D01*
X108747421Y-81864455D01*
X108747423Y-81864449D01*
X108825446Y-81637176D01*
X108843331Y-81530000D01*
X107760572Y-81530000D01*
X107783682Y-81494040D01*
X107825000Y-81353327D01*
X107825000Y-81206673D01*
X107783682Y-81065960D01*
X107760572Y-81030000D01*
X108843330Y-81030000D01*
X108843330Y-81029999D01*
X108825446Y-80922823D01*
X108747423Y-80695550D01*
X108747421Y-80695544D01*
X108633052Y-80484209D01*
X108485455Y-80294577D01*
X108308661Y-80131826D01*
X108308659Y-80131825D01*
X108281538Y-80114105D01*
X108236183Y-80060958D01*
X108226761Y-79991727D01*
X108256264Y-79928391D01*
X108281536Y-79906493D01*
X108308969Y-79888571D01*
X108485825Y-79725764D01*
X108633472Y-79536067D01*
X108747882Y-79324656D01*
X108825934Y-79097297D01*
X108865500Y-78860192D01*
X108865500Y-78619808D01*
X108825934Y-78382703D01*
X108747882Y-78155344D01*
X108633472Y-77943933D01*
X108633470Y-77943930D01*
X108633466Y-77943924D01*
X108485830Y-77754242D01*
X108485827Y-77754239D01*
X108485825Y-77754236D01*
X108308969Y-77591429D01*
X108281995Y-77573806D01*
X108236641Y-77520663D01*
X108227217Y-77451432D01*
X108256718Y-77388096D01*
X108281992Y-77366195D01*
X108308969Y-77348571D01*
X108485825Y-77185764D01*
X108633472Y-76996067D01*
X108747882Y-76784656D01*
X108825934Y-76557297D01*
X108844794Y-76444274D01*
X108875243Y-76381392D01*
X108934858Y-76344952D01*
X109004709Y-76346526D01*
G37*
%TD.AperFunction*%
%TA.AperFunction,Conductor*%
G36*
X126930367Y-43680501D02*
G01*
X126999999Y-43680501D01*
X127505695Y-43698562D01*
X127510093Y-43698877D01*
X128011023Y-43752731D01*
X128015373Y-43753357D01*
X128511204Y-43842815D01*
X128515476Y-43843744D01*
X129003670Y-43968348D01*
X129007890Y-43969588D01*
X129485897Y-44128684D01*
X129485900Y-44128685D01*
X129490049Y-44130232D01*
X129955510Y-44323032D01*
X129959514Y-44324861D01*
X130410037Y-44550376D01*
X130413912Y-44552492D01*
X130847194Y-44809570D01*
X130850887Y-44811942D01*
X131200368Y-45054591D01*
X131264741Y-45099286D01*
X131268277Y-45101933D01*
X131644240Y-45404904D01*
X131660548Y-45418046D01*
X131663894Y-45420945D01*
X132032624Y-45764244D01*
X132035755Y-45767375D01*
X132379054Y-46136105D01*
X132381953Y-46139451D01*
X132698059Y-46531713D01*
X132700713Y-46535258D01*
X132988052Y-46949105D01*
X132990433Y-46952811D01*
X133247505Y-47386084D01*
X133249627Y-47389970D01*
X133464495Y-47819223D01*
X133475131Y-47840470D01*
X133476970Y-47844497D01*
X133669767Y-48309950D01*
X133671314Y-48314099D01*
X133830408Y-48792101D01*
X133831655Y-48796348D01*
X133956250Y-49284502D01*
X133957188Y-49288815D01*
X134046639Y-49784607D01*
X134047269Y-49788989D01*
X134101122Y-50289906D01*
X134101438Y-50294322D01*
X134107462Y-50462975D01*
X134119499Y-50800000D01*
X134119499Y-76187722D01*
X134119498Y-101585464D01*
X134119499Y-101599994D01*
X134101438Y-102105677D01*
X134101122Y-102110093D01*
X134047269Y-102611010D01*
X134046639Y-102615392D01*
X133957188Y-103111184D01*
X133956248Y-103115502D01*
X133915000Y-103277112D01*
X133831656Y-103603650D01*
X133830408Y-103607898D01*
X133671314Y-104085900D01*
X133669767Y-104090049D01*
X133476970Y-104555502D01*
X133475131Y-104559529D01*
X133249627Y-105010029D01*
X133247505Y-105013915D01*
X132990433Y-105447188D01*
X132988044Y-105450906D01*
X132988041Y-105450912D01*
X132988040Y-105450913D01*
X132700713Y-105864741D01*
X132698059Y-105868286D01*
X132381953Y-106260548D01*
X132379054Y-106263894D01*
X132035755Y-106632624D01*
X132032624Y-106635755D01*
X131663894Y-106979054D01*
X131660548Y-106981953D01*
X131268286Y-107298059D01*
X131264741Y-107300713D01*
X130850913Y-107588040D01*
X130847188Y-107590433D01*
X130413915Y-107847505D01*
X130410029Y-107849627D01*
X129959529Y-108075131D01*
X129955502Y-108076970D01*
X129490049Y-108269767D01*
X129485900Y-108271314D01*
X129007898Y-108430408D01*
X129003650Y-108431656D01*
X128780423Y-108488631D01*
X128515502Y-108556248D01*
X128511184Y-108557188D01*
X128015392Y-108646639D01*
X128011010Y-108647269D01*
X127510093Y-108701122D01*
X127505677Y-108701438D01*
X126999999Y-108719499D01*
X126930367Y-108719499D01*
X126930351Y-108719500D01*
X50800000Y-108719500D01*
X50294321Y-108701439D01*
X50289905Y-108701123D01*
X49788989Y-108647270D01*
X49784607Y-108646640D01*
X49288814Y-108557189D01*
X49284501Y-108556251D01*
X48796347Y-108431656D01*
X48792100Y-108430409D01*
X48314098Y-108271315D01*
X48309949Y-108269768D01*
X47844496Y-108076971D01*
X47840469Y-108075132D01*
X47389969Y-107849628D01*
X47386083Y-107847506D01*
X46952812Y-107590434D01*
X46949087Y-107588041D01*
X46535267Y-107300719D01*
X46531723Y-107298066D01*
X46279490Y-107094805D01*
X46139433Y-106981940D01*
X46136096Y-106979048D01*
X45767374Y-106635756D01*
X45764243Y-106632625D01*
X45420951Y-106263903D01*
X45418061Y-106260568D01*
X45253452Y-106056301D01*
X45101933Y-105868276D01*
X45099280Y-105864732D01*
X45053405Y-105798660D01*
X44811949Y-105450899D01*
X44809565Y-105447187D01*
X44552493Y-105013916D01*
X44552492Y-105013915D01*
X44552491Y-105013913D01*
X44550371Y-105010030D01*
X44324860Y-104559515D01*
X44323028Y-104555503D01*
X44298875Y-104497192D01*
X61814500Y-104497192D01*
X61829326Y-104638256D01*
X61829327Y-104638259D01*
X61887818Y-104818277D01*
X61887821Y-104818284D01*
X61982467Y-104982216D01*
X62075181Y-105085185D01*
X62109129Y-105122888D01*
X62262265Y-105234148D01*
X62262270Y-105234151D01*
X62435192Y-105311142D01*
X62435197Y-105311144D01*
X62620354Y-105350500D01*
X62620355Y-105350500D01*
X62809644Y-105350500D01*
X62809646Y-105350500D01*
X62994803Y-105311144D01*
X63167730Y-105234151D01*
X63267114Y-105161944D01*
X63332921Y-105138464D01*
X63400975Y-105154289D01*
X63412885Y-105161944D01*
X63512265Y-105234148D01*
X63512270Y-105234151D01*
X63685192Y-105311142D01*
X63685197Y-105311144D01*
X63870354Y-105350500D01*
X63870355Y-105350500D01*
X64059644Y-105350500D01*
X64059646Y-105350500D01*
X64244803Y-105311144D01*
X64417730Y-105234151D01*
X64517116Y-105161942D01*
X64582919Y-105138464D01*
X64650973Y-105154289D01*
X64662884Y-105161944D01*
X64762265Y-105234148D01*
X64762270Y-105234151D01*
X64935192Y-105311142D01*
X64935197Y-105311144D01*
X65120354Y-105350500D01*
X65120355Y-105350500D01*
X65309644Y-105350500D01*
X65309646Y-105350500D01*
X65494803Y-105311144D01*
X65667730Y-105234151D01*
X65767114Y-105161944D01*
X65832921Y-105138464D01*
X65900975Y-105154289D01*
X65912885Y-105161944D01*
X66012265Y-105234148D01*
X66012270Y-105234151D01*
X66185192Y-105311142D01*
X66185197Y-105311144D01*
X66370354Y-105350500D01*
X66370355Y-105350500D01*
X66559644Y-105350500D01*
X66559646Y-105350500D01*
X66744803Y-105311144D01*
X66917730Y-105234151D01*
X67017116Y-105161942D01*
X67082919Y-105138464D01*
X67150973Y-105154289D01*
X67162884Y-105161944D01*
X67262265Y-105234148D01*
X67262270Y-105234151D01*
X67435192Y-105311142D01*
X67435197Y-105311144D01*
X67620354Y-105350500D01*
X67620355Y-105350500D01*
X67809644Y-105350500D01*
X67809646Y-105350500D01*
X67994803Y-105311144D01*
X68167730Y-105234151D01*
X68267114Y-105161944D01*
X68332921Y-105138464D01*
X68400975Y-105154289D01*
X68412885Y-105161944D01*
X68512265Y-105234148D01*
X68512270Y-105234151D01*
X68685192Y-105311142D01*
X68685197Y-105311144D01*
X68870354Y-105350500D01*
X68870355Y-105350500D01*
X69059644Y-105350500D01*
X69059646Y-105350500D01*
X69244803Y-105311144D01*
X69417730Y-105234151D01*
X69517114Y-105161944D01*
X69582921Y-105138464D01*
X69650975Y-105154289D01*
X69662885Y-105161944D01*
X69762265Y-105234148D01*
X69762270Y-105234151D01*
X69935192Y-105311142D01*
X69935197Y-105311144D01*
X70120354Y-105350500D01*
X70120355Y-105350500D01*
X70309644Y-105350500D01*
X70309646Y-105350500D01*
X70494803Y-105311144D01*
X70667730Y-105234151D01*
X70696295Y-105213397D01*
X70762099Y-105189916D01*
X70830153Y-105205740D01*
X70833305Y-105207582D01*
X70975394Y-105293478D01*
X71137804Y-105344086D01*
X71208384Y-105350500D01*
X71208387Y-105350500D01*
X71721613Y-105350500D01*
X71721616Y-105350500D01*
X71792196Y-105344086D01*
X71954606Y-105293478D01*
X72100185Y-105205472D01*
X72220472Y-105085185D01*
X72308478Y-104939606D01*
X72359086Y-104777196D01*
X72365500Y-104706616D01*
X72365500Y-103693384D01*
X72359086Y-103622804D01*
X72308478Y-103460394D01*
X72220472Y-103314815D01*
X72220470Y-103314813D01*
X72220469Y-103314811D01*
X72100188Y-103194530D01*
X72096666Y-103192401D01*
X71954606Y-103106522D01*
X71792196Y-103055914D01*
X71792194Y-103055913D01*
X71792192Y-103055913D01*
X71742778Y-103051423D01*
X71721616Y-103049500D01*
X71208384Y-103049500D01*
X71189144Y-103051248D01*
X71137807Y-103055913D01*
X70975391Y-103106523D01*
X70833330Y-103192401D01*
X70765775Y-103210237D01*
X70699302Y-103188719D01*
X70696297Y-103186603D01*
X70667733Y-103165851D01*
X70667729Y-103165848D01*
X70494807Y-103088857D01*
X70494802Y-103088855D01*
X70339817Y-103055913D01*
X70309646Y-103049500D01*
X70120354Y-103049500D01*
X70090183Y-103055913D01*
X69935197Y-103088855D01*
X69935192Y-103088857D01*
X69762271Y-103165848D01*
X69662885Y-103238056D01*
X69597078Y-103261535D01*
X69529025Y-103245709D01*
X69517115Y-103238056D01*
X69449208Y-103188719D01*
X69417730Y-103165849D01*
X69417728Y-103165848D01*
X69417729Y-103165848D01*
X69244807Y-103088857D01*
X69244802Y-103088855D01*
X69089817Y-103055913D01*
X69059646Y-103049500D01*
X68870354Y-103049500D01*
X68840183Y-103055913D01*
X68685197Y-103088855D01*
X68685192Y-103088857D01*
X68512271Y-103165848D01*
X68412885Y-103238056D01*
X68347078Y-103261535D01*
X68279025Y-103245709D01*
X68267115Y-103238056D01*
X68199208Y-103188719D01*
X68167730Y-103165849D01*
X68167728Y-103165848D01*
X68167729Y-103165848D01*
X67994807Y-103088857D01*
X67994802Y-103088855D01*
X67839817Y-103055913D01*
X67809646Y-103049500D01*
X67620354Y-103049500D01*
X67590183Y-103055913D01*
X67435197Y-103088855D01*
X67435192Y-103088857D01*
X67262271Y-103165848D01*
X67162885Y-103238056D01*
X67097078Y-103261535D01*
X67029025Y-103245709D01*
X67017115Y-103238056D01*
X66949208Y-103188719D01*
X66917730Y-103165849D01*
X66917728Y-103165848D01*
X66917729Y-103165848D01*
X66744807Y-103088857D01*
X66744802Y-103088855D01*
X66589817Y-103055913D01*
X66559646Y-103049500D01*
X66370354Y-103049500D01*
X66340183Y-103055913D01*
X66185197Y-103088855D01*
X66185192Y-103088857D01*
X66012271Y-103165848D01*
X65912885Y-103238056D01*
X65847078Y-103261535D01*
X65779025Y-103245709D01*
X65767115Y-103238056D01*
X65699208Y-103188719D01*
X65667730Y-103165849D01*
X65667728Y-103165848D01*
X65667729Y-103165848D01*
X65494807Y-103088857D01*
X65494802Y-103088855D01*
X65339817Y-103055913D01*
X65309646Y-103049500D01*
X65120354Y-103049500D01*
X65090183Y-103055913D01*
X64935197Y-103088855D01*
X64935192Y-103088857D01*
X64762271Y-103165848D01*
X64662885Y-103238056D01*
X64597078Y-103261535D01*
X64529025Y-103245709D01*
X64517115Y-103238056D01*
X64449208Y-103188719D01*
X64417730Y-103165849D01*
X64417728Y-103165848D01*
X64417729Y-103165848D01*
X64244807Y-103088857D01*
X64244802Y-103088855D01*
X64089817Y-103055913D01*
X64059646Y-103049500D01*
X63870354Y-103049500D01*
X63840183Y-103055913D01*
X63685197Y-103088855D01*
X63685192Y-103088857D01*
X63512271Y-103165848D01*
X63412885Y-103238056D01*
X63347078Y-103261535D01*
X63279025Y-103245709D01*
X63267115Y-103238056D01*
X63199208Y-103188719D01*
X63167730Y-103165849D01*
X63167728Y-103165848D01*
X63167729Y-103165848D01*
X62994807Y-103088857D01*
X62994802Y-103088855D01*
X62839817Y-103055913D01*
X62809646Y-103049500D01*
X62620354Y-103049500D01*
X62590183Y-103055913D01*
X62435197Y-103088855D01*
X62435192Y-103088857D01*
X62262270Y-103165848D01*
X62262265Y-103165851D01*
X62109129Y-103277111D01*
X61982466Y-103417785D01*
X61887821Y-103581715D01*
X61887818Y-103581722D01*
X61829327Y-103761740D01*
X61829326Y-103761744D01*
X61814500Y-103902808D01*
X61814500Y-104497192D01*
X44298875Y-104497192D01*
X44130231Y-104090050D01*
X44128684Y-104085901D01*
X44067745Y-103902808D01*
X43969587Y-103607891D01*
X43968347Y-103603671D01*
X43843743Y-103115477D01*
X43842814Y-103111205D01*
X43753356Y-102615373D01*
X43752729Y-102611010D01*
X43747952Y-102566580D01*
X43698876Y-102110093D01*
X43698561Y-102105696D01*
X43682920Y-101667763D01*
X48945787Y-101667763D01*
X48975413Y-101937013D01*
X48975415Y-101937024D01*
X49043926Y-102199082D01*
X49043928Y-102199088D01*
X49149870Y-102448390D01*
X49221998Y-102566575D01*
X49290979Y-102679605D01*
X49290986Y-102679615D01*
X49464253Y-102887819D01*
X49464259Y-102887824D01*
X49569240Y-102981887D01*
X49665998Y-103068582D01*
X49891910Y-103218044D01*
X50137176Y-103333020D01*
X50137183Y-103333022D01*
X50137185Y-103333023D01*
X50396557Y-103411057D01*
X50396564Y-103411058D01*
X50396569Y-103411060D01*
X50664561Y-103450500D01*
X50664566Y-103450500D01*
X50867636Y-103450500D01*
X50919133Y-103446730D01*
X51070156Y-103435677D01*
X51182758Y-103410593D01*
X51334546Y-103376782D01*
X51334548Y-103376781D01*
X51334553Y-103376780D01*
X51587558Y-103280014D01*
X51823777Y-103147441D01*
X52038177Y-102981888D01*
X52226186Y-102786881D01*
X52383799Y-102566579D01*
X52457787Y-102422669D01*
X52507649Y-102325690D01*
X52507651Y-102325684D01*
X52507656Y-102325675D01*
X52595118Y-102069305D01*
X52644319Y-101802933D01*
X52649259Y-101667763D01*
X125145787Y-101667763D01*
X125175413Y-101937013D01*
X125175415Y-101937024D01*
X125243926Y-102199082D01*
X125243928Y-102199088D01*
X125349870Y-102448390D01*
X125421998Y-102566575D01*
X125490979Y-102679605D01*
X125490986Y-102679615D01*
X125664253Y-102887819D01*
X125664259Y-102887824D01*
X125769240Y-102981887D01*
X125865998Y-103068582D01*
X126091910Y-103218044D01*
X126337176Y-103333020D01*
X126337183Y-103333022D01*
X126337185Y-103333023D01*
X126596557Y-103411057D01*
X126596564Y-103411058D01*
X126596569Y-103411060D01*
X126864561Y-103450500D01*
X126864566Y-103450500D01*
X127067636Y-103450500D01*
X127119133Y-103446730D01*
X127270156Y-103435677D01*
X127382758Y-103410593D01*
X127534546Y-103376782D01*
X127534548Y-103376781D01*
X127534553Y-103376780D01*
X127787558Y-103280014D01*
X128023777Y-103147441D01*
X128238177Y-102981888D01*
X128426186Y-102786881D01*
X128583799Y-102566579D01*
X128657787Y-102422669D01*
X128707649Y-102325690D01*
X128707651Y-102325684D01*
X128707656Y-102325675D01*
X128795118Y-102069305D01*
X128844319Y-101802933D01*
X128854212Y-101532235D01*
X128824586Y-101262982D01*
X128756072Y-101000912D01*
X128650130Y-100751610D01*
X128509018Y-100520390D01*
X128419747Y-100413119D01*
X128335746Y-100312180D01*
X128335740Y-100312175D01*
X128134002Y-100131418D01*
X127908092Y-99981957D01*
X127908090Y-99981956D01*
X127662824Y-99866980D01*
X127662819Y-99866978D01*
X127662814Y-99866976D01*
X127403442Y-99788942D01*
X127403428Y-99788939D01*
X127287791Y-99771921D01*
X127135439Y-99749500D01*
X126932369Y-99749500D01*
X126932364Y-99749500D01*
X126729844Y-99764323D01*
X126729831Y-99764325D01*
X126465453Y-99823217D01*
X126465446Y-99823220D01*
X126212439Y-99919987D01*
X125976226Y-100052557D01*
X125761822Y-100218112D01*
X125573822Y-100413109D01*
X125573816Y-100413116D01*
X125416202Y-100633419D01*
X125416199Y-100633424D01*
X125292350Y-100874309D01*
X125292343Y-100874327D01*
X125204884Y-101130685D01*
X125204881Y-101130699D01*
X125155681Y-101397068D01*
X125155680Y-101397075D01*
X125145787Y-101667763D01*
X52649259Y-101667763D01*
X52654212Y-101532235D01*
X52624586Y-101262982D01*
X52556072Y-101000912D01*
X52450130Y-100751610D01*
X52309018Y-100520390D01*
X52219747Y-100413119D01*
X52135746Y-100312180D01*
X52135740Y-100312175D01*
X51934002Y-100131418D01*
X51708092Y-99981957D01*
X51708090Y-99981956D01*
X51462824Y-99866980D01*
X51462819Y-99866978D01*
X51462814Y-99866976D01*
X51203442Y-99788942D01*
X51203428Y-99788939D01*
X51087791Y-99771921D01*
X50935439Y-99749500D01*
X50732369Y-99749500D01*
X50732364Y-99749500D01*
X50529844Y-99764323D01*
X50529831Y-99764325D01*
X50265453Y-99823217D01*
X50265446Y-99823220D01*
X50012439Y-99919987D01*
X49776226Y-100052557D01*
X49561822Y-100218112D01*
X49373822Y-100413109D01*
X49373816Y-100413116D01*
X49216202Y-100633419D01*
X49216199Y-100633424D01*
X49092350Y-100874309D01*
X49092343Y-100874327D01*
X49004884Y-101130685D01*
X49004881Y-101130699D01*
X48955681Y-101397068D01*
X48955680Y-101397075D01*
X48945787Y-101667763D01*
X43682920Y-101667763D01*
X43680500Y-101600000D01*
X43680500Y-101534108D01*
X43680500Y-101534107D01*
X43680500Y-90180001D01*
X45694532Y-90180001D01*
X45714364Y-90406686D01*
X45714366Y-90406697D01*
X45773258Y-90626488D01*
X45773261Y-90626497D01*
X45869431Y-90832732D01*
X45869432Y-90832734D01*
X45999954Y-91019141D01*
X46160858Y-91180045D01*
X46160861Y-91180047D01*
X46347266Y-91310568D01*
X46553504Y-91406739D01*
X46773308Y-91465635D01*
X46935230Y-91479801D01*
X46999998Y-91485468D01*
X47000000Y-91485468D01*
X47000002Y-91485468D01*
X47056672Y-91480509D01*
X47226692Y-91465635D01*
X47446496Y-91406739D01*
X47652734Y-91310568D01*
X47839139Y-91180047D01*
X48000047Y-91019139D01*
X48130568Y-90832734D01*
X48226739Y-90626496D01*
X48285635Y-90406692D01*
X48305468Y-90180001D01*
X53314532Y-90180001D01*
X53334364Y-90406686D01*
X53334366Y-90406697D01*
X53393258Y-90626488D01*
X53393261Y-90626497D01*
X53489431Y-90832732D01*
X53489432Y-90832734D01*
X53619954Y-91019141D01*
X53780858Y-91180045D01*
X53780861Y-91180047D01*
X53967266Y-91310568D01*
X54173504Y-91406739D01*
X54393308Y-91465635D01*
X54555230Y-91479801D01*
X54619998Y-91485468D01*
X54620000Y-91485468D01*
X54620002Y-91485468D01*
X54676673Y-91480509D01*
X54846692Y-91465635D01*
X55066496Y-91406739D01*
X55272734Y-91310568D01*
X55459139Y-91180047D01*
X55620047Y-91019139D01*
X55750568Y-90832734D01*
X55812463Y-90700000D01*
X59164341Y-90700000D01*
X59184936Y-90935403D01*
X59184938Y-90935413D01*
X59246094Y-91163655D01*
X59246096Y-91163659D01*
X59246097Y-91163663D01*
X59253737Y-91180047D01*
X59345964Y-91377828D01*
X59345965Y-91377830D01*
X59481505Y-91571402D01*
X59648597Y-91738494D01*
X59842169Y-91874034D01*
X59842171Y-91874035D01*
X60056337Y-91973903D01*
X60284592Y-92035063D01*
X60461034Y-92050500D01*
X60578966Y-92050500D01*
X60755408Y-92035063D01*
X60983663Y-91973903D01*
X61197829Y-91874035D01*
X61391401Y-91738495D01*
X61558495Y-91571401D01*
X61694035Y-91377830D01*
X61793903Y-91163663D01*
X61855063Y-90935408D01*
X61875659Y-90700000D01*
X61855063Y-90464592D01*
X61793903Y-90236337D01*
X61694035Y-90022171D01*
X61694034Y-90022169D01*
X61558494Y-89828597D01*
X61391402Y-89661505D01*
X61197830Y-89525965D01*
X61197828Y-89525964D01*
X61090746Y-89476030D01*
X60983663Y-89426097D01*
X60983659Y-89426096D01*
X60983655Y-89426094D01*
X60755413Y-89364938D01*
X60755403Y-89364936D01*
X60578966Y-89349500D01*
X60461034Y-89349500D01*
X60284596Y-89364936D01*
X60284586Y-89364938D01*
X60056344Y-89426094D01*
X60056335Y-89426098D01*
X59842171Y-89525964D01*
X59842169Y-89525965D01*
X59648597Y-89661505D01*
X59481506Y-89828597D01*
X59481501Y-89828604D01*
X59345967Y-90022165D01*
X59345965Y-90022169D01*
X59246098Y-90236335D01*
X59246094Y-90236344D01*
X59184938Y-90464586D01*
X59184936Y-90464596D01*
X59164341Y-90699999D01*
X59164341Y-90700000D01*
X55812463Y-90700000D01*
X55846739Y-90626496D01*
X55905635Y-90406692D01*
X55925468Y-90180000D01*
X55905635Y-89953308D01*
X55905632Y-89953298D01*
X55904694Y-89947974D01*
X55907184Y-89947534D01*
X55908491Y-89888363D01*
X55938985Y-89838235D01*
X56352542Y-89424678D01*
X56355234Y-89422144D01*
X56401020Y-89381583D01*
X56435767Y-89331242D01*
X56437973Y-89328245D01*
X56468217Y-89289640D01*
X56473162Y-89284058D01*
X58669902Y-87087319D01*
X58731226Y-87053834D01*
X58757584Y-87051000D01*
X59909100Y-87051000D01*
X59976139Y-87070685D01*
X59996781Y-87087319D01*
X63634004Y-90724542D01*
X63636540Y-90727236D01*
X63660794Y-90754613D01*
X63677101Y-90773020D01*
X63727439Y-90807767D01*
X63730439Y-90809974D01*
X63778578Y-90847688D01*
X63787549Y-90851725D01*
X63807104Y-90862754D01*
X63815202Y-90868344D01*
X63872379Y-90890028D01*
X63875833Y-90891459D01*
X63931599Y-90916557D01*
X63941280Y-90918331D01*
X63962902Y-90924359D01*
X63972100Y-90927847D01*
X63972101Y-90927848D01*
X63988904Y-90929888D01*
X64032807Y-90935218D01*
X64036502Y-90935781D01*
X64064339Y-90940882D01*
X64096656Y-90946805D01*
X64096656Y-90946804D01*
X64096657Y-90946805D01*
X64157692Y-90943113D01*
X64161437Y-90943000D01*
X67205247Y-90943000D01*
X67208992Y-90943113D01*
X67270026Y-90946805D01*
X67270026Y-90946804D01*
X67270028Y-90946805D01*
X67330185Y-90935779D01*
X67333870Y-90935219D01*
X67394582Y-90927848D01*
X67403788Y-90924356D01*
X67425403Y-90918330D01*
X67435085Y-90916557D01*
X67490865Y-90891451D01*
X67494281Y-90890037D01*
X67551482Y-90868344D01*
X67559579Y-90862754D01*
X67579139Y-90851722D01*
X67588105Y-90847688D01*
X67636249Y-90809968D01*
X67639255Y-90807757D01*
X67689583Y-90773020D01*
X67730144Y-90727234D01*
X67732678Y-90724542D01*
X82257221Y-76200000D01*
X95164341Y-76200000D01*
X95184936Y-76435403D01*
X95184938Y-76435413D01*
X95246094Y-76663655D01*
X95246096Y-76663659D01*
X95246097Y-76663663D01*
X95296031Y-76770745D01*
X95345964Y-76877828D01*
X95345965Y-76877830D01*
X95481505Y-77071402D01*
X95648597Y-77238494D01*
X95842169Y-77374034D01*
X95842171Y-77374035D01*
X96056337Y-77473903D01*
X96284592Y-77535063D01*
X96461034Y-77550500D01*
X96578966Y-77550500D01*
X96755408Y-77535063D01*
X96983663Y-77473903D01*
X97197829Y-77374035D01*
X97391401Y-77238495D01*
X97558495Y-77071401D01*
X97694035Y-76877830D01*
X97793903Y-76663663D01*
X97855063Y-76435408D01*
X97875659Y-76200000D01*
X97855063Y-75964592D01*
X97793903Y-75736337D01*
X97694035Y-75522171D01*
X97694034Y-75522169D01*
X97558494Y-75328597D01*
X97391402Y-75161505D01*
X97197830Y-75025965D01*
X97197828Y-75025964D01*
X97031858Y-74948571D01*
X96983663Y-74926097D01*
X96983659Y-74926096D01*
X96983655Y-74926094D01*
X96755413Y-74864938D01*
X96755403Y-74864936D01*
X96578966Y-74849500D01*
X96461034Y-74849500D01*
X96284596Y-74864936D01*
X96284586Y-74864938D01*
X96056344Y-74926094D01*
X96056335Y-74926098D01*
X95842171Y-75025964D01*
X95842169Y-75025965D01*
X95648597Y-75161505D01*
X95481506Y-75328597D01*
X95481501Y-75328604D01*
X95345967Y-75522165D01*
X95345965Y-75522169D01*
X95246098Y-75736335D01*
X95246094Y-75736344D01*
X95184938Y-75964586D01*
X95184936Y-75964596D01*
X95164341Y-76199999D01*
X95164341Y-76200000D01*
X82257221Y-76200000D01*
X86609902Y-71847319D01*
X86671225Y-71813834D01*
X86697583Y-71811000D01*
X105865781Y-71811000D01*
X105932820Y-71830685D01*
X105974836Y-71875984D01*
X105996523Y-71916060D01*
X105996533Y-71916075D01*
X106144169Y-72105757D01*
X106144171Y-72105759D01*
X106144175Y-72105764D01*
X106321031Y-72268571D01*
X106344883Y-72284154D01*
X106348003Y-72286193D01*
X106393358Y-72339340D01*
X106402780Y-72408571D01*
X106373277Y-72471907D01*
X106348003Y-72493807D01*
X106321031Y-72511429D01*
X106321029Y-72511430D01*
X106144172Y-72674239D01*
X106144169Y-72674242D01*
X105996533Y-72863924D01*
X105996529Y-72863930D01*
X105882118Y-73075342D01*
X105882116Y-73075347D01*
X105804066Y-73302699D01*
X105764500Y-73539809D01*
X105764500Y-73780190D01*
X105804066Y-74017300D01*
X105882116Y-74244652D01*
X105882118Y-74244657D01*
X105996529Y-74456069D01*
X105996533Y-74456075D01*
X106144169Y-74645757D01*
X106144171Y-74645759D01*
X106144175Y-74645764D01*
X106321031Y-74808571D01*
X106344883Y-74824154D01*
X106348003Y-74826193D01*
X106393358Y-74879340D01*
X106402780Y-74948571D01*
X106373277Y-75011907D01*
X106348003Y-75033807D01*
X106321031Y-75051429D01*
X106321029Y-75051430D01*
X106144172Y-75214239D01*
X106144169Y-75214242D01*
X105996533Y-75403924D01*
X105996529Y-75403930D01*
X105882118Y-75615342D01*
X105882116Y-75615347D01*
X105804066Y-75842699D01*
X105772413Y-76032387D01*
X105764500Y-76079808D01*
X105764500Y-76320192D01*
X105774713Y-76381392D01*
X105804066Y-76557300D01*
X105882116Y-76784652D01*
X105882118Y-76784657D01*
X105996529Y-76996069D01*
X105996533Y-76996075D01*
X106144169Y-77185757D01*
X106144171Y-77185759D01*
X106144175Y-77185764D01*
X106321031Y-77348571D01*
X106344883Y-77364154D01*
X106348003Y-77366193D01*
X106393358Y-77419340D01*
X106402780Y-77488571D01*
X106373277Y-77551907D01*
X106348003Y-77573807D01*
X106321031Y-77591429D01*
X106321029Y-77591430D01*
X106144172Y-77754239D01*
X106144169Y-77754242D01*
X105996533Y-77943924D01*
X105996523Y-77943939D01*
X105974836Y-77984016D01*
X105925618Y-78033607D01*
X105865781Y-78049000D01*
X105368202Y-78049000D01*
X105243420Y-78064151D01*
X105243414Y-78064152D01*
X105086517Y-78123656D01*
X105086516Y-78123657D01*
X104948417Y-78218979D01*
X104837141Y-78344585D01*
X104759158Y-78493169D01*
X104718999Y-78656097D01*
X104718999Y-78823902D01*
X104759158Y-78986830D01*
X104759158Y-78986831D01*
X104759159Y-78986832D01*
X104837142Y-79135416D01*
X104948417Y-79261020D01*
X105086518Y-79356344D01*
X105172119Y-79388808D01*
X105243414Y-79415847D01*
X105243416Y-79415847D01*
X105243418Y-79415848D01*
X105305810Y-79423424D01*
X105368202Y-79431000D01*
X105368204Y-79431000D01*
X105865781Y-79431000D01*
X105932820Y-79450685D01*
X105974836Y-79495984D01*
X105996523Y-79536060D01*
X105996533Y-79536075D01*
X106144169Y-79725757D01*
X106144171Y-79725759D01*
X106144175Y-79725764D01*
X106321031Y-79888571D01*
X106348460Y-79906491D01*
X106393815Y-79959635D01*
X106403239Y-80028866D01*
X106373738Y-80092202D01*
X106348462Y-80114104D01*
X106321344Y-80131822D01*
X106321338Y-80131826D01*
X106144544Y-80294577D01*
X105996947Y-80484209D01*
X105882578Y-80695544D01*
X105882576Y-80695550D01*
X105804553Y-80922823D01*
X105786669Y-81029999D01*
X105786670Y-81030000D01*
X106869428Y-81030000D01*
X106846318Y-81065960D01*
X106805000Y-81206673D01*
X106805000Y-81353327D01*
X106846318Y-81494040D01*
X106869428Y-81530000D01*
X105786669Y-81530000D01*
X105804553Y-81637176D01*
X105882576Y-81864449D01*
X105882578Y-81864455D01*
X105996947Y-82075790D01*
X106144544Y-82265422D01*
X106321344Y-82428178D01*
X106348458Y-82445893D01*
X106393815Y-82499039D01*
X106403238Y-82568270D01*
X106373736Y-82631606D01*
X106348459Y-82653509D01*
X106321031Y-82671428D01*
X106144172Y-82834239D01*
X106144169Y-82834242D01*
X105996533Y-83023924D01*
X105996529Y-83023930D01*
X105882118Y-83235342D01*
X105882116Y-83235347D01*
X105804066Y-83462699D01*
X105780766Y-83602331D01*
X105764500Y-83699808D01*
X105764500Y-83940192D01*
X105780326Y-84035033D01*
X105804066Y-84177300D01*
X105882116Y-84404652D01*
X105882118Y-84404657D01*
X105996529Y-84616069D01*
X105996533Y-84616075D01*
X106144169Y-84805757D01*
X106144171Y-84805759D01*
X106144175Y-84805764D01*
X106321031Y-84968571D01*
X106344883Y-84984154D01*
X106348003Y-84986193D01*
X106393358Y-85039340D01*
X106402780Y-85108571D01*
X106373277Y-85171907D01*
X106348003Y-85193807D01*
X106321031Y-85211429D01*
X106321029Y-85211430D01*
X106144172Y-85374239D01*
X106144169Y-85374242D01*
X105996533Y-85563924D01*
X105996529Y-85563930D01*
X105882118Y-85775342D01*
X105882116Y-85775347D01*
X105804066Y-86002699D01*
X105787822Y-86100045D01*
X105764500Y-86239808D01*
X105764500Y-86480192D01*
X105780326Y-86575034D01*
X105804066Y-86717300D01*
X105882116Y-86944652D01*
X105882118Y-86944657D01*
X105996529Y-87156069D01*
X105996533Y-87156075D01*
X106144169Y-87345757D01*
X106144171Y-87345759D01*
X106144175Y-87345764D01*
X106321031Y-87508571D01*
X106321033Y-87508572D01*
X106522198Y-87640001D01*
X106522272Y-87640049D01*
X106742409Y-87736610D01*
X106975437Y-87795620D01*
X107155010Y-87810500D01*
X107155012Y-87810500D01*
X107474988Y-87810500D01*
X107474990Y-87810500D01*
X107654563Y-87795620D01*
X107681086Y-87788903D01*
X107750900Y-87791526D01*
X107799205Y-87821427D01*
X118930820Y-98953042D01*
X118933356Y-98955736D01*
X118973916Y-99001520D01*
X118973917Y-99001520D01*
X119024255Y-99036267D01*
X119027255Y-99038474D01*
X119075394Y-99076188D01*
X119084365Y-99080225D01*
X119103920Y-99091254D01*
X119112018Y-99096844D01*
X119169195Y-99118528D01*
X119172649Y-99119959D01*
X119228415Y-99145057D01*
X119238096Y-99146831D01*
X119259718Y-99152859D01*
X119268916Y-99156347D01*
X119268917Y-99156348D01*
X119278180Y-99157472D01*
X119329635Y-99163720D01*
X119333306Y-99164279D01*
X119393471Y-99175305D01*
X119450543Y-99171852D01*
X119454507Y-99171613D01*
X119458252Y-99171500D01*
X131708262Y-99171500D01*
X131712007Y-99171613D01*
X131773041Y-99175305D01*
X131773041Y-99175304D01*
X131773043Y-99175305D01*
X131833200Y-99164279D01*
X131836885Y-99163719D01*
X131897597Y-99156348D01*
X131906803Y-99152856D01*
X131928418Y-99146830D01*
X131938100Y-99145057D01*
X131993880Y-99119951D01*
X131997296Y-99118537D01*
X132054497Y-99096844D01*
X132062594Y-99091254D01*
X132082154Y-99080222D01*
X132091120Y-99076188D01*
X132139264Y-99038468D01*
X132142270Y-99036257D01*
X132192598Y-99001520D01*
X132233159Y-98955734D01*
X132235693Y-98953042D01*
X132608042Y-98580693D01*
X132610734Y-98578159D01*
X132656520Y-98537598D01*
X132691259Y-98487269D01*
X132693462Y-98484273D01*
X132731188Y-98436121D01*
X132735229Y-98427141D01*
X132746250Y-98407599D01*
X132751844Y-98399497D01*
X132773531Y-98342311D01*
X132774951Y-98338880D01*
X132800057Y-98283100D01*
X132801830Y-98273418D01*
X132807856Y-98251803D01*
X132811348Y-98242597D01*
X132818719Y-98181885D01*
X132819281Y-98178194D01*
X132830304Y-98118047D01*
X132830305Y-98118041D01*
X132826613Y-98057007D01*
X132826500Y-98053262D01*
X132826500Y-90883251D01*
X132826613Y-90879506D01*
X132830305Y-90818472D01*
X132819281Y-90758318D01*
X132818717Y-90754613D01*
X132815395Y-90727254D01*
X132813388Y-90710720D01*
X132811348Y-90693917D01*
X132811347Y-90693916D01*
X132807859Y-90684718D01*
X132801831Y-90663096D01*
X132800057Y-90653415D01*
X132774959Y-90597649D01*
X132773525Y-90594187D01*
X132751844Y-90537019D01*
X132751844Y-90537018D01*
X132746254Y-90528920D01*
X132735225Y-90509365D01*
X132731188Y-90500395D01*
X132731187Y-90500393D01*
X132693474Y-90452255D01*
X132691267Y-90449255D01*
X132656520Y-90398917D01*
X132656520Y-90398916D01*
X132610736Y-90358356D01*
X132608042Y-90355820D01*
X129155581Y-86903359D01*
X129122096Y-86842036D01*
X129125980Y-86775417D01*
X129145934Y-86717297D01*
X129185500Y-86480192D01*
X129185500Y-86239808D01*
X129145934Y-86002703D01*
X129145926Y-86002681D01*
X129067883Y-85775347D01*
X129067881Y-85775342D01*
X128953470Y-85563930D01*
X128953466Y-85563924D01*
X128805830Y-85374242D01*
X128805827Y-85374239D01*
X128805825Y-85374236D01*
X128628969Y-85211429D01*
X128601995Y-85193806D01*
X128556641Y-85140663D01*
X128547217Y-85071432D01*
X128576718Y-85008096D01*
X128601992Y-84986195D01*
X128628969Y-84968571D01*
X128805825Y-84805764D01*
X128945626Y-84626148D01*
X128953466Y-84616075D01*
X128953470Y-84616069D01*
X128953472Y-84616067D01*
X129067882Y-84404656D01*
X129145934Y-84177297D01*
X129185500Y-83940192D01*
X129185500Y-83699808D01*
X129145934Y-83462703D01*
X129127114Y-83407883D01*
X129067883Y-83235347D01*
X129067881Y-83235342D01*
X128953470Y-83023930D01*
X128953466Y-83023924D01*
X128805830Y-82834242D01*
X128805827Y-82834239D01*
X128805825Y-82834236D01*
X128628969Y-82671429D01*
X128601995Y-82653806D01*
X128556641Y-82600663D01*
X128547217Y-82531432D01*
X128576718Y-82468096D01*
X128601992Y-82446195D01*
X128628969Y-82428571D01*
X128805825Y-82265764D01*
X128953472Y-82076067D01*
X129067882Y-81864656D01*
X129145934Y-81637297D01*
X129185500Y-81400192D01*
X129185500Y-81159808D01*
X129145934Y-80922703D01*
X129119790Y-80846549D01*
X129067883Y-80695347D01*
X129067881Y-80695342D01*
X128953470Y-80483930D01*
X128953466Y-80483924D01*
X128805830Y-80294242D01*
X128805827Y-80294239D01*
X128805825Y-80294236D01*
X128628969Y-80131429D01*
X128601995Y-80113806D01*
X128556641Y-80060663D01*
X128547217Y-79991432D01*
X128576718Y-79928096D01*
X128601992Y-79906195D01*
X128628969Y-79888571D01*
X128805825Y-79725764D01*
X128953472Y-79536067D01*
X129067882Y-79324656D01*
X129145934Y-79097297D01*
X129185500Y-78860192D01*
X129185500Y-78619808D01*
X129145934Y-78382703D01*
X129067882Y-78155344D01*
X128953472Y-77943933D01*
X128953470Y-77943930D01*
X128953466Y-77943924D01*
X128805830Y-77754242D01*
X128805827Y-77754239D01*
X128805825Y-77754236D01*
X128628969Y-77591429D01*
X128601995Y-77573806D01*
X128556641Y-77520663D01*
X128547217Y-77451432D01*
X128576718Y-77388096D01*
X128601992Y-77366195D01*
X128628969Y-77348571D01*
X128805825Y-77185764D01*
X128953472Y-76996067D01*
X129067882Y-76784656D01*
X129145934Y-76557297D01*
X129185500Y-76320192D01*
X129185500Y-76079808D01*
X129145934Y-75842703D01*
X129067882Y-75615344D01*
X128953472Y-75403933D01*
X128953470Y-75403930D01*
X128953466Y-75403924D01*
X128805830Y-75214242D01*
X128805827Y-75214239D01*
X128805825Y-75214236D01*
X128628969Y-75051429D01*
X128601995Y-75033806D01*
X128556641Y-74980663D01*
X128547217Y-74911432D01*
X128576718Y-74848096D01*
X128601992Y-74826195D01*
X128628969Y-74808571D01*
X128805825Y-74645764D01*
X128953472Y-74456067D01*
X129067882Y-74244656D01*
X129145934Y-74017297D01*
X129185500Y-73780192D01*
X129185500Y-73539808D01*
X129145934Y-73302703D01*
X129067882Y-73075344D01*
X128953472Y-72863933D01*
X128953470Y-72863930D01*
X128953466Y-72863924D01*
X128805830Y-72674242D01*
X128805827Y-72674239D01*
X128805825Y-72674236D01*
X128628969Y-72511429D01*
X128601995Y-72493806D01*
X128556641Y-72440663D01*
X128547217Y-72371432D01*
X128576718Y-72308096D01*
X128601992Y-72286195D01*
X128628969Y-72268571D01*
X128805825Y-72105764D01*
X128953472Y-71916067D01*
X128975163Y-71875984D01*
X129024382Y-71826393D01*
X129084219Y-71811000D01*
X129517247Y-71811000D01*
X129520992Y-71811113D01*
X129582026Y-71814805D01*
X129582026Y-71814804D01*
X129582028Y-71814805D01*
X129642185Y-71803779D01*
X129645870Y-71803219D01*
X129706582Y-71795848D01*
X129715788Y-71792356D01*
X129737403Y-71786330D01*
X129747085Y-71784557D01*
X129802865Y-71759451D01*
X129806281Y-71758037D01*
X129863482Y-71736344D01*
X129871579Y-71730754D01*
X129891139Y-71719722D01*
X129900105Y-71715688D01*
X129948249Y-71677968D01*
X129951255Y-71675757D01*
X130001583Y-71641020D01*
X130042144Y-71595234D01*
X130044678Y-71592542D01*
X131282542Y-70354678D01*
X131285234Y-70352144D01*
X131331020Y-70311583D01*
X131365759Y-70261254D01*
X131367962Y-70258258D01*
X131405688Y-70210106D01*
X131409729Y-70201126D01*
X131420750Y-70181584D01*
X131426344Y-70173482D01*
X131448031Y-70116296D01*
X131449451Y-70112865D01*
X131474557Y-70057085D01*
X131476330Y-70047403D01*
X131482356Y-70025788D01*
X131485848Y-70016582D01*
X131493219Y-69955870D01*
X131493781Y-69952179D01*
X131504804Y-69892032D01*
X131504805Y-69892026D01*
X131501113Y-69830992D01*
X131501000Y-69827247D01*
X131501000Y-64792751D01*
X131501113Y-64789006D01*
X131504805Y-64727972D01*
X131493781Y-64667818D01*
X131493217Y-64664113D01*
X131492419Y-64657544D01*
X131485848Y-64603418D01*
X131482359Y-64594218D01*
X131476331Y-64572596D01*
X131474557Y-64562915D01*
X131449459Y-64507149D01*
X131448025Y-64503687D01*
X131426344Y-64446519D01*
X131426344Y-64446518D01*
X131420754Y-64438420D01*
X131409725Y-64418865D01*
X131405688Y-64409895D01*
X131405687Y-64409893D01*
X131403798Y-64407482D01*
X131367974Y-64361755D01*
X131365767Y-64358755D01*
X131331020Y-64308417D01*
X131320781Y-64299346D01*
X131285236Y-64267856D01*
X131282542Y-64265320D01*
X130044686Y-63027464D01*
X130042135Y-63024753D01*
X130001583Y-62978980D01*
X129951251Y-62944238D01*
X129948234Y-62942018D01*
X129900108Y-62904314D01*
X129900099Y-62904308D01*
X129891134Y-62900274D01*
X129871586Y-62889250D01*
X129863482Y-62883656D01*
X129863478Y-62883653D01*
X129814689Y-62865150D01*
X129806302Y-62861969D01*
X129802851Y-62860540D01*
X129747081Y-62835441D01*
X129747082Y-62835441D01*
X129737395Y-62833666D01*
X129715792Y-62827644D01*
X129706582Y-62824152D01*
X129645876Y-62816780D01*
X129642177Y-62816217D01*
X129629211Y-62813841D01*
X129582030Y-62805195D01*
X129582025Y-62805195D01*
X129520992Y-62808887D01*
X129517247Y-62809000D01*
X129309499Y-62809000D01*
X129242460Y-62789315D01*
X129196705Y-62736511D01*
X129185499Y-62685000D01*
X129185499Y-62502129D01*
X129185498Y-62502123D01*
X129185497Y-62502116D01*
X129179091Y-62442517D01*
X129154964Y-62377830D01*
X129128797Y-62307671D01*
X129128793Y-62307664D01*
X129042547Y-62192455D01*
X129042544Y-62192452D01*
X128927335Y-62106206D01*
X128927328Y-62106202D01*
X128792482Y-62055908D01*
X128792483Y-62055908D01*
X128732883Y-62049501D01*
X128732881Y-62049500D01*
X128732873Y-62049500D01*
X128732864Y-62049500D01*
X126537129Y-62049500D01*
X126537123Y-62049501D01*
X126477516Y-62055908D01*
X126342671Y-62106202D01*
X126342664Y-62106206D01*
X126227455Y-62192452D01*
X126227452Y-62192455D01*
X126141206Y-62307664D01*
X126141202Y-62307671D01*
X126090908Y-62442517D01*
X126084501Y-62502116D01*
X126084501Y-62502123D01*
X126084500Y-62502135D01*
X126084500Y-62685000D01*
X126064815Y-62752039D01*
X126012011Y-62797794D01*
X125960500Y-62809000D01*
X124797584Y-62809000D01*
X124730545Y-62789315D01*
X124709903Y-62772681D01*
X122647318Y-60710096D01*
X122613833Y-60648773D01*
X122610999Y-60622424D01*
X122610999Y-53780612D01*
X122630006Y-53714640D01*
X122645787Y-53689525D01*
X122645786Y-53689525D01*
X122645789Y-53689522D01*
X122705368Y-53519255D01*
X122725565Y-53340000D01*
X122720144Y-53291890D01*
X122705369Y-53160750D01*
X122705368Y-53160745D01*
X122645788Y-52990476D01*
X122549815Y-52837737D01*
X122422262Y-52710184D01*
X122269523Y-52614211D01*
X122099254Y-52554631D01*
X122099249Y-52554630D01*
X121920004Y-52534435D01*
X121919996Y-52534435D01*
X121740750Y-52554630D01*
X121740745Y-52554631D01*
X121570476Y-52614211D01*
X121417737Y-52710184D01*
X121290184Y-52837737D01*
X121194211Y-52990476D01*
X121134631Y-53160745D01*
X121134630Y-53160750D01*
X121114435Y-53339996D01*
X121114435Y-53340003D01*
X121134630Y-53519249D01*
X121134631Y-53519254D01*
X121194211Y-53689524D01*
X121209993Y-53714639D01*
X121229000Y-53780612D01*
X121229000Y-60937247D01*
X121228887Y-60940992D01*
X121225195Y-61002025D01*
X121225195Y-61002028D01*
X121236217Y-61062174D01*
X121236780Y-61065876D01*
X121244152Y-61126582D01*
X121247644Y-61135792D01*
X121253666Y-61157395D01*
X121255441Y-61167081D01*
X121280540Y-61222851D01*
X121281973Y-61226310D01*
X121303653Y-61283478D01*
X121303656Y-61283482D01*
X121309250Y-61291586D01*
X121320274Y-61311134D01*
X121324308Y-61320099D01*
X121324314Y-61320108D01*
X121362018Y-61368234D01*
X121364238Y-61371251D01*
X121398980Y-61421583D01*
X121444753Y-61462135D01*
X121447464Y-61464686D01*
X123955320Y-63972542D01*
X123957856Y-63975236D01*
X123998416Y-64021020D01*
X123998417Y-64021020D01*
X124048755Y-64055767D01*
X124051755Y-64057974D01*
X124099894Y-64095688D01*
X124108865Y-64099725D01*
X124128420Y-64110754D01*
X124136518Y-64116344D01*
X124193695Y-64138028D01*
X124197149Y-64139459D01*
X124252915Y-64164557D01*
X124262596Y-64166331D01*
X124284218Y-64172359D01*
X124293416Y-64175847D01*
X124293417Y-64175848D01*
X124302680Y-64176972D01*
X124354135Y-64183220D01*
X124357806Y-64183779D01*
X124417971Y-64194805D01*
X124475043Y-64191352D01*
X124479007Y-64191113D01*
X124482752Y-64191000D01*
X125960501Y-64191000D01*
X126027540Y-64210685D01*
X126073295Y-64263489D01*
X126084501Y-64315000D01*
X126084501Y-64497876D01*
X126090908Y-64557483D01*
X126141202Y-64692328D01*
X126141206Y-64692335D01*
X126227452Y-64807544D01*
X126227455Y-64807547D01*
X126342664Y-64893793D01*
X126342671Y-64893797D01*
X126375338Y-64905981D01*
X126431272Y-64947852D01*
X126455689Y-65013316D01*
X126440838Y-65081589D01*
X126429858Y-65098325D01*
X126316533Y-65243924D01*
X126316529Y-65243930D01*
X126202118Y-65455342D01*
X126202116Y-65455347D01*
X126124066Y-65682699D01*
X126084499Y-65919809D01*
X126084499Y-66160190D01*
X126124066Y-66397300D01*
X126202116Y-66624652D01*
X126202118Y-66624657D01*
X126316529Y-66836069D01*
X126316533Y-66836075D01*
X126464169Y-67025757D01*
X126464171Y-67025759D01*
X126464175Y-67025764D01*
X126641031Y-67188571D01*
X126664883Y-67204154D01*
X126668003Y-67206193D01*
X126713358Y-67259340D01*
X126722780Y-67328571D01*
X126693277Y-67391907D01*
X126668003Y-67413807D01*
X126641031Y-67431429D01*
X126641029Y-67431430D01*
X126464172Y-67594239D01*
X126464169Y-67594242D01*
X126316533Y-67783924D01*
X126316529Y-67783930D01*
X126202118Y-67995342D01*
X126202116Y-67995347D01*
X126124066Y-68222699D01*
X126084499Y-68459809D01*
X126084499Y-68700190D01*
X126124066Y-68937300D01*
X126202116Y-69164652D01*
X126202118Y-69164657D01*
X126316529Y-69376069D01*
X126316533Y-69376075D01*
X126464169Y-69565757D01*
X126464171Y-69565759D01*
X126464175Y-69565764D01*
X126641031Y-69728571D01*
X126664883Y-69744154D01*
X126668003Y-69746193D01*
X126713358Y-69799340D01*
X126722780Y-69868571D01*
X126693277Y-69931907D01*
X126668003Y-69953807D01*
X126641031Y-69971429D01*
X126641029Y-69971430D01*
X126547981Y-70057087D01*
X126485556Y-70114554D01*
X126464172Y-70134239D01*
X126464169Y-70134242D01*
X126316533Y-70323924D01*
X126316529Y-70323930D01*
X126202118Y-70535342D01*
X126202116Y-70535347D01*
X126124066Y-70762699D01*
X126084499Y-70999809D01*
X126084499Y-71240190D01*
X126124066Y-71477300D01*
X126202116Y-71704652D01*
X126202118Y-71704657D01*
X126316529Y-71916069D01*
X126316533Y-71916075D01*
X126464169Y-72105757D01*
X126464171Y-72105759D01*
X126464175Y-72105764D01*
X126641031Y-72268571D01*
X126664883Y-72284154D01*
X126668003Y-72286193D01*
X126713358Y-72339340D01*
X126722780Y-72408571D01*
X126693277Y-72471907D01*
X126668003Y-72493807D01*
X126641031Y-72511429D01*
X126641029Y-72511430D01*
X126464172Y-72674239D01*
X126464169Y-72674242D01*
X126316533Y-72863924D01*
X126316529Y-72863930D01*
X126202118Y-73075342D01*
X126202116Y-73075347D01*
X126124066Y-73302699D01*
X126084499Y-73539809D01*
X126084499Y-73780190D01*
X126124066Y-74017300D01*
X126202116Y-74244652D01*
X126202118Y-74244657D01*
X126316529Y-74456069D01*
X126316533Y-74456075D01*
X126464169Y-74645757D01*
X126464171Y-74645759D01*
X126464175Y-74645764D01*
X126641031Y-74808571D01*
X126664883Y-74824154D01*
X126668003Y-74826193D01*
X126713358Y-74879340D01*
X126722780Y-74948571D01*
X126693277Y-75011907D01*
X126668003Y-75033807D01*
X126641031Y-75051429D01*
X126641029Y-75051430D01*
X126464172Y-75214239D01*
X126464169Y-75214242D01*
X126316533Y-75403924D01*
X126316529Y-75403930D01*
X126202118Y-75615342D01*
X126202116Y-75615347D01*
X126124066Y-75842699D01*
X126084499Y-76079809D01*
X126084499Y-76320190D01*
X126124066Y-76557300D01*
X126202116Y-76784652D01*
X126202118Y-76784657D01*
X126316529Y-76996069D01*
X126316533Y-76996075D01*
X126464169Y-77185757D01*
X126464171Y-77185759D01*
X126464175Y-77185764D01*
X126641031Y-77348571D01*
X126664883Y-77364154D01*
X126668003Y-77366193D01*
X126713358Y-77419340D01*
X126722780Y-77488571D01*
X126693277Y-77551907D01*
X126668003Y-77573807D01*
X126641031Y-77591429D01*
X126641029Y-77591430D01*
X126464172Y-77754239D01*
X126464169Y-77754242D01*
X126316533Y-77943924D01*
X126316529Y-77943930D01*
X126202118Y-78155342D01*
X126202116Y-78155347D01*
X126124066Y-78382699D01*
X126084499Y-78619809D01*
X126084499Y-78860190D01*
X126124066Y-79097300D01*
X126202116Y-79324652D01*
X126202118Y-79324657D01*
X126316529Y-79536069D01*
X126316533Y-79536075D01*
X126464169Y-79725757D01*
X126464171Y-79725759D01*
X126464175Y-79725764D01*
X126641031Y-79888571D01*
X126664883Y-79904154D01*
X126668003Y-79906193D01*
X126713358Y-79959340D01*
X126722780Y-80028571D01*
X126693277Y-80091907D01*
X126668003Y-80113807D01*
X126641031Y-80131429D01*
X126641029Y-80131430D01*
X126464172Y-80294239D01*
X126464169Y-80294242D01*
X126316533Y-80483924D01*
X126316529Y-80483930D01*
X126202118Y-80695342D01*
X126202116Y-80695347D01*
X126124066Y-80922699D01*
X126084499Y-81159809D01*
X126084499Y-81400190D01*
X126124066Y-81637300D01*
X126202116Y-81864652D01*
X126202118Y-81864657D01*
X126316529Y-82076069D01*
X126316533Y-82076075D01*
X126464169Y-82265757D01*
X126464171Y-82265759D01*
X126464175Y-82265764D01*
X126641031Y-82428571D01*
X126663713Y-82443390D01*
X126668003Y-82446193D01*
X126713358Y-82499340D01*
X126722780Y-82568571D01*
X126693277Y-82631907D01*
X126668003Y-82653807D01*
X126641031Y-82671429D01*
X126641029Y-82671430D01*
X126464172Y-82834239D01*
X126464169Y-82834242D01*
X126316533Y-83023924D01*
X126316529Y-83023930D01*
X126202118Y-83235342D01*
X126202116Y-83235347D01*
X126124066Y-83462699D01*
X126084499Y-83699809D01*
X126084499Y-83940190D01*
X126124066Y-84177300D01*
X126202116Y-84404652D01*
X126202118Y-84404657D01*
X126316529Y-84616069D01*
X126316533Y-84616075D01*
X126464169Y-84805757D01*
X126464171Y-84805759D01*
X126464175Y-84805764D01*
X126641031Y-84968571D01*
X126664883Y-84984154D01*
X126668003Y-84986193D01*
X126713358Y-85039340D01*
X126722780Y-85108571D01*
X126693277Y-85171907D01*
X126668003Y-85193807D01*
X126641031Y-85211429D01*
X126641029Y-85211430D01*
X126464172Y-85374239D01*
X126464169Y-85374242D01*
X126316533Y-85563924D01*
X126316529Y-85563930D01*
X126202118Y-85775342D01*
X126202116Y-85775347D01*
X126124066Y-86002699D01*
X126084499Y-86239809D01*
X126084499Y-86480190D01*
X126124066Y-86717300D01*
X126202116Y-86944652D01*
X126202118Y-86944657D01*
X126316529Y-87156069D01*
X126316533Y-87156075D01*
X126464169Y-87345757D01*
X126464171Y-87345759D01*
X126464175Y-87345764D01*
X126641031Y-87508571D01*
X126641033Y-87508572D01*
X126842198Y-87640001D01*
X126842272Y-87640049D01*
X127062409Y-87736610D01*
X127295437Y-87795620D01*
X127475010Y-87810500D01*
X127475012Y-87810500D01*
X127794988Y-87810500D01*
X127794990Y-87810500D01*
X127974563Y-87795620D01*
X128001086Y-87788903D01*
X128070900Y-87791526D01*
X128119205Y-87821427D01*
X131408181Y-91110403D01*
X131441666Y-91171726D01*
X131444500Y-91198084D01*
X131444500Y-96512915D01*
X131424815Y-96579954D01*
X131372011Y-96625709D01*
X131302853Y-96635653D01*
X131239297Y-96606628D01*
X131232819Y-96600596D01*
X108835581Y-74203359D01*
X108802096Y-74142036D01*
X108805980Y-74075417D01*
X108825934Y-74017297D01*
X108865500Y-73780192D01*
X108865500Y-73539808D01*
X108825934Y-73302703D01*
X108747882Y-73075344D01*
X108633472Y-72863933D01*
X108633470Y-72863930D01*
X108633466Y-72863924D01*
X108485830Y-72674242D01*
X108485827Y-72674239D01*
X108485825Y-72674236D01*
X108308969Y-72511429D01*
X108281995Y-72493806D01*
X108236641Y-72440663D01*
X108227217Y-72371432D01*
X108256718Y-72308096D01*
X108281992Y-72286195D01*
X108308969Y-72268571D01*
X108485825Y-72105764D01*
X108633472Y-71916067D01*
X108747882Y-71704656D01*
X108825934Y-71477297D01*
X108865500Y-71240192D01*
X108865500Y-70999808D01*
X108825934Y-70762703D01*
X108785445Y-70644763D01*
X108747883Y-70535347D01*
X108747881Y-70535342D01*
X108679678Y-70409315D01*
X108633472Y-70323933D01*
X108633470Y-70323930D01*
X108633466Y-70323924D01*
X108485830Y-70134242D01*
X108485827Y-70134239D01*
X108485825Y-70134236D01*
X108308969Y-69971429D01*
X108281995Y-69953806D01*
X108236641Y-69900663D01*
X108227217Y-69831432D01*
X108256718Y-69768096D01*
X108281992Y-69746195D01*
X108308969Y-69728571D01*
X108485825Y-69565764D01*
X108633472Y-69376067D01*
X108747882Y-69164656D01*
X108825934Y-68937297D01*
X108865500Y-68700192D01*
X108865500Y-68459808D01*
X108825934Y-68222703D01*
X108769728Y-68058981D01*
X108747883Y-67995347D01*
X108747881Y-67995342D01*
X108633470Y-67783930D01*
X108633466Y-67783924D01*
X108485830Y-67594242D01*
X108485827Y-67594239D01*
X108485825Y-67594236D01*
X108308969Y-67431429D01*
X108281995Y-67413806D01*
X108236641Y-67360663D01*
X108227217Y-67291432D01*
X108256718Y-67228096D01*
X108281992Y-67206195D01*
X108308969Y-67188571D01*
X108485825Y-67025764D01*
X108583891Y-66899768D01*
X108633466Y-66836075D01*
X108633470Y-66836069D01*
X108633472Y-66836067D01*
X108747882Y-66624656D01*
X108825934Y-66397297D01*
X108865500Y-66160192D01*
X108865500Y-65919808D01*
X108825934Y-65682703D01*
X108781579Y-65553502D01*
X108747883Y-65455347D01*
X108747881Y-65455342D01*
X108727347Y-65417399D01*
X108633472Y-65243933D01*
X108633470Y-65243930D01*
X108633466Y-65243924D01*
X108485830Y-65054242D01*
X108485827Y-65054239D01*
X108485825Y-65054236D01*
X108308969Y-64891429D01*
X108281995Y-64873806D01*
X108236641Y-64820663D01*
X108227217Y-64751432D01*
X108256718Y-64688096D01*
X108281992Y-64666195D01*
X108308969Y-64648571D01*
X108485825Y-64485764D01*
X108593142Y-64347883D01*
X108633466Y-64296075D01*
X108633470Y-64296069D01*
X108633472Y-64296067D01*
X108747882Y-64084656D01*
X108825934Y-63857297D01*
X108865500Y-63620192D01*
X108865500Y-63379808D01*
X108825934Y-63142703D01*
X108788981Y-63035063D01*
X108747883Y-62915347D01*
X108747881Y-62915342D01*
X108718638Y-62861306D01*
X108633472Y-62703933D01*
X108633470Y-62703930D01*
X108633466Y-62703924D01*
X108485830Y-62514242D01*
X108485827Y-62514239D01*
X108485825Y-62514236D01*
X108308969Y-62351429D01*
X108163222Y-62256207D01*
X108107729Y-62219951D01*
X107911337Y-62133806D01*
X107887591Y-62123390D01*
X107887589Y-62123389D01*
X107654559Y-62064379D01*
X107510659Y-62052455D01*
X107474990Y-62049500D01*
X107155010Y-62049500D01*
X107122563Y-62052188D01*
X106975440Y-62064379D01*
X106742410Y-62123389D01*
X106522270Y-62219951D01*
X106321033Y-62351427D01*
X106321029Y-62351430D01*
X106144172Y-62514239D01*
X106144169Y-62514242D01*
X105996533Y-62703924D01*
X105996529Y-62703930D01*
X105882118Y-62915342D01*
X105882116Y-62915347D01*
X105804066Y-63142699D01*
X105764500Y-63379809D01*
X105764500Y-63620190D01*
X105804066Y-63857300D01*
X105882116Y-64084652D01*
X105882118Y-64084657D01*
X105996529Y-64296069D01*
X105996533Y-64296075D01*
X106144169Y-64485757D01*
X106144171Y-64485759D01*
X106144175Y-64485764D01*
X106321031Y-64648571D01*
X106334770Y-64657547D01*
X106348003Y-64666193D01*
X106393358Y-64719340D01*
X106402780Y-64788571D01*
X106373277Y-64851907D01*
X106348003Y-64873807D01*
X106321031Y-64891429D01*
X106321029Y-64891430D01*
X106144172Y-65054239D01*
X106144169Y-65054242D01*
X105996533Y-65243924D01*
X105996529Y-65243930D01*
X105882118Y-65455342D01*
X105882116Y-65455347D01*
X105804066Y-65682699D01*
X105764500Y-65919809D01*
X105764500Y-66160190D01*
X105804066Y-66397300D01*
X105882116Y-66624652D01*
X105882118Y-66624657D01*
X105996529Y-66836069D01*
X105996533Y-66836075D01*
X106144169Y-67025757D01*
X106144171Y-67025759D01*
X106144175Y-67025764D01*
X106321031Y-67188571D01*
X106344883Y-67204154D01*
X106348003Y-67206193D01*
X106393358Y-67259340D01*
X106402780Y-67328571D01*
X106373277Y-67391907D01*
X106348003Y-67413807D01*
X106321031Y-67431429D01*
X106321029Y-67431430D01*
X106144172Y-67594239D01*
X106144169Y-67594242D01*
X105996533Y-67783924D01*
X105996523Y-67783939D01*
X105974836Y-67824016D01*
X105925618Y-67873607D01*
X105865781Y-67889000D01*
X86569411Y-67889000D01*
X86565666Y-67888887D01*
X86504632Y-67885195D01*
X86504627Y-67885195D01*
X86464706Y-67892510D01*
X86444475Y-67896218D01*
X86440782Y-67896780D01*
X86380073Y-67904152D01*
X86380072Y-67904152D01*
X86370861Y-67907645D01*
X86349264Y-67913666D01*
X86339574Y-67915442D01*
X86283814Y-67940537D01*
X86280355Y-67941969D01*
X86223185Y-67963652D01*
X86223181Y-67963654D01*
X86223176Y-67963656D01*
X86223171Y-67963659D01*
X86223168Y-67963661D01*
X86215068Y-67969251D01*
X86195539Y-67980266D01*
X86186558Y-67984308D01*
X86186553Y-67984311D01*
X86186552Y-67984312D01*
X86172473Y-67995342D01*
X86138422Y-68022017D01*
X86135408Y-68024235D01*
X86085074Y-68058980D01*
X86085072Y-68058981D01*
X86044521Y-68104754D01*
X86041954Y-68107480D01*
X65205755Y-88943681D01*
X65144432Y-88977166D01*
X65118074Y-88980000D01*
X64716926Y-88980000D01*
X64649887Y-88960315D01*
X64629245Y-88943681D01*
X62486422Y-86800858D01*
X60313028Y-84627464D01*
X60310477Y-84624753D01*
X60269925Y-84578980D01*
X60219593Y-84544238D01*
X60216576Y-84542018D01*
X60168450Y-84504314D01*
X60168441Y-84504308D01*
X60159476Y-84500274D01*
X60139928Y-84489250D01*
X60131824Y-84483656D01*
X60131820Y-84483653D01*
X60083031Y-84465150D01*
X60074644Y-84461969D01*
X60071193Y-84460540D01*
X60015423Y-84435441D01*
X60015424Y-84435441D01*
X60005737Y-84433666D01*
X59984134Y-84427644D01*
X59974924Y-84424152D01*
X59914218Y-84416780D01*
X59910519Y-84416217D01*
X59897553Y-84413841D01*
X59850372Y-84405195D01*
X59850367Y-84405195D01*
X59789334Y-84408887D01*
X59785589Y-84409000D01*
X55788325Y-84409000D01*
X55721286Y-84389315D01*
X55686750Y-84356123D01*
X55620045Y-84260858D01*
X55459141Y-84099954D01*
X55272734Y-83969432D01*
X55272732Y-83969431D01*
X55249612Y-83958650D01*
X55214132Y-83942105D01*
X55161694Y-83895934D01*
X55142542Y-83828740D01*
X55162758Y-83761859D01*
X55214134Y-83717341D01*
X55272484Y-83690132D01*
X55458820Y-83559657D01*
X55619657Y-83398820D01*
X55750134Y-83212482D01*
X55846265Y-83006326D01*
X55846269Y-83006317D01*
X55898872Y-82810000D01*
X54935686Y-82810000D01*
X54947641Y-82798045D01*
X55005165Y-82685148D01*
X55024986Y-82560000D01*
X55005165Y-82434852D01*
X54947641Y-82321955D01*
X54935686Y-82310000D01*
X55898872Y-82310000D01*
X55898872Y-82309999D01*
X55846269Y-82113682D01*
X55846265Y-82113673D01*
X55750134Y-81907517D01*
X55619657Y-81721179D01*
X55458820Y-81560342D01*
X55272482Y-81429865D01*
X55066328Y-81333734D01*
X54869999Y-81281127D01*
X54869999Y-82244313D01*
X54858045Y-82232359D01*
X54745148Y-82174835D01*
X54651481Y-82160000D01*
X54588519Y-82160000D01*
X54494852Y-82174835D01*
X54381955Y-82232359D01*
X54370000Y-82244314D01*
X54370000Y-81281127D01*
X54173671Y-81333734D01*
X53967517Y-81429865D01*
X53781179Y-81560342D01*
X53620342Y-81721179D01*
X53489865Y-81907517D01*
X53393734Y-82113673D01*
X53393730Y-82113682D01*
X53341127Y-82309999D01*
X53341128Y-82310000D01*
X54304314Y-82310000D01*
X54292359Y-82321955D01*
X54234835Y-82434852D01*
X54215014Y-82560000D01*
X54234835Y-82685148D01*
X54292359Y-82798045D01*
X54304314Y-82810000D01*
X53341128Y-82810000D01*
X53393730Y-83006317D01*
X53393734Y-83006326D01*
X53489865Y-83212482D01*
X53620342Y-83398820D01*
X53781179Y-83559657D01*
X53967518Y-83690134D01*
X53967520Y-83690135D01*
X54025865Y-83717342D01*
X54078305Y-83763514D01*
X54097457Y-83830707D01*
X54077242Y-83897589D01*
X54025867Y-83942105D01*
X53990388Y-83958650D01*
X53967264Y-83969433D01*
X53780858Y-84099954D01*
X53619954Y-84260858D01*
X53489432Y-84447265D01*
X53489431Y-84447267D01*
X53393261Y-84653502D01*
X53393258Y-84653511D01*
X53334366Y-84873302D01*
X53334364Y-84873313D01*
X53314532Y-85099998D01*
X53314532Y-85100001D01*
X53334364Y-85326686D01*
X53334366Y-85326697D01*
X53393258Y-85546488D01*
X53393261Y-85546497D01*
X53489431Y-85752732D01*
X53489432Y-85752734D01*
X53619954Y-85939141D01*
X53780858Y-86100045D01*
X53780861Y-86100047D01*
X53967266Y-86230568D01*
X54025275Y-86257618D01*
X54077714Y-86303791D01*
X54096866Y-86370984D01*
X54076650Y-86437865D01*
X54025275Y-86482382D01*
X53967267Y-86509431D01*
X53967265Y-86509432D01*
X53780858Y-86639954D01*
X53619954Y-86800858D01*
X53489432Y-86987265D01*
X53489431Y-86987267D01*
X53393261Y-87193502D01*
X53393258Y-87193511D01*
X53334366Y-87413302D01*
X53334364Y-87413313D01*
X53314532Y-87639998D01*
X53314532Y-87640001D01*
X53334364Y-87866686D01*
X53334366Y-87866697D01*
X53393258Y-88086488D01*
X53393261Y-88086497D01*
X53489431Y-88292732D01*
X53489432Y-88292734D01*
X53619954Y-88479141D01*
X53780858Y-88640045D01*
X53780861Y-88640047D01*
X53967266Y-88770568D01*
X54025275Y-88797618D01*
X54077714Y-88843791D01*
X54096866Y-88910984D01*
X54076650Y-88977865D01*
X54025275Y-89022382D01*
X53967267Y-89049431D01*
X53967265Y-89049432D01*
X53780858Y-89179954D01*
X53619954Y-89340858D01*
X53489432Y-89527265D01*
X53489431Y-89527267D01*
X53393261Y-89733502D01*
X53393258Y-89733511D01*
X53334366Y-89953302D01*
X53334364Y-89953313D01*
X53314532Y-90179998D01*
X53314532Y-90180001D01*
X48305468Y-90180001D01*
X48305468Y-90180000D01*
X48285635Y-89953308D01*
X48226739Y-89733504D01*
X48130568Y-89527266D01*
X48000047Y-89340861D01*
X48000045Y-89340858D01*
X47839141Y-89179954D01*
X47652734Y-89049432D01*
X47652728Y-89049429D01*
X47594725Y-89022382D01*
X47542285Y-88976210D01*
X47523133Y-88909017D01*
X47543348Y-88842135D01*
X47594725Y-88797618D01*
X47652734Y-88770568D01*
X47839139Y-88640047D01*
X48000047Y-88479139D01*
X48130568Y-88292734D01*
X48226739Y-88086496D01*
X48285635Y-87866692D01*
X48305468Y-87640000D01*
X48285635Y-87413308D01*
X48226739Y-87193504D01*
X48130568Y-86987266D01*
X48000047Y-86800861D01*
X48000045Y-86800858D01*
X47839141Y-86639954D01*
X47652734Y-86509432D01*
X47652728Y-86509429D01*
X47594725Y-86482382D01*
X47542285Y-86436210D01*
X47523133Y-86369017D01*
X47543348Y-86302135D01*
X47594725Y-86257618D01*
X47652734Y-86230568D01*
X47839139Y-86100047D01*
X48000047Y-85939139D01*
X48130568Y-85752734D01*
X48226739Y-85546496D01*
X48285635Y-85326692D01*
X48305468Y-85100000D01*
X48285635Y-84873308D01*
X48226739Y-84653504D01*
X48130568Y-84447266D01*
X48000047Y-84260861D01*
X48000045Y-84260858D01*
X47839143Y-84099956D01*
X47814536Y-84082726D01*
X47770912Y-84028149D01*
X47763719Y-83958650D01*
X47795241Y-83896296D01*
X47855471Y-83860882D01*
X47872404Y-83857861D01*
X47907483Y-83854091D01*
X48042331Y-83803796D01*
X48157546Y-83717546D01*
X48243796Y-83602331D01*
X48294091Y-83467483D01*
X48300500Y-83407873D01*
X48300499Y-81712128D01*
X48294091Y-81652517D01*
X48288415Y-81637300D01*
X48243797Y-81517671D01*
X48243793Y-81517664D01*
X48157547Y-81402455D01*
X48157544Y-81402452D01*
X48042335Y-81316206D01*
X48042328Y-81316202D01*
X47907482Y-81265908D01*
X47907483Y-81265908D01*
X47847883Y-81259501D01*
X47847881Y-81259500D01*
X47847873Y-81259500D01*
X47847864Y-81259500D01*
X46152129Y-81259500D01*
X46152123Y-81259501D01*
X46092516Y-81265908D01*
X45957671Y-81316202D01*
X45957664Y-81316206D01*
X45842455Y-81402452D01*
X45842452Y-81402455D01*
X45756206Y-81517664D01*
X45756202Y-81517671D01*
X45705908Y-81652517D01*
X45699501Y-81712116D01*
X45699501Y-81712123D01*
X45699500Y-81712135D01*
X45699500Y-83407870D01*
X45699501Y-83407876D01*
X45705908Y-83467483D01*
X45756202Y-83602328D01*
X45756206Y-83602335D01*
X45842452Y-83717544D01*
X45842455Y-83717547D01*
X45957664Y-83803793D01*
X45957671Y-83803797D01*
X45986006Y-83814365D01*
X46092517Y-83854091D01*
X46127596Y-83857862D01*
X46192144Y-83884599D01*
X46231993Y-83941991D01*
X46234488Y-84011816D01*
X46198836Y-84071905D01*
X46185464Y-84082725D01*
X46160858Y-84099954D01*
X45999954Y-84260858D01*
X45869432Y-84447265D01*
X45869431Y-84447267D01*
X45773261Y-84653502D01*
X45773258Y-84653511D01*
X45714366Y-84873302D01*
X45714364Y-84873313D01*
X45694532Y-85099998D01*
X45694532Y-85100001D01*
X45714364Y-85326686D01*
X45714366Y-85326697D01*
X45773258Y-85546488D01*
X45773261Y-85546497D01*
X45869431Y-85752732D01*
X45869432Y-85752734D01*
X45999954Y-85939141D01*
X46160858Y-86100045D01*
X46160861Y-86100047D01*
X46347266Y-86230568D01*
X46405275Y-86257618D01*
X46457714Y-86303791D01*
X46476866Y-86370984D01*
X46456650Y-86437865D01*
X46405275Y-86482382D01*
X46347267Y-86509431D01*
X46347265Y-86509432D01*
X46160858Y-86639954D01*
X45999954Y-86800858D01*
X45869432Y-86987265D01*
X45869431Y-86987267D01*
X45773261Y-87193502D01*
X45773258Y-87193511D01*
X45714366Y-87413302D01*
X45714364Y-87413313D01*
X45694532Y-87639998D01*
X45694532Y-87640001D01*
X45714364Y-87866686D01*
X45714366Y-87866697D01*
X45773258Y-88086488D01*
X45773261Y-88086497D01*
X45869431Y-88292732D01*
X45869432Y-88292734D01*
X45999954Y-88479141D01*
X46160858Y-88640045D01*
X46160861Y-88640047D01*
X46347266Y-88770568D01*
X46405275Y-88797618D01*
X46457714Y-88843791D01*
X46476866Y-88910984D01*
X46456650Y-88977865D01*
X46405275Y-89022382D01*
X46347267Y-89049431D01*
X46347265Y-89049432D01*
X46160858Y-89179954D01*
X45999954Y-89340858D01*
X45869432Y-89527265D01*
X45869431Y-89527267D01*
X45773261Y-89733502D01*
X45773258Y-89733511D01*
X45714366Y-89953302D01*
X45714364Y-89953313D01*
X45694532Y-90179998D01*
X45694532Y-90180001D01*
X43680500Y-90180001D01*
X43680500Y-66000001D01*
X49494532Y-66000001D01*
X49514364Y-66226686D01*
X49514366Y-66226697D01*
X49573258Y-66446488D01*
X49573261Y-66446497D01*
X49669431Y-66652732D01*
X49669432Y-66652734D01*
X49799954Y-66839141D01*
X49960858Y-67000045D01*
X49960861Y-67000047D01*
X50147266Y-67130568D01*
X50353504Y-67226739D01*
X50573308Y-67285635D01*
X50735230Y-67299801D01*
X50799998Y-67305468D01*
X50800000Y-67305468D01*
X50800002Y-67305468D01*
X50856673Y-67300509D01*
X51026692Y-67285635D01*
X51246496Y-67226739D01*
X51452734Y-67130568D01*
X51639139Y-67000047D01*
X51800047Y-66839139D01*
X51930568Y-66652734D01*
X52026739Y-66446496D01*
X52085635Y-66226692D01*
X52105468Y-66000000D01*
X52085635Y-65773308D01*
X52026739Y-65553504D01*
X51930568Y-65347266D01*
X51800047Y-65160861D01*
X51800045Y-65160858D01*
X51642913Y-65003726D01*
X51609428Y-64942403D01*
X51614412Y-64872711D01*
X51656284Y-64816778D01*
X51702078Y-64795368D01*
X51707480Y-64794091D01*
X51707483Y-64794091D01*
X51716109Y-64790874D01*
X51842328Y-64743797D01*
X51842327Y-64743797D01*
X51842331Y-64743796D01*
X51957546Y-64657546D01*
X52043796Y-64542331D01*
X52094091Y-64407483D01*
X52100500Y-64347873D01*
X52100499Y-62652128D01*
X52094091Y-62592517D01*
X52086215Y-62571401D01*
X52043797Y-62457671D01*
X52043793Y-62457664D01*
X51957547Y-62342455D01*
X51957544Y-62342452D01*
X51842336Y-62256207D01*
X51842332Y-62256204D01*
X51825663Y-62249987D01*
X51769731Y-62208114D01*
X51745316Y-62142649D01*
X51745000Y-62133806D01*
X51745000Y-61700000D01*
X59164341Y-61700000D01*
X59184936Y-61935403D01*
X59184938Y-61935413D01*
X59246094Y-62163655D01*
X59246096Y-62163659D01*
X59246097Y-62163663D01*
X59286351Y-62249987D01*
X59345964Y-62377828D01*
X59345965Y-62377830D01*
X59481505Y-62571402D01*
X59648597Y-62738494D01*
X59842169Y-62874034D01*
X59842171Y-62874035D01*
X60056337Y-62973903D01*
X60284592Y-63035063D01*
X60461034Y-63050500D01*
X60578966Y-63050500D01*
X60755408Y-63035063D01*
X60983663Y-62973903D01*
X61197829Y-62874035D01*
X61391401Y-62738495D01*
X61558495Y-62571401D01*
X61694035Y-62377830D01*
X61793903Y-62163663D01*
X61855063Y-61935408D01*
X61875659Y-61700000D01*
X61855063Y-61464592D01*
X61793903Y-61236337D01*
X61694035Y-61022171D01*
X61694034Y-61022169D01*
X61558494Y-60828597D01*
X61391402Y-60661505D01*
X61197830Y-60525965D01*
X61197828Y-60525964D01*
X61090746Y-60476030D01*
X60983663Y-60426097D01*
X60983659Y-60426096D01*
X60983655Y-60426094D01*
X60755413Y-60364938D01*
X60755403Y-60364936D01*
X60578966Y-60349500D01*
X60461034Y-60349500D01*
X60284596Y-60364936D01*
X60284586Y-60364938D01*
X60056344Y-60426094D01*
X60056335Y-60426098D01*
X59842171Y-60525964D01*
X59842169Y-60525965D01*
X59648597Y-60661505D01*
X59481506Y-60828597D01*
X59481501Y-60828604D01*
X59345967Y-61022165D01*
X59345965Y-61022169D01*
X59246098Y-61236335D01*
X59246094Y-61236344D01*
X59184938Y-61464586D01*
X59184936Y-61464596D01*
X59164341Y-61699999D01*
X59164341Y-61700000D01*
X51745000Y-61700000D01*
X51745000Y-57592793D01*
X51764685Y-57525754D01*
X51781314Y-57505117D01*
X54965113Y-54321318D01*
X55026436Y-54287834D01*
X55052794Y-54285000D01*
X61125501Y-54285000D01*
X61192540Y-54304685D01*
X61238295Y-54357489D01*
X61249501Y-54409000D01*
X61249501Y-55137876D01*
X61255908Y-55197483D01*
X61306202Y-55332328D01*
X61306206Y-55332335D01*
X61392452Y-55447544D01*
X61392455Y-55447547D01*
X61507664Y-55533793D01*
X61507671Y-55533797D01*
X61642517Y-55584091D01*
X61642516Y-55584091D01*
X61649444Y-55584835D01*
X61702127Y-55590500D01*
X65297872Y-55590499D01*
X65357483Y-55584091D01*
X65492331Y-55533796D01*
X65607546Y-55447546D01*
X65693796Y-55332331D01*
X65744091Y-55197483D01*
X65750500Y-55137873D01*
X65750500Y-54408999D01*
X65770185Y-54341961D01*
X65822989Y-54296206D01*
X65874500Y-54285000D01*
X111807921Y-54285000D01*
X111951209Y-54270429D01*
X112134579Y-54212896D01*
X112134579Y-54212895D01*
X112134588Y-54212893D01*
X112302632Y-54119621D01*
X112448461Y-53994431D01*
X112566104Y-53842449D01*
X112650745Y-53669896D01*
X112698919Y-53483837D01*
X112708654Y-53291890D01*
X112679550Y-53101912D01*
X112612800Y-52921681D01*
X112612797Y-52921676D01*
X112511140Y-52758580D01*
X112511135Y-52758575D01*
X112378725Y-52619279D01*
X112366916Y-52611060D01*
X112256826Y-52534435D01*
X112220974Y-52509481D01*
X112044357Y-52433689D01*
X111856097Y-52395000D01*
X65874499Y-52395000D01*
X65807460Y-52375315D01*
X65761705Y-52322511D01*
X65750499Y-52271000D01*
X65750499Y-51542129D01*
X65750498Y-51542123D01*
X65749778Y-51535428D01*
X65744091Y-51482517D01*
X65732288Y-51450872D01*
X65693797Y-51347671D01*
X65693793Y-51347664D01*
X65607547Y-51232455D01*
X65607544Y-51232452D01*
X65492335Y-51146206D01*
X65492328Y-51146202D01*
X65357482Y-51095908D01*
X65357483Y-51095908D01*
X65297883Y-51089501D01*
X65297881Y-51089500D01*
X65297873Y-51089500D01*
X65297864Y-51089500D01*
X61702129Y-51089500D01*
X61702123Y-51089501D01*
X61642516Y-51095908D01*
X61507671Y-51146202D01*
X61507664Y-51146206D01*
X61392455Y-51232452D01*
X61392452Y-51232455D01*
X61306206Y-51347664D01*
X61306203Y-51347669D01*
X61288573Y-51394939D01*
X61246701Y-51450872D01*
X61181237Y-51475289D01*
X61112964Y-51460437D01*
X61063559Y-51411032D01*
X61048566Y-51345025D01*
X61050500Y-51308626D01*
X61050500Y-50867763D01*
X125145787Y-50867763D01*
X125175413Y-51137013D01*
X125175415Y-51137024D01*
X125234034Y-51361243D01*
X125243928Y-51399088D01*
X125349870Y-51648390D01*
X125490979Y-51879605D01*
X125490986Y-51879615D01*
X125664253Y-52087819D01*
X125664259Y-52087824D01*
X125825649Y-52232429D01*
X125865998Y-52268582D01*
X126091910Y-52418044D01*
X126337176Y-52533020D01*
X126337183Y-52533022D01*
X126337185Y-52533023D01*
X126596557Y-52611057D01*
X126596564Y-52611058D01*
X126596569Y-52611060D01*
X126864561Y-52650500D01*
X126864566Y-52650500D01*
X127067636Y-52650500D01*
X127123867Y-52646384D01*
X127270156Y-52635677D01*
X127382758Y-52610593D01*
X127534546Y-52576782D01*
X127534548Y-52576781D01*
X127534553Y-52576780D01*
X127787558Y-52480014D01*
X128023777Y-52347441D01*
X128238177Y-52181888D01*
X128426186Y-51986881D01*
X128583799Y-51766579D01*
X128669285Y-51600307D01*
X128707649Y-51525690D01*
X128707651Y-51525684D01*
X128707656Y-51525675D01*
X128795118Y-51269305D01*
X128844319Y-51002933D01*
X128854212Y-50732235D01*
X128824586Y-50462982D01*
X128756072Y-50200912D01*
X128650130Y-49951610D01*
X128509018Y-49720390D01*
X128419747Y-49613119D01*
X128335746Y-49512180D01*
X128335740Y-49512175D01*
X128134002Y-49331418D01*
X127908092Y-49181957D01*
X127908090Y-49181956D01*
X127662824Y-49066980D01*
X127662819Y-49066978D01*
X127662814Y-49066976D01*
X127403442Y-48988942D01*
X127403428Y-48988939D01*
X127287791Y-48971921D01*
X127135439Y-48949500D01*
X126932369Y-48949500D01*
X126932364Y-48949500D01*
X126729844Y-48964323D01*
X126729831Y-48964325D01*
X126465453Y-49023217D01*
X126465446Y-49023220D01*
X126212439Y-49119987D01*
X125976226Y-49252557D01*
X125976224Y-49252558D01*
X125976223Y-49252559D01*
X125947035Y-49275097D01*
X125761822Y-49418112D01*
X125573822Y-49613109D01*
X125573816Y-49613116D01*
X125416202Y-49833419D01*
X125416199Y-49833424D01*
X125292350Y-50074309D01*
X125292343Y-50074327D01*
X125204884Y-50330685D01*
X125204881Y-50330699D01*
X125155681Y-50597068D01*
X125155680Y-50597075D01*
X125145787Y-50867763D01*
X61050500Y-50867763D01*
X61050500Y-49371374D01*
X61049935Y-49360758D01*
X61047705Y-49318759D01*
X61003245Y-49088874D01*
X60920574Y-48869810D01*
X60802070Y-48667868D01*
X60802065Y-48667861D01*
X60651143Y-48488858D01*
X60651141Y-48488856D01*
X60472138Y-48337934D01*
X60472131Y-48337929D01*
X60270189Y-48219425D01*
X60179832Y-48185326D01*
X60051126Y-48136755D01*
X60051121Y-48136754D01*
X59821244Y-48092295D01*
X59768626Y-48089500D01*
X59768622Y-48089500D01*
X57831378Y-48089500D01*
X57831374Y-48089500D01*
X57778756Y-48092295D01*
X57778755Y-48092295D01*
X57548878Y-48136754D01*
X57548876Y-48136754D01*
X57548874Y-48136755D01*
X57474933Y-48164659D01*
X57329810Y-48219425D01*
X57127868Y-48337929D01*
X57127861Y-48337934D01*
X56948858Y-48488856D01*
X56948856Y-48488858D01*
X56797934Y-48667861D01*
X56797929Y-48667868D01*
X56679425Y-48869810D01*
X56624658Y-49014933D01*
X56596755Y-49088874D01*
X56596754Y-49088876D01*
X56596754Y-49088878D01*
X56552295Y-49318755D01*
X56552295Y-49318756D01*
X56549500Y-49371374D01*
X56549500Y-51308626D01*
X56552295Y-51361243D01*
X56552295Y-51361244D01*
X56587279Y-51542128D01*
X56596755Y-51591126D01*
X56645326Y-51719832D01*
X56679425Y-51810189D01*
X56797929Y-52012131D01*
X56797934Y-52012138D01*
X56948797Y-52191071D01*
X56976961Y-52255013D01*
X56966084Y-52324031D01*
X56919620Y-52376212D01*
X56853996Y-52395000D01*
X54621963Y-52395000D01*
X54537875Y-52392868D01*
X54537873Y-52392868D01*
X54491626Y-52401157D01*
X54480967Y-52403067D01*
X54476306Y-52403721D01*
X54418798Y-52409570D01*
X54418786Y-52409572D01*
X54397545Y-52416236D01*
X54388037Y-52419219D01*
X54380424Y-52421087D01*
X54348694Y-52426776D01*
X54348693Y-52426776D01*
X54348689Y-52426777D01*
X54348687Y-52426777D01*
X54294999Y-52448222D01*
X54290562Y-52449802D01*
X54235417Y-52467105D01*
X54235403Y-52467111D01*
X54207240Y-52482743D01*
X54200146Y-52486112D01*
X54170211Y-52498070D01*
X54170208Y-52498071D01*
X54121937Y-52529885D01*
X54117907Y-52532327D01*
X54067369Y-52560378D01*
X54067360Y-52560384D01*
X54042918Y-52581366D01*
X54036650Y-52586092D01*
X54009737Y-52603830D01*
X54009734Y-52603833D01*
X53968850Y-52644716D01*
X53965395Y-52647918D01*
X53921536Y-52685571D01*
X53901812Y-52711052D01*
X53896621Y-52716945D01*
X50140256Y-56473311D01*
X50079275Y-56531280D01*
X50046246Y-56578733D01*
X50043409Y-56582495D01*
X50006881Y-56627293D01*
X49991962Y-56655854D01*
X49987893Y-56662572D01*
X49969483Y-56689021D01*
X49969478Y-56689031D01*
X49946684Y-56742149D01*
X49944662Y-56746405D01*
X49917898Y-56797645D01*
X49917896Y-56797650D01*
X49909032Y-56828626D01*
X49906398Y-56836024D01*
X49893687Y-56865644D01*
X49882051Y-56922267D01*
X49880928Y-56926842D01*
X49865027Y-56982415D01*
X49865026Y-56982419D01*
X49862578Y-57014552D01*
X49861488Y-57022329D01*
X49855000Y-57053900D01*
X49855000Y-57111719D01*
X49854821Y-57116429D01*
X49850431Y-57174060D01*
X49854502Y-57206024D01*
X49854999Y-57213864D01*
X49855000Y-62133806D01*
X49835315Y-62200845D01*
X49782511Y-62246600D01*
X49774337Y-62249987D01*
X49757667Y-62256204D01*
X49757663Y-62256207D01*
X49642455Y-62342452D01*
X49642452Y-62342455D01*
X49556206Y-62457664D01*
X49556202Y-62457671D01*
X49505908Y-62592517D01*
X49499501Y-62652116D01*
X49499501Y-62652123D01*
X49499500Y-62652135D01*
X49499500Y-64347870D01*
X49499501Y-64347876D01*
X49505908Y-64407483D01*
X49556202Y-64542328D01*
X49556206Y-64542335D01*
X49642452Y-64657544D01*
X49642455Y-64657547D01*
X49757664Y-64743793D01*
X49757671Y-64743797D01*
X49778142Y-64751432D01*
X49892517Y-64794091D01*
X49892527Y-64794092D01*
X49897913Y-64795365D01*
X49958631Y-64829935D01*
X49991021Y-64891843D01*
X49984799Y-64961435D01*
X49957088Y-65003725D01*
X49799951Y-65160862D01*
X49669432Y-65347265D01*
X49669431Y-65347267D01*
X49573261Y-65553502D01*
X49573258Y-65553511D01*
X49514366Y-65773302D01*
X49514364Y-65773313D01*
X49494532Y-65999998D01*
X49494532Y-66000001D01*
X43680500Y-66000001D01*
X43680500Y-50867763D01*
X48945787Y-50867763D01*
X48975413Y-51137013D01*
X48975415Y-51137024D01*
X49034034Y-51361243D01*
X49043928Y-51399088D01*
X49149870Y-51648390D01*
X49290979Y-51879605D01*
X49290986Y-51879615D01*
X49464253Y-52087819D01*
X49464259Y-52087824D01*
X49625649Y-52232429D01*
X49665998Y-52268582D01*
X49891910Y-52418044D01*
X50137176Y-52533020D01*
X50137183Y-52533022D01*
X50137185Y-52533023D01*
X50396557Y-52611057D01*
X50396564Y-52611058D01*
X50396569Y-52611060D01*
X50664561Y-52650500D01*
X50664566Y-52650500D01*
X50867636Y-52650500D01*
X50923867Y-52646384D01*
X51070156Y-52635677D01*
X51182758Y-52610593D01*
X51334546Y-52576782D01*
X51334548Y-52576781D01*
X51334553Y-52576780D01*
X51587558Y-52480014D01*
X51823777Y-52347441D01*
X52038177Y-52181888D01*
X52226186Y-51986881D01*
X52383799Y-51766579D01*
X52469285Y-51600307D01*
X52507649Y-51525690D01*
X52507651Y-51525684D01*
X52507656Y-51525675D01*
X52595118Y-51269305D01*
X52644319Y-51002933D01*
X52654212Y-50732235D01*
X52624586Y-50462982D01*
X52556072Y-50200912D01*
X52450130Y-49951610D01*
X52309018Y-49720390D01*
X52219747Y-49613119D01*
X52135746Y-49512180D01*
X52135740Y-49512175D01*
X51934002Y-49331418D01*
X51708092Y-49181957D01*
X51708090Y-49181956D01*
X51462824Y-49066980D01*
X51462819Y-49066978D01*
X51462814Y-49066976D01*
X51203442Y-48988942D01*
X51203428Y-48988939D01*
X51087791Y-48971921D01*
X50935439Y-48949500D01*
X50732369Y-48949500D01*
X50732364Y-48949500D01*
X50529844Y-48964323D01*
X50529831Y-48964325D01*
X50265453Y-49023217D01*
X50265446Y-49023220D01*
X50012439Y-49119987D01*
X49776226Y-49252557D01*
X49776224Y-49252558D01*
X49776223Y-49252559D01*
X49747035Y-49275097D01*
X49561822Y-49418112D01*
X49373822Y-49613109D01*
X49373816Y-49613116D01*
X49216202Y-49833419D01*
X49216199Y-49833424D01*
X49092350Y-50074309D01*
X49092343Y-50074327D01*
X49004884Y-50330685D01*
X49004881Y-50330699D01*
X48955681Y-50597068D01*
X48955680Y-50597075D01*
X48945787Y-50867763D01*
X43680500Y-50867763D01*
X43680500Y-50799999D01*
X43698561Y-50294301D01*
X43698876Y-50289905D01*
X43722055Y-50074309D01*
X43752731Y-49788972D01*
X43753355Y-49784630D01*
X43842815Y-49288788D01*
X43843742Y-49284528D01*
X43968349Y-48796321D01*
X43969590Y-48792101D01*
X44128687Y-48314088D01*
X44130231Y-48309949D01*
X44139980Y-48286413D01*
X44323036Y-47844478D01*
X44324855Y-47840494D01*
X44550381Y-47389949D01*
X44552484Y-47386097D01*
X44809568Y-46952805D01*
X44811941Y-46949112D01*
X45099287Y-46535256D01*
X45101933Y-46531723D01*
X45106721Y-46525781D01*
X61249500Y-46525781D01*
X61249501Y-48154218D01*
X61259904Y-48286413D01*
X61259905Y-48286420D01*
X61314902Y-48504678D01*
X61314903Y-48504681D01*
X61407991Y-48709622D01*
X61407997Y-48709632D01*
X61536174Y-48894645D01*
X61536178Y-48894650D01*
X61536181Y-48894654D01*
X61695346Y-49053819D01*
X61695350Y-49053822D01*
X61695354Y-49053825D01*
X61834603Y-49150297D01*
X61880374Y-49182007D01*
X62085317Y-49275096D01*
X62085321Y-49275097D01*
X62303579Y-49330094D01*
X62303581Y-49330094D01*
X62303588Y-49330096D01*
X62414973Y-49338862D01*
X62435781Y-49340500D01*
X62435782Y-49340499D01*
X62435783Y-49340500D01*
X63496192Y-49340499D01*
X64564218Y-49340499D01*
X64583505Y-49338980D01*
X64696412Y-49330096D01*
X64914683Y-49275096D01*
X65119626Y-49182007D01*
X65304654Y-49053819D01*
X65463819Y-48894654D01*
X65592007Y-48709626D01*
X65685096Y-48504683D01*
X65740096Y-48286412D01*
X65750500Y-48154217D01*
X65750499Y-46525784D01*
X65740096Y-46393588D01*
X65685096Y-46175317D01*
X65592007Y-45970374D01*
X65463819Y-45785346D01*
X65304654Y-45626181D01*
X65304650Y-45626178D01*
X65304645Y-45626174D01*
X65119632Y-45497997D01*
X65119630Y-45497995D01*
X65119626Y-45497993D01*
X65036124Y-45460065D01*
X64914681Y-45404903D01*
X64914678Y-45404902D01*
X64696420Y-45349905D01*
X64696413Y-45349904D01*
X64564219Y-45339500D01*
X64564217Y-45339500D01*
X63504384Y-45339500D01*
X62435782Y-45339501D01*
X62303586Y-45349904D01*
X62303579Y-45349905D01*
X62085321Y-45404902D01*
X62085318Y-45404903D01*
X61880377Y-45497991D01*
X61880367Y-45497997D01*
X61695354Y-45626174D01*
X61695342Y-45626184D01*
X61536184Y-45785342D01*
X61536174Y-45785354D01*
X61407997Y-45970367D01*
X61407991Y-45970377D01*
X61314903Y-46175318D01*
X61314902Y-46175321D01*
X61259905Y-46393579D01*
X61259904Y-46393586D01*
X61249500Y-46525781D01*
X45106721Y-46525781D01*
X45213249Y-46393588D01*
X45418072Y-46139417D01*
X45420936Y-46136112D01*
X45764254Y-45767362D01*
X45767362Y-45764254D01*
X46136112Y-45420936D01*
X46139417Y-45418072D01*
X46531724Y-45101932D01*
X46535259Y-45099286D01*
X46949112Y-44811941D01*
X46952805Y-44809568D01*
X47386097Y-44552484D01*
X47389949Y-44550381D01*
X47840494Y-44324855D01*
X47844478Y-44323036D01*
X48309958Y-44130227D01*
X48314088Y-44128687D01*
X48792115Y-43969585D01*
X48796321Y-43968349D01*
X49284528Y-43843742D01*
X49288788Y-43842815D01*
X49784630Y-43753355D01*
X49788972Y-43752731D01*
X50289907Y-43698875D01*
X50294301Y-43698561D01*
X50800000Y-43680500D01*
X50865892Y-43680500D01*
X126930351Y-43680500D01*
X126930367Y-43680501D01*
G37*
%TD.AperFunction*%
%TD*%
M02*
