M48
; DRILL file {KiCad 7.0.6} date Mon 07 Aug 2023 10:19:32 AM CDT
; FORMAT={-:-/ absolute / inch / decimal}
; #@! TF.CreationDate,2023-08-07T10:19:32-05:00
; #@! TF.GenerationSoftware,Kicad,Pcbnew,7.0.6
; #@! TF.FileFunction,Plated,1,2,PTH
FMAT,2
INCH
; #@! TA.AperFunction,Plated,PTH,ViaDrill
T1C0.0118
; #@! TA.AperFunction,Plated,PTH,ComponentDrill
T2C0.0197
; #@! TA.AperFunction,Plated,PTH,ComponentDrill
T3C0.0315
; #@! TA.AperFunction,Plated,PTH,ComponentDrill
T4C0.0394
; #@! TA.AperFunction,Plated,PTH,ComponentDrill
T5C0.0402
%
G90
G05
T1
X3.2Y-1.8
X4.4Y-2.1
X4.8Y-2.1
X5.0Y-1.8
X5.175Y-3.85
T2
X2.4691Y-4.1024
X2.5183Y-4.1024
X2.5675Y-4.1024
X2.6167Y-4.1024
X2.6659Y-4.1024
X2.7152Y-4.1024
X2.7644Y-4.1024
X2.8136Y-4.1024
T3
X1.8504Y-3.2504
X1.8504Y-3.3504
X1.8504Y-3.4504
X1.8504Y-3.5504
X2.0Y-2.5
X2.0Y-2.5984
X2.1504Y-3.2504
X2.1504Y-3.3504
X2.1504Y-3.4504
X2.1504Y-3.5504
T5
X4.225Y-2.5
X4.225Y-2.6
X4.225Y-2.7
X4.225Y-2.8
X4.225Y-2.9
X4.225Y-3.0
X4.225Y-3.1
X4.225Y-3.2
X4.225Y-3.3
X4.225Y-3.4
X5.025Y-2.5
X5.025Y-2.6
X5.025Y-2.7
X5.025Y-2.8
X5.025Y-2.9
X5.025Y-3.0
X5.025Y-3.1
X5.025Y-3.2
X5.025Y-3.3
X5.025Y-3.4
T4
G00X2.315Y-1.9425
M15
G01X2.315Y-2.0213
M16
G05
G00X2.5394Y-1.8638
M15
G01X2.4606Y-1.8638
M16
G05
G00X2.5394Y-2.1
M15
G01X2.4606Y-2.1
M16
G05
T0
M30
