%TF.GenerationSoftware,KiCad,Pcbnew,7.0.6*%
%TF.CreationDate,2023-08-07T10:19:30-05:00*%
%TF.ProjectId,mqtt_particle_sensor,6d717474-5f70-4617-9274-69636c655f73,C*%
%TF.SameCoordinates,Original*%
%TF.FileFunction,Copper,L1,Top*%
%TF.FilePolarity,Positive*%
%FSLAX46Y46*%
G04 Gerber Fmt 4.6, Leading zero omitted, Abs format (unit mm)*
G04 Created by KiCad (PCBNEW 7.0.6) date 2023-08-07 10:19:30*
%MOMM*%
%LPD*%
G01*
G04 APERTURE LIST*
G04 Aperture macros list*
%AMRoundRect*
0 Rectangle with rounded corners*
0 $1 Rounding radius*
0 $2 $3 $4 $5 $6 $7 $8 $9 X,Y pos of 4 corners*
0 Add a 4 corners polygon primitive as box body*
4,1,4,$2,$3,$4,$5,$6,$7,$8,$9,$2,$3,0*
0 Add four circle primitives for the rounded corners*
1,1,$1+$1,$2,$3*
1,1,$1+$1,$4,$5*
1,1,$1+$1,$6,$7*
1,1,$1+$1,$8,$9*
0 Add four rect primitives between the rounded corners*
20,1,$1+$1,$2,$3,$4,$5,0*
20,1,$1+$1,$4,$5,$6,$7,0*
20,1,$1+$1,$6,$7,$8,$9,0*
20,1,$1+$1,$8,$9,$2,$3,0*%
G04 Aperture macros list end*
%TA.AperFunction,ComponentPad*%
%ADD10R,3.500000X3.500000*%
%TD*%
%TA.AperFunction,ComponentPad*%
%ADD11RoundRect,0.750000X-1.000000X0.750000X-1.000000X-0.750000X1.000000X-0.750000X1.000000X0.750000X0*%
%TD*%
%TA.AperFunction,ComponentPad*%
%ADD12RoundRect,0.875000X-0.875000X0.875000X-0.875000X-0.875000X0.875000X-0.875000X0.875000X0.875000X0*%
%TD*%
%TA.AperFunction,SMDPad,CuDef*%
%ADD13RoundRect,0.250000X0.400000X0.625000X-0.400000X0.625000X-0.400000X-0.625000X0.400000X-0.625000X0*%
%TD*%
%TA.AperFunction,SMDPad,CuDef*%
%ADD14RoundRect,0.150000X-0.825000X-0.150000X0.825000X-0.150000X0.825000X0.150000X-0.825000X0.150000X0*%
%TD*%
%TA.AperFunction,SMDPad,CuDef*%
%ADD15RoundRect,0.250000X-0.400000X-0.625000X0.400000X-0.625000X0.400000X0.625000X-0.400000X0.625000X0*%
%TD*%
%TA.AperFunction,SMDPad,CuDef*%
%ADD16R,1.900000X0.800000*%
%TD*%
%TA.AperFunction,SMDPad,CuDef*%
%ADD17RoundRect,0.250000X-0.650000X0.412500X-0.650000X-0.412500X0.650000X-0.412500X0.650000X0.412500X0*%
%TD*%
%TA.AperFunction,SMDPad,CuDef*%
%ADD18RoundRect,0.250001X0.462499X0.624999X-0.462499X0.624999X-0.462499X-0.624999X0.462499X-0.624999X0*%
%TD*%
%TA.AperFunction,SMDPad,CuDef*%
%ADD19RoundRect,0.250000X0.650000X-0.412500X0.650000X0.412500X-0.650000X0.412500X-0.650000X-0.412500X0*%
%TD*%
%TA.AperFunction,ComponentPad*%
%ADD20R,1.600000X1.600000*%
%TD*%
%TA.AperFunction,ComponentPad*%
%ADD21O,1.600000X1.600000*%
%TD*%
%TA.AperFunction,SMDPad,CuDef*%
%ADD22R,2.500000X2.500000*%
%TD*%
%TA.AperFunction,SMDPad,CuDef*%
%ADD23RoundRect,0.250000X-0.625000X0.400000X-0.625000X-0.400000X0.625000X-0.400000X0.625000X0.400000X0*%
%TD*%
%TA.AperFunction,SMDPad,CuDef*%
%ADD24RoundRect,0.250000X-0.412500X-0.650000X0.412500X-0.650000X0.412500X0.650000X-0.412500X0.650000X0*%
%TD*%
%TA.AperFunction,ComponentPad*%
%ADD25O,0.800000X1.300000*%
%TD*%
%TA.AperFunction,ComponentPad*%
%ADD26RoundRect,0.200000X0.200000X0.450000X-0.200000X0.450000X-0.200000X-0.450000X0.200000X-0.450000X0*%
%TD*%
%TA.AperFunction,ComponentPad*%
%ADD27C,1.600000*%
%TD*%
%TA.AperFunction,ComponentPad*%
%ADD28R,2.100000X1.900000*%
%TD*%
%TA.AperFunction,ComponentPad*%
%ADD29O,2.100000X1.900000*%
%TD*%
%TA.AperFunction,ViaPad*%
%ADD30C,0.600000*%
%TD*%
%TA.AperFunction,Conductor*%
%ADD31C,0.889000*%
%TD*%
%TA.AperFunction,Conductor*%
%ADD32C,0.381000*%
%TD*%
%TA.AperFunction,Conductor*%
%ADD33C,0.200000*%
%TD*%
G04 APERTURE END LIST*
D10*
%TO.P,J2,1*%
%TO.N,Net-(PS1-+VIN)*%
X63500000Y-53340000D03*
D11*
%TO.P,J2,2*%
%TO.N,GND*%
X63500000Y-47340000D03*
D12*
%TO.P,J2,3*%
%TO.N,N/C*%
X58800000Y-50340000D03*
%TD*%
D13*
%TO.P,R9,1*%
%TO.N,+3V3*%
X50800000Y-76200000D03*
%TO.P,R9,2*%
%TO.N,SCL*%
X47700000Y-76200000D03*
%TD*%
D14*
%TO.P,U1,1,Q12*%
%TO.N,unconnected-(U1-Q12-Pad1)*%
X73725000Y-46355000D03*
%TO.P,U1,2,Q13*%
%TO.N,unconnected-(U1-Q13-Pad2)*%
X73725000Y-47625000D03*
%TO.P,U1,3,Q14*%
%TO.N,Net-(Q1-G)*%
X73725000Y-48895000D03*
%TO.P,U1,4,Q6*%
%TO.N,unconnected-(U1-Q6-Pad4)*%
X73725000Y-50165000D03*
%TO.P,U1,5,Q5*%
%TO.N,unconnected-(U1-Q5-Pad5)*%
X73725000Y-51435000D03*
%TO.P,U1,6,Q7*%
%TO.N,unconnected-(U1-Q7-Pad6)*%
X73725000Y-52705000D03*
%TO.P,U1,7,Q4*%
%TO.N,unconnected-(U1-Q4-Pad7)*%
X73725000Y-53975000D03*
%TO.P,U1,8,GND*%
%TO.N,GND*%
X73725000Y-55245000D03*
%TO.P,U1,9,CLK_0-1*%
%TO.N,Net-(U1-CLK_0-1)*%
X78675000Y-55245000D03*
%TO.P,U1,10,CLK_0*%
%TO.N,Net-(U1-CLK_0)*%
X78675000Y-53975000D03*
%TO.P,U1,11,CLK_1*%
%TO.N,Net-(U1-CLK_1)*%
X78675000Y-52705000D03*
%TO.P,U1,12,RST*%
%TO.N,Net-(U1-RST)*%
X78675000Y-51435000D03*
%TO.P,U1,13,Q9*%
%TO.N,unconnected-(U1-Q9-Pad13)*%
X78675000Y-50165000D03*
%TO.P,U1,14,Q8*%
%TO.N,unconnected-(U1-Q8-Pad14)*%
X78675000Y-48895000D03*
%TO.P,U1,15,Q10*%
%TO.N,unconnected-(U1-Q10-Pad15)*%
X78675000Y-47625000D03*
%TO.P,U1,16,VDD*%
%TO.N,+3V3*%
X78675000Y-46355000D03*
%TD*%
D13*
%TO.P,R8,1*%
%TO.N,+3V3*%
X50800000Y-71120000D03*
%TO.P,R8,2*%
%TO.N,SDA*%
X47700000Y-71120000D03*
%TD*%
D15*
%TO.P,R3,1*%
%TO.N,Net-(U1-RST)*%
X83260000Y-46990000D03*
%TO.P,R3,2*%
%TO.N,GND*%
X86360000Y-46990000D03*
%TD*%
D16*
%TO.P,Q1,1,G*%
%TO.N,Net-(Q1-G)*%
X115340000Y-47310000D03*
%TO.P,Q1,2,S*%
%TO.N,GND*%
X115340000Y-49210000D03*
%TO.P,Q1,3,D*%
%TO.N,RESET*%
X118340000Y-48260000D03*
%TD*%
D15*
%TO.P,R7,1*%
%TO.N,+5V*%
X115925000Y-104775000D03*
%TO.P,R7,2*%
%TO.N,Net-(D2-A)*%
X119025000Y-104775000D03*
%TD*%
D17*
%TO.P,C2,1*%
%TO.N,Net-(U1-RST)*%
X91440000Y-45173500D03*
%TO.P,C2,2*%
%TO.N,GND*%
X91440000Y-48298500D03*
%TD*%
D18*
%TO.P,D1,1,K*%
%TO.N,GND*%
X113882500Y-80645000D03*
%TO.P,D1,2,A*%
%TO.N,Net-(D1-A)*%
X110907500Y-80645000D03*
%TD*%
D16*
%TO.P,Q2,1,G*%
%TO.N,ONLINE*%
X131360000Y-94700000D03*
%TO.P,Q2,2,S*%
%TO.N,GND*%
X131360000Y-92800000D03*
%TO.P,Q2,3,D*%
%TO.N,Net-(D2-K)*%
X128360000Y-93750000D03*
%TD*%
D13*
%TO.P,R2,1*%
%TO.N,Net-(C1-Pad2)*%
X86360000Y-50800000D03*
%TO.P,R2,2*%
%TO.N,Net-(U1-CLK_1)*%
X83260000Y-50800000D03*
%TD*%
D18*
%TO.P,D2,1,K*%
%TO.N,Net-(D2-K)*%
X123407500Y-80645000D03*
%TO.P,D2,2,A*%
%TO.N,Net-(D2-A)*%
X120432500Y-80645000D03*
%TD*%
D19*
%TO.P,C5,1*%
%TO.N,+5V*%
X132080000Y-81280000D03*
%TO.P,C5,2*%
%TO.N,GND*%
X132080000Y-78155000D03*
%TD*%
D20*
%TO.P,U2,1,~{RESET}/PB5*%
%TO.N,unconnected-(U2-~{RESET}{slash}PB5-Pad1)*%
X47000000Y-82560000D03*
D21*
%TO.P,U2,2,XTAL1/PB3*%
%TO.N,TX*%
X47000000Y-85100000D03*
%TO.P,U2,3,XTAL2/PB4*%
%TO.N,RX*%
X47000000Y-87640000D03*
%TO.P,U2,4,GND*%
%TO.N,GND*%
X47000000Y-90180000D03*
%TO.P,U2,5,AREF/PB0*%
%TO.N,SDA*%
X54620000Y-90180000D03*
%TO.P,U2,6,PB1*%
%TO.N,unconnected-(U2-PB1-Pad6)*%
X54620000Y-87640000D03*
%TO.P,U2,7,PB2*%
%TO.N,SCL*%
X54620000Y-85100000D03*
%TO.P,U2,8,VCC*%
%TO.N,+3V3*%
X54620000Y-82560000D03*
%TD*%
D22*
%TO.P,PS1,1,+VIN*%
%TO.N,Net-(PS1-+VIN)*%
X111975000Y-60040000D03*
%TO.P,PS1,2,GND*%
%TO.N,GND*%
X122975000Y-60040000D03*
%TO.P,PS1,3,+VO*%
%TO.N,+5V*%
X122975000Y-72040000D03*
%TO.P,PS1,4,ON/OFF*%
%TO.N,unconnected-(PS1-ON{slash}OFF-Pad4)*%
X111975000Y-72040000D03*
%TD*%
D23*
%TO.P,R5,1*%
%TO.N,+3V3*%
X121920000Y-45160000D03*
%TO.P,R5,2*%
%TO.N,RESET*%
X121920000Y-48260000D03*
%TD*%
D13*
%TO.P,R4,1*%
%TO.N,Net-(Q1-G)*%
X103150000Y-45720000D03*
%TO.P,R4,2*%
%TO.N,Net-(U1-RST)*%
X100050000Y-45720000D03*
%TD*%
%TO.P,R1,1*%
%TO.N,Net-(C1-Pad2)*%
X86360000Y-54610000D03*
%TO.P,R1,2*%
%TO.N,Net-(U1-CLK_0)*%
X83260000Y-54610000D03*
%TD*%
D24*
%TO.P,C4,1*%
%TO.N,Net-(PS1-+VIN)*%
X115277500Y-55880000D03*
%TO.P,C4,2*%
%TO.N,GND*%
X118402500Y-55880000D03*
%TD*%
D25*
%TO.P,U3,8,GND*%
%TO.N,GND*%
X62715000Y-104200000D03*
%TO.P,U3,7,RX*%
%TO.N,RX*%
X63965000Y-104200000D03*
%TO.P,U3,6,TX*%
%TO.N,TX*%
X65215000Y-104200000D03*
%TO.P,U3,5,RES*%
%TO.N,unconnected-(U3-RES-Pad5)*%
X66465000Y-104200000D03*
%TO.P,U3,4*%
%TO.N,N/C*%
X67715000Y-104200000D03*
%TO.P,U3,3*%
X68965000Y-104200000D03*
%TO.P,U3,2,Vcc*%
%TO.N,+5V*%
X70215000Y-104200000D03*
D26*
%TO.P,U3,1,Vout*%
%TO.N,unconnected-(U3-Vout-Pad1)*%
X71465000Y-104200000D03*
%TD*%
D15*
%TO.P,R6,1*%
%TO.N,+5V*%
X115925000Y-100330000D03*
%TO.P,R6,2*%
%TO.N,Net-(D1-A)*%
X119025000Y-100330000D03*
%TD*%
D19*
%TO.P,C1,1*%
%TO.N,Net-(U1-CLK_0-1)*%
X91440000Y-54902500D03*
%TO.P,C1,2*%
%TO.N,Net-(C1-Pad2)*%
X91440000Y-51777500D03*
%TD*%
D20*
%TO.P,C3,1*%
%TO.N,Net-(PS1-+VIN)*%
X50800000Y-63500000D03*
D27*
%TO.P,C3,2*%
%TO.N,GND*%
X50800000Y-66000000D03*
%TD*%
D28*
%TO.P,A1,1,~{RST}*%
%TO.N,RESET*%
X127635000Y-63500000D03*
D29*
%TO.P,A1,2,A*%
%TO.N,unconnected-(A1-A-Pad2)*%
X127635000Y-66040000D03*
%TO.P,A1,3,EN*%
%TO.N,unconnected-(A1-EN-Pad3)*%
X127635000Y-68580000D03*
%TO.P,A1,4,16*%
%TO.N,RESET*%
X127635000Y-71120000D03*
%TO.P,A1,5,14*%
%TO.N,unconnected-(A1-14-Pad5)*%
X127635000Y-73660000D03*
%TO.P,A1,6,12*%
%TO.N,unconnected-(A1-12-Pad6)*%
X127635000Y-76200000D03*
%TO.P,A1,7,13*%
%TO.N,unconnected-(A1-13-Pad7)*%
X127635000Y-78740000D03*
%TO.P,A1,8,V+*%
%TO.N,unconnected-(A1-V+-Pad8)*%
X127635000Y-81280000D03*
%TO.P,A1,9,VBat*%
%TO.N,+5V*%
X127635000Y-83820000D03*
%TO.P,A1,10,GND*%
%TO.N,GND*%
X127635000Y-86360000D03*
%TO.P,A1,11,GND*%
X107315000Y-86360000D03*
%TO.P,A1,12,LDO*%
%TO.N,unconnected-(A1-LDO-Pad12)*%
X107315000Y-83820000D03*
%TO.P,A1,13,3V*%
%TO.N,+3V3*%
X107315000Y-81280000D03*
%TO.P,A1,14,15*%
%TO.N,unconnected-(A1-15-Pad14)*%
X107315000Y-78740000D03*
%TO.P,A1,15,2*%
%TO.N,unconnected-(A1-2-Pad15)*%
X107315000Y-76200000D03*
%TO.P,A1,16,0*%
%TO.N,ONLINE*%
X107315000Y-73660000D03*
%TO.P,A1,17,4*%
%TO.N,SDA*%
X107315000Y-71120000D03*
%TO.P,A1,18,5*%
%TO.N,SCL*%
X107315000Y-68580000D03*
%TO.P,A1,19,RX*%
%TO.N,unconnected-(A1-RX-Pad19)*%
X107315000Y-66040000D03*
%TO.P,A1,20,TX*%
%TO.N,unconnected-(A1-TX-Pad20)*%
X107315000Y-63500000D03*
%TD*%
D30*
%TO.N,RESET*%
X121920000Y-53340000D03*
%TO.N,+3V3*%
X81280000Y-45720000D03*
X127000000Y-45720000D03*
%TO.N,ONLINE*%
X131445000Y-97790000D03*
%TO.N,Net-(PS1-+VIN)*%
X111760000Y-53340000D03*
%TD*%
D31*
%TO.N,+5V*%
X122975000Y-72040000D02*
X122975000Y-75350000D01*
X125095000Y-77470000D02*
X125095000Y-83185000D01*
X122975000Y-75350000D02*
X125095000Y-77470000D01*
X125095000Y-83185000D02*
X125730000Y-83820000D01*
X125730000Y-83820000D02*
X127635000Y-83820000D01*
D32*
X132080000Y-87630000D02*
X132080000Y-82550000D01*
X132080000Y-82550000D02*
X132080000Y-81280000D01*
X127635000Y-83820000D02*
X130810000Y-83820000D01*
X130810000Y-83820000D02*
X132080000Y-82550000D01*
X127635000Y-83820000D02*
X127050500Y-83820000D01*
%TO.N,RESET*%
X121920000Y-48260000D02*
X121920000Y-53340000D01*
X121920000Y-48260000D02*
X118340000Y-48260000D01*
%TO.N,+5V*%
X117475000Y-107950000D02*
X127000000Y-107950000D01*
X115925000Y-106400000D02*
X117475000Y-107950000D01*
X115925000Y-104775000D02*
X115925000Y-106400000D01*
X117475000Y-107950000D02*
X72390000Y-107950000D01*
X70215000Y-105775000D02*
X70215000Y-104200000D01*
X115925000Y-100330000D02*
X115925000Y-104775000D01*
X72390000Y-107950000D02*
X70215000Y-105775000D01*
X127000000Y-107950000D02*
X133350000Y-101600000D01*
X133350000Y-88900000D02*
X132080000Y-87630000D01*
X127635000Y-83820000D02*
X127635000Y-83275753D01*
X133350000Y-101600000D02*
X133350000Y-88900000D01*
%TO.N,GND*%
X127635000Y-86360000D02*
X127635000Y-89075000D01*
X47000000Y-90180000D02*
X61020000Y-104200000D01*
X127635000Y-89075000D02*
X131360000Y-92800000D01*
X61020000Y-104200000D02*
X62715000Y-104200000D01*
%TO.N,+3V3*%
X54620000Y-82560000D02*
X50800000Y-78740000D01*
X126440000Y-45160000D02*
X127000000Y-45720000D01*
X78675000Y-46355000D02*
X80645000Y-46355000D01*
X50800000Y-78740000D02*
X50800000Y-71120000D01*
X121920000Y-45160000D02*
X126440000Y-45160000D01*
X80645000Y-46355000D02*
X81280000Y-45720000D01*
%TO.N,ONLINE*%
X131445000Y-97790000D02*
X131445000Y-94785000D01*
X131445000Y-94785000D02*
X131360000Y-94700000D01*
%TO.N,SDA*%
X50800000Y-68580000D02*
X48260000Y-71120000D01*
X54620000Y-90180000D02*
X55880000Y-88920000D01*
X55880000Y-71120000D02*
X53340000Y-68580000D01*
X48260000Y-71120000D02*
X47700000Y-71120000D01*
X53340000Y-68580000D02*
X50800000Y-68580000D01*
X55880000Y-88920000D02*
X55880000Y-71120000D01*
%TO.N,SCL*%
X47700000Y-76200000D02*
X47700000Y-78180000D01*
X47700000Y-78180000D02*
X54620000Y-85100000D01*
%TO.N,Net-(U1-CLK_0-1)*%
X81788000Y-56896000D02*
X88392000Y-56896000D01*
X88392000Y-56896000D02*
X90385500Y-54902500D01*
X90385500Y-54902500D02*
X91440000Y-54902500D01*
X78675000Y-55245000D02*
X80137000Y-55245000D01*
X80137000Y-55245000D02*
X81788000Y-56896000D01*
%TO.N,Net-(C1-Pad2)*%
X91440000Y-51777500D02*
X87337500Y-51777500D01*
X86360000Y-54610000D02*
X86360000Y-50800000D01*
X87337500Y-51777500D02*
X86360000Y-50800000D01*
%TO.N,Net-(U1-RST)*%
X81280000Y-50292000D02*
X81280000Y-48260000D01*
X78675000Y-51435000D02*
X80137000Y-51435000D01*
X80137000Y-51435000D02*
X81280000Y-50292000D01*
X99542000Y-45212000D02*
X100050000Y-45720000D01*
X81280000Y-48260000D02*
X82550000Y-46990000D01*
X83820000Y-45212000D02*
X99542000Y-45212000D01*
X83260000Y-45772000D02*
X83820000Y-45212000D01*
X83260000Y-46990000D02*
X83260000Y-45772000D01*
X82550000Y-46990000D02*
X83260000Y-46990000D01*
D31*
%TO.N,Net-(PS1-+VIN)*%
X111975000Y-55880000D02*
X111975000Y-53555000D01*
X115277500Y-55880000D02*
X111975000Y-55880000D01*
D33*
X111975000Y-53555000D02*
X111760000Y-53340000D01*
D31*
X111975000Y-60040000D02*
X111975000Y-55880000D01*
D32*
%TO.N,Net-(D1-A)*%
X110907500Y-88682500D02*
X110907500Y-80645000D01*
X119025000Y-100330000D02*
X119025000Y-96800000D01*
X119025000Y-96800000D02*
X110907500Y-88682500D01*
%TO.N,Net-(D2-K)*%
X123407500Y-88797500D02*
X123407500Y-80645000D01*
X128360000Y-93750000D02*
X123407500Y-88797500D01*
%TO.N,Net-(D2-A)*%
X119025000Y-104775000D02*
X120650000Y-103150000D01*
X120650000Y-103150000D02*
X120650000Y-80862500D01*
X120650000Y-80862500D02*
X120432500Y-80645000D01*
%TO.N,Net-(Q1-G)*%
X73725000Y-48895000D02*
X75565000Y-48895000D01*
X101300500Y-43870500D02*
X103150000Y-45720000D01*
X76200000Y-48260000D02*
X76200000Y-45720000D01*
X78049500Y-43870500D02*
X101300500Y-43870500D01*
X75565000Y-48895000D02*
X76200000Y-48260000D01*
X104740000Y-47310000D02*
X115340000Y-47310000D01*
X103150000Y-45720000D02*
X104740000Y-47310000D01*
X76200000Y-45720000D02*
X78049500Y-43870500D01*
%TO.N,Net-(U1-CLK_0)*%
X82625000Y-53975000D02*
X83260000Y-54610000D01*
X78675000Y-53975000D02*
X82625000Y-53975000D01*
%TO.N,Net-(U1-CLK_1)*%
X81355000Y-52705000D02*
X83260000Y-50800000D01*
X78675000Y-52705000D02*
X81355000Y-52705000D01*
%TO.N,TX*%
X47000000Y-85100000D02*
X65215000Y-103315000D01*
X65215000Y-103315000D02*
X65215000Y-104200000D01*
%TO.N,RX*%
X48131370Y-87640000D02*
X63965000Y-103473630D01*
X47000000Y-87640000D02*
X48131370Y-87640000D01*
X63965000Y-103473630D02*
X63965000Y-104200000D01*
%TD*%
%TA.AperFunction,Conductor*%
%TO.N,GND*%
G36*
X77029955Y-43700185D02*
G01*
X77075710Y-43752989D01*
X77085654Y-43822147D01*
X77056629Y-43885703D01*
X77050597Y-43892181D01*
X75727480Y-45215296D01*
X75724754Y-45217863D01*
X75678985Y-45258411D01*
X75678977Y-45258420D01*
X75644235Y-45308753D01*
X75642015Y-45311769D01*
X75604313Y-45359894D01*
X75604311Y-45359896D01*
X75600271Y-45368873D01*
X75589253Y-45388408D01*
X75583655Y-45396519D01*
X75561968Y-45453700D01*
X75560536Y-45457158D01*
X75535442Y-45512916D01*
X75533666Y-45522606D01*
X75527645Y-45544203D01*
X75524152Y-45553414D01*
X75524152Y-45553415D01*
X75516780Y-45614124D01*
X75516218Y-45617817D01*
X75514615Y-45626569D01*
X75505195Y-45677969D01*
X75505195Y-45677972D01*
X75508887Y-45739006D01*
X75509000Y-45742751D01*
X75509000Y-47922416D01*
X75489315Y-47989455D01*
X75472685Y-48010092D01*
X75420172Y-48062606D01*
X75372177Y-48110601D01*
X75310853Y-48144085D01*
X75241162Y-48139101D01*
X75185229Y-48097229D01*
X75160812Y-48031764D01*
X75165419Y-47988326D01*
X75197598Y-47877569D01*
X75200201Y-47844496D01*
X75200500Y-47840696D01*
X75200500Y-47409304D01*
X75197598Y-47372432D01*
X75197597Y-47372426D01*
X75151745Y-47214606D01*
X75151744Y-47214603D01*
X75151744Y-47214602D01*
X75101803Y-47130156D01*
X75068084Y-47073139D01*
X75063301Y-47066974D01*
X75065752Y-47065072D01*
X75039154Y-47016421D01*
X75044103Y-46946726D01*
X75064942Y-46914299D01*
X75063301Y-46913026D01*
X75068077Y-46906868D01*
X75068081Y-46906865D01*
X75151744Y-46765398D01*
X75197598Y-46607569D01*
X75200500Y-46570694D01*
X75200500Y-46139306D01*
X75200247Y-46136096D01*
X75197598Y-46102432D01*
X75197597Y-46102426D01*
X75151745Y-45944606D01*
X75151744Y-45944603D01*
X75151744Y-45944602D01*
X75068081Y-45803135D01*
X75068079Y-45803133D01*
X75068076Y-45803129D01*
X74951870Y-45686923D01*
X74951862Y-45686917D01*
X74873681Y-45640681D01*
X74810398Y-45603256D01*
X74810397Y-45603255D01*
X74810396Y-45603255D01*
X74810393Y-45603254D01*
X74652573Y-45557402D01*
X74652567Y-45557401D01*
X74615696Y-45554500D01*
X74615694Y-45554500D01*
X72834306Y-45554500D01*
X72834304Y-45554500D01*
X72797432Y-45557401D01*
X72797426Y-45557402D01*
X72639606Y-45603254D01*
X72639603Y-45603255D01*
X72498137Y-45686917D01*
X72498129Y-45686923D01*
X72381923Y-45803129D01*
X72381917Y-45803137D01*
X72298255Y-45944603D01*
X72298254Y-45944606D01*
X72252402Y-46102426D01*
X72252401Y-46102432D01*
X72249500Y-46139304D01*
X72249500Y-46570696D01*
X72252401Y-46607567D01*
X72252402Y-46607573D01*
X72298254Y-46765393D01*
X72298255Y-46765396D01*
X72298256Y-46765398D01*
X72320208Y-46802517D01*
X72381917Y-46906862D01*
X72386702Y-46913031D01*
X72384248Y-46914933D01*
X72410844Y-46963578D01*
X72405895Y-47033273D01*
X72385074Y-47065706D01*
X72386702Y-47066969D01*
X72381917Y-47073137D01*
X72298255Y-47214603D01*
X72298254Y-47214606D01*
X72252402Y-47372426D01*
X72252401Y-47372432D01*
X72249500Y-47409304D01*
X72249500Y-47840696D01*
X72252401Y-47877567D01*
X72252402Y-47877573D01*
X72298254Y-48035393D01*
X72298255Y-48035396D01*
X72298256Y-48035398D01*
X72308616Y-48052916D01*
X72381917Y-48176862D01*
X72386702Y-48183031D01*
X72384256Y-48184927D01*
X72410857Y-48233642D01*
X72405873Y-48303334D01*
X72385069Y-48335703D01*
X72386702Y-48336969D01*
X72381917Y-48343137D01*
X72298255Y-48484603D01*
X72298254Y-48484606D01*
X72252402Y-48642426D01*
X72252401Y-48642432D01*
X72249500Y-48679304D01*
X72249500Y-49110696D01*
X72252401Y-49147567D01*
X72252402Y-49147573D01*
X72298254Y-49305393D01*
X72298255Y-49305396D01*
X72298256Y-49305398D01*
X72334998Y-49367525D01*
X72381917Y-49446862D01*
X72386702Y-49453031D01*
X72384248Y-49454933D01*
X72410844Y-49503578D01*
X72405895Y-49573273D01*
X72385074Y-49605706D01*
X72386702Y-49606969D01*
X72381917Y-49613137D01*
X72298255Y-49754603D01*
X72298254Y-49754606D01*
X72252402Y-49912426D01*
X72252401Y-49912432D01*
X72249500Y-49949304D01*
X72249500Y-50380696D01*
X72252401Y-50417567D01*
X72252402Y-50417573D01*
X72298254Y-50575393D01*
X72298255Y-50575396D01*
X72381917Y-50716862D01*
X72386702Y-50723031D01*
X72384256Y-50724927D01*
X72410857Y-50773642D01*
X72405873Y-50843334D01*
X72385069Y-50875703D01*
X72386702Y-50876969D01*
X72381917Y-50883137D01*
X72298255Y-51024603D01*
X72298254Y-51024606D01*
X72252402Y-51182426D01*
X72252401Y-51182432D01*
X72249500Y-51219304D01*
X72249500Y-51650696D01*
X72252401Y-51687567D01*
X72252402Y-51687573D01*
X72298254Y-51845393D01*
X72298255Y-51845396D01*
X72381917Y-51986862D01*
X72386702Y-51993031D01*
X72384248Y-51994933D01*
X72410844Y-52043578D01*
X72405895Y-52113273D01*
X72385074Y-52145706D01*
X72386702Y-52146969D01*
X72381917Y-52153137D01*
X72298255Y-52294603D01*
X72298254Y-52294606D01*
X72252402Y-52452426D01*
X72252401Y-52452432D01*
X72249500Y-52489304D01*
X72249500Y-52920696D01*
X72252401Y-52957567D01*
X72252402Y-52957573D01*
X72298254Y-53115393D01*
X72298255Y-53115396D01*
X72381917Y-53256862D01*
X72386702Y-53263031D01*
X72384256Y-53264927D01*
X72410857Y-53313642D01*
X72405873Y-53383334D01*
X72385069Y-53415703D01*
X72386702Y-53416969D01*
X72381917Y-53423137D01*
X72298255Y-53564603D01*
X72298254Y-53564606D01*
X72252402Y-53722426D01*
X72252401Y-53722432D01*
X72249500Y-53759304D01*
X72249500Y-54190696D01*
X72252401Y-54227567D01*
X72252402Y-54227573D01*
X72298254Y-54385393D01*
X72298255Y-54385396D01*
X72381917Y-54526862D01*
X72386702Y-54533031D01*
X72384369Y-54534840D01*
X72411210Y-54583995D01*
X72406226Y-54653687D01*
X72385470Y-54686021D01*
X72387097Y-54687283D01*
X72382313Y-54693449D01*
X72298718Y-54834801D01*
X72252899Y-54992513D01*
X72252704Y-54994998D01*
X72252705Y-54995000D01*
X75197295Y-54995000D01*
X75197295Y-54994998D01*
X75197100Y-54992513D01*
X75151281Y-54834801D01*
X75067685Y-54693447D01*
X75062900Y-54687278D01*
X75065366Y-54685364D01*
X75038802Y-54636776D01*
X75043749Y-54567082D01*
X75064856Y-54534232D01*
X75063301Y-54533026D01*
X75068077Y-54526868D01*
X75068081Y-54526865D01*
X75151744Y-54385398D01*
X75197598Y-54227569D01*
X75200500Y-54190694D01*
X75200500Y-53759306D01*
X75197598Y-53722431D01*
X75188037Y-53689523D01*
X75151745Y-53564606D01*
X75151744Y-53564603D01*
X75151744Y-53564602D01*
X75111382Y-53496353D01*
X75068084Y-53423139D01*
X75063301Y-53416974D01*
X75065752Y-53415072D01*
X75039154Y-53366421D01*
X75044103Y-53296726D01*
X75064942Y-53264299D01*
X75063301Y-53263026D01*
X75068077Y-53256868D01*
X75068081Y-53256865D01*
X75151744Y-53115398D01*
X75197598Y-52957569D01*
X75200500Y-52920694D01*
X75200500Y-52489306D01*
X75198871Y-52468613D01*
X75197598Y-52452432D01*
X75197597Y-52452426D01*
X75151745Y-52294606D01*
X75151744Y-52294603D01*
X75151744Y-52294602D01*
X75090558Y-52191141D01*
X75068084Y-52153139D01*
X75063301Y-52146974D01*
X75065752Y-52145072D01*
X75039154Y-52096421D01*
X75044103Y-52026726D01*
X75064942Y-51994299D01*
X75063301Y-51993026D01*
X75068077Y-51986868D01*
X75068081Y-51986865D01*
X75151744Y-51845398D01*
X75197598Y-51687569D01*
X75200500Y-51650694D01*
X75200500Y-51219306D01*
X75197598Y-51182431D01*
X75187072Y-51146202D01*
X75151745Y-51024606D01*
X75151744Y-51024603D01*
X75151744Y-51024602D01*
X75091016Y-50921916D01*
X75068084Y-50883139D01*
X75063301Y-50876974D01*
X75065752Y-50875072D01*
X75039154Y-50826421D01*
X75044103Y-50756726D01*
X75064942Y-50724299D01*
X75063301Y-50723026D01*
X75068077Y-50716868D01*
X75068081Y-50716865D01*
X75151744Y-50575398D01*
X75197598Y-50417569D01*
X75200500Y-50380694D01*
X75200500Y-49949306D01*
X75197598Y-49912431D01*
X75197597Y-49912426D01*
X75149568Y-49747110D01*
X75152161Y-49746356D01*
X75145198Y-49689889D01*
X75175494Y-49626930D01*
X75235020Y-49590345D01*
X75267556Y-49586000D01*
X75542247Y-49586000D01*
X75545992Y-49586113D01*
X75607026Y-49589805D01*
X75607026Y-49589804D01*
X75607028Y-49589805D01*
X75667185Y-49578779D01*
X75670870Y-49578219D01*
X75731582Y-49570848D01*
X75740788Y-49567356D01*
X75762403Y-49561330D01*
X75772085Y-49559557D01*
X75827865Y-49534451D01*
X75831281Y-49533037D01*
X75888482Y-49511344D01*
X75896579Y-49505754D01*
X75916139Y-49494722D01*
X75925105Y-49490688D01*
X75973249Y-49452968D01*
X75976255Y-49450757D01*
X75976619Y-49450506D01*
X76026583Y-49416020D01*
X76067144Y-49370234D01*
X76069678Y-49367542D01*
X76672534Y-48764685D01*
X76675226Y-48762151D01*
X76721020Y-48721583D01*
X76755768Y-48671238D01*
X76757959Y-48668260D01*
X76795688Y-48620105D01*
X76799722Y-48611139D01*
X76810754Y-48591580D01*
X76816342Y-48583485D01*
X76816342Y-48583484D01*
X76816344Y-48583482D01*
X76838030Y-48526299D01*
X76839450Y-48522869D01*
X76864558Y-48467084D01*
X76866332Y-48457397D01*
X76872359Y-48435778D01*
X76875848Y-48426582D01*
X76883216Y-48365895D01*
X76883779Y-48362197D01*
X76894805Y-48302033D01*
X76894806Y-48302028D01*
X76891113Y-48240979D01*
X76891000Y-48237234D01*
X76891000Y-46057584D01*
X76910685Y-45990545D01*
X76927313Y-45969908D01*
X77027825Y-45869396D01*
X77089144Y-45835914D01*
X77158836Y-45840898D01*
X77214770Y-45882769D01*
X77239187Y-45948233D01*
X77234579Y-45991675D01*
X77202402Y-46102426D01*
X77202401Y-46102432D01*
X77199500Y-46139304D01*
X77199500Y-46570696D01*
X77202401Y-46607567D01*
X77202402Y-46607573D01*
X77248254Y-46765393D01*
X77248255Y-46765396D01*
X77248256Y-46765398D01*
X77270208Y-46802517D01*
X77331917Y-46906862D01*
X77336702Y-46913031D01*
X77334256Y-46914927D01*
X77360857Y-46963642D01*
X77355873Y-47033334D01*
X77335069Y-47065703D01*
X77336702Y-47066969D01*
X77331917Y-47073137D01*
X77248255Y-47214603D01*
X77248254Y-47214606D01*
X77202402Y-47372426D01*
X77202401Y-47372432D01*
X77199500Y-47409304D01*
X77199500Y-47840696D01*
X77202401Y-47877567D01*
X77202402Y-47877573D01*
X77248254Y-48035393D01*
X77248255Y-48035396D01*
X77248256Y-48035398D01*
X77258616Y-48052916D01*
X77331917Y-48176862D01*
X77336702Y-48183031D01*
X77334256Y-48184927D01*
X77360857Y-48233642D01*
X77355873Y-48303334D01*
X77335069Y-48335703D01*
X77336702Y-48336969D01*
X77331917Y-48343137D01*
X77248255Y-48484603D01*
X77248254Y-48484606D01*
X77202402Y-48642426D01*
X77202401Y-48642432D01*
X77199500Y-48679304D01*
X77199500Y-49110696D01*
X77202401Y-49147567D01*
X77202402Y-49147573D01*
X77248254Y-49305393D01*
X77248255Y-49305396D01*
X77248256Y-49305398D01*
X77284998Y-49367525D01*
X77331917Y-49446862D01*
X77336702Y-49453031D01*
X77334256Y-49454927D01*
X77360857Y-49503642D01*
X77355873Y-49573334D01*
X77335069Y-49605703D01*
X77336702Y-49606969D01*
X77331917Y-49613137D01*
X77248255Y-49754603D01*
X77248254Y-49754606D01*
X77202402Y-49912426D01*
X77202401Y-49912432D01*
X77199500Y-49949304D01*
X77199500Y-50380696D01*
X77202401Y-50417567D01*
X77202402Y-50417573D01*
X77248254Y-50575393D01*
X77248255Y-50575396D01*
X77331917Y-50716862D01*
X77336702Y-50723031D01*
X77334256Y-50724927D01*
X77360857Y-50773642D01*
X77355873Y-50843334D01*
X77335069Y-50875703D01*
X77336702Y-50876969D01*
X77331917Y-50883137D01*
X77248255Y-51024603D01*
X77248254Y-51024606D01*
X77202402Y-51182426D01*
X77202401Y-51182432D01*
X77199500Y-51219304D01*
X77199500Y-51650696D01*
X77202401Y-51687567D01*
X77202402Y-51687573D01*
X77248254Y-51845393D01*
X77248255Y-51845396D01*
X77331917Y-51986862D01*
X77336702Y-51993031D01*
X77334256Y-51994927D01*
X77360857Y-52043642D01*
X77355873Y-52113334D01*
X77335069Y-52145703D01*
X77336702Y-52146969D01*
X77331917Y-52153137D01*
X77248255Y-52294603D01*
X77248254Y-52294606D01*
X77202402Y-52452426D01*
X77202401Y-52452432D01*
X77199500Y-52489304D01*
X77199500Y-52920696D01*
X77202401Y-52957567D01*
X77202402Y-52957573D01*
X77248254Y-53115393D01*
X77248255Y-53115396D01*
X77331917Y-53256862D01*
X77336702Y-53263031D01*
X77334256Y-53264927D01*
X77360857Y-53313642D01*
X77355873Y-53383334D01*
X77335069Y-53415703D01*
X77336702Y-53416969D01*
X77331917Y-53423137D01*
X77248255Y-53564603D01*
X77248254Y-53564606D01*
X77202402Y-53722426D01*
X77202401Y-53722432D01*
X77199500Y-53759304D01*
X77199500Y-54190696D01*
X77202401Y-54227567D01*
X77202402Y-54227573D01*
X77248254Y-54385393D01*
X77248255Y-54385396D01*
X77331917Y-54526862D01*
X77336702Y-54533031D01*
X77334256Y-54534927D01*
X77360857Y-54583642D01*
X77355873Y-54653334D01*
X77335069Y-54685703D01*
X77336702Y-54686969D01*
X77331917Y-54693137D01*
X77248255Y-54834603D01*
X77248254Y-54834606D01*
X77202402Y-54992426D01*
X77202401Y-54992432D01*
X77199500Y-55029304D01*
X77199500Y-55460696D01*
X77202401Y-55497567D01*
X77202402Y-55497573D01*
X77248254Y-55655393D01*
X77248255Y-55655396D01*
X77331917Y-55796862D01*
X77331923Y-55796870D01*
X77448129Y-55913076D01*
X77448133Y-55913079D01*
X77448135Y-55913081D01*
X77589602Y-55996744D01*
X77600162Y-55999812D01*
X77747426Y-56042597D01*
X77747429Y-56042597D01*
X77747431Y-56042598D01*
X77759722Y-56043565D01*
X77784304Y-56045500D01*
X77784306Y-56045500D01*
X79565696Y-56045500D01*
X79584131Y-56044049D01*
X79602569Y-56042598D01*
X79602571Y-56042597D01*
X79602573Y-56042597D01*
X79644191Y-56030505D01*
X79760398Y-55996744D01*
X79772570Y-55989545D01*
X79840292Y-55972361D01*
X79906555Y-55994519D01*
X79923373Y-56008595D01*
X81283304Y-57368525D01*
X81285856Y-57371236D01*
X81326417Y-57417020D01*
X81376768Y-57451774D01*
X81379755Y-57453972D01*
X81427895Y-57491688D01*
X81436866Y-57495725D01*
X81456411Y-57506748D01*
X81464518Y-57512344D01*
X81521703Y-57534031D01*
X81525120Y-57535446D01*
X81580916Y-57560558D01*
X81590600Y-57562332D01*
X81612229Y-57568362D01*
X81621418Y-57571848D01*
X81682098Y-57579215D01*
X81685801Y-57579779D01*
X81706306Y-57583536D01*
X81745972Y-57590806D01*
X81800771Y-57587490D01*
X81807019Y-57587113D01*
X81810764Y-57587000D01*
X88369247Y-57587000D01*
X88372992Y-57587113D01*
X88434026Y-57590805D01*
X88434026Y-57590804D01*
X88434028Y-57590805D01*
X88494185Y-57579779D01*
X88497870Y-57579219D01*
X88558582Y-57571848D01*
X88567788Y-57568356D01*
X88589403Y-57562330D01*
X88599085Y-57560557D01*
X88654865Y-57535451D01*
X88658281Y-57534037D01*
X88715482Y-57512344D01*
X88723579Y-57506754D01*
X88743139Y-57495722D01*
X88752105Y-57491688D01*
X88800249Y-57453968D01*
X88803255Y-57451757D01*
X88853583Y-57417020D01*
X88894144Y-57371234D01*
X88896678Y-57368542D01*
X90274384Y-55990835D01*
X90335705Y-55957352D01*
X90405397Y-55962336D01*
X90427159Y-55972979D01*
X90470659Y-55999810D01*
X90470660Y-55999810D01*
X90470666Y-55999814D01*
X90637203Y-56054999D01*
X90739991Y-56065500D01*
X92140008Y-56065499D01*
X92242797Y-56054999D01*
X92409334Y-55999814D01*
X92558656Y-55907712D01*
X92682712Y-55783656D01*
X92774814Y-55634334D01*
X92829999Y-55467797D01*
X92840500Y-55365009D01*
X92840499Y-54439992D01*
X92834522Y-54381485D01*
X92829999Y-54337203D01*
X92829998Y-54337200D01*
X92815883Y-54294605D01*
X92774814Y-54170666D01*
X92682712Y-54021344D01*
X92558656Y-53897288D01*
X92409334Y-53805186D01*
X92242797Y-53750001D01*
X92242795Y-53750000D01*
X92140010Y-53739500D01*
X90739998Y-53739500D01*
X90739981Y-53739501D01*
X90637203Y-53750000D01*
X90637200Y-53750001D01*
X90470668Y-53805185D01*
X90470663Y-53805187D01*
X90321342Y-53897289D01*
X90197289Y-54021342D01*
X90105184Y-54170668D01*
X90083150Y-54237161D01*
X90043377Y-54294605D01*
X90029602Y-54304268D01*
X90025395Y-54306811D01*
X89977264Y-54344518D01*
X89974248Y-54346737D01*
X89923918Y-54381479D01*
X89923911Y-54381485D01*
X89883356Y-54427262D01*
X89880789Y-54429988D01*
X88142097Y-56168681D01*
X88080774Y-56202166D01*
X88054416Y-56205000D01*
X86987125Y-56205000D01*
X86920086Y-56185315D01*
X86874331Y-56132511D01*
X86864387Y-56063353D01*
X86893412Y-55999797D01*
X86948120Y-55963294D01*
X86951011Y-55962336D01*
X87079334Y-55919814D01*
X87228656Y-55827712D01*
X87352712Y-55703656D01*
X87444814Y-55554334D01*
X87499999Y-55387797D01*
X87510500Y-55285009D01*
X87510499Y-53934992D01*
X87506647Y-53897288D01*
X87499999Y-53832203D01*
X87499998Y-53832200D01*
X87475843Y-53759306D01*
X87444814Y-53665666D01*
X87352712Y-53516344D01*
X87228656Y-53392288D01*
X87109902Y-53319040D01*
X87063179Y-53267093D01*
X87051000Y-53213502D01*
X87051000Y-52899387D01*
X87051000Y-52578750D01*
X87070683Y-52511715D01*
X87123487Y-52465960D01*
X87189942Y-52455658D01*
X87208956Y-52457966D01*
X87231617Y-52460717D01*
X87235312Y-52461279D01*
X87295472Y-52472305D01*
X87352544Y-52468852D01*
X87356508Y-52468613D01*
X87360253Y-52468500D01*
X90010792Y-52468500D01*
X90077831Y-52488185D01*
X90116330Y-52527402D01*
X90197288Y-52658656D01*
X90321344Y-52782712D01*
X90470666Y-52874814D01*
X90637203Y-52929999D01*
X90739991Y-52940500D01*
X92140008Y-52940499D01*
X92242797Y-52929999D01*
X92409334Y-52874814D01*
X92558656Y-52782712D01*
X92682712Y-52658656D01*
X92774814Y-52509334D01*
X92829999Y-52342797D01*
X92840500Y-52240009D01*
X92840499Y-51314992D01*
X92839848Y-51308622D01*
X92829999Y-51212203D01*
X92829998Y-51212200D01*
X92820134Y-51182432D01*
X92774814Y-51045666D01*
X92682712Y-50896344D01*
X92558656Y-50772288D01*
X92409334Y-50680186D01*
X92242797Y-50625001D01*
X92242795Y-50625000D01*
X92140010Y-50614500D01*
X90739998Y-50614500D01*
X90739981Y-50614501D01*
X90637203Y-50625000D01*
X90637200Y-50625001D01*
X90470668Y-50680185D01*
X90470663Y-50680187D01*
X90321342Y-50772289D01*
X90197289Y-50896342D01*
X90116331Y-51027597D01*
X90064383Y-51074321D01*
X90010792Y-51086500D01*
X87675083Y-51086500D01*
X87608044Y-51066815D01*
X87587402Y-51050181D01*
X87546818Y-51009597D01*
X87513333Y-50948274D01*
X87510499Y-50921916D01*
X87510499Y-50124998D01*
X87510498Y-50124981D01*
X87499999Y-50022203D01*
X87499998Y-50022200D01*
X87477536Y-49954415D01*
X87444814Y-49855666D01*
X87352712Y-49706344D01*
X87228656Y-49582288D01*
X87101046Y-49503578D01*
X87079336Y-49490187D01*
X87079331Y-49490185D01*
X87068892Y-49486726D01*
X86912797Y-49435001D01*
X86912795Y-49435000D01*
X86810010Y-49424500D01*
X85909998Y-49424500D01*
X85909980Y-49424501D01*
X85807203Y-49435000D01*
X85807200Y-49435001D01*
X85640668Y-49490185D01*
X85640663Y-49490187D01*
X85491342Y-49582289D01*
X85367289Y-49706342D01*
X85275187Y-49855663D01*
X85275185Y-49855668D01*
X85247349Y-49939670D01*
X85220001Y-50022203D01*
X85220001Y-50022204D01*
X85220000Y-50022204D01*
X85209500Y-50124983D01*
X85209500Y-51475001D01*
X85209501Y-51475018D01*
X85220000Y-51577796D01*
X85220001Y-51577799D01*
X85244157Y-51650696D01*
X85275186Y-51744334D01*
X85367288Y-51893656D01*
X85491344Y-52017712D01*
X85610096Y-52090958D01*
X85656821Y-52142906D01*
X85669000Y-52196497D01*
X85669000Y-53213502D01*
X85649315Y-53280541D01*
X85610097Y-53319041D01*
X85491342Y-53392289D01*
X85367289Y-53516342D01*
X85275187Y-53665663D01*
X85275185Y-53665668D01*
X85250720Y-53739500D01*
X85220001Y-53832203D01*
X85220001Y-53832204D01*
X85220000Y-53832204D01*
X85209500Y-53934983D01*
X85209500Y-55285001D01*
X85209501Y-55285018D01*
X85220000Y-55387796D01*
X85220001Y-55387799D01*
X85255525Y-55495001D01*
X85275186Y-55554334D01*
X85367288Y-55703656D01*
X85491344Y-55827712D01*
X85640666Y-55919814D01*
X85771882Y-55963294D01*
X85829326Y-56003067D01*
X85856149Y-56067582D01*
X85843834Y-56136358D01*
X85796291Y-56187558D01*
X85732877Y-56205000D01*
X83887125Y-56205000D01*
X83820086Y-56185315D01*
X83774331Y-56132511D01*
X83764387Y-56063353D01*
X83793412Y-55999797D01*
X83848120Y-55963294D01*
X83851011Y-55962336D01*
X83979334Y-55919814D01*
X84128656Y-55827712D01*
X84252712Y-55703656D01*
X84344814Y-55554334D01*
X84399999Y-55387797D01*
X84410500Y-55285009D01*
X84410499Y-53934992D01*
X84406647Y-53897288D01*
X84399999Y-53832203D01*
X84399998Y-53832200D01*
X84375843Y-53759306D01*
X84344814Y-53665666D01*
X84252712Y-53516344D01*
X84128656Y-53392288D01*
X83979334Y-53300186D01*
X83812797Y-53245001D01*
X83812795Y-53245000D01*
X83710010Y-53234500D01*
X82809998Y-53234500D01*
X82809980Y-53234501D01*
X82707203Y-53245000D01*
X82707200Y-53245001D01*
X82608506Y-53277706D01*
X82569502Y-53284000D01*
X82052583Y-53284000D01*
X81985544Y-53264315D01*
X81939789Y-53211511D01*
X81929845Y-53142353D01*
X81958870Y-53078797D01*
X81964902Y-53072319D01*
X82825402Y-52211818D01*
X82886725Y-52178333D01*
X82913083Y-52175499D01*
X83710002Y-52175499D01*
X83710008Y-52175499D01*
X83812797Y-52164999D01*
X83979334Y-52109814D01*
X84128656Y-52017712D01*
X84252712Y-51893656D01*
X84344814Y-51744334D01*
X84399999Y-51577797D01*
X84410500Y-51475009D01*
X84410499Y-50124992D01*
X84408967Y-50109999D01*
X84399999Y-50022203D01*
X84399998Y-50022200D01*
X84377536Y-49954415D01*
X84344814Y-49855666D01*
X84252712Y-49706344D01*
X84128656Y-49582288D01*
X84001046Y-49503578D01*
X83979336Y-49490187D01*
X83979331Y-49490185D01*
X83968892Y-49486726D01*
X83812797Y-49435001D01*
X83812795Y-49435000D01*
X83710010Y-49424500D01*
X82809998Y-49424500D01*
X82809980Y-49424501D01*
X82707203Y-49435000D01*
X82707200Y-49435001D01*
X82540668Y-49490185D01*
X82540663Y-49490187D01*
X82391342Y-49582289D01*
X82267289Y-49706342D01*
X82200539Y-49814562D01*
X82148591Y-49861286D01*
X82079628Y-49872509D01*
X82015546Y-49844665D01*
X81976690Y-49786596D01*
X81971000Y-49749465D01*
X81971000Y-48597583D01*
X81985412Y-48548500D01*
X90040001Y-48548500D01*
X90040001Y-48760986D01*
X90050494Y-48863697D01*
X90105641Y-49030119D01*
X90105643Y-49030124D01*
X90197684Y-49179345D01*
X90321654Y-49303315D01*
X90470875Y-49395356D01*
X90470880Y-49395358D01*
X90637302Y-49450505D01*
X90637309Y-49450506D01*
X90740019Y-49460999D01*
X91189999Y-49460999D01*
X91190000Y-49460998D01*
X91190000Y-48548500D01*
X91690000Y-48548500D01*
X91690000Y-49460999D01*
X92139972Y-49460999D01*
X92139986Y-49460998D01*
X92149755Y-49460000D01*
X113890000Y-49460000D01*
X113890000Y-49657844D01*
X113896401Y-49717372D01*
X113896403Y-49717379D01*
X113946645Y-49852086D01*
X113946649Y-49852093D01*
X114032809Y-49967187D01*
X114032812Y-49967190D01*
X114147906Y-50053350D01*
X114147913Y-50053354D01*
X114282620Y-50103596D01*
X114282627Y-50103598D01*
X114342155Y-50109999D01*
X114342172Y-50110000D01*
X115090000Y-50110000D01*
X115090000Y-49460000D01*
X115590000Y-49460000D01*
X115590000Y-50110000D01*
X116337828Y-50110000D01*
X116337844Y-50109999D01*
X116397372Y-50103598D01*
X116397379Y-50103596D01*
X116532086Y-50053354D01*
X116532093Y-50053350D01*
X116647187Y-49967190D01*
X116647190Y-49967187D01*
X116733350Y-49852093D01*
X116733354Y-49852086D01*
X116783596Y-49717379D01*
X116783598Y-49717372D01*
X116789999Y-49657844D01*
X116790000Y-49657827D01*
X116790000Y-49460000D01*
X115590000Y-49460000D01*
X115090000Y-49460000D01*
X113890000Y-49460000D01*
X92149755Y-49460000D01*
X92242697Y-49450505D01*
X92409119Y-49395358D01*
X92409124Y-49395356D01*
X92558345Y-49303315D01*
X92682315Y-49179345D01*
X92774356Y-49030124D01*
X92774358Y-49030119D01*
X92829505Y-48863697D01*
X92829506Y-48863690D01*
X92839999Y-48760986D01*
X92840000Y-48760973D01*
X92840000Y-48548500D01*
X91690000Y-48548500D01*
X91190000Y-48548500D01*
X90040001Y-48548500D01*
X81985412Y-48548500D01*
X81990685Y-48530544D01*
X82007315Y-48509906D01*
X82271399Y-48245820D01*
X82332722Y-48212336D01*
X82402413Y-48217320D01*
X82424176Y-48227963D01*
X82540659Y-48299810D01*
X82540660Y-48299810D01*
X82540666Y-48299814D01*
X82707203Y-48354999D01*
X82809991Y-48365500D01*
X83710008Y-48365499D01*
X83710016Y-48365498D01*
X83710019Y-48365498D01*
X83772308Y-48359135D01*
X83812797Y-48354999D01*
X83979334Y-48299814D01*
X84128656Y-48207712D01*
X84252712Y-48083656D01*
X84344814Y-47934334D01*
X84399999Y-47767797D01*
X84410500Y-47665009D01*
X84410500Y-47240000D01*
X85210001Y-47240000D01*
X85210001Y-47664986D01*
X85220494Y-47767697D01*
X85275641Y-47934119D01*
X85275643Y-47934124D01*
X85367684Y-48083345D01*
X85491654Y-48207315D01*
X85640875Y-48299356D01*
X85640880Y-48299358D01*
X85807302Y-48354505D01*
X85807309Y-48354506D01*
X85910019Y-48364999D01*
X86109999Y-48364999D01*
X86110000Y-48364998D01*
X86110000Y-47240000D01*
X86610000Y-47240000D01*
X86610000Y-48364999D01*
X86809972Y-48364999D01*
X86809986Y-48364998D01*
X86912697Y-48354505D01*
X87079119Y-48299358D01*
X87079124Y-48299356D01*
X87228345Y-48207315D01*
X87352315Y-48083345D01*
X87373808Y-48048500D01*
X90040000Y-48048500D01*
X91190000Y-48048500D01*
X91190000Y-47136000D01*
X91690000Y-47136000D01*
X91690000Y-48048500D01*
X92839999Y-48048500D01*
X92839999Y-47836028D01*
X92839998Y-47836013D01*
X92829505Y-47733302D01*
X92774358Y-47566880D01*
X92774356Y-47566875D01*
X92682315Y-47417654D01*
X92558345Y-47293684D01*
X92409124Y-47201643D01*
X92409119Y-47201641D01*
X92242697Y-47146494D01*
X92242690Y-47146493D01*
X92139986Y-47136000D01*
X91690000Y-47136000D01*
X91190000Y-47136000D01*
X90740028Y-47136000D01*
X90740012Y-47136001D01*
X90637302Y-47146494D01*
X90470880Y-47201641D01*
X90470875Y-47201643D01*
X90321654Y-47293684D01*
X90197684Y-47417654D01*
X90105643Y-47566875D01*
X90105641Y-47566880D01*
X90050494Y-47733302D01*
X90050493Y-47733309D01*
X90040000Y-47836013D01*
X90040000Y-48048500D01*
X87373808Y-48048500D01*
X87444356Y-47934124D01*
X87444358Y-47934119D01*
X87499505Y-47767697D01*
X87499506Y-47767690D01*
X87509999Y-47664986D01*
X87510000Y-47664973D01*
X87510000Y-47240000D01*
X86610000Y-47240000D01*
X86110000Y-47240000D01*
X85210001Y-47240000D01*
X84410500Y-47240000D01*
X84410499Y-46314992D01*
X84408967Y-46299999D01*
X84399999Y-46212203D01*
X84399998Y-46212200D01*
X84387830Y-46175480D01*
X84351552Y-46066002D01*
X84349151Y-45996176D01*
X84384883Y-45936134D01*
X84447403Y-45904941D01*
X84469259Y-45903000D01*
X85151267Y-45903000D01*
X85218306Y-45922685D01*
X85264061Y-45975489D01*
X85274005Y-46044647D01*
X85268973Y-46066004D01*
X85220494Y-46212302D01*
X85220493Y-46212309D01*
X85210000Y-46315013D01*
X85210000Y-46740000D01*
X87509999Y-46740000D01*
X87509999Y-46315028D01*
X87509998Y-46315013D01*
X87499505Y-46212302D01*
X87451027Y-46066004D01*
X87448625Y-45996176D01*
X87484357Y-45936134D01*
X87546877Y-45904941D01*
X87568733Y-45903000D01*
X90034539Y-45903000D01*
X90101578Y-45922685D01*
X90140077Y-45961902D01*
X90197288Y-46054656D01*
X90321344Y-46178712D01*
X90470666Y-46270814D01*
X90637203Y-46325999D01*
X90739991Y-46336500D01*
X92140008Y-46336499D01*
X92242797Y-46325999D01*
X92409334Y-46270814D01*
X92558656Y-46178712D01*
X92682712Y-46054656D01*
X92739922Y-45961902D01*
X92791870Y-45915179D01*
X92845461Y-45903000D01*
X98775501Y-45903000D01*
X98842540Y-45922685D01*
X98888295Y-45975489D01*
X98899501Y-46027000D01*
X98899501Y-46395018D01*
X98910000Y-46497796D01*
X98910001Y-46497799D01*
X98943641Y-46599315D01*
X98965186Y-46664334D01*
X99057288Y-46813656D01*
X99181344Y-46937712D01*
X99330666Y-47029814D01*
X99497203Y-47084999D01*
X99599991Y-47095500D01*
X100500008Y-47095499D01*
X100500016Y-47095498D01*
X100500019Y-47095498D01*
X100556302Y-47089748D01*
X100602797Y-47084999D01*
X100769334Y-47029814D01*
X100918656Y-46937712D01*
X101042712Y-46813656D01*
X101134814Y-46664334D01*
X101189999Y-46497797D01*
X101200500Y-46395009D01*
X101200499Y-45047082D01*
X101220184Y-44980044D01*
X101272987Y-44934289D01*
X101342146Y-44924345D01*
X101405702Y-44953370D01*
X101412180Y-44959402D01*
X101963181Y-45510403D01*
X101996666Y-45571726D01*
X101999500Y-45598084D01*
X101999500Y-46395001D01*
X101999501Y-46395019D01*
X102010000Y-46497796D01*
X102010001Y-46497799D01*
X102043641Y-46599315D01*
X102065186Y-46664334D01*
X102157288Y-46813656D01*
X102281344Y-46937712D01*
X102430666Y-47029814D01*
X102597203Y-47084999D01*
X102699991Y-47095500D01*
X103496915Y-47095499D01*
X103563954Y-47115183D01*
X103584596Y-47131818D01*
X104235305Y-47782526D01*
X104237856Y-47785236D01*
X104278417Y-47831020D01*
X104328768Y-47865774D01*
X104331755Y-47867972D01*
X104379895Y-47905688D01*
X104388866Y-47909725D01*
X104408411Y-47920748D01*
X104416518Y-47926344D01*
X104473703Y-47948031D01*
X104477120Y-47949446D01*
X104532916Y-47974558D01*
X104542600Y-47976332D01*
X104564229Y-47982362D01*
X104573418Y-47985848D01*
X104634098Y-47993215D01*
X104637801Y-47993779D01*
X104656241Y-47997158D01*
X104697972Y-48004806D01*
X104752771Y-48001490D01*
X104759019Y-48001113D01*
X104762764Y-48001000D01*
X113920568Y-48001000D01*
X113987607Y-48020685D01*
X114019834Y-48050688D01*
X114032454Y-48067546D01*
X114089968Y-48110601D01*
X114154769Y-48159111D01*
X114153170Y-48161246D01*
X114192781Y-48200848D01*
X114207640Y-48269119D01*
X114183230Y-48334586D01*
X114153972Y-48359944D01*
X114155011Y-48361331D01*
X114032812Y-48452809D01*
X114032809Y-48452812D01*
X113946649Y-48567906D01*
X113946645Y-48567913D01*
X113896403Y-48702620D01*
X113896401Y-48702627D01*
X113890000Y-48762155D01*
X113890000Y-48960000D01*
X116789999Y-48960000D01*
X116802829Y-48947170D01*
X116864152Y-48913684D01*
X116933843Y-48918668D01*
X116989777Y-48960538D01*
X117011041Y-48988942D01*
X117032453Y-49017545D01*
X117032455Y-49017547D01*
X117147664Y-49103793D01*
X117147671Y-49103797D01*
X117282517Y-49154091D01*
X117282516Y-49154091D01*
X117289444Y-49154835D01*
X117342127Y-49160500D01*
X119337872Y-49160499D01*
X119397483Y-49154091D01*
X119532331Y-49103796D01*
X119647546Y-49017546D01*
X119660165Y-49000688D01*
X119716101Y-48958817D01*
X119759432Y-48951000D01*
X120523502Y-48951000D01*
X120590541Y-48970685D01*
X120629040Y-49009902D01*
X120702288Y-49128656D01*
X120826344Y-49252712D01*
X120975666Y-49344814D01*
X121142203Y-49399999D01*
X121142206Y-49399999D01*
X121144004Y-49400595D01*
X121201449Y-49440367D01*
X121228272Y-49504883D01*
X121229000Y-49518301D01*
X121229000Y-52899387D01*
X121209995Y-52965357D01*
X121194209Y-52990480D01*
X121134633Y-53160737D01*
X121134630Y-53160750D01*
X121114435Y-53339996D01*
X121114435Y-53340003D01*
X121134630Y-53519249D01*
X121134631Y-53519254D01*
X121194211Y-53689523D01*
X121283864Y-53832204D01*
X121290184Y-53842262D01*
X121417738Y-53969816D01*
X121570478Y-54065789D01*
X121740745Y-54125368D01*
X121740750Y-54125369D01*
X121919996Y-54145565D01*
X121920000Y-54145565D01*
X121920004Y-54145565D01*
X122099249Y-54125369D01*
X122099252Y-54125368D01*
X122099255Y-54125368D01*
X122269522Y-54065789D01*
X122422262Y-53969816D01*
X122549816Y-53842262D01*
X122645789Y-53689522D01*
X122705368Y-53519255D01*
X122705696Y-53516344D01*
X122725565Y-53340003D01*
X122725565Y-53339996D01*
X122705369Y-53160750D01*
X122705366Y-53160737D01*
X122673600Y-53069958D01*
X122645789Y-52990478D01*
X122630004Y-52965357D01*
X122610999Y-52899387D01*
X122610999Y-51182426D01*
X122610999Y-50867763D01*
X125145787Y-50867763D01*
X125175413Y-51137013D01*
X125175415Y-51137024D01*
X125234034Y-51361243D01*
X125243928Y-51399088D01*
X125349870Y-51648390D01*
X125470103Y-51845398D01*
X125490979Y-51879605D01*
X125490986Y-51879615D01*
X125664253Y-52087819D01*
X125664259Y-52087824D01*
X125779571Y-52191143D01*
X125865998Y-52268582D01*
X126091910Y-52418044D01*
X126337176Y-52533020D01*
X126337183Y-52533022D01*
X126337185Y-52533023D01*
X126596557Y-52611057D01*
X126596564Y-52611058D01*
X126596569Y-52611060D01*
X126864561Y-52650500D01*
X126864566Y-52650500D01*
X127067636Y-52650500D01*
X127119133Y-52646730D01*
X127270156Y-52635677D01*
X127382758Y-52610593D01*
X127534546Y-52576782D01*
X127534548Y-52576781D01*
X127534553Y-52576780D01*
X127787558Y-52480014D01*
X128023777Y-52347441D01*
X128238177Y-52181888D01*
X128426186Y-51986881D01*
X128583799Y-51766579D01*
X128663258Y-51612030D01*
X128707649Y-51525690D01*
X128707651Y-51525684D01*
X128707656Y-51525675D01*
X128795118Y-51269305D01*
X128844319Y-51002933D01*
X128854212Y-50732235D01*
X128824586Y-50462982D01*
X128756072Y-50200912D01*
X128650130Y-49951610D01*
X128509018Y-49720390D01*
X128456953Y-49657827D01*
X128335746Y-49512180D01*
X128335740Y-49512175D01*
X128134002Y-49331418D01*
X127908092Y-49181957D01*
X127862316Y-49160498D01*
X127662824Y-49066980D01*
X127662819Y-49066978D01*
X127662814Y-49066976D01*
X127403442Y-48988942D01*
X127403428Y-48988939D01*
X127287791Y-48971921D01*
X127135439Y-48949500D01*
X126932369Y-48949500D01*
X126932364Y-48949500D01*
X126729844Y-48964323D01*
X126729831Y-48964325D01*
X126465453Y-49023217D01*
X126465446Y-49023220D01*
X126212439Y-49119987D01*
X125976226Y-49252557D01*
X125976224Y-49252558D01*
X125976223Y-49252559D01*
X125976025Y-49252712D01*
X125761822Y-49418112D01*
X125573822Y-49613109D01*
X125573816Y-49613116D01*
X125416202Y-49833419D01*
X125416199Y-49833424D01*
X125292350Y-50074309D01*
X125292343Y-50074327D01*
X125204884Y-50330685D01*
X125204881Y-50330699D01*
X125176062Y-50486722D01*
X125159684Y-50575398D01*
X125155681Y-50597068D01*
X125155680Y-50597075D01*
X125145787Y-50867763D01*
X122610999Y-50867763D01*
X122610999Y-49518298D01*
X122630684Y-49451263D01*
X122683488Y-49405508D01*
X122695995Y-49400596D01*
X122697797Y-49399999D01*
X122864334Y-49344814D01*
X123013656Y-49252712D01*
X123137712Y-49128656D01*
X123229814Y-48979334D01*
X123284999Y-48812797D01*
X123295500Y-48710009D01*
X123295499Y-47809992D01*
X123284999Y-47707203D01*
X123229814Y-47540666D01*
X123137712Y-47391344D01*
X123013656Y-47267288D01*
X122864334Y-47175186D01*
X122697797Y-47120001D01*
X122697795Y-47120000D01*
X122595010Y-47109500D01*
X121244998Y-47109500D01*
X121244981Y-47109501D01*
X121142203Y-47120000D01*
X121142200Y-47120001D01*
X120975668Y-47175185D01*
X120975663Y-47175187D01*
X120826342Y-47267289D01*
X120702289Y-47391342D01*
X120629041Y-47510097D01*
X120577093Y-47556821D01*
X120523502Y-47569000D01*
X119759432Y-47569000D01*
X119692393Y-47549315D01*
X119660166Y-47519312D01*
X119647546Y-47502454D01*
X119647543Y-47502452D01*
X119616830Y-47479460D01*
X119532331Y-47416204D01*
X119532329Y-47416203D01*
X119532328Y-47416202D01*
X119397482Y-47365908D01*
X119397483Y-47365908D01*
X119337883Y-47359501D01*
X119337881Y-47359500D01*
X119337873Y-47359500D01*
X119337864Y-47359500D01*
X117342129Y-47359500D01*
X117342123Y-47359501D01*
X117282516Y-47365908D01*
X117147671Y-47416202D01*
X117147664Y-47416206D01*
X117032456Y-47502452D01*
X117032455Y-47502453D01*
X117032454Y-47502454D01*
X117022501Y-47515748D01*
X117013764Y-47527420D01*
X116957829Y-47569289D01*
X116888137Y-47574271D01*
X116826815Y-47540784D01*
X116793332Y-47479460D01*
X116790499Y-47453112D01*
X116790499Y-46862128D01*
X116784091Y-46802517D01*
X116733796Y-46667669D01*
X116733795Y-46667668D01*
X116733793Y-46667664D01*
X116647547Y-46552455D01*
X116647544Y-46552452D01*
X116532335Y-46466206D01*
X116532328Y-46466202D01*
X116397482Y-46415908D01*
X116397483Y-46415908D01*
X116337883Y-46409501D01*
X116337881Y-46409500D01*
X116337873Y-46409500D01*
X116337864Y-46409500D01*
X114342129Y-46409500D01*
X114342123Y-46409501D01*
X114282516Y-46415908D01*
X114147671Y-46466202D01*
X114147669Y-46466204D01*
X114032456Y-46552452D01*
X114032453Y-46552454D01*
X114019834Y-46569312D01*
X113963899Y-46611183D01*
X113920568Y-46619000D01*
X105077583Y-46619000D01*
X105010544Y-46599315D01*
X104989902Y-46582681D01*
X104336818Y-45929597D01*
X104303333Y-45868274D01*
X104300499Y-45841916D01*
X104300499Y-45610001D01*
X120544500Y-45610001D01*
X120544501Y-45610019D01*
X120555000Y-45712796D01*
X120555001Y-45712799D01*
X120610185Y-45879331D01*
X120610187Y-45879336D01*
X120622473Y-45899254D01*
X120702288Y-46028656D01*
X120826344Y-46152712D01*
X120975666Y-46244814D01*
X121142203Y-46299999D01*
X121244991Y-46310500D01*
X122595008Y-46310499D01*
X122697797Y-46299999D01*
X122864334Y-46244814D01*
X123013656Y-46152712D01*
X123137712Y-46028656D01*
X123210959Y-45909902D01*
X123262907Y-45863179D01*
X123316498Y-45851000D01*
X126102416Y-45851000D01*
X126169455Y-45870685D01*
X126190097Y-45887319D01*
X126201399Y-45898621D01*
X126230759Y-45945347D01*
X126274209Y-46069519D01*
X126363926Y-46212302D01*
X126370184Y-46222262D01*
X126497738Y-46349816D01*
X126650478Y-46445789D01*
X126799108Y-46497797D01*
X126820745Y-46505368D01*
X126820750Y-46505369D01*
X126999996Y-46525565D01*
X127000000Y-46525565D01*
X127000004Y-46525565D01*
X127179249Y-46505369D01*
X127179252Y-46505368D01*
X127179255Y-46505368D01*
X127349522Y-46445789D01*
X127502262Y-46349816D01*
X127629816Y-46222262D01*
X127725789Y-46069522D01*
X127785368Y-45899255D01*
X127785369Y-45899249D01*
X127805565Y-45720003D01*
X127805565Y-45719996D01*
X127785369Y-45540750D01*
X127785368Y-45540745D01*
X127774315Y-45509158D01*
X127725789Y-45370478D01*
X127721573Y-45363769D01*
X127655376Y-45258417D01*
X127629816Y-45217738D01*
X127502262Y-45090184D01*
X127502262Y-45090183D01*
X127349519Y-44994208D01*
X127225346Y-44950758D01*
X127178620Y-44921398D01*
X127066127Y-44808906D01*
X126944686Y-44687464D01*
X126942135Y-44684753D01*
X126901583Y-44638980D01*
X126851251Y-44604238D01*
X126848234Y-44602018D01*
X126800108Y-44564314D01*
X126800099Y-44564308D01*
X126791134Y-44560274D01*
X126771586Y-44549250D01*
X126763482Y-44543656D01*
X126763478Y-44543653D01*
X126714689Y-44525150D01*
X126706302Y-44521969D01*
X126702851Y-44520540D01*
X126647081Y-44495441D01*
X126647082Y-44495441D01*
X126637395Y-44493666D01*
X126615792Y-44487644D01*
X126606582Y-44484152D01*
X126545876Y-44476780D01*
X126542177Y-44476217D01*
X126529211Y-44473841D01*
X126482030Y-44465195D01*
X126482025Y-44465195D01*
X126420992Y-44468887D01*
X126417247Y-44469000D01*
X123316498Y-44469000D01*
X123249459Y-44449315D01*
X123210959Y-44410097D01*
X123137712Y-44291344D01*
X123013656Y-44167288D01*
X122864334Y-44075186D01*
X122697797Y-44020001D01*
X122697795Y-44020000D01*
X122595010Y-44009500D01*
X121244998Y-44009500D01*
X121244981Y-44009501D01*
X121142203Y-44020000D01*
X121142200Y-44020001D01*
X120975668Y-44075185D01*
X120975663Y-44075187D01*
X120826342Y-44167289D01*
X120702289Y-44291342D01*
X120610187Y-44440663D01*
X120610185Y-44440668D01*
X120583243Y-44521973D01*
X120555001Y-44607203D01*
X120555001Y-44607204D01*
X120555000Y-44607204D01*
X120544500Y-44709983D01*
X120544500Y-45610001D01*
X104300499Y-45610001D01*
X104300499Y-45044998D01*
X104300498Y-45044981D01*
X104289999Y-44942203D01*
X104289998Y-44942200D01*
X104283105Y-44921398D01*
X104234814Y-44775666D01*
X104142712Y-44626344D01*
X104018656Y-44502288D01*
X103925888Y-44445068D01*
X103869336Y-44410187D01*
X103869331Y-44410185D01*
X103867862Y-44409698D01*
X103702797Y-44355001D01*
X103702795Y-44355000D01*
X103600016Y-44344500D01*
X103600009Y-44344500D01*
X102803084Y-44344500D01*
X102736045Y-44324815D01*
X102715403Y-44308181D01*
X102299403Y-43892181D01*
X102265918Y-43830858D01*
X102270902Y-43761166D01*
X102312774Y-43705233D01*
X102378238Y-43680816D01*
X102387084Y-43680500D01*
X126930351Y-43680500D01*
X126930367Y-43680501D01*
X126999999Y-43680501D01*
X127505695Y-43698562D01*
X127510093Y-43698877D01*
X128011023Y-43752731D01*
X128015373Y-43753357D01*
X128511204Y-43842815D01*
X128515476Y-43843744D01*
X129003670Y-43968348D01*
X129007890Y-43969588D01*
X129485897Y-44128684D01*
X129485900Y-44128685D01*
X129490049Y-44130232D01*
X129955510Y-44323032D01*
X129959514Y-44324861D01*
X130410037Y-44550376D01*
X130413912Y-44552492D01*
X130847194Y-44809570D01*
X130850887Y-44811942D01*
X131264732Y-45099280D01*
X131264741Y-45099286D01*
X131268277Y-45101933D01*
X131652914Y-45411894D01*
X131660548Y-45418046D01*
X131663894Y-45420945D01*
X132032624Y-45764244D01*
X132035755Y-45767375D01*
X132379054Y-46136105D01*
X132381952Y-46139449D01*
X132693104Y-46525565D01*
X132698059Y-46531713D01*
X132700713Y-46535258D01*
X132712653Y-46552455D01*
X132988052Y-46949105D01*
X132990433Y-46952811D01*
X133247505Y-47386084D01*
X133249627Y-47389970D01*
X133325060Y-47540666D01*
X133464495Y-47819223D01*
X133475131Y-47840470D01*
X133476970Y-47844497D01*
X133669767Y-48309950D01*
X133671314Y-48314099D01*
X133830408Y-48792101D01*
X133831655Y-48796348D01*
X133956250Y-49284502D01*
X133957188Y-49288815D01*
X134046639Y-49784607D01*
X134047269Y-49788989D01*
X134101122Y-50289906D01*
X134101438Y-50294322D01*
X134119499Y-50800000D01*
X134119498Y-88400468D01*
X134099813Y-88467507D01*
X134047009Y-88513262D01*
X133977851Y-88523206D01*
X133914295Y-88494181D01*
X133893449Y-88470910D01*
X133871020Y-88438417D01*
X133864449Y-88432596D01*
X133825236Y-88397856D01*
X133822542Y-88395320D01*
X132807318Y-87380096D01*
X132773833Y-87318773D01*
X132770999Y-87292424D01*
X132770999Y-82624061D01*
X132773031Y-82601708D01*
X132774805Y-82592028D01*
X132773061Y-82563197D01*
X132788662Y-82495092D01*
X132838607Y-82446232D01*
X132876359Y-82434747D01*
X132876181Y-82433915D01*
X132882791Y-82432499D01*
X132882797Y-82432499D01*
X133049334Y-82377314D01*
X133198656Y-82285212D01*
X133322712Y-82161156D01*
X133414814Y-82011834D01*
X133469999Y-81845297D01*
X133480500Y-81742509D01*
X133480499Y-80817492D01*
X133469999Y-80714703D01*
X133414814Y-80548166D01*
X133322712Y-80398844D01*
X133198656Y-80274788D01*
X133049334Y-80182686D01*
X132882797Y-80127501D01*
X132882795Y-80127500D01*
X132780010Y-80117000D01*
X131379998Y-80117000D01*
X131379981Y-80117001D01*
X131277203Y-80127500D01*
X131277200Y-80127501D01*
X131110668Y-80182685D01*
X131110663Y-80182687D01*
X130961342Y-80274789D01*
X130837289Y-80398842D01*
X130745187Y-80548163D01*
X130745185Y-80548168D01*
X130726422Y-80604791D01*
X130690001Y-80714703D01*
X130690001Y-80714704D01*
X130690000Y-80714704D01*
X130679500Y-80817483D01*
X130679500Y-81742501D01*
X130679501Y-81742519D01*
X130690000Y-81845296D01*
X130690001Y-81845299D01*
X130728560Y-81961661D01*
X130745186Y-82011834D01*
X130837288Y-82161156D01*
X130961344Y-82285212D01*
X131079118Y-82357855D01*
X131125842Y-82409801D01*
X131137065Y-82478764D01*
X131109222Y-82542846D01*
X131101702Y-82551074D01*
X130560097Y-83092681D01*
X130498774Y-83126166D01*
X130472416Y-83129000D01*
X129084219Y-83129000D01*
X129017180Y-83109315D01*
X128975164Y-83064016D01*
X128953476Y-83023939D01*
X128953466Y-83023924D01*
X128805830Y-82834242D01*
X128805827Y-82834239D01*
X128805825Y-82834236D01*
X128628969Y-82671429D01*
X128601995Y-82653806D01*
X128556641Y-82600663D01*
X128547217Y-82531432D01*
X128576718Y-82468096D01*
X128601992Y-82446195D01*
X128628969Y-82428571D01*
X128805825Y-82265764D01*
X128953472Y-82076067D01*
X129067882Y-81864656D01*
X129145934Y-81637297D01*
X129185500Y-81400192D01*
X129185500Y-81159808D01*
X129145934Y-80922703D01*
X129067882Y-80695344D01*
X128953472Y-80483933D01*
X128953470Y-80483930D01*
X128953466Y-80483924D01*
X128805830Y-80294242D01*
X128805827Y-80294239D01*
X128805825Y-80294236D01*
X128628969Y-80131429D01*
X128601995Y-80113806D01*
X128556641Y-80060663D01*
X128547217Y-79991432D01*
X128576718Y-79928096D01*
X128601992Y-79906195D01*
X128628969Y-79888571D01*
X128805825Y-79725764D01*
X128903891Y-79599768D01*
X128953466Y-79536075D01*
X128953470Y-79536069D01*
X128953472Y-79536067D01*
X129067882Y-79324656D01*
X129145934Y-79097297D01*
X129185500Y-78860192D01*
X129185500Y-78619808D01*
X129149655Y-78405000D01*
X130680001Y-78405000D01*
X130680001Y-78617486D01*
X130690494Y-78720197D01*
X130745641Y-78886619D01*
X130745643Y-78886624D01*
X130837684Y-79035845D01*
X130961654Y-79159815D01*
X131110875Y-79251856D01*
X131110880Y-79251858D01*
X131277302Y-79307005D01*
X131277309Y-79307006D01*
X131380019Y-79317499D01*
X131829999Y-79317499D01*
X131830000Y-79317498D01*
X131830000Y-78405000D01*
X132330000Y-78405000D01*
X132330000Y-79317499D01*
X132779972Y-79317499D01*
X132779986Y-79317498D01*
X132882697Y-79307005D01*
X133049119Y-79251858D01*
X133049124Y-79251856D01*
X133198345Y-79159815D01*
X133322315Y-79035845D01*
X133414356Y-78886624D01*
X133414358Y-78886619D01*
X133469505Y-78720197D01*
X133469506Y-78720190D01*
X133479999Y-78617486D01*
X133480000Y-78617473D01*
X133480000Y-78405000D01*
X132330000Y-78405000D01*
X131830000Y-78405000D01*
X130680001Y-78405000D01*
X129149655Y-78405000D01*
X129145934Y-78382703D01*
X129136695Y-78355792D01*
X129067883Y-78155347D01*
X129067881Y-78155342D01*
X128996945Y-78024264D01*
X128953472Y-77943933D01*
X128953470Y-77943930D01*
X128953466Y-77943924D01*
X128923170Y-77905000D01*
X130680000Y-77905000D01*
X131830000Y-77905000D01*
X131830000Y-76992500D01*
X132330000Y-76992500D01*
X132330000Y-77905000D01*
X133479998Y-77905000D01*
X133479999Y-77692528D01*
X133479998Y-77692513D01*
X133469505Y-77589802D01*
X133414358Y-77423380D01*
X133414356Y-77423375D01*
X133322315Y-77274154D01*
X133198345Y-77150184D01*
X133049124Y-77058143D01*
X133049119Y-77058141D01*
X132882697Y-77002994D01*
X132882690Y-77002993D01*
X132779986Y-76992500D01*
X132330000Y-76992500D01*
X131830000Y-76992500D01*
X131380028Y-76992500D01*
X131380012Y-76992501D01*
X131277302Y-77002994D01*
X131110880Y-77058141D01*
X131110875Y-77058143D01*
X130961654Y-77150184D01*
X130837684Y-77274154D01*
X130745643Y-77423375D01*
X130745641Y-77423380D01*
X130690494Y-77589802D01*
X130690493Y-77589809D01*
X130680000Y-77692513D01*
X130680000Y-77905000D01*
X128923170Y-77905000D01*
X128805830Y-77754242D01*
X128805827Y-77754239D01*
X128805825Y-77754236D01*
X128628969Y-77591429D01*
X128601995Y-77573806D01*
X128556641Y-77520663D01*
X128547217Y-77451432D01*
X128576718Y-77388096D01*
X128601992Y-77366195D01*
X128628969Y-77348571D01*
X128805825Y-77185764D01*
X128953472Y-76996067D01*
X129067882Y-76784656D01*
X129145934Y-76557297D01*
X129185500Y-76320192D01*
X129185500Y-76079808D01*
X129145934Y-75842703D01*
X129145720Y-75842081D01*
X129067883Y-75615347D01*
X129067881Y-75615342D01*
X129027762Y-75541209D01*
X128953472Y-75403933D01*
X128953470Y-75403930D01*
X128953466Y-75403924D01*
X128805830Y-75214242D01*
X128805827Y-75214239D01*
X128805825Y-75214236D01*
X128628969Y-75051429D01*
X128601995Y-75033806D01*
X128556641Y-74980663D01*
X128547217Y-74911432D01*
X128576718Y-74848096D01*
X128601992Y-74826195D01*
X128628969Y-74808571D01*
X128805825Y-74645764D01*
X128953472Y-74456067D01*
X129067882Y-74244656D01*
X129145934Y-74017297D01*
X129185500Y-73780192D01*
X129185500Y-73539808D01*
X129145934Y-73302703D01*
X129067882Y-73075344D01*
X128953472Y-72863933D01*
X128953470Y-72863930D01*
X128953466Y-72863924D01*
X128805830Y-72674242D01*
X128805827Y-72674239D01*
X128805825Y-72674236D01*
X128628969Y-72511429D01*
X128601995Y-72493806D01*
X128556641Y-72440663D01*
X128547217Y-72371432D01*
X128576718Y-72308096D01*
X128601992Y-72286195D01*
X128628969Y-72268571D01*
X128805825Y-72105764D01*
X128953472Y-71916067D01*
X129067882Y-71704656D01*
X129145934Y-71477297D01*
X129185500Y-71240192D01*
X129185500Y-70999808D01*
X129145934Y-70762703D01*
X129144969Y-70759893D01*
X129067883Y-70535347D01*
X129067881Y-70535342D01*
X129012201Y-70432454D01*
X128953472Y-70323933D01*
X128953470Y-70323930D01*
X128953466Y-70323924D01*
X128805830Y-70134242D01*
X128805827Y-70134239D01*
X128805825Y-70134236D01*
X128628969Y-69971429D01*
X128601995Y-69953806D01*
X128556641Y-69900663D01*
X128547217Y-69831432D01*
X128576718Y-69768096D01*
X128601992Y-69746195D01*
X128628969Y-69728571D01*
X128805825Y-69565764D01*
X128953472Y-69376067D01*
X129067882Y-69164656D01*
X129145934Y-68937297D01*
X129185500Y-68700192D01*
X129185500Y-68459808D01*
X129145934Y-68222703D01*
X129106378Y-68107481D01*
X129067883Y-67995347D01*
X129067881Y-67995342D01*
X129038638Y-67941306D01*
X128953472Y-67783933D01*
X128953470Y-67783930D01*
X128953466Y-67783924D01*
X128805830Y-67594242D01*
X128805827Y-67594239D01*
X128805825Y-67594236D01*
X128628969Y-67431429D01*
X128601995Y-67413806D01*
X128556641Y-67360663D01*
X128547217Y-67291432D01*
X128576718Y-67228096D01*
X128601992Y-67206195D01*
X128628969Y-67188571D01*
X128805825Y-67025764D01*
X128953472Y-66836067D01*
X129067882Y-66624656D01*
X129145934Y-66397297D01*
X129185500Y-66160192D01*
X129185500Y-65919808D01*
X129145934Y-65682703D01*
X129067882Y-65455344D01*
X128953472Y-65243933D01*
X128840140Y-65098324D01*
X128814498Y-65033332D01*
X128828064Y-64964792D01*
X128876532Y-64914467D01*
X128894662Y-64905981D01*
X128927326Y-64893798D01*
X128927326Y-64893797D01*
X128927331Y-64893796D01*
X129042546Y-64807546D01*
X129128796Y-64692331D01*
X129179091Y-64557483D01*
X129185500Y-64497873D01*
X129185499Y-62502128D01*
X129179091Y-62442517D01*
X129154964Y-62377830D01*
X129128797Y-62307671D01*
X129128793Y-62307664D01*
X129042547Y-62192455D01*
X129042544Y-62192452D01*
X128927335Y-62106206D01*
X128927328Y-62106202D01*
X128792482Y-62055908D01*
X128792483Y-62055908D01*
X128732883Y-62049501D01*
X128732881Y-62049500D01*
X128732873Y-62049500D01*
X128732864Y-62049500D01*
X126537129Y-62049500D01*
X126537123Y-62049501D01*
X126477516Y-62055908D01*
X126342671Y-62106202D01*
X126342664Y-62106206D01*
X126227455Y-62192452D01*
X126227452Y-62192455D01*
X126141206Y-62307664D01*
X126141202Y-62307671D01*
X126090908Y-62442517D01*
X126084501Y-62502116D01*
X126084501Y-62502123D01*
X126084500Y-62502135D01*
X126084500Y-64497870D01*
X126084501Y-64497876D01*
X126090908Y-64557483D01*
X126141202Y-64692328D01*
X126141206Y-64692335D01*
X126227452Y-64807544D01*
X126227455Y-64807547D01*
X126342664Y-64893793D01*
X126342671Y-64893797D01*
X126375338Y-64905981D01*
X126431272Y-64947852D01*
X126455689Y-65013316D01*
X126440838Y-65081589D01*
X126429858Y-65098325D01*
X126316533Y-65243924D01*
X126316529Y-65243930D01*
X126202118Y-65455342D01*
X126202116Y-65455347D01*
X126124066Y-65682699D01*
X126084499Y-65919809D01*
X126084499Y-66160190D01*
X126124066Y-66397300D01*
X126202116Y-66624652D01*
X126202118Y-66624657D01*
X126316529Y-66836069D01*
X126316533Y-66836075D01*
X126464169Y-67025757D01*
X126464171Y-67025759D01*
X126464175Y-67025764D01*
X126641031Y-67188571D01*
X126664883Y-67204154D01*
X126668003Y-67206193D01*
X126713358Y-67259340D01*
X126722780Y-67328571D01*
X126693277Y-67391907D01*
X126668003Y-67413807D01*
X126641031Y-67431429D01*
X126641029Y-67431430D01*
X126464172Y-67594239D01*
X126464169Y-67594242D01*
X126316533Y-67783924D01*
X126316529Y-67783930D01*
X126202118Y-67995342D01*
X126202116Y-67995347D01*
X126124066Y-68222699D01*
X126084499Y-68459809D01*
X126084499Y-68700190D01*
X126124066Y-68937300D01*
X126202116Y-69164652D01*
X126202118Y-69164657D01*
X126316529Y-69376069D01*
X126316533Y-69376075D01*
X126464169Y-69565757D01*
X126464171Y-69565759D01*
X126464175Y-69565764D01*
X126641031Y-69728571D01*
X126664883Y-69744154D01*
X126668003Y-69746193D01*
X126713358Y-69799340D01*
X126722780Y-69868571D01*
X126693277Y-69931907D01*
X126668003Y-69953807D01*
X126641031Y-69971429D01*
X126641029Y-69971430D01*
X126464172Y-70134239D01*
X126464169Y-70134242D01*
X126316533Y-70323924D01*
X126316529Y-70323930D01*
X126202118Y-70535342D01*
X126202116Y-70535347D01*
X126124066Y-70762699D01*
X126084499Y-70999809D01*
X126084499Y-71240190D01*
X126124066Y-71477300D01*
X126202116Y-71704652D01*
X126202118Y-71704657D01*
X126316529Y-71916069D01*
X126316533Y-71916075D01*
X126464169Y-72105757D01*
X126464171Y-72105759D01*
X126464175Y-72105764D01*
X126641031Y-72268571D01*
X126664883Y-72284154D01*
X126668003Y-72286193D01*
X126713358Y-72339340D01*
X126722780Y-72408571D01*
X126693277Y-72471907D01*
X126668003Y-72493807D01*
X126641031Y-72511429D01*
X126641029Y-72511430D01*
X126464172Y-72674239D01*
X126464169Y-72674242D01*
X126316533Y-72863924D01*
X126316529Y-72863930D01*
X126202118Y-73075342D01*
X126202116Y-73075347D01*
X126124066Y-73302699D01*
X126084499Y-73539809D01*
X126084499Y-73780190D01*
X126124066Y-74017300D01*
X126202116Y-74244652D01*
X126202118Y-74244657D01*
X126316529Y-74456069D01*
X126316533Y-74456075D01*
X126464169Y-74645757D01*
X126464171Y-74645759D01*
X126464175Y-74645764D01*
X126641031Y-74808571D01*
X126664883Y-74824154D01*
X126668003Y-74826193D01*
X126713358Y-74879340D01*
X126722780Y-74948571D01*
X126693277Y-75011907D01*
X126668003Y-75033807D01*
X126641031Y-75051429D01*
X126641029Y-75051430D01*
X126464172Y-75214239D01*
X126464169Y-75214242D01*
X126316533Y-75403924D01*
X126316529Y-75403930D01*
X126202118Y-75615342D01*
X126202116Y-75615347D01*
X126124066Y-75842699D01*
X126084499Y-76079809D01*
X126084499Y-76320190D01*
X126124066Y-76557300D01*
X126202116Y-76784652D01*
X126202118Y-76784657D01*
X126316529Y-76996069D01*
X126316533Y-76996075D01*
X126464169Y-77185757D01*
X126464171Y-77185759D01*
X126464175Y-77185764D01*
X126641031Y-77348571D01*
X126664883Y-77364154D01*
X126668003Y-77366193D01*
X126713358Y-77419340D01*
X126722780Y-77488571D01*
X126693277Y-77551907D01*
X126668003Y-77573807D01*
X126641031Y-77591429D01*
X126641029Y-77591430D01*
X126464172Y-77754239D01*
X126464169Y-77754242D01*
X126316533Y-77943924D01*
X126316529Y-77943930D01*
X126273055Y-78024264D01*
X126223835Y-78073854D01*
X126155618Y-78088962D01*
X126090063Y-78064791D01*
X126047982Y-78009015D01*
X126040000Y-77965246D01*
X126040000Y-77481963D01*
X126042131Y-77397877D01*
X126042130Y-77397876D01*
X126042131Y-77397873D01*
X126031930Y-77340965D01*
X126031276Y-77336298D01*
X126026940Y-77293657D01*
X126025429Y-77278792D01*
X126015778Y-77248032D01*
X126013913Y-77240437D01*
X126008224Y-77208694D01*
X125986769Y-77154983D01*
X125985200Y-77150577D01*
X125967893Y-77095412D01*
X125952251Y-77067232D01*
X125948886Y-77060146D01*
X125936930Y-77030212D01*
X125905111Y-76981932D01*
X125902673Y-76977908D01*
X125895407Y-76964817D01*
X125874621Y-76927368D01*
X125874618Y-76927364D01*
X125853630Y-76902915D01*
X125848901Y-76896643D01*
X125834647Y-76875016D01*
X125831167Y-76869735D01*
X125831166Y-76869734D01*
X125831165Y-76869732D01*
X125810724Y-76849292D01*
X125790271Y-76828839D01*
X125787080Y-76825395D01*
X125749431Y-76781539D01*
X125749431Y-76781538D01*
X125723951Y-76761816D01*
X125718055Y-76756623D01*
X123956319Y-74994887D01*
X123922834Y-74933564D01*
X123920000Y-74907206D01*
X123920000Y-73914499D01*
X123939685Y-73847460D01*
X123992489Y-73801705D01*
X124044000Y-73790499D01*
X124272871Y-73790499D01*
X124272872Y-73790499D01*
X124332483Y-73784091D01*
X124467331Y-73733796D01*
X124582546Y-73647546D01*
X124668796Y-73532331D01*
X124719091Y-73397483D01*
X124725500Y-73337873D01*
X124725499Y-70742128D01*
X124719091Y-70682517D01*
X124710102Y-70658417D01*
X124668797Y-70547671D01*
X124668793Y-70547664D01*
X124582547Y-70432455D01*
X124582544Y-70432452D01*
X124467335Y-70346206D01*
X124467328Y-70346202D01*
X124332482Y-70295908D01*
X124332483Y-70295908D01*
X124272883Y-70289501D01*
X124272881Y-70289500D01*
X124272873Y-70289500D01*
X124272864Y-70289500D01*
X121677129Y-70289500D01*
X121677123Y-70289501D01*
X121617516Y-70295908D01*
X121482671Y-70346202D01*
X121482664Y-70346206D01*
X121367455Y-70432452D01*
X121367452Y-70432455D01*
X121281206Y-70547664D01*
X121281202Y-70547671D01*
X121230908Y-70682517D01*
X121224501Y-70742116D01*
X121224501Y-70742123D01*
X121224500Y-70742135D01*
X121224500Y-73337870D01*
X121224501Y-73337876D01*
X121230908Y-73397483D01*
X121281202Y-73532328D01*
X121281206Y-73532335D01*
X121367452Y-73647544D01*
X121367455Y-73647547D01*
X121482664Y-73733793D01*
X121482671Y-73733797D01*
X121527618Y-73750561D01*
X121617517Y-73784091D01*
X121677127Y-73790500D01*
X121906000Y-73790499D01*
X121973039Y-73810183D01*
X122018794Y-73862987D01*
X122030000Y-73914499D01*
X122030000Y-75338036D01*
X122027868Y-75422123D01*
X122038067Y-75479027D01*
X122038721Y-75483693D01*
X122044570Y-75541201D01*
X122044571Y-75541209D01*
X122054220Y-75571966D01*
X122056092Y-75579591D01*
X122061776Y-75611305D01*
X122061778Y-75611311D01*
X122083217Y-75664984D01*
X122084796Y-75669420D01*
X122102106Y-75724585D01*
X122102109Y-75724592D01*
X122117749Y-75752771D01*
X122121116Y-75759862D01*
X122133071Y-75789788D01*
X122164885Y-75838062D01*
X122167320Y-75842081D01*
X122195371Y-75892620D01*
X122195375Y-75892626D01*
X122195379Y-75892632D01*
X122213069Y-75913239D01*
X122216369Y-75917083D01*
X122221098Y-75923356D01*
X122238833Y-75950265D01*
X122279726Y-75991158D01*
X122282918Y-75994603D01*
X122320569Y-76038461D01*
X122346047Y-76058182D01*
X122351943Y-76063375D01*
X124113680Y-77825112D01*
X124147165Y-77886435D01*
X124149999Y-77912793D01*
X124149999Y-79155682D01*
X124130314Y-79222721D01*
X124077510Y-79268476D01*
X124013397Y-79279040D01*
X123920017Y-79269500D01*
X123920008Y-79269500D01*
X122894992Y-79269500D01*
X122894984Y-79269500D01*
X122792204Y-79280000D01*
X122792203Y-79280001D01*
X122625664Y-79335186D01*
X122625662Y-79335187D01*
X122476348Y-79427286D01*
X122476344Y-79427289D01*
X122352289Y-79551344D01*
X122352286Y-79551348D01*
X122260187Y-79700662D01*
X122260186Y-79700664D01*
X122205001Y-79867203D01*
X122205000Y-79867204D01*
X122194500Y-79969984D01*
X122194500Y-81320015D01*
X122205000Y-81422795D01*
X122205001Y-81422796D01*
X122260186Y-81589335D01*
X122260187Y-81589337D01*
X122352286Y-81738651D01*
X122352289Y-81738655D01*
X122476344Y-81862710D01*
X122476348Y-81862713D01*
X122625657Y-81954809D01*
X122625660Y-81954810D01*
X122625666Y-81954814D01*
X122631505Y-81956748D01*
X122688949Y-81996520D01*
X122715772Y-82061036D01*
X122716500Y-82074454D01*
X122716499Y-88774747D01*
X122716386Y-88778490D01*
X122712694Y-88839523D01*
X122712695Y-88839528D01*
X122717681Y-88866739D01*
X122723717Y-88899674D01*
X122724280Y-88903376D01*
X122731652Y-88964082D01*
X122735144Y-88973292D01*
X122741166Y-88994895D01*
X122742941Y-89004581D01*
X122768040Y-89060351D01*
X122769473Y-89063810D01*
X122791153Y-89120978D01*
X122791156Y-89120982D01*
X122796750Y-89129086D01*
X122807774Y-89148634D01*
X122811808Y-89157599D01*
X122811814Y-89157608D01*
X122849518Y-89205734D01*
X122851738Y-89208751D01*
X122886480Y-89259083D01*
X122932253Y-89299635D01*
X122934964Y-89302186D01*
X124942913Y-91310134D01*
X126873181Y-93240402D01*
X126906666Y-93301725D01*
X126909500Y-93328083D01*
X126909500Y-94197870D01*
X126909501Y-94197876D01*
X126915908Y-94257483D01*
X126966202Y-94392328D01*
X126966206Y-94392335D01*
X127052452Y-94507544D01*
X127052455Y-94507547D01*
X127167664Y-94593793D01*
X127167671Y-94593797D01*
X127302517Y-94644091D01*
X127302516Y-94644091D01*
X127309444Y-94644835D01*
X127362127Y-94650500D01*
X129357872Y-94650499D01*
X129417483Y-94644091D01*
X129552331Y-94593796D01*
X129667546Y-94507546D01*
X129686233Y-94482582D01*
X129742166Y-94440711D01*
X129811858Y-94435727D01*
X129873181Y-94469212D01*
X129906666Y-94530535D01*
X129909500Y-94556893D01*
X129909500Y-95147870D01*
X129909501Y-95147876D01*
X129915908Y-95207483D01*
X129966202Y-95342328D01*
X129966206Y-95342335D01*
X130052452Y-95457544D01*
X130052455Y-95457547D01*
X130167664Y-95543793D01*
X130167671Y-95543797D01*
X130212618Y-95560560D01*
X130302517Y-95594091D01*
X130362127Y-95600500D01*
X130630001Y-95600499D01*
X130697039Y-95620183D01*
X130742794Y-95672987D01*
X130754000Y-95724499D01*
X130754000Y-97349387D01*
X130734995Y-97415357D01*
X130719209Y-97440480D01*
X130659633Y-97610737D01*
X130659630Y-97610750D01*
X130639435Y-97789996D01*
X130639435Y-97790003D01*
X130659630Y-97969249D01*
X130659631Y-97969254D01*
X130719211Y-98139523D01*
X130815183Y-98292262D01*
X130815184Y-98292262D01*
X130942738Y-98419816D01*
X131095478Y-98515789D01*
X131265745Y-98575367D01*
X131265745Y-98575368D01*
X131265750Y-98575369D01*
X131444996Y-98595565D01*
X131445000Y-98595565D01*
X131445004Y-98595565D01*
X131624249Y-98575369D01*
X131624252Y-98575368D01*
X131624255Y-98575368D01*
X131794522Y-98515789D01*
X131947262Y-98419816D01*
X132074816Y-98292262D01*
X132170789Y-98139522D01*
X132230368Y-97969255D01*
X132250565Y-97790000D01*
X132230368Y-97610745D01*
X132230367Y-97610743D01*
X132230366Y-97610737D01*
X132170790Y-97440480D01*
X132155005Y-97415357D01*
X132136000Y-97349387D01*
X132136000Y-95724499D01*
X132155685Y-95657460D01*
X132208489Y-95611705D01*
X132260000Y-95600499D01*
X132357871Y-95600499D01*
X132357872Y-95600499D01*
X132417483Y-95594091D01*
X132491667Y-95566421D01*
X132561358Y-95561438D01*
X132622681Y-95594923D01*
X132656166Y-95656246D01*
X132659000Y-95682604D01*
X132659000Y-101262415D01*
X132639315Y-101329454D01*
X132622681Y-101350096D01*
X126750097Y-107222681D01*
X126688774Y-107256166D01*
X126662416Y-107259000D01*
X117812584Y-107259000D01*
X117745545Y-107239315D01*
X117724903Y-107222681D01*
X116719786Y-106217564D01*
X116686301Y-106156241D01*
X116691285Y-106086549D01*
X116733157Y-106030616D01*
X116742372Y-106024344D01*
X116793651Y-105992715D01*
X116793650Y-105992715D01*
X116793656Y-105992712D01*
X116917712Y-105868656D01*
X117009814Y-105719334D01*
X117064999Y-105552797D01*
X117075500Y-105450009D01*
X117075499Y-104099992D01*
X117074483Y-104090050D01*
X117064999Y-103997203D01*
X117064998Y-103997200D01*
X117033730Y-103902840D01*
X117009814Y-103830666D01*
X116917712Y-103681344D01*
X116793656Y-103557288D01*
X116674902Y-103484040D01*
X116628179Y-103432093D01*
X116616000Y-103378502D01*
X116616000Y-101726497D01*
X116635685Y-101659458D01*
X116674902Y-101620959D01*
X116793656Y-101547712D01*
X116917712Y-101423656D01*
X117009814Y-101274334D01*
X117064999Y-101107797D01*
X117075500Y-101005009D01*
X117075499Y-99654992D01*
X117064999Y-99552203D01*
X117009814Y-99385666D01*
X116917712Y-99236344D01*
X116793656Y-99112288D01*
X116644334Y-99020186D01*
X116477797Y-98965001D01*
X116477795Y-98965000D01*
X116375010Y-98954500D01*
X115474998Y-98954500D01*
X115474980Y-98954501D01*
X115372203Y-98965000D01*
X115372200Y-98965001D01*
X115205668Y-99020185D01*
X115205663Y-99020187D01*
X115056342Y-99112289D01*
X114932289Y-99236342D01*
X114840187Y-99385663D01*
X114840185Y-99385666D01*
X114840186Y-99385666D01*
X114785001Y-99552203D01*
X114785001Y-99552204D01*
X114785000Y-99552204D01*
X114774500Y-99654983D01*
X114774500Y-101005001D01*
X114774501Y-101005018D01*
X114785000Y-101107796D01*
X114785001Y-101107799D01*
X114836236Y-101262415D01*
X114840186Y-101274334D01*
X114932288Y-101423656D01*
X115056344Y-101547712D01*
X115175096Y-101620958D01*
X115221821Y-101672906D01*
X115234000Y-101726497D01*
X115234000Y-103378502D01*
X115214315Y-103445541D01*
X115175097Y-103484041D01*
X115056342Y-103557289D01*
X114932289Y-103681342D01*
X114840187Y-103830663D01*
X114840185Y-103830666D01*
X114840186Y-103830666D01*
X114785001Y-103997203D01*
X114785001Y-103997204D01*
X114785000Y-103997204D01*
X114774500Y-104099983D01*
X114774500Y-105450001D01*
X114774501Y-105450018D01*
X114785000Y-105552796D01*
X114785001Y-105552799D01*
X114840185Y-105719331D01*
X114840186Y-105719334D01*
X114932288Y-105868656D01*
X115056344Y-105992712D01*
X115175096Y-106065958D01*
X115221821Y-106117906D01*
X115234000Y-106171497D01*
X115234000Y-106377247D01*
X115233887Y-106380992D01*
X115230195Y-106442025D01*
X115230195Y-106442028D01*
X115241217Y-106502174D01*
X115241780Y-106505876D01*
X115249152Y-106566582D01*
X115252644Y-106575792D01*
X115258666Y-106597395D01*
X115260441Y-106607081D01*
X115285540Y-106662851D01*
X115286973Y-106666310D01*
X115308653Y-106723478D01*
X115308656Y-106723482D01*
X115314250Y-106731586D01*
X115325274Y-106751134D01*
X115329308Y-106760099D01*
X115329314Y-106760108D01*
X115367018Y-106808234D01*
X115369238Y-106811251D01*
X115403980Y-106861583D01*
X115449753Y-106902135D01*
X115452464Y-106904686D01*
X115526826Y-106979048D01*
X115595097Y-107047319D01*
X115628582Y-107108642D01*
X115623598Y-107178334D01*
X115581726Y-107234267D01*
X115516262Y-107258684D01*
X115507416Y-107259000D01*
X72727584Y-107259000D01*
X72660545Y-107239315D01*
X72639903Y-107222681D01*
X70946615Y-105529393D01*
X70913130Y-105468070D01*
X70918114Y-105398378D01*
X70959986Y-105342445D01*
X71025450Y-105318028D01*
X71071183Y-105323326D01*
X71137804Y-105344086D01*
X71208384Y-105350500D01*
X71208387Y-105350500D01*
X71721613Y-105350500D01*
X71721616Y-105350500D01*
X71792196Y-105344086D01*
X71954606Y-105293478D01*
X72100185Y-105205472D01*
X72220472Y-105085185D01*
X72308478Y-104939606D01*
X72359086Y-104777196D01*
X72365500Y-104706616D01*
X72365500Y-103693384D01*
X72359086Y-103622804D01*
X72308478Y-103460394D01*
X72220472Y-103314815D01*
X72220470Y-103314813D01*
X72220469Y-103314811D01*
X72100188Y-103194530D01*
X72096666Y-103192401D01*
X71954606Y-103106522D01*
X71792196Y-103055914D01*
X71792194Y-103055913D01*
X71792192Y-103055913D01*
X71742778Y-103051423D01*
X71721616Y-103049500D01*
X71208384Y-103049500D01*
X71189144Y-103051248D01*
X71137807Y-103055913D01*
X70975391Y-103106523D01*
X70833330Y-103192401D01*
X70765775Y-103210237D01*
X70699302Y-103188719D01*
X70696297Y-103186603D01*
X70667733Y-103165851D01*
X70667729Y-103165848D01*
X70494807Y-103088857D01*
X70494802Y-103088855D01*
X70339817Y-103055913D01*
X70309646Y-103049500D01*
X70120354Y-103049500D01*
X70090183Y-103055913D01*
X69935197Y-103088855D01*
X69935192Y-103088857D01*
X69762271Y-103165848D01*
X69662885Y-103238056D01*
X69597078Y-103261535D01*
X69529025Y-103245709D01*
X69517115Y-103238056D01*
X69453762Y-103192028D01*
X69417730Y-103165849D01*
X69417728Y-103165848D01*
X69417729Y-103165848D01*
X69244807Y-103088857D01*
X69244802Y-103088855D01*
X69089817Y-103055913D01*
X69059646Y-103049500D01*
X68870354Y-103049500D01*
X68840183Y-103055913D01*
X68685197Y-103088855D01*
X68685192Y-103088857D01*
X68512271Y-103165848D01*
X68412885Y-103238056D01*
X68347078Y-103261535D01*
X68279025Y-103245709D01*
X68267115Y-103238056D01*
X68203762Y-103192028D01*
X68167730Y-103165849D01*
X68167728Y-103165848D01*
X68167729Y-103165848D01*
X67994807Y-103088857D01*
X67994802Y-103088855D01*
X67839817Y-103055913D01*
X67809646Y-103049500D01*
X67620354Y-103049500D01*
X67590183Y-103055913D01*
X67435197Y-103088855D01*
X67435192Y-103088857D01*
X67262271Y-103165848D01*
X67162885Y-103238056D01*
X67097078Y-103261535D01*
X67029025Y-103245709D01*
X67017115Y-103238056D01*
X66953762Y-103192028D01*
X66917730Y-103165849D01*
X66917728Y-103165848D01*
X66917729Y-103165848D01*
X66744807Y-103088857D01*
X66744802Y-103088855D01*
X66589817Y-103055913D01*
X66559646Y-103049500D01*
X66370354Y-103049500D01*
X66320375Y-103060123D01*
X66185199Y-103088855D01*
X66036257Y-103155169D01*
X65967007Y-103164453D01*
X65903730Y-103134825D01*
X65872746Y-103092780D01*
X65854460Y-103052151D01*
X65853033Y-103048708D01*
X65831344Y-102991518D01*
X65825748Y-102983411D01*
X65814725Y-102963866D01*
X65810688Y-102954895D01*
X65810687Y-102954894D01*
X65810687Y-102954893D01*
X65810685Y-102954890D01*
X65786585Y-102924131D01*
X65772973Y-102906757D01*
X65770771Y-102903765D01*
X65736020Y-102853417D01*
X65690236Y-102812856D01*
X65687542Y-102810320D01*
X54571423Y-91694201D01*
X54537938Y-91632878D01*
X54542922Y-91563186D01*
X54584794Y-91507253D01*
X54648295Y-91482992D01*
X54846692Y-91465635D01*
X55066496Y-91406739D01*
X55272734Y-91310568D01*
X55459139Y-91180047D01*
X55620047Y-91019139D01*
X55750568Y-90832734D01*
X55812463Y-90700000D01*
X59164341Y-90700000D01*
X59184936Y-90935403D01*
X59184938Y-90935413D01*
X59246094Y-91163655D01*
X59246096Y-91163659D01*
X59246097Y-91163663D01*
X59253737Y-91180047D01*
X59345964Y-91377828D01*
X59345965Y-91377830D01*
X59481505Y-91571402D01*
X59648597Y-91738494D01*
X59842169Y-91874034D01*
X59842171Y-91874035D01*
X60056337Y-91973903D01*
X60284592Y-92035063D01*
X60461034Y-92050500D01*
X60578966Y-92050500D01*
X60755408Y-92035063D01*
X60983663Y-91973903D01*
X61197829Y-91874035D01*
X61391401Y-91738495D01*
X61558495Y-91571401D01*
X61694035Y-91377830D01*
X61793903Y-91163663D01*
X61855063Y-90935408D01*
X61875659Y-90700000D01*
X61855063Y-90464592D01*
X61793903Y-90236337D01*
X61694035Y-90022171D01*
X61694034Y-90022169D01*
X61558494Y-89828597D01*
X61391402Y-89661505D01*
X61197830Y-89525965D01*
X61197828Y-89525964D01*
X61090746Y-89476030D01*
X60983663Y-89426097D01*
X60983659Y-89426096D01*
X60983655Y-89426094D01*
X60755413Y-89364938D01*
X60755403Y-89364936D01*
X60578966Y-89349500D01*
X60461034Y-89349500D01*
X60284596Y-89364936D01*
X60284586Y-89364938D01*
X60056344Y-89426094D01*
X60056335Y-89426098D01*
X59842171Y-89525964D01*
X59842169Y-89525965D01*
X59648597Y-89661505D01*
X59481506Y-89828597D01*
X59481501Y-89828604D01*
X59345967Y-90022165D01*
X59345965Y-90022169D01*
X59246098Y-90236335D01*
X59246094Y-90236344D01*
X59184938Y-90464586D01*
X59184936Y-90464596D01*
X59164341Y-90699999D01*
X59164341Y-90700000D01*
X55812463Y-90700000D01*
X55846739Y-90626496D01*
X55905635Y-90406692D01*
X55925468Y-90180000D01*
X55905635Y-89953308D01*
X55905632Y-89953298D01*
X55904694Y-89947974D01*
X55907184Y-89947534D01*
X55908491Y-89888363D01*
X55938985Y-89838235D01*
X56352542Y-89424678D01*
X56355234Y-89422144D01*
X56401020Y-89381583D01*
X56435759Y-89331254D01*
X56437962Y-89328258D01*
X56475688Y-89280106D01*
X56479729Y-89271126D01*
X56490750Y-89251584D01*
X56496344Y-89243482D01*
X56518031Y-89186296D01*
X56519451Y-89182865D01*
X56544557Y-89127085D01*
X56546330Y-89117403D01*
X56552356Y-89095788D01*
X56555848Y-89086582D01*
X56563219Y-89025870D01*
X56563781Y-89022180D01*
X56567006Y-89004581D01*
X56574805Y-88962028D01*
X56571112Y-88900990D01*
X56570999Y-88897245D01*
X56570999Y-83940192D01*
X105764500Y-83940192D01*
X105780326Y-84035033D01*
X105804066Y-84177300D01*
X105882116Y-84404652D01*
X105882118Y-84404657D01*
X105996529Y-84616069D01*
X105996533Y-84616075D01*
X106144169Y-84805757D01*
X106144171Y-84805759D01*
X106144175Y-84805764D01*
X106321031Y-84968571D01*
X106348460Y-84986491D01*
X106393815Y-85039635D01*
X106403239Y-85108866D01*
X106373738Y-85172202D01*
X106348462Y-85194104D01*
X106321344Y-85211822D01*
X106321338Y-85211826D01*
X106144544Y-85374577D01*
X105996947Y-85564209D01*
X105882578Y-85775544D01*
X105882576Y-85775550D01*
X105804553Y-86002823D01*
X105786669Y-86109999D01*
X105786670Y-86110000D01*
X106869428Y-86110000D01*
X106846318Y-86145960D01*
X106805000Y-86286673D01*
X106805000Y-86433327D01*
X106846318Y-86574040D01*
X106869428Y-86610000D01*
X105786669Y-86610000D01*
X105804553Y-86717176D01*
X105882576Y-86944449D01*
X105882578Y-86944455D01*
X105996947Y-87155790D01*
X106144544Y-87345422D01*
X106321338Y-87508173D01*
X106321342Y-87508176D01*
X106522509Y-87639606D01*
X106742571Y-87736134D01*
X106975517Y-87795124D01*
X107064999Y-87802538D01*
X107064999Y-86806494D01*
X107169839Y-86854373D01*
X107278527Y-86870000D01*
X107351473Y-86870000D01*
X107460161Y-86854373D01*
X107565000Y-86806494D01*
X107565000Y-87802538D01*
X107654482Y-87795124D01*
X107654483Y-87795124D01*
X107887428Y-87736134D01*
X108107490Y-87639606D01*
X108308657Y-87508176D01*
X108308661Y-87508173D01*
X108485455Y-87345422D01*
X108633052Y-87155790D01*
X108747421Y-86944455D01*
X108747423Y-86944449D01*
X108825446Y-86717176D01*
X108843331Y-86610000D01*
X107760572Y-86610000D01*
X107783682Y-86574040D01*
X107825000Y-86433327D01*
X107825000Y-86286673D01*
X107783682Y-86145960D01*
X107760572Y-86110000D01*
X108843330Y-86110000D01*
X108843330Y-86109999D01*
X108825446Y-86002823D01*
X108747423Y-85775550D01*
X108747421Y-85775544D01*
X108633052Y-85564209D01*
X108485455Y-85374577D01*
X108308661Y-85211826D01*
X108308659Y-85211825D01*
X108281538Y-85194105D01*
X108236183Y-85140958D01*
X108226761Y-85071727D01*
X108256264Y-85008391D01*
X108281536Y-84986493D01*
X108308969Y-84968571D01*
X108485825Y-84805764D01*
X108620986Y-84632109D01*
X108633466Y-84616075D01*
X108633470Y-84616069D01*
X108633472Y-84616067D01*
X108747882Y-84404656D01*
X108825934Y-84177297D01*
X108865500Y-83940192D01*
X108865500Y-83699808D01*
X108825934Y-83462703D01*
X108807114Y-83407883D01*
X108747883Y-83235347D01*
X108747881Y-83235342D01*
X108679678Y-83109315D01*
X108633472Y-83023933D01*
X108633470Y-83023930D01*
X108633466Y-83023924D01*
X108485830Y-82834242D01*
X108485827Y-82834239D01*
X108485825Y-82834236D01*
X108308969Y-82671429D01*
X108281995Y-82653806D01*
X108236641Y-82600663D01*
X108227217Y-82531432D01*
X108256718Y-82468096D01*
X108281992Y-82446195D01*
X108308969Y-82428571D01*
X108485825Y-82265764D01*
X108633472Y-82076067D01*
X108747882Y-81864656D01*
X108825934Y-81637297D01*
X108865500Y-81400192D01*
X108865500Y-81320015D01*
X109694500Y-81320015D01*
X109705000Y-81422795D01*
X109705001Y-81422796D01*
X109760186Y-81589335D01*
X109760187Y-81589337D01*
X109852286Y-81738651D01*
X109852289Y-81738655D01*
X109976344Y-81862710D01*
X109976348Y-81862713D01*
X110125657Y-81954809D01*
X110125660Y-81954810D01*
X110125666Y-81954814D01*
X110131505Y-81956748D01*
X110188949Y-81996520D01*
X110215772Y-82061036D01*
X110216500Y-82074454D01*
X110216500Y-88659747D01*
X110216387Y-88663492D01*
X110212695Y-88724525D01*
X110212695Y-88724528D01*
X110223717Y-88784674D01*
X110224280Y-88788376D01*
X110231652Y-88849082D01*
X110235144Y-88858292D01*
X110241166Y-88879895D01*
X110242941Y-88889581D01*
X110268040Y-88945351D01*
X110269473Y-88948810D01*
X110291153Y-89005978D01*
X110291156Y-89005982D01*
X110296750Y-89014086D01*
X110307774Y-89033634D01*
X110311808Y-89042599D01*
X110311814Y-89042608D01*
X110349518Y-89090734D01*
X110351738Y-89093751D01*
X110386480Y-89144083D01*
X110432253Y-89184635D01*
X110434964Y-89187186D01*
X114488181Y-93240402D01*
X118297681Y-97049902D01*
X118331166Y-97111225D01*
X118334000Y-97137583D01*
X118334000Y-98933502D01*
X118314315Y-99000541D01*
X118275097Y-99039041D01*
X118156342Y-99112289D01*
X118032289Y-99236342D01*
X117940187Y-99385663D01*
X117940185Y-99385666D01*
X117940186Y-99385666D01*
X117885001Y-99552203D01*
X117885001Y-99552204D01*
X117885000Y-99552204D01*
X117874500Y-99654983D01*
X117874500Y-101005001D01*
X117874501Y-101005018D01*
X117885000Y-101107796D01*
X117885001Y-101107799D01*
X117936236Y-101262415D01*
X117940186Y-101274334D01*
X118032288Y-101423656D01*
X118156344Y-101547712D01*
X118305666Y-101639814D01*
X118472203Y-101694999D01*
X118574991Y-101705500D01*
X119475008Y-101705499D01*
X119475016Y-101705498D01*
X119475019Y-101705498D01*
X119531302Y-101699748D01*
X119577797Y-101694999D01*
X119744334Y-101639814D01*
X119769903Y-101624042D01*
X119837294Y-101605602D01*
X119903958Y-101626524D01*
X119948728Y-101680165D01*
X119959000Y-101729581D01*
X119958999Y-102812415D01*
X119939314Y-102879455D01*
X119922680Y-102900096D01*
X119459596Y-103363181D01*
X119398273Y-103396666D01*
X119371915Y-103399500D01*
X118574998Y-103399500D01*
X118574980Y-103399501D01*
X118472203Y-103410000D01*
X118472200Y-103410001D01*
X118305668Y-103465185D01*
X118305663Y-103465187D01*
X118156342Y-103557289D01*
X118032289Y-103681342D01*
X117940187Y-103830663D01*
X117940185Y-103830666D01*
X117940186Y-103830666D01*
X117885001Y-103997203D01*
X117885001Y-103997204D01*
X117885000Y-103997204D01*
X117874500Y-104099983D01*
X117874500Y-105450001D01*
X117874501Y-105450018D01*
X117885000Y-105552796D01*
X117885001Y-105552799D01*
X117940185Y-105719331D01*
X117940186Y-105719334D01*
X118032288Y-105868656D01*
X118156344Y-105992712D01*
X118305666Y-106084814D01*
X118472203Y-106139999D01*
X118574991Y-106150500D01*
X119475008Y-106150499D01*
X119475016Y-106150498D01*
X119475019Y-106150498D01*
X119531302Y-106144748D01*
X119577797Y-106139999D01*
X119744334Y-106084814D01*
X119893656Y-105992712D01*
X120017712Y-105868656D01*
X120109814Y-105719334D01*
X120164999Y-105552797D01*
X120175500Y-105450009D01*
X120175499Y-104653082D01*
X120195183Y-104586044D01*
X120211813Y-104565407D01*
X121122542Y-103654678D01*
X121125234Y-103652144D01*
X121171020Y-103611583D01*
X121205761Y-103561248D01*
X121207968Y-103558249D01*
X121245688Y-103510105D01*
X121249722Y-103501139D01*
X121260754Y-103481580D01*
X121266342Y-103473485D01*
X121266342Y-103473484D01*
X121266344Y-103473482D01*
X121288037Y-103416281D01*
X121289451Y-103412865D01*
X121314557Y-103357085D01*
X121316330Y-103347403D01*
X121322356Y-103325788D01*
X121325848Y-103316582D01*
X121333219Y-103255870D01*
X121333781Y-103252179D01*
X121335256Y-103244133D01*
X121344805Y-103192028D01*
X121343221Y-103165849D01*
X121341113Y-103130992D01*
X121341000Y-103127247D01*
X121341000Y-101667763D01*
X125145787Y-101667763D01*
X125175413Y-101937013D01*
X125175415Y-101937024D01*
X125229420Y-102143595D01*
X125243928Y-102199088D01*
X125349870Y-102448390D01*
X125421998Y-102566575D01*
X125490979Y-102679605D01*
X125490986Y-102679615D01*
X125664253Y-102887819D01*
X125664259Y-102887824D01*
X125769240Y-102981887D01*
X125865998Y-103068582D01*
X126091910Y-103218044D01*
X126337176Y-103333020D01*
X126337183Y-103333022D01*
X126337185Y-103333023D01*
X126596557Y-103411057D01*
X126596564Y-103411058D01*
X126596569Y-103411060D01*
X126864561Y-103450500D01*
X126864566Y-103450500D01*
X127067636Y-103450500D01*
X127119133Y-103446730D01*
X127270156Y-103435677D01*
X127385424Y-103410000D01*
X127534546Y-103376782D01*
X127534548Y-103376781D01*
X127534553Y-103376780D01*
X127787558Y-103280014D01*
X128023777Y-103147441D01*
X128238177Y-102981888D01*
X128426186Y-102786881D01*
X128583799Y-102566579D01*
X128657787Y-102422669D01*
X128707649Y-102325690D01*
X128707651Y-102325684D01*
X128707656Y-102325675D01*
X128795118Y-102069305D01*
X128844319Y-101802933D01*
X128854212Y-101532235D01*
X128824586Y-101262982D01*
X128756072Y-101000912D01*
X128650130Y-100751610D01*
X128509018Y-100520390D01*
X128419747Y-100413119D01*
X128335746Y-100312180D01*
X128335740Y-100312175D01*
X128134002Y-100131418D01*
X127908092Y-99981957D01*
X127908090Y-99981956D01*
X127662824Y-99866980D01*
X127662819Y-99866978D01*
X127662814Y-99866976D01*
X127403442Y-99788942D01*
X127403428Y-99788939D01*
X127287791Y-99771921D01*
X127135439Y-99749500D01*
X126932369Y-99749500D01*
X126932364Y-99749500D01*
X126729844Y-99764323D01*
X126729831Y-99764325D01*
X126465453Y-99823217D01*
X126465446Y-99823220D01*
X126212439Y-99919987D01*
X125976226Y-100052557D01*
X125761822Y-100218112D01*
X125573822Y-100413109D01*
X125573816Y-100413116D01*
X125416202Y-100633419D01*
X125416199Y-100633424D01*
X125292350Y-100874309D01*
X125292343Y-100874327D01*
X125204884Y-101130685D01*
X125204881Y-101130699D01*
X125155681Y-101397068D01*
X125155680Y-101397075D01*
X125145787Y-101667763D01*
X121341000Y-101667763D01*
X121341000Y-92550000D01*
X121341000Y-81936724D01*
X121360684Y-81869689D01*
X121377309Y-81849056D01*
X121487711Y-81738655D01*
X121579814Y-81589334D01*
X121634999Y-81422797D01*
X121645500Y-81320008D01*
X121645500Y-79969992D01*
X121634999Y-79867203D01*
X121579814Y-79700666D01*
X121487711Y-79551345D01*
X121363655Y-79427289D01*
X121363651Y-79427286D01*
X121214337Y-79335187D01*
X121214335Y-79335186D01*
X121129290Y-79307005D01*
X121047797Y-79280001D01*
X121047795Y-79280000D01*
X120945015Y-79269500D01*
X120945008Y-79269500D01*
X119919992Y-79269500D01*
X119919984Y-79269500D01*
X119817204Y-79280000D01*
X119817203Y-79280001D01*
X119650664Y-79335186D01*
X119650662Y-79335187D01*
X119501348Y-79427286D01*
X119501344Y-79427289D01*
X119377289Y-79551344D01*
X119377286Y-79551348D01*
X119285187Y-79700662D01*
X119285186Y-79700664D01*
X119230001Y-79867203D01*
X119230000Y-79867204D01*
X119219500Y-79969984D01*
X119219500Y-81320015D01*
X119230000Y-81422795D01*
X119230001Y-81422796D01*
X119285186Y-81589335D01*
X119285187Y-81589337D01*
X119377286Y-81738651D01*
X119377289Y-81738655D01*
X119501344Y-81862710D01*
X119501348Y-81862713D01*
X119650662Y-81954812D01*
X119650664Y-81954813D01*
X119650666Y-81954814D01*
X119817203Y-82009999D01*
X119847601Y-82013104D01*
X119912292Y-82039499D01*
X119952445Y-82096679D01*
X119959000Y-82136462D01*
X119958999Y-96698651D01*
X119939314Y-96765690D01*
X119886510Y-96811445D01*
X119817352Y-96821389D01*
X119753796Y-96792364D01*
X119716022Y-96733586D01*
X119713030Y-96721001D01*
X119708778Y-96697798D01*
X119708215Y-96694095D01*
X119700848Y-96633418D01*
X119700847Y-96633416D01*
X119697363Y-96624230D01*
X119691332Y-96602600D01*
X119689558Y-96592916D01*
X119664446Y-96537120D01*
X119663031Y-96533703D01*
X119641344Y-96476518D01*
X119635748Y-96468411D01*
X119624725Y-96448866D01*
X119620688Y-96439895D01*
X119582972Y-96391755D01*
X119580774Y-96388768D01*
X119546020Y-96338417D01*
X119500227Y-96297848D01*
X119497533Y-96295312D01*
X111634818Y-88432596D01*
X111601333Y-88371273D01*
X111598499Y-88344924D01*
X111598499Y-82074454D01*
X111618184Y-82007416D01*
X111670988Y-81961661D01*
X111683498Y-81956748D01*
X111689334Y-81954814D01*
X111718656Y-81936728D01*
X111838655Y-81862711D01*
X111962711Y-81738655D01*
X112054814Y-81589334D01*
X112109999Y-81422797D01*
X112120500Y-81320008D01*
X112120500Y-80895000D01*
X112670000Y-80895000D01*
X112670000Y-81319985D01*
X112680493Y-81422689D01*
X112680494Y-81422696D01*
X112735641Y-81589118D01*
X112735643Y-81589123D01*
X112827684Y-81738344D01*
X112951655Y-81862315D01*
X113100876Y-81954356D01*
X113100881Y-81954358D01*
X113267303Y-82009505D01*
X113267310Y-82009506D01*
X113370014Y-82019999D01*
X113370027Y-82020000D01*
X113632500Y-82020000D01*
X113632500Y-80895000D01*
X114132500Y-80895000D01*
X114132500Y-82020000D01*
X114394973Y-82020000D01*
X114394985Y-82019999D01*
X114497689Y-82009506D01*
X114497696Y-82009505D01*
X114664118Y-81954358D01*
X114664123Y-81954356D01*
X114813344Y-81862315D01*
X114937315Y-81738344D01*
X115029356Y-81589123D01*
X115029358Y-81589118D01*
X115084505Y-81422696D01*
X115084506Y-81422689D01*
X115094999Y-81319985D01*
X115095000Y-81319972D01*
X115095000Y-80895000D01*
X114132500Y-80895000D01*
X113632500Y-80895000D01*
X112670000Y-80895000D01*
X112120500Y-80895000D01*
X112120500Y-80395000D01*
X112670000Y-80395000D01*
X113632500Y-80395000D01*
X113632500Y-79270000D01*
X114132500Y-79270000D01*
X114132500Y-80395000D01*
X115095000Y-80395000D01*
X115095000Y-79970027D01*
X115094999Y-79970014D01*
X115084506Y-79867310D01*
X115084505Y-79867303D01*
X115029358Y-79700881D01*
X115029356Y-79700876D01*
X114937315Y-79551655D01*
X114813344Y-79427684D01*
X114664123Y-79335643D01*
X114664118Y-79335641D01*
X114497696Y-79280494D01*
X114497689Y-79280493D01*
X114394985Y-79270000D01*
X114132500Y-79270000D01*
X113632500Y-79270000D01*
X113370014Y-79270000D01*
X113267310Y-79280493D01*
X113267303Y-79280494D01*
X113100881Y-79335641D01*
X113100876Y-79335643D01*
X112951655Y-79427684D01*
X112827684Y-79551655D01*
X112735643Y-79700876D01*
X112735641Y-79700881D01*
X112680494Y-79867303D01*
X112680493Y-79867310D01*
X112670000Y-79970014D01*
X112670000Y-80395000D01*
X112120500Y-80395000D01*
X112120500Y-79969992D01*
X112109999Y-79867203D01*
X112054814Y-79700666D01*
X111962711Y-79551345D01*
X111838655Y-79427289D01*
X111838651Y-79427286D01*
X111689337Y-79335187D01*
X111689335Y-79335186D01*
X111604290Y-79307005D01*
X111522797Y-79280001D01*
X111522795Y-79280000D01*
X111420015Y-79269500D01*
X111420008Y-79269500D01*
X110394992Y-79269500D01*
X110394984Y-79269500D01*
X110292204Y-79280000D01*
X110292203Y-79280001D01*
X110125664Y-79335186D01*
X110125662Y-79335187D01*
X109976348Y-79427286D01*
X109976344Y-79427289D01*
X109852289Y-79551344D01*
X109852286Y-79551348D01*
X109760187Y-79700662D01*
X109760186Y-79700664D01*
X109705001Y-79867203D01*
X109705000Y-79867204D01*
X109694500Y-79969984D01*
X109694500Y-81320015D01*
X108865500Y-81320015D01*
X108865500Y-81159808D01*
X108825934Y-80922703D01*
X108747882Y-80695344D01*
X108633472Y-80483933D01*
X108633470Y-80483930D01*
X108633466Y-80483924D01*
X108485830Y-80294242D01*
X108485827Y-80294239D01*
X108485825Y-80294236D01*
X108308969Y-80131429D01*
X108281995Y-80113806D01*
X108236641Y-80060663D01*
X108227217Y-79991432D01*
X108256718Y-79928096D01*
X108281992Y-79906195D01*
X108308969Y-79888571D01*
X108485825Y-79725764D01*
X108583891Y-79599768D01*
X108633466Y-79536075D01*
X108633470Y-79536069D01*
X108633472Y-79536067D01*
X108747882Y-79324656D01*
X108825934Y-79097297D01*
X108865500Y-78860192D01*
X108865500Y-78619808D01*
X108825934Y-78382703D01*
X108816695Y-78355792D01*
X108747883Y-78155347D01*
X108747881Y-78155342D01*
X108676945Y-78024264D01*
X108633472Y-77943933D01*
X108633470Y-77943930D01*
X108633466Y-77943924D01*
X108485830Y-77754242D01*
X108485827Y-77754239D01*
X108485825Y-77754236D01*
X108308969Y-77591429D01*
X108281995Y-77573806D01*
X108236641Y-77520663D01*
X108227217Y-77451432D01*
X108256718Y-77388096D01*
X108281992Y-77366195D01*
X108308969Y-77348571D01*
X108485825Y-77185764D01*
X108633472Y-76996067D01*
X108747882Y-76784656D01*
X108825934Y-76557297D01*
X108865500Y-76320192D01*
X108865500Y-76079808D01*
X108825934Y-75842703D01*
X108825720Y-75842081D01*
X108747883Y-75615347D01*
X108747881Y-75615342D01*
X108707762Y-75541209D01*
X108633472Y-75403933D01*
X108633470Y-75403930D01*
X108633466Y-75403924D01*
X108485830Y-75214242D01*
X108485827Y-75214239D01*
X108485825Y-75214236D01*
X108308969Y-75051429D01*
X108281995Y-75033806D01*
X108236641Y-74980663D01*
X108227217Y-74911432D01*
X108256718Y-74848096D01*
X108281992Y-74826195D01*
X108308969Y-74808571D01*
X108485825Y-74645764D01*
X108633472Y-74456067D01*
X108747882Y-74244656D01*
X108825934Y-74017297D01*
X108865500Y-73780192D01*
X108865500Y-73539808D01*
X108831802Y-73337870D01*
X110224500Y-73337870D01*
X110224501Y-73337876D01*
X110230908Y-73397483D01*
X110281202Y-73532328D01*
X110281206Y-73532335D01*
X110367452Y-73647544D01*
X110367455Y-73647547D01*
X110482664Y-73733793D01*
X110482671Y-73733797D01*
X110617517Y-73784091D01*
X110617516Y-73784091D01*
X110624444Y-73784835D01*
X110677127Y-73790500D01*
X113272872Y-73790499D01*
X113332483Y-73784091D01*
X113467331Y-73733796D01*
X113582546Y-73647546D01*
X113668796Y-73532331D01*
X113719091Y-73397483D01*
X113725500Y-73337873D01*
X113725499Y-70742128D01*
X113719091Y-70682517D01*
X113710102Y-70658417D01*
X113668797Y-70547671D01*
X113668793Y-70547664D01*
X113582547Y-70432455D01*
X113582544Y-70432452D01*
X113467335Y-70346206D01*
X113467328Y-70346202D01*
X113332482Y-70295908D01*
X113332483Y-70295908D01*
X113272883Y-70289501D01*
X113272881Y-70289500D01*
X113272873Y-70289500D01*
X113272864Y-70289500D01*
X110677129Y-70289500D01*
X110677123Y-70289501D01*
X110617516Y-70295908D01*
X110482671Y-70346202D01*
X110482664Y-70346206D01*
X110367455Y-70432452D01*
X110367452Y-70432455D01*
X110281206Y-70547664D01*
X110281202Y-70547671D01*
X110230908Y-70682517D01*
X110224501Y-70742116D01*
X110224501Y-70742123D01*
X110224500Y-70742135D01*
X110224500Y-73337870D01*
X108831802Y-73337870D01*
X108825934Y-73302703D01*
X108747882Y-73075344D01*
X108633472Y-72863933D01*
X108633470Y-72863930D01*
X108633466Y-72863924D01*
X108485830Y-72674242D01*
X108485827Y-72674239D01*
X108485825Y-72674236D01*
X108308969Y-72511429D01*
X108281995Y-72493806D01*
X108236641Y-72440663D01*
X108227217Y-72371432D01*
X108256718Y-72308096D01*
X108281992Y-72286195D01*
X108308969Y-72268571D01*
X108485825Y-72105764D01*
X108633472Y-71916067D01*
X108747882Y-71704656D01*
X108825934Y-71477297D01*
X108865500Y-71240192D01*
X108865500Y-70999808D01*
X108825934Y-70762703D01*
X108824969Y-70759893D01*
X108747883Y-70535347D01*
X108747881Y-70535342D01*
X108692201Y-70432454D01*
X108633472Y-70323933D01*
X108633470Y-70323930D01*
X108633466Y-70323924D01*
X108485830Y-70134242D01*
X108485827Y-70134239D01*
X108485825Y-70134236D01*
X108308969Y-69971429D01*
X108281995Y-69953806D01*
X108236641Y-69900663D01*
X108227217Y-69831432D01*
X108256718Y-69768096D01*
X108281992Y-69746195D01*
X108308969Y-69728571D01*
X108485825Y-69565764D01*
X108633472Y-69376067D01*
X108747882Y-69164656D01*
X108825934Y-68937297D01*
X108865500Y-68700192D01*
X108865500Y-68459808D01*
X108825934Y-68222703D01*
X108786378Y-68107481D01*
X108747883Y-67995347D01*
X108747881Y-67995342D01*
X108718638Y-67941306D01*
X108633472Y-67783933D01*
X108633470Y-67783930D01*
X108633466Y-67783924D01*
X108485830Y-67594242D01*
X108485827Y-67594239D01*
X108485825Y-67594236D01*
X108308969Y-67431429D01*
X108281995Y-67413806D01*
X108236641Y-67360663D01*
X108227217Y-67291432D01*
X108256718Y-67228096D01*
X108281992Y-67206195D01*
X108308969Y-67188571D01*
X108485825Y-67025764D01*
X108633472Y-66836067D01*
X108747882Y-66624656D01*
X108825934Y-66397297D01*
X108865500Y-66160192D01*
X108865500Y-65919808D01*
X108825934Y-65682703D01*
X108747882Y-65455344D01*
X108633472Y-65243933D01*
X108633470Y-65243930D01*
X108633466Y-65243924D01*
X108485830Y-65054242D01*
X108485827Y-65054239D01*
X108485825Y-65054236D01*
X108308969Y-64891429D01*
X108281995Y-64873806D01*
X108236641Y-64820663D01*
X108227217Y-64751432D01*
X108256718Y-64688096D01*
X108281992Y-64666195D01*
X108308969Y-64648571D01*
X108485825Y-64485764D01*
X108593142Y-64347883D01*
X108633466Y-64296075D01*
X108633470Y-64296069D01*
X108633472Y-64296067D01*
X108747882Y-64084656D01*
X108825934Y-63857297D01*
X108865500Y-63620192D01*
X108865500Y-63379808D01*
X108825934Y-63142703D01*
X108788981Y-63035063D01*
X108747883Y-62915347D01*
X108747881Y-62915342D01*
X108633470Y-62703930D01*
X108633466Y-62703924D01*
X108485830Y-62514242D01*
X108485827Y-62514239D01*
X108485825Y-62514236D01*
X108308969Y-62351429D01*
X108241982Y-62307664D01*
X108107729Y-62219951D01*
X107979386Y-62163655D01*
X107887591Y-62123390D01*
X107887589Y-62123389D01*
X107654559Y-62064379D01*
X107510659Y-62052455D01*
X107474990Y-62049500D01*
X107155010Y-62049500D01*
X107122563Y-62052188D01*
X106975440Y-62064379D01*
X106742410Y-62123389D01*
X106522270Y-62219951D01*
X106321033Y-62351427D01*
X106321029Y-62351430D01*
X106144172Y-62514239D01*
X106144169Y-62514242D01*
X105996533Y-62703924D01*
X105996529Y-62703930D01*
X105882118Y-62915342D01*
X105882116Y-62915347D01*
X105804066Y-63142699D01*
X105764500Y-63379809D01*
X105764500Y-63620190D01*
X105804066Y-63857300D01*
X105882116Y-64084652D01*
X105882118Y-64084657D01*
X105996529Y-64296069D01*
X105996533Y-64296075D01*
X106144169Y-64485757D01*
X106144171Y-64485759D01*
X106144175Y-64485764D01*
X106321031Y-64648571D01*
X106334770Y-64657547D01*
X106348003Y-64666193D01*
X106393358Y-64719340D01*
X106402780Y-64788571D01*
X106373277Y-64851907D01*
X106348003Y-64873807D01*
X106321031Y-64891429D01*
X106321029Y-64891430D01*
X106144172Y-65054239D01*
X106144169Y-65054242D01*
X105996533Y-65243924D01*
X105996529Y-65243930D01*
X105882118Y-65455342D01*
X105882116Y-65455347D01*
X105804066Y-65682699D01*
X105790841Y-65761955D01*
X105764500Y-65919808D01*
X105764500Y-66160192D01*
X105775583Y-66226610D01*
X105804066Y-66397300D01*
X105882116Y-66624652D01*
X105882118Y-66624657D01*
X105996529Y-66836069D01*
X105996533Y-66836075D01*
X106144169Y-67025757D01*
X106144171Y-67025759D01*
X106144175Y-67025764D01*
X106321031Y-67188571D01*
X106344883Y-67204154D01*
X106348003Y-67206193D01*
X106393358Y-67259340D01*
X106402780Y-67328571D01*
X106373277Y-67391907D01*
X106348003Y-67413807D01*
X106321031Y-67431429D01*
X106321029Y-67431430D01*
X106144172Y-67594239D01*
X106144169Y-67594242D01*
X105996533Y-67783924D01*
X105996529Y-67783930D01*
X105882118Y-67995342D01*
X105882116Y-67995347D01*
X105804066Y-68222699D01*
X105764500Y-68459809D01*
X105764500Y-68700190D01*
X105804066Y-68937300D01*
X105882116Y-69164652D01*
X105882118Y-69164657D01*
X105996529Y-69376069D01*
X105996533Y-69376075D01*
X106144169Y-69565757D01*
X106144171Y-69565759D01*
X106144175Y-69565764D01*
X106321031Y-69728571D01*
X106344883Y-69744154D01*
X106348003Y-69746193D01*
X106393358Y-69799340D01*
X106402780Y-69868571D01*
X106373277Y-69931907D01*
X106348003Y-69953807D01*
X106321031Y-69971429D01*
X106321029Y-69971430D01*
X106144172Y-70134239D01*
X106144169Y-70134242D01*
X105996533Y-70323924D01*
X105996529Y-70323930D01*
X105882118Y-70535342D01*
X105882116Y-70535347D01*
X105804066Y-70762699D01*
X105764500Y-70999809D01*
X105764500Y-71240190D01*
X105804066Y-71477300D01*
X105882116Y-71704652D01*
X105882118Y-71704657D01*
X105996529Y-71916069D01*
X105996533Y-71916075D01*
X106144169Y-72105757D01*
X106144171Y-72105759D01*
X106144175Y-72105764D01*
X106321031Y-72268571D01*
X106344883Y-72284154D01*
X106348003Y-72286193D01*
X106393358Y-72339340D01*
X106402780Y-72408571D01*
X106373277Y-72471907D01*
X106348003Y-72493807D01*
X106321031Y-72511429D01*
X106321029Y-72511430D01*
X106144172Y-72674239D01*
X106144169Y-72674242D01*
X105996533Y-72863924D01*
X105996529Y-72863930D01*
X105882118Y-73075342D01*
X105882116Y-73075347D01*
X105804066Y-73302699D01*
X105798195Y-73337883D01*
X105764500Y-73539808D01*
X105764500Y-73780192D01*
X105765151Y-73784091D01*
X105804066Y-74017300D01*
X105882116Y-74244652D01*
X105882118Y-74244657D01*
X105996529Y-74456069D01*
X105996533Y-74456075D01*
X106144169Y-74645757D01*
X106144171Y-74645759D01*
X106144175Y-74645764D01*
X106321031Y-74808571D01*
X106344883Y-74824154D01*
X106348003Y-74826193D01*
X106393358Y-74879340D01*
X106402780Y-74948571D01*
X106373277Y-75011907D01*
X106348003Y-75033807D01*
X106321031Y-75051429D01*
X106321029Y-75051430D01*
X106144172Y-75214239D01*
X106144169Y-75214242D01*
X105996533Y-75403924D01*
X105996529Y-75403930D01*
X105882118Y-75615342D01*
X105882116Y-75615347D01*
X105804066Y-75842699D01*
X105764500Y-76079809D01*
X105764500Y-76320190D01*
X105804066Y-76557300D01*
X105882116Y-76784652D01*
X105882118Y-76784657D01*
X105996529Y-76996069D01*
X105996533Y-76996075D01*
X106144169Y-77185757D01*
X106144171Y-77185759D01*
X106144175Y-77185764D01*
X106321031Y-77348571D01*
X106344883Y-77364154D01*
X106348003Y-77366193D01*
X106393358Y-77419340D01*
X106402780Y-77488571D01*
X106373277Y-77551907D01*
X106348003Y-77573807D01*
X106321031Y-77591429D01*
X106321029Y-77591430D01*
X106144172Y-77754239D01*
X106144169Y-77754242D01*
X105996533Y-77943924D01*
X105996529Y-77943930D01*
X105882118Y-78155342D01*
X105882116Y-78155347D01*
X105804066Y-78382699D01*
X105786145Y-78490097D01*
X105764888Y-78617486D01*
X105764500Y-78619809D01*
X105764500Y-78860190D01*
X105804066Y-79097300D01*
X105882116Y-79324652D01*
X105882118Y-79324657D01*
X105996529Y-79536069D01*
X105996533Y-79536075D01*
X106144169Y-79725757D01*
X106144171Y-79725759D01*
X106144175Y-79725764D01*
X106321031Y-79888571D01*
X106344883Y-79904154D01*
X106348003Y-79906193D01*
X106393358Y-79959340D01*
X106402780Y-80028571D01*
X106373277Y-80091907D01*
X106348003Y-80113807D01*
X106321031Y-80131429D01*
X106321029Y-80131430D01*
X106144172Y-80294239D01*
X106144169Y-80294242D01*
X105996533Y-80483924D01*
X105996529Y-80483930D01*
X105882118Y-80695342D01*
X105882116Y-80695347D01*
X105804066Y-80922699D01*
X105772413Y-81112387D01*
X105764500Y-81159808D01*
X105764500Y-81400192D01*
X105768272Y-81422795D01*
X105804066Y-81637300D01*
X105882116Y-81864652D01*
X105882118Y-81864657D01*
X105996529Y-82076069D01*
X105996533Y-82076075D01*
X106144169Y-82265757D01*
X106144171Y-82265759D01*
X106144175Y-82265764D01*
X106321031Y-82428571D01*
X106344883Y-82444154D01*
X106348003Y-82446193D01*
X106393358Y-82499340D01*
X106402780Y-82568571D01*
X106373277Y-82631907D01*
X106348003Y-82653807D01*
X106321031Y-82671429D01*
X106321029Y-82671430D01*
X106244146Y-82742206D01*
X106148900Y-82829887D01*
X106144172Y-82834239D01*
X106144169Y-82834242D01*
X105996533Y-83023924D01*
X105996529Y-83023930D01*
X105882118Y-83235342D01*
X105882116Y-83235347D01*
X105804066Y-83462699D01*
X105780766Y-83602331D01*
X105764500Y-83699808D01*
X105764500Y-83940192D01*
X56570999Y-83940192D01*
X56570999Y-76200000D01*
X95164341Y-76200000D01*
X95184936Y-76435403D01*
X95184938Y-76435413D01*
X95246094Y-76663655D01*
X95246096Y-76663659D01*
X95246097Y-76663663D01*
X95291867Y-76761816D01*
X95345964Y-76877828D01*
X95345965Y-76877830D01*
X95481505Y-77071402D01*
X95648597Y-77238494D01*
X95842169Y-77374034D01*
X95842171Y-77374035D01*
X96056337Y-77473903D01*
X96056343Y-77473904D01*
X96056344Y-77473905D01*
X96111079Y-77488571D01*
X96284592Y-77535063D01*
X96461034Y-77550500D01*
X96578966Y-77550500D01*
X96755408Y-77535063D01*
X96983663Y-77473903D01*
X97197829Y-77374035D01*
X97391401Y-77238495D01*
X97558495Y-77071401D01*
X97694035Y-76877830D01*
X97793903Y-76663663D01*
X97855063Y-76435408D01*
X97875659Y-76200000D01*
X97855063Y-75964592D01*
X97799227Y-75756208D01*
X97793905Y-75736344D01*
X97793904Y-75736343D01*
X97793903Y-75736337D01*
X97694035Y-75522171D01*
X97694034Y-75522169D01*
X97558494Y-75328597D01*
X97391402Y-75161505D01*
X97197830Y-75025965D01*
X97197828Y-75025964D01*
X97090746Y-74976030D01*
X96983663Y-74926097D01*
X96983659Y-74926096D01*
X96983655Y-74926094D01*
X96755413Y-74864938D01*
X96755403Y-74864936D01*
X96578966Y-74849500D01*
X96461034Y-74849500D01*
X96284596Y-74864936D01*
X96284586Y-74864938D01*
X96056344Y-74926094D01*
X96056335Y-74926098D01*
X95842171Y-75025964D01*
X95842169Y-75025965D01*
X95648597Y-75161505D01*
X95481506Y-75328597D01*
X95481501Y-75328604D01*
X95345967Y-75522165D01*
X95345965Y-75522169D01*
X95246098Y-75736335D01*
X95246094Y-75736344D01*
X95184938Y-75964586D01*
X95184936Y-75964596D01*
X95164341Y-76199999D01*
X95164341Y-76200000D01*
X56570999Y-76200000D01*
X56570999Y-71142753D01*
X56571112Y-71139008D01*
X56571435Y-71133658D01*
X56574805Y-71077971D01*
X56563779Y-71017806D01*
X56563220Y-71014135D01*
X56555848Y-70953418D01*
X56552359Y-70944218D01*
X56546331Y-70922596D01*
X56544557Y-70912915D01*
X56519459Y-70857149D01*
X56518025Y-70853687D01*
X56496344Y-70796519D01*
X56496344Y-70796518D01*
X56490754Y-70788420D01*
X56479725Y-70768865D01*
X56475688Y-70759895D01*
X56475687Y-70759893D01*
X56461769Y-70742128D01*
X56437974Y-70711755D01*
X56435767Y-70708755D01*
X56401020Y-70658417D01*
X56401019Y-70658416D01*
X56355236Y-70617856D01*
X56352542Y-70615320D01*
X53844686Y-68107464D01*
X53842135Y-68104753D01*
X53801583Y-68058980D01*
X53751251Y-68024238D01*
X53748234Y-68022018D01*
X53700108Y-67984314D01*
X53700099Y-67984308D01*
X53691134Y-67980274D01*
X53671586Y-67969250D01*
X53665521Y-67965063D01*
X53663478Y-67963653D01*
X53614689Y-67945150D01*
X53606302Y-67941969D01*
X53602851Y-67940540D01*
X53547081Y-67915441D01*
X53547082Y-67915441D01*
X53537395Y-67913666D01*
X53515792Y-67907644D01*
X53506582Y-67904152D01*
X53445876Y-67896780D01*
X53442177Y-67896217D01*
X53429211Y-67893841D01*
X53382030Y-67885195D01*
X53382025Y-67885195D01*
X53320992Y-67888887D01*
X53317247Y-67889000D01*
X50822752Y-67889000D01*
X50819007Y-67888887D01*
X50757973Y-67885195D01*
X50757966Y-67885195D01*
X50697826Y-67896216D01*
X50694126Y-67896779D01*
X50633414Y-67904152D01*
X50624203Y-67907645D01*
X50602606Y-67913666D01*
X50592916Y-67915442D01*
X50537156Y-67940537D01*
X50533697Y-67941969D01*
X50476527Y-67963652D01*
X50476523Y-67963654D01*
X50476518Y-67963656D01*
X50476513Y-67963659D01*
X50476510Y-67963661D01*
X50468410Y-67969251D01*
X50448881Y-67980266D01*
X50439900Y-67984308D01*
X50439895Y-67984311D01*
X50439894Y-67984312D01*
X50425815Y-67995342D01*
X50391764Y-68022017D01*
X50388750Y-68024235D01*
X50338416Y-68058980D01*
X50338414Y-68058981D01*
X50297863Y-68104754D01*
X50295296Y-68107480D01*
X48595823Y-69806953D01*
X48534500Y-69840438D01*
X48464808Y-69835454D01*
X48443047Y-69824812D01*
X48419338Y-69810188D01*
X48419335Y-69810186D01*
X48419334Y-69810186D01*
X48252797Y-69755001D01*
X48252795Y-69755000D01*
X48150010Y-69744500D01*
X47249998Y-69744500D01*
X47249980Y-69744501D01*
X47147203Y-69755000D01*
X47147200Y-69755001D01*
X46980668Y-69810185D01*
X46980663Y-69810187D01*
X46831342Y-69902289D01*
X46707289Y-70026342D01*
X46615187Y-70175663D01*
X46615185Y-70175666D01*
X46615186Y-70175666D01*
X46560001Y-70342203D01*
X46560001Y-70342204D01*
X46560000Y-70342204D01*
X46549500Y-70444983D01*
X46549500Y-71795001D01*
X46549501Y-71795018D01*
X46560000Y-71897796D01*
X46560001Y-71897799D01*
X46615185Y-72064331D01*
X46615186Y-72064334D01*
X46707288Y-72213656D01*
X46831344Y-72337712D01*
X46980666Y-72429814D01*
X47147203Y-72484999D01*
X47249991Y-72495500D01*
X48150008Y-72495499D01*
X48150016Y-72495498D01*
X48150019Y-72495498D01*
X48206302Y-72489748D01*
X48252797Y-72484999D01*
X48419334Y-72429814D01*
X48568656Y-72337712D01*
X48692712Y-72213656D01*
X48784814Y-72064334D01*
X48839999Y-71897797D01*
X48850500Y-71795009D01*
X48850499Y-71558083D01*
X48870183Y-71491044D01*
X48886813Y-71470407D01*
X49437821Y-70919399D01*
X49499142Y-70885916D01*
X49568834Y-70890900D01*
X49624767Y-70932772D01*
X49649184Y-70998236D01*
X49649500Y-71007082D01*
X49649500Y-71795001D01*
X49649501Y-71795019D01*
X49660000Y-71897796D01*
X49660001Y-71897799D01*
X49715185Y-72064331D01*
X49715186Y-72064334D01*
X49807288Y-72213656D01*
X49931344Y-72337712D01*
X50050096Y-72410958D01*
X50096821Y-72462906D01*
X50109000Y-72516497D01*
X50109000Y-74803502D01*
X50089315Y-74870541D01*
X50050097Y-74909041D01*
X49931342Y-74982289D01*
X49807289Y-75106342D01*
X49715187Y-75255663D01*
X49715185Y-75255666D01*
X49715186Y-75255666D01*
X49660001Y-75422203D01*
X49660001Y-75422204D01*
X49660000Y-75422204D01*
X49649500Y-75524983D01*
X49649500Y-76875001D01*
X49649501Y-76875018D01*
X49660000Y-76977796D01*
X49660001Y-76977799D01*
X49698973Y-77095408D01*
X49715186Y-77144334D01*
X49807288Y-77293656D01*
X49931344Y-77417712D01*
X50050096Y-77490958D01*
X50096821Y-77542906D01*
X50109000Y-77596497D01*
X50109000Y-78717247D01*
X50108887Y-78720992D01*
X50105195Y-78782025D01*
X50105195Y-78782028D01*
X50116217Y-78842174D01*
X50116780Y-78845876D01*
X50124152Y-78906582D01*
X50127644Y-78915792D01*
X50133666Y-78937395D01*
X50135441Y-78947081D01*
X50160540Y-79002851D01*
X50161973Y-79006310D01*
X50183653Y-79063478D01*
X50183656Y-79063482D01*
X50189250Y-79071586D01*
X50200274Y-79091134D01*
X50204308Y-79100099D01*
X50204314Y-79100108D01*
X50242018Y-79148234D01*
X50244238Y-79151251D01*
X50278980Y-79201583D01*
X50324753Y-79242135D01*
X50327464Y-79244686D01*
X51900259Y-80817480D01*
X53301012Y-82218233D01*
X53334497Y-82279556D01*
X53333364Y-82327632D01*
X53335306Y-82327975D01*
X53334364Y-82333313D01*
X53317007Y-82531704D01*
X53291554Y-82596772D01*
X53234963Y-82637751D01*
X53165201Y-82641629D01*
X53105798Y-82608577D01*
X50791463Y-80294242D01*
X48427319Y-77930097D01*
X48393834Y-77868774D01*
X48391000Y-77842416D01*
X48391000Y-77596497D01*
X48410685Y-77529458D01*
X48449902Y-77490959D01*
X48568656Y-77417712D01*
X48692712Y-77293656D01*
X48784814Y-77144334D01*
X48839999Y-76977797D01*
X48850500Y-76875009D01*
X48850499Y-75524992D01*
X48839999Y-75422203D01*
X48784814Y-75255666D01*
X48692712Y-75106344D01*
X48568656Y-74982288D01*
X48475888Y-74925068D01*
X48419336Y-74890187D01*
X48419331Y-74890185D01*
X48360049Y-74870541D01*
X48252797Y-74835001D01*
X48252795Y-74835000D01*
X48150010Y-74824500D01*
X47249998Y-74824500D01*
X47249980Y-74824501D01*
X47147203Y-74835000D01*
X47147200Y-74835001D01*
X46980668Y-74890185D01*
X46980663Y-74890187D01*
X46831342Y-74982289D01*
X46707289Y-75106342D01*
X46615187Y-75255663D01*
X46615185Y-75255666D01*
X46615186Y-75255666D01*
X46560001Y-75422203D01*
X46560001Y-75422204D01*
X46560000Y-75422204D01*
X46549500Y-75524983D01*
X46549500Y-76875001D01*
X46549501Y-76875018D01*
X46560000Y-76977796D01*
X46560001Y-76977799D01*
X46598973Y-77095408D01*
X46615186Y-77144334D01*
X46707288Y-77293656D01*
X46831344Y-77417712D01*
X46950096Y-77490958D01*
X46996821Y-77542906D01*
X47009000Y-77596497D01*
X47009000Y-78157247D01*
X47008887Y-78160992D01*
X47005195Y-78222025D01*
X47005195Y-78222028D01*
X47016217Y-78282174D01*
X47016780Y-78285876D01*
X47024152Y-78346582D01*
X47027644Y-78355792D01*
X47033666Y-78377395D01*
X47035441Y-78387081D01*
X47060540Y-78442851D01*
X47061973Y-78446310D01*
X47083653Y-78503478D01*
X47083656Y-78503482D01*
X47089250Y-78511586D01*
X47100274Y-78531134D01*
X47104308Y-78540099D01*
X47104314Y-78540108D01*
X47142018Y-78588234D01*
X47144238Y-78591251D01*
X47178980Y-78641583D01*
X47224753Y-78682135D01*
X47227464Y-78684686D01*
X50388074Y-81845295D01*
X53301012Y-84758233D01*
X53334497Y-84819556D01*
X53333364Y-84867632D01*
X53335306Y-84867975D01*
X53334364Y-84873313D01*
X53314532Y-85099999D01*
X53314532Y-85100001D01*
X53334364Y-85326686D01*
X53334366Y-85326697D01*
X53393258Y-85546488D01*
X53393261Y-85546497D01*
X53489431Y-85752732D01*
X53489432Y-85752734D01*
X53619954Y-85939141D01*
X53780858Y-86100045D01*
X53780861Y-86100047D01*
X53967266Y-86230568D01*
X54025275Y-86257618D01*
X54077714Y-86303791D01*
X54096866Y-86370984D01*
X54076650Y-86437865D01*
X54025275Y-86482382D01*
X53967267Y-86509431D01*
X53967265Y-86509432D01*
X53780858Y-86639954D01*
X53619954Y-86800858D01*
X53489432Y-86987265D01*
X53489431Y-86987267D01*
X53393261Y-87193502D01*
X53393258Y-87193511D01*
X53334366Y-87413302D01*
X53334364Y-87413313D01*
X53314532Y-87639998D01*
X53314532Y-87640001D01*
X53334364Y-87866686D01*
X53334366Y-87866697D01*
X53393258Y-88086488D01*
X53393261Y-88086497D01*
X53489431Y-88292732D01*
X53489432Y-88292734D01*
X53619954Y-88479141D01*
X53780858Y-88640045D01*
X53780861Y-88640047D01*
X53967266Y-88770568D01*
X54021762Y-88795980D01*
X54025275Y-88797618D01*
X54077714Y-88843791D01*
X54096866Y-88910984D01*
X54076650Y-88977865D01*
X54025275Y-89022381D01*
X54008272Y-89030310D01*
X53967267Y-89049431D01*
X53967265Y-89049432D01*
X53780858Y-89179954D01*
X53619954Y-89340858D01*
X53489432Y-89527265D01*
X53489431Y-89527267D01*
X53393261Y-89733502D01*
X53393258Y-89733511D01*
X53334366Y-89953302D01*
X53334364Y-89953312D01*
X53317007Y-90151703D01*
X53291554Y-90216771D01*
X53234963Y-90257750D01*
X53165201Y-90261628D01*
X53105798Y-90228576D01*
X48318988Y-85441766D01*
X48285503Y-85380443D01*
X48286669Y-85332377D01*
X48284694Y-85332029D01*
X48285631Y-85326704D01*
X48285635Y-85326692D01*
X48305468Y-85100000D01*
X48302994Y-85071727D01*
X48285635Y-84873313D01*
X48285635Y-84873308D01*
X48226739Y-84653504D01*
X48130568Y-84447266D01*
X48000047Y-84260861D01*
X48000045Y-84260858D01*
X47839143Y-84099956D01*
X47814536Y-84082726D01*
X47770912Y-84028149D01*
X47763719Y-83958650D01*
X47795241Y-83896296D01*
X47855471Y-83860882D01*
X47872404Y-83857861D01*
X47907483Y-83854091D01*
X48042331Y-83803796D01*
X48157546Y-83717546D01*
X48243796Y-83602331D01*
X48294091Y-83467483D01*
X48300500Y-83407873D01*
X48300499Y-81712128D01*
X48294091Y-81652517D01*
X48288415Y-81637300D01*
X48243797Y-81517671D01*
X48243793Y-81517664D01*
X48157547Y-81402455D01*
X48157544Y-81402452D01*
X48042335Y-81316206D01*
X48042328Y-81316202D01*
X47907482Y-81265908D01*
X47907483Y-81265908D01*
X47847883Y-81259501D01*
X47847881Y-81259500D01*
X47847873Y-81259500D01*
X47847864Y-81259500D01*
X46152129Y-81259500D01*
X46152123Y-81259501D01*
X46092516Y-81265908D01*
X45957671Y-81316202D01*
X45957664Y-81316206D01*
X45842455Y-81402452D01*
X45842452Y-81402455D01*
X45756206Y-81517664D01*
X45756202Y-81517671D01*
X45705908Y-81652517D01*
X45699501Y-81712116D01*
X45699501Y-81712123D01*
X45699500Y-81712135D01*
X45699500Y-83407870D01*
X45699501Y-83407876D01*
X45705908Y-83467483D01*
X45756202Y-83602328D01*
X45756206Y-83602335D01*
X45842452Y-83717544D01*
X45842455Y-83717547D01*
X45957664Y-83803793D01*
X45957671Y-83803797D01*
X46002618Y-83820560D01*
X46092517Y-83854091D01*
X46127596Y-83857862D01*
X46192144Y-83884599D01*
X46231993Y-83941991D01*
X46234488Y-84011816D01*
X46198836Y-84071905D01*
X46185464Y-84082725D01*
X46160858Y-84099954D01*
X45999954Y-84260858D01*
X45869432Y-84447265D01*
X45869431Y-84447267D01*
X45773261Y-84653502D01*
X45773258Y-84653511D01*
X45714366Y-84873302D01*
X45714364Y-84873313D01*
X45694532Y-85099998D01*
X45694532Y-85100001D01*
X45714364Y-85326686D01*
X45714366Y-85326697D01*
X45773258Y-85546488D01*
X45773261Y-85546497D01*
X45869431Y-85752732D01*
X45869432Y-85752734D01*
X45999954Y-85939141D01*
X46160858Y-86100045D01*
X46160861Y-86100047D01*
X46347266Y-86230568D01*
X46405275Y-86257618D01*
X46457714Y-86303791D01*
X46476866Y-86370984D01*
X46456650Y-86437865D01*
X46405275Y-86482382D01*
X46347267Y-86509431D01*
X46347265Y-86509432D01*
X46160858Y-86639954D01*
X45999954Y-86800858D01*
X45869432Y-86987265D01*
X45869431Y-86987267D01*
X45773261Y-87193502D01*
X45773258Y-87193511D01*
X45714366Y-87413302D01*
X45714364Y-87413313D01*
X45694532Y-87639998D01*
X45694532Y-87640001D01*
X45714364Y-87866686D01*
X45714366Y-87866697D01*
X45773258Y-88086488D01*
X45773261Y-88086497D01*
X45869431Y-88292732D01*
X45869432Y-88292734D01*
X45999954Y-88479141D01*
X46160858Y-88640045D01*
X46160861Y-88640047D01*
X46347266Y-88770568D01*
X46405865Y-88797893D01*
X46458305Y-88844065D01*
X46477457Y-88911258D01*
X46457242Y-88978139D01*
X46405867Y-89022657D01*
X46347515Y-89049867D01*
X46161179Y-89180342D01*
X46000342Y-89341179D01*
X45869865Y-89527517D01*
X45773734Y-89733673D01*
X45773730Y-89733682D01*
X45721127Y-89929999D01*
X45721128Y-89930000D01*
X46684314Y-89930000D01*
X46672359Y-89941955D01*
X46614835Y-90054852D01*
X46595014Y-90180000D01*
X46614835Y-90305148D01*
X46672359Y-90418045D01*
X46684314Y-90430000D01*
X45721128Y-90430000D01*
X45773730Y-90626317D01*
X45773734Y-90626326D01*
X45869865Y-90832482D01*
X46000342Y-91018820D01*
X46161179Y-91179657D01*
X46347517Y-91310134D01*
X46553673Y-91406265D01*
X46553682Y-91406269D01*
X46749999Y-91458872D01*
X46750000Y-91458871D01*
X46750000Y-90495686D01*
X46761955Y-90507641D01*
X46874852Y-90565165D01*
X46968519Y-90580000D01*
X47031481Y-90580000D01*
X47125148Y-90565165D01*
X47238045Y-90507641D01*
X47250000Y-90495686D01*
X47250000Y-91458872D01*
X47446317Y-91406269D01*
X47446326Y-91406265D01*
X47652482Y-91310134D01*
X47838820Y-91179657D01*
X47999657Y-91018820D01*
X48130134Y-90832482D01*
X48226265Y-90626326D01*
X48226269Y-90626317D01*
X48278872Y-90430000D01*
X47315686Y-90430000D01*
X47327641Y-90418045D01*
X47385165Y-90305148D01*
X47404986Y-90180000D01*
X47385165Y-90054852D01*
X47327641Y-89941955D01*
X47315686Y-89930000D01*
X48278872Y-89930000D01*
X48278872Y-89929999D01*
X48226269Y-89733682D01*
X48226265Y-89733673D01*
X48130134Y-89527517D01*
X47999657Y-89341179D01*
X47838820Y-89180342D01*
X47652482Y-89049865D01*
X47594133Y-89022657D01*
X47541694Y-88976484D01*
X47522542Y-88909291D01*
X47542758Y-88842410D01*
X47594129Y-88797895D01*
X47652734Y-88770568D01*
X47839139Y-88640047D01*
X47908987Y-88570198D01*
X47970308Y-88536715D01*
X48040000Y-88541699D01*
X48084348Y-88570200D01*
X62424110Y-102909962D01*
X62457595Y-102971285D01*
X62452611Y-103040977D01*
X62410739Y-103096910D01*
X62386865Y-103110922D01*
X62262522Y-103166283D01*
X62109464Y-103277487D01*
X61982872Y-103418081D01*
X61982870Y-103418084D01*
X61888283Y-103581915D01*
X61888278Y-103581927D01*
X61829819Y-103761845D01*
X61815000Y-103902840D01*
X61815000Y-103950000D01*
X62690376Y-103950000D01*
X62617455Y-103964505D01*
X62534760Y-104019760D01*
X62479505Y-104102455D01*
X62460102Y-104200000D01*
X62479505Y-104297545D01*
X62534760Y-104380240D01*
X62617455Y-104435495D01*
X62690376Y-104450000D01*
X62739624Y-104450000D01*
X62812545Y-104435495D01*
X62895240Y-104380240D01*
X62950495Y-104297545D01*
X62965000Y-104224623D01*
X62965000Y-105316966D01*
X62994643Y-105310666D01*
X63167479Y-105233714D01*
X63266687Y-105161635D01*
X63332493Y-105138155D01*
X63400547Y-105153980D01*
X63412458Y-105161634D01*
X63412885Y-105161944D01*
X63512270Y-105234151D01*
X63685192Y-105311142D01*
X63685197Y-105311144D01*
X63870354Y-105350500D01*
X63870355Y-105350500D01*
X64059644Y-105350500D01*
X64059646Y-105350500D01*
X64244803Y-105311144D01*
X64417730Y-105234151D01*
X64517116Y-105161942D01*
X64582919Y-105138464D01*
X64650973Y-105154289D01*
X64662884Y-105161944D01*
X64762265Y-105234148D01*
X64762270Y-105234151D01*
X64935192Y-105311142D01*
X64935197Y-105311144D01*
X65120354Y-105350500D01*
X65120355Y-105350500D01*
X65309644Y-105350500D01*
X65309646Y-105350500D01*
X65494803Y-105311144D01*
X65667730Y-105234151D01*
X65767114Y-105161944D01*
X65832921Y-105138464D01*
X65900975Y-105154289D01*
X65912885Y-105161944D01*
X66012265Y-105234148D01*
X66012270Y-105234151D01*
X66185192Y-105311142D01*
X66185197Y-105311144D01*
X66370354Y-105350500D01*
X66370355Y-105350500D01*
X66559644Y-105350500D01*
X66559646Y-105350500D01*
X66744803Y-105311144D01*
X66917730Y-105234151D01*
X67017116Y-105161942D01*
X67082919Y-105138464D01*
X67150973Y-105154289D01*
X67162884Y-105161944D01*
X67262265Y-105234148D01*
X67262270Y-105234151D01*
X67435192Y-105311142D01*
X67435197Y-105311144D01*
X67620354Y-105350500D01*
X67620355Y-105350500D01*
X67809644Y-105350500D01*
X67809646Y-105350500D01*
X67994803Y-105311144D01*
X68167730Y-105234151D01*
X68267114Y-105161944D01*
X68332921Y-105138464D01*
X68400975Y-105154289D01*
X68412885Y-105161944D01*
X68512265Y-105234148D01*
X68512270Y-105234151D01*
X68685192Y-105311142D01*
X68685197Y-105311144D01*
X68870354Y-105350500D01*
X68870355Y-105350500D01*
X69059644Y-105350500D01*
X69059646Y-105350500D01*
X69244803Y-105311144D01*
X69349563Y-105264501D01*
X69418814Y-105255216D01*
X69482090Y-105284844D01*
X69519304Y-105343978D01*
X69524000Y-105377780D01*
X69524000Y-105752247D01*
X69523887Y-105755992D01*
X69520195Y-105817025D01*
X69520195Y-105817028D01*
X69531217Y-105877174D01*
X69531780Y-105880876D01*
X69539152Y-105941582D01*
X69542644Y-105950792D01*
X69548666Y-105972395D01*
X69550441Y-105982081D01*
X69575540Y-106037851D01*
X69576973Y-106041310D01*
X69598653Y-106098478D01*
X69598656Y-106098482D01*
X69604250Y-106106586D01*
X69615274Y-106126134D01*
X69619308Y-106135099D01*
X69619314Y-106135108D01*
X69657018Y-106183234D01*
X69659238Y-106186251D01*
X69693980Y-106236583D01*
X69739753Y-106277135D01*
X69742464Y-106279686D01*
X71885320Y-108422542D01*
X71887856Y-108425236D01*
X71928415Y-108471018D01*
X71928417Y-108471020D01*
X71960913Y-108493451D01*
X72004902Y-108547735D01*
X72012560Y-108617184D01*
X71981456Y-108679748D01*
X71921465Y-108715564D01*
X71890471Y-108719500D01*
X50800000Y-108719500D01*
X50294321Y-108701439D01*
X50289905Y-108701123D01*
X49788989Y-108647270D01*
X49784607Y-108646640D01*
X49288814Y-108557189D01*
X49284501Y-108556251D01*
X48796347Y-108431656D01*
X48792100Y-108430409D01*
X48314098Y-108271315D01*
X48309949Y-108269768D01*
X47844496Y-108076971D01*
X47840469Y-108075132D01*
X47389969Y-107849628D01*
X47386083Y-107847506D01*
X46952812Y-107590434D01*
X46949087Y-107588041D01*
X46535267Y-107300719D01*
X46531723Y-107298066D01*
X46220563Y-107047319D01*
X46139433Y-106981940D01*
X46136096Y-106979048D01*
X45767374Y-106635756D01*
X45764243Y-106632625D01*
X45434420Y-106278370D01*
X45420943Y-106263894D01*
X45418061Y-106260568D01*
X45227700Y-106024344D01*
X45101933Y-105868276D01*
X45099280Y-105864732D01*
X44998326Y-105719331D01*
X44811949Y-105450899D01*
X44809565Y-105447187D01*
X44552493Y-105013916D01*
X44552492Y-105013915D01*
X44552491Y-105013913D01*
X44550371Y-105010030D01*
X44324860Y-104559515D01*
X44323028Y-104555503D01*
X44279327Y-104450000D01*
X61815000Y-104450000D01*
X61815000Y-104497159D01*
X61829819Y-104638154D01*
X61888278Y-104818072D01*
X61888283Y-104818084D01*
X61982870Y-104981915D01*
X61982872Y-104981918D01*
X62109460Y-105122509D01*
X62109463Y-105122511D01*
X62262522Y-105233717D01*
X62435356Y-105310666D01*
X62464999Y-105316966D01*
X62465000Y-105316966D01*
X62465000Y-104450000D01*
X61815000Y-104450000D01*
X44279327Y-104450000D01*
X44130231Y-104090050D01*
X44128684Y-104085901D01*
X44067745Y-103902808D01*
X43969587Y-103607891D01*
X43968347Y-103603671D01*
X43843743Y-103115477D01*
X43842814Y-103111205D01*
X43753356Y-102615373D01*
X43752729Y-102611010D01*
X43747952Y-102566580D01*
X43698876Y-102110094D01*
X43698561Y-102105696D01*
X43682920Y-101667763D01*
X48945787Y-101667763D01*
X48975413Y-101937013D01*
X48975415Y-101937024D01*
X49029420Y-102143595D01*
X49043928Y-102199088D01*
X49149870Y-102448390D01*
X49221998Y-102566575D01*
X49290979Y-102679605D01*
X49290986Y-102679615D01*
X49464253Y-102887819D01*
X49464259Y-102887824D01*
X49569240Y-102981887D01*
X49665998Y-103068582D01*
X49891910Y-103218044D01*
X50137176Y-103333020D01*
X50137183Y-103333022D01*
X50137185Y-103333023D01*
X50396557Y-103411057D01*
X50396564Y-103411058D01*
X50396569Y-103411060D01*
X50664561Y-103450500D01*
X50664566Y-103450500D01*
X50867636Y-103450500D01*
X50919133Y-103446730D01*
X51070156Y-103435677D01*
X51185424Y-103410000D01*
X51334546Y-103376782D01*
X51334548Y-103376781D01*
X51334553Y-103376780D01*
X51587558Y-103280014D01*
X51823777Y-103147441D01*
X52038177Y-102981888D01*
X52226186Y-102786881D01*
X52383799Y-102566579D01*
X52457787Y-102422669D01*
X52507649Y-102325690D01*
X52507651Y-102325684D01*
X52507656Y-102325675D01*
X52595118Y-102069305D01*
X52644319Y-101802933D01*
X52654212Y-101532235D01*
X52624586Y-101262982D01*
X52556072Y-101000912D01*
X52450130Y-100751610D01*
X52309018Y-100520390D01*
X52219747Y-100413119D01*
X52135746Y-100312180D01*
X52135740Y-100312175D01*
X51934002Y-100131418D01*
X51708092Y-99981957D01*
X51708090Y-99981956D01*
X51462824Y-99866980D01*
X51462819Y-99866978D01*
X51462814Y-99866976D01*
X51203442Y-99788942D01*
X51203428Y-99788939D01*
X51087791Y-99771921D01*
X50935439Y-99749500D01*
X50732369Y-99749500D01*
X50732364Y-99749500D01*
X50529844Y-99764323D01*
X50529831Y-99764325D01*
X50265453Y-99823217D01*
X50265446Y-99823220D01*
X50012439Y-99919987D01*
X49776226Y-100052557D01*
X49561822Y-100218112D01*
X49373822Y-100413109D01*
X49373816Y-100413116D01*
X49216202Y-100633419D01*
X49216199Y-100633424D01*
X49092350Y-100874309D01*
X49092343Y-100874327D01*
X49004884Y-101130685D01*
X49004881Y-101130699D01*
X48955681Y-101397068D01*
X48955680Y-101397075D01*
X48945787Y-101667763D01*
X43682920Y-101667763D01*
X43680500Y-101600000D01*
X43680500Y-101534108D01*
X43680500Y-101534107D01*
X43680500Y-66000002D01*
X49495034Y-66000002D01*
X49514858Y-66226599D01*
X49514860Y-66226610D01*
X49573730Y-66446317D01*
X49573734Y-66446326D01*
X49669865Y-66652481D01*
X49669866Y-66652483D01*
X49720973Y-66725471D01*
X49720974Y-66725472D01*
X50402046Y-66044399D01*
X50414835Y-66125148D01*
X50472359Y-66238045D01*
X50561955Y-66327641D01*
X50674852Y-66385165D01*
X50755599Y-66397953D01*
X50074526Y-67079025D01*
X50074526Y-67079026D01*
X50147512Y-67130131D01*
X50147516Y-67130133D01*
X50353673Y-67226265D01*
X50353682Y-67226269D01*
X50573389Y-67285139D01*
X50573400Y-67285141D01*
X50799998Y-67304966D01*
X50800002Y-67304966D01*
X51026599Y-67285141D01*
X51026610Y-67285139D01*
X51246317Y-67226269D01*
X51246331Y-67226264D01*
X51452478Y-67130136D01*
X51525472Y-67079025D01*
X50844401Y-66397953D01*
X50925148Y-66385165D01*
X51038045Y-66327641D01*
X51127641Y-66238045D01*
X51185165Y-66125148D01*
X51197953Y-66044400D01*
X51879025Y-66725472D01*
X51930136Y-66652478D01*
X52026264Y-66446331D01*
X52026269Y-66446317D01*
X52085139Y-66226610D01*
X52085141Y-66226599D01*
X52104966Y-66000002D01*
X52104966Y-65999997D01*
X52085141Y-65773400D01*
X52085139Y-65773389D01*
X52026269Y-65553682D01*
X52026265Y-65553673D01*
X51930133Y-65347516D01*
X51930131Y-65347512D01*
X51879026Y-65274526D01*
X51879025Y-65274526D01*
X51197953Y-65955598D01*
X51185165Y-65874852D01*
X51127641Y-65761955D01*
X51038045Y-65672359D01*
X50925148Y-65614835D01*
X50844400Y-65602046D01*
X51530646Y-64915799D01*
X51540492Y-64866807D01*
X51589107Y-64816624D01*
X51644633Y-64801981D01*
X51644576Y-64800900D01*
X51644571Y-64800854D01*
X51644573Y-64800853D01*
X51644564Y-64800676D01*
X51647857Y-64800499D01*
X51647872Y-64800499D01*
X51707483Y-64794091D01*
X51842331Y-64743796D01*
X51957546Y-64657546D01*
X52043796Y-64542331D01*
X52094091Y-64407483D01*
X52100500Y-64347873D01*
X52100499Y-62652128D01*
X52094091Y-62592517D01*
X52086215Y-62571401D01*
X52043797Y-62457671D01*
X52043793Y-62457664D01*
X51957547Y-62342455D01*
X51957544Y-62342452D01*
X51842335Y-62256206D01*
X51842328Y-62256202D01*
X51707482Y-62205908D01*
X51707483Y-62205908D01*
X51647883Y-62199501D01*
X51647881Y-62199500D01*
X51647873Y-62199500D01*
X51647864Y-62199500D01*
X49952129Y-62199500D01*
X49952123Y-62199501D01*
X49892516Y-62205908D01*
X49757671Y-62256202D01*
X49757664Y-62256206D01*
X49642455Y-62342452D01*
X49642452Y-62342455D01*
X49556206Y-62457664D01*
X49556202Y-62457671D01*
X49505908Y-62592517D01*
X49499501Y-62652116D01*
X49499501Y-62652123D01*
X49499500Y-62652135D01*
X49499500Y-64347870D01*
X49499501Y-64347876D01*
X49505908Y-64407483D01*
X49556202Y-64542328D01*
X49556206Y-64542335D01*
X49642452Y-64657544D01*
X49642455Y-64657547D01*
X49757664Y-64743793D01*
X49757671Y-64743797D01*
X49778142Y-64751432D01*
X49892517Y-64794091D01*
X49952127Y-64800500D01*
X49952153Y-64800499D01*
X49955453Y-64800678D01*
X49955372Y-64802183D01*
X50016672Y-64820112D01*
X50062483Y-64872867D01*
X50070016Y-64916463D01*
X50755600Y-65602046D01*
X50674852Y-65614835D01*
X50561955Y-65672359D01*
X50472359Y-65761955D01*
X50414835Y-65874852D01*
X50402046Y-65955599D01*
X49720973Y-65274526D01*
X49720972Y-65274527D01*
X49669868Y-65347513D01*
X49573734Y-65553673D01*
X49573730Y-65553682D01*
X49514860Y-65773389D01*
X49514858Y-65773400D01*
X49495034Y-65999997D01*
X49495034Y-66000002D01*
X43680500Y-66000002D01*
X43680500Y-61700000D01*
X59164341Y-61700000D01*
X59184936Y-61935403D01*
X59184938Y-61935413D01*
X59246094Y-62163655D01*
X59246096Y-62163659D01*
X59246097Y-62163663D01*
X59265797Y-62205909D01*
X59345964Y-62377828D01*
X59345965Y-62377830D01*
X59481505Y-62571402D01*
X59648597Y-62738494D01*
X59842169Y-62874034D01*
X59842171Y-62874035D01*
X60056337Y-62973903D01*
X60284592Y-63035063D01*
X60461034Y-63050500D01*
X60578966Y-63050500D01*
X60755408Y-63035063D01*
X60983663Y-62973903D01*
X61197829Y-62874035D01*
X61391401Y-62738495D01*
X61558495Y-62571401D01*
X61694035Y-62377830D01*
X61793903Y-62163663D01*
X61855063Y-61935408D01*
X61875659Y-61700000D01*
X61855063Y-61464592D01*
X61821108Y-61337870D01*
X110224500Y-61337870D01*
X110224501Y-61337876D01*
X110230908Y-61397483D01*
X110281202Y-61532328D01*
X110281206Y-61532335D01*
X110367452Y-61647544D01*
X110367455Y-61647547D01*
X110482664Y-61733793D01*
X110482671Y-61733797D01*
X110617517Y-61784091D01*
X110617516Y-61784091D01*
X110624444Y-61784835D01*
X110677127Y-61790500D01*
X113272872Y-61790499D01*
X113332483Y-61784091D01*
X113467331Y-61733796D01*
X113582546Y-61647546D01*
X113668796Y-61532331D01*
X113719091Y-61397483D01*
X113725500Y-61337873D01*
X113725499Y-60290000D01*
X121225000Y-60290000D01*
X121225000Y-61337844D01*
X121231401Y-61397372D01*
X121231403Y-61397379D01*
X121281645Y-61532086D01*
X121281649Y-61532093D01*
X121367809Y-61647187D01*
X121367812Y-61647190D01*
X121482906Y-61733350D01*
X121482913Y-61733354D01*
X121617620Y-61783596D01*
X121617627Y-61783598D01*
X121677155Y-61789999D01*
X121677172Y-61790000D01*
X122725000Y-61790000D01*
X122725000Y-60290000D01*
X123225000Y-60290000D01*
X123225000Y-61790000D01*
X124272828Y-61790000D01*
X124272844Y-61789999D01*
X124332372Y-61783598D01*
X124332379Y-61783596D01*
X124467086Y-61733354D01*
X124467093Y-61733350D01*
X124582187Y-61647190D01*
X124582190Y-61647187D01*
X124668350Y-61532093D01*
X124668354Y-61532086D01*
X124718596Y-61397379D01*
X124718598Y-61397372D01*
X124724999Y-61337844D01*
X124725000Y-61337827D01*
X124725000Y-60290000D01*
X123225000Y-60290000D01*
X122725000Y-60290000D01*
X121225000Y-60290000D01*
X113725499Y-60290000D01*
X113725499Y-59790000D01*
X121225000Y-59790000D01*
X122725000Y-59790000D01*
X122725000Y-58290000D01*
X123225000Y-58290000D01*
X123225000Y-59790000D01*
X124725000Y-59790000D01*
X124725000Y-58742172D01*
X124724999Y-58742155D01*
X124718598Y-58682627D01*
X124718596Y-58682620D01*
X124668354Y-58547913D01*
X124668350Y-58547906D01*
X124582190Y-58432812D01*
X124582187Y-58432809D01*
X124467093Y-58346649D01*
X124467086Y-58346645D01*
X124332379Y-58296403D01*
X124332372Y-58296401D01*
X124272844Y-58290000D01*
X123225000Y-58290000D01*
X122725000Y-58290000D01*
X121677155Y-58290000D01*
X121617627Y-58296401D01*
X121617620Y-58296403D01*
X121482913Y-58346645D01*
X121482906Y-58346649D01*
X121367812Y-58432809D01*
X121367809Y-58432812D01*
X121281649Y-58547906D01*
X121281645Y-58547913D01*
X121231403Y-58682620D01*
X121231401Y-58682627D01*
X121225000Y-58742155D01*
X121225000Y-59790000D01*
X113725499Y-59790000D01*
X113725499Y-58742128D01*
X113719091Y-58682517D01*
X113668884Y-58547906D01*
X113668797Y-58547671D01*
X113668793Y-58547664D01*
X113582547Y-58432455D01*
X113582544Y-58432452D01*
X113467335Y-58346206D01*
X113467328Y-58346202D01*
X113332482Y-58295908D01*
X113332483Y-58295908D01*
X113272883Y-58289501D01*
X113272881Y-58289500D01*
X113272873Y-58289500D01*
X113272865Y-58289500D01*
X113044000Y-58289500D01*
X112976961Y-58269815D01*
X112931206Y-58217011D01*
X112920000Y-58165500D01*
X112920000Y-56949000D01*
X112939685Y-56881961D01*
X112992489Y-56836206D01*
X113044000Y-56825000D01*
X114095970Y-56825000D01*
X114163009Y-56844685D01*
X114201508Y-56883903D01*
X114272288Y-56998656D01*
X114396344Y-57122712D01*
X114545666Y-57214814D01*
X114712203Y-57269999D01*
X114814991Y-57280500D01*
X115740008Y-57280499D01*
X115740016Y-57280498D01*
X115740019Y-57280498D01*
X115796302Y-57274748D01*
X115842797Y-57269999D01*
X116009334Y-57214814D01*
X116158656Y-57122712D01*
X116282712Y-56998656D01*
X116374814Y-56849334D01*
X116429999Y-56682797D01*
X116440500Y-56580009D01*
X116440500Y-56130000D01*
X117240001Y-56130000D01*
X117240001Y-56579986D01*
X117250494Y-56682697D01*
X117305641Y-56849119D01*
X117305643Y-56849124D01*
X117397684Y-56998345D01*
X117521654Y-57122315D01*
X117670875Y-57214356D01*
X117670880Y-57214358D01*
X117837302Y-57269505D01*
X117837309Y-57269506D01*
X117940019Y-57279999D01*
X118152499Y-57279999D01*
X118152500Y-57279998D01*
X118152500Y-56130000D01*
X118652500Y-56130000D01*
X118652500Y-57279999D01*
X118864972Y-57279999D01*
X118864986Y-57279998D01*
X118967697Y-57269505D01*
X119134119Y-57214358D01*
X119134124Y-57214356D01*
X119283345Y-57122315D01*
X119407315Y-56998345D01*
X119499356Y-56849124D01*
X119499358Y-56849119D01*
X119554505Y-56682697D01*
X119554506Y-56682690D01*
X119564999Y-56579986D01*
X119565000Y-56579973D01*
X119565000Y-56130000D01*
X118652500Y-56130000D01*
X118152500Y-56130000D01*
X117240001Y-56130000D01*
X116440500Y-56130000D01*
X116440499Y-55630000D01*
X117240000Y-55630000D01*
X118152500Y-55630000D01*
X118152500Y-55629999D01*
X118152499Y-54480000D01*
X118652500Y-54480000D01*
X118652500Y-55630000D01*
X119564999Y-55630000D01*
X119564999Y-55180028D01*
X119564998Y-55180013D01*
X119554505Y-55077302D01*
X119499358Y-54910880D01*
X119499356Y-54910875D01*
X119407315Y-54761654D01*
X119283345Y-54637684D01*
X119134124Y-54545643D01*
X119134119Y-54545641D01*
X118967697Y-54490494D01*
X118967690Y-54490493D01*
X118864986Y-54480000D01*
X118652500Y-54480000D01*
X118152499Y-54480000D01*
X117940029Y-54480000D01*
X117940012Y-54480001D01*
X117837302Y-54490494D01*
X117670880Y-54545641D01*
X117670875Y-54545643D01*
X117521654Y-54637684D01*
X117397684Y-54761654D01*
X117305643Y-54910875D01*
X117305641Y-54910880D01*
X117250494Y-55077302D01*
X117250493Y-55077309D01*
X117240000Y-55180013D01*
X117240000Y-55630000D01*
X116440499Y-55630000D01*
X116440499Y-55179992D01*
X116429999Y-55077203D01*
X116374814Y-54910666D01*
X116282712Y-54761344D01*
X116158656Y-54637288D01*
X116009334Y-54545186D01*
X115842797Y-54490001D01*
X115842795Y-54490000D01*
X115740010Y-54479500D01*
X114814998Y-54479500D01*
X114814980Y-54479501D01*
X114712203Y-54490000D01*
X114712200Y-54490001D01*
X114545668Y-54545185D01*
X114545663Y-54545187D01*
X114396342Y-54637289D01*
X114272287Y-54761344D01*
X114201509Y-54876096D01*
X114149561Y-54922821D01*
X114095970Y-54935000D01*
X113044000Y-54935000D01*
X112976961Y-54915315D01*
X112931206Y-54862511D01*
X112920000Y-54811000D01*
X112920000Y-53507078D01*
X112905429Y-53363790D01*
X112847896Y-53180420D01*
X112847894Y-53180417D01*
X112847893Y-53180412D01*
X112754621Y-53012368D01*
X112754619Y-53012365D01*
X112629432Y-52866539D01*
X112629431Y-52866538D01*
X112477451Y-52748897D01*
X112477447Y-52748895D01*
X112398529Y-52710184D01*
X112304896Y-52664255D01*
X112304894Y-52664254D01*
X112304891Y-52664253D01*
X112304893Y-52664253D01*
X112112750Y-52614504D01*
X112112835Y-52614172D01*
X112100937Y-52611207D01*
X111939262Y-52554633D01*
X111939249Y-52554630D01*
X111760004Y-52534435D01*
X111759996Y-52534435D01*
X111580750Y-52554630D01*
X111580745Y-52554631D01*
X111410476Y-52614211D01*
X111257737Y-52710184D01*
X111130184Y-52837737D01*
X111034211Y-52990476D01*
X110974631Y-53160745D01*
X110974630Y-53160750D01*
X110954435Y-53339996D01*
X110954435Y-53340003D01*
X110974630Y-53519246D01*
X110974631Y-53519252D01*
X111023041Y-53657600D01*
X111029999Y-53698554D01*
X111029999Y-55854489D01*
X111029919Y-55857629D01*
X111026346Y-55928108D01*
X111026346Y-55928111D01*
X111028570Y-55942627D01*
X111030000Y-55961404D01*
X111030000Y-58165500D01*
X111010315Y-58232539D01*
X110957511Y-58278294D01*
X110906001Y-58289500D01*
X110677130Y-58289500D01*
X110677123Y-58289501D01*
X110617516Y-58295908D01*
X110482671Y-58346202D01*
X110482664Y-58346206D01*
X110367455Y-58432452D01*
X110367452Y-58432455D01*
X110281206Y-58547664D01*
X110281202Y-58547671D01*
X110230908Y-58682517D01*
X110224501Y-58742116D01*
X110224501Y-58742123D01*
X110224500Y-58742135D01*
X110224500Y-61337870D01*
X61821108Y-61337870D01*
X61793903Y-61236337D01*
X61694035Y-61022171D01*
X61694034Y-61022169D01*
X61558494Y-60828597D01*
X61391402Y-60661505D01*
X61197830Y-60525965D01*
X61197828Y-60525964D01*
X61090746Y-60476030D01*
X60983663Y-60426097D01*
X60983659Y-60426096D01*
X60983655Y-60426094D01*
X60755413Y-60364938D01*
X60755403Y-60364936D01*
X60578966Y-60349500D01*
X60461034Y-60349500D01*
X60284596Y-60364936D01*
X60284586Y-60364938D01*
X60056344Y-60426094D01*
X60056335Y-60426098D01*
X59842171Y-60525964D01*
X59842169Y-60525965D01*
X59648597Y-60661505D01*
X59481506Y-60828597D01*
X59481501Y-60828604D01*
X59345967Y-61022165D01*
X59345965Y-61022169D01*
X59246098Y-61236335D01*
X59246094Y-61236344D01*
X59184938Y-61464586D01*
X59184936Y-61464596D01*
X59164341Y-61699999D01*
X59164341Y-61700000D01*
X43680500Y-61700000D01*
X43680500Y-50867763D01*
X48945787Y-50867763D01*
X48975413Y-51137013D01*
X48975415Y-51137024D01*
X49034034Y-51361243D01*
X49043928Y-51399088D01*
X49149870Y-51648390D01*
X49270103Y-51845398D01*
X49290979Y-51879605D01*
X49290986Y-51879615D01*
X49464253Y-52087819D01*
X49464259Y-52087824D01*
X49579571Y-52191143D01*
X49665998Y-52268582D01*
X49891910Y-52418044D01*
X50137176Y-52533020D01*
X50137183Y-52533022D01*
X50137185Y-52533023D01*
X50396557Y-52611057D01*
X50396564Y-52611058D01*
X50396569Y-52611060D01*
X50664561Y-52650500D01*
X50664566Y-52650500D01*
X50867636Y-52650500D01*
X50919133Y-52646730D01*
X51070156Y-52635677D01*
X51182758Y-52610593D01*
X51334546Y-52576782D01*
X51334548Y-52576781D01*
X51334553Y-52576780D01*
X51587558Y-52480014D01*
X51823777Y-52347441D01*
X52038177Y-52181888D01*
X52226186Y-51986881D01*
X52383799Y-51766579D01*
X52463258Y-51612030D01*
X52507649Y-51525690D01*
X52507651Y-51525684D01*
X52507656Y-51525675D01*
X52581703Y-51308626D01*
X56549500Y-51308626D01*
X56552295Y-51361243D01*
X56552295Y-51361244D01*
X56595773Y-51586050D01*
X56596755Y-51591126D01*
X56645326Y-51719832D01*
X56679425Y-51810189D01*
X56797929Y-52012131D01*
X56797934Y-52012138D01*
X56948856Y-52191141D01*
X56948858Y-52191143D01*
X57127861Y-52342065D01*
X57127868Y-52342070D01*
X57329810Y-52460574D01*
X57548874Y-52543245D01*
X57778759Y-52587705D01*
X57820193Y-52589905D01*
X57831374Y-52590500D01*
X57831378Y-52590500D01*
X59768626Y-52590500D01*
X59778731Y-52589962D01*
X59821241Y-52587705D01*
X60051126Y-52543245D01*
X60270190Y-52460574D01*
X60472132Y-52342070D01*
X60559295Y-52268581D01*
X60651141Y-52191143D01*
X60651143Y-52191141D01*
X60802065Y-52012138D01*
X60802065Y-52012137D01*
X60802070Y-52012132D01*
X60920574Y-51810190D01*
X61003245Y-51591126D01*
X61003755Y-51588485D01*
X61004281Y-51587467D01*
X61004683Y-51586050D01*
X61004971Y-51586131D01*
X61035812Y-51526403D01*
X61096343Y-51491507D01*
X61166131Y-51494876D01*
X61223019Y-51535440D01*
X61248946Y-51600322D01*
X61249500Y-51612030D01*
X61249500Y-55137870D01*
X61249501Y-55137876D01*
X61255908Y-55197483D01*
X61306202Y-55332328D01*
X61306206Y-55332335D01*
X61392452Y-55447544D01*
X61392455Y-55447547D01*
X61507664Y-55533793D01*
X61507671Y-55533797D01*
X61642517Y-55584091D01*
X61642516Y-55584091D01*
X61649444Y-55584835D01*
X61702127Y-55590500D01*
X65297872Y-55590499D01*
X65357483Y-55584091D01*
X65492331Y-55533796D01*
X65544154Y-55495001D01*
X72252704Y-55495001D01*
X72252899Y-55497486D01*
X72298718Y-55655198D01*
X72382314Y-55796552D01*
X72382321Y-55796561D01*
X72498438Y-55912678D01*
X72498447Y-55912685D01*
X72639803Y-55996282D01*
X72639806Y-55996283D01*
X72797504Y-56042099D01*
X72797510Y-56042100D01*
X72834356Y-56045000D01*
X73475000Y-56045000D01*
X73475000Y-55495000D01*
X73975000Y-55495000D01*
X73975000Y-56045000D01*
X74615644Y-56045000D01*
X74652489Y-56042100D01*
X74652495Y-56042099D01*
X74810193Y-55996283D01*
X74810196Y-55996282D01*
X74951552Y-55912685D01*
X74951561Y-55912678D01*
X75067678Y-55796561D01*
X75067685Y-55796552D01*
X75151281Y-55655198D01*
X75197100Y-55497486D01*
X75197295Y-55495001D01*
X75197295Y-55495000D01*
X73975000Y-55495000D01*
X73475000Y-55495000D01*
X72252705Y-55495000D01*
X72252704Y-55495001D01*
X65544154Y-55495001D01*
X65607546Y-55447546D01*
X65693796Y-55332331D01*
X65744091Y-55197483D01*
X65750500Y-55137873D01*
X65750499Y-51542128D01*
X65744091Y-51482517D01*
X65741293Y-51475016D01*
X65693797Y-51347671D01*
X65693793Y-51347664D01*
X65607547Y-51232455D01*
X65607544Y-51232452D01*
X65492335Y-51146206D01*
X65492328Y-51146202D01*
X65357482Y-51095908D01*
X65357483Y-51095908D01*
X65297883Y-51089501D01*
X65297881Y-51089500D01*
X65297873Y-51089500D01*
X65297864Y-51089500D01*
X61702129Y-51089500D01*
X61702123Y-51089501D01*
X61642516Y-51095908D01*
X61507671Y-51146202D01*
X61507664Y-51146206D01*
X61392455Y-51232452D01*
X61392452Y-51232455D01*
X61306206Y-51347664D01*
X61306203Y-51347669D01*
X61288573Y-51394939D01*
X61246701Y-51450872D01*
X61181237Y-51475289D01*
X61112964Y-51460437D01*
X61063559Y-51411032D01*
X61048566Y-51345025D01*
X61050500Y-51308626D01*
X61050500Y-49371374D01*
X61048377Y-49331418D01*
X61047705Y-49318759D01*
X61003245Y-49088874D01*
X60920574Y-48869810D01*
X60802070Y-48667868D01*
X60802065Y-48667861D01*
X60651143Y-48488858D01*
X60651141Y-48488856D01*
X60472138Y-48337934D01*
X60472131Y-48337929D01*
X60270189Y-48219425D01*
X60173736Y-48183026D01*
X60051126Y-48136755D01*
X60051121Y-48136754D01*
X59821244Y-48092295D01*
X59768626Y-48089500D01*
X59768622Y-48089500D01*
X57831378Y-48089500D01*
X57831374Y-48089500D01*
X57778756Y-48092295D01*
X57778755Y-48092295D01*
X57548878Y-48136754D01*
X57548876Y-48136754D01*
X57548874Y-48136755D01*
X57489632Y-48159112D01*
X57329810Y-48219425D01*
X57127868Y-48337929D01*
X57127861Y-48337934D01*
X56948858Y-48488856D01*
X56948856Y-48488858D01*
X56797934Y-48667861D01*
X56797929Y-48667868D01*
X56679425Y-48869810D01*
X56630035Y-49000688D01*
X56596755Y-49088874D01*
X56596754Y-49088876D01*
X56596754Y-49088878D01*
X56552295Y-49318755D01*
X56552295Y-49318756D01*
X56549500Y-49371374D01*
X56549500Y-51308626D01*
X52581703Y-51308626D01*
X52595118Y-51269305D01*
X52644319Y-51002933D01*
X52654212Y-50732235D01*
X52624586Y-50462982D01*
X52556072Y-50200912D01*
X52450130Y-49951610D01*
X52309018Y-49720390D01*
X52256953Y-49657827D01*
X52135746Y-49512180D01*
X52135740Y-49512175D01*
X51934002Y-49331418D01*
X51708092Y-49181957D01*
X51662316Y-49160498D01*
X51462824Y-49066980D01*
X51462819Y-49066978D01*
X51462814Y-49066976D01*
X51203442Y-48988942D01*
X51203428Y-48988939D01*
X51087791Y-48971921D01*
X50935439Y-48949500D01*
X50732369Y-48949500D01*
X50732364Y-48949500D01*
X50529844Y-48964323D01*
X50529831Y-48964325D01*
X50265453Y-49023217D01*
X50265446Y-49023220D01*
X50012439Y-49119987D01*
X49776226Y-49252557D01*
X49776224Y-49252558D01*
X49776223Y-49252559D01*
X49776025Y-49252712D01*
X49561822Y-49418112D01*
X49373822Y-49613109D01*
X49373816Y-49613116D01*
X49216202Y-49833419D01*
X49216199Y-49833424D01*
X49092350Y-50074309D01*
X49092343Y-50074327D01*
X49004884Y-50330685D01*
X49004881Y-50330699D01*
X48976062Y-50486722D01*
X48959684Y-50575398D01*
X48955681Y-50597068D01*
X48955680Y-50597075D01*
X48945787Y-50867763D01*
X43680500Y-50867763D01*
X43680500Y-50799999D01*
X43698561Y-50294301D01*
X43698876Y-50289905D01*
X43716607Y-50124981D01*
X43752731Y-49788972D01*
X43753355Y-49784630D01*
X43842815Y-49288788D01*
X43843742Y-49284528D01*
X43968349Y-48796321D01*
X43969590Y-48792101D01*
X44128687Y-48314088D01*
X44130231Y-48309949D01*
X44133512Y-48302028D01*
X44323036Y-47844478D01*
X44324855Y-47840494D01*
X44550381Y-47389949D01*
X44552484Y-47386097D01*
X44728166Y-47090000D01*
X61250000Y-47090000D01*
X62066314Y-47090000D01*
X62040507Y-47130156D01*
X62000000Y-47268111D01*
X62000000Y-47411889D01*
X62040507Y-47549844D01*
X62066314Y-47590000D01*
X61250001Y-47590000D01*
X61250001Y-48154192D01*
X61260400Y-48286332D01*
X61315377Y-48504519D01*
X61408428Y-48709374D01*
X61408431Y-48709380D01*
X61536559Y-48894323D01*
X61536569Y-48894335D01*
X61695664Y-49053430D01*
X61695676Y-49053440D01*
X61880619Y-49181568D01*
X61880625Y-49181571D01*
X62085480Y-49274622D01*
X62303667Y-49329599D01*
X62435807Y-49340000D01*
X63249999Y-49339999D01*
X63250000Y-49339998D01*
X63250000Y-47840000D01*
X63750000Y-47840000D01*
X63750000Y-49339999D01*
X64564192Y-49339999D01*
X64696332Y-49329599D01*
X64914519Y-49274622D01*
X65119374Y-49181571D01*
X65119380Y-49181568D01*
X65304323Y-49053440D01*
X65304335Y-49053430D01*
X65463430Y-48894335D01*
X65463440Y-48894323D01*
X65591568Y-48709380D01*
X65591571Y-48709374D01*
X65684622Y-48504519D01*
X65739599Y-48286332D01*
X65750000Y-48154194D01*
X65750000Y-47590000D01*
X64933686Y-47590000D01*
X64959493Y-47549844D01*
X65000000Y-47411889D01*
X65000000Y-47268111D01*
X64959493Y-47130156D01*
X64933686Y-47090000D01*
X65749999Y-47090000D01*
X65749999Y-46525808D01*
X65739599Y-46393667D01*
X65684622Y-46175480D01*
X65591571Y-45970625D01*
X65591568Y-45970619D01*
X65463440Y-45785676D01*
X65463430Y-45785664D01*
X65304335Y-45626569D01*
X65304323Y-45626559D01*
X65119380Y-45498431D01*
X65119374Y-45498428D01*
X64914519Y-45405377D01*
X64696332Y-45350400D01*
X64564194Y-45340000D01*
X63750000Y-45340000D01*
X63750000Y-46840000D01*
X63250000Y-46840000D01*
X63250000Y-45340000D01*
X63249999Y-45340000D01*
X62435808Y-45340001D01*
X62303667Y-45350400D01*
X62085480Y-45405377D01*
X61880625Y-45498428D01*
X61880619Y-45498431D01*
X61695676Y-45626559D01*
X61695664Y-45626569D01*
X61536569Y-45785664D01*
X61536559Y-45785676D01*
X61408431Y-45970619D01*
X61408428Y-45970625D01*
X61315377Y-46175480D01*
X61260400Y-46393667D01*
X61250000Y-46525806D01*
X61250000Y-47090000D01*
X44728166Y-47090000D01*
X44809568Y-46952805D01*
X44811941Y-46949112D01*
X45099287Y-46535256D01*
X45101933Y-46531723D01*
X45129274Y-46497795D01*
X45418072Y-46139417D01*
X45420936Y-46136112D01*
X45764254Y-45767362D01*
X45767362Y-45764254D01*
X46136112Y-45420936D01*
X46139417Y-45418072D01*
X46531724Y-45101932D01*
X46535259Y-45099286D01*
X46949112Y-44811941D01*
X46952805Y-44809568D01*
X47386097Y-44552484D01*
X47389949Y-44550381D01*
X47840494Y-44324855D01*
X47844478Y-44323036D01*
X48309958Y-44130227D01*
X48314088Y-44128687D01*
X48792115Y-43969585D01*
X48796321Y-43968349D01*
X49284528Y-43843742D01*
X49288788Y-43842815D01*
X49784630Y-43753355D01*
X49788972Y-43752731D01*
X50289907Y-43698875D01*
X50294301Y-43698561D01*
X50800000Y-43680500D01*
X50865892Y-43680500D01*
X76962916Y-43680500D01*
X77029955Y-43700185D01*
G37*
%TD.AperFunction*%
%TA.AperFunction,Conductor*%
G36*
X62908039Y-103969685D02*
G01*
X62953794Y-104022489D01*
X62965000Y-104074000D01*
X62965000Y-104175376D01*
X62950495Y-104102455D01*
X62895240Y-104019760D01*
X62812545Y-103964505D01*
X62739624Y-103950000D01*
X62841000Y-103950000D01*
X62908039Y-103969685D01*
G37*
%TD.AperFunction*%
%TA.AperFunction,Conductor*%
G36*
X124303702Y-83716093D02*
G01*
X124316579Y-83729030D01*
X124328372Y-83742767D01*
X124336370Y-83752084D01*
X124341093Y-83758348D01*
X124358833Y-83785265D01*
X124358835Y-83785268D01*
X124377361Y-83803793D01*
X124399726Y-83826158D01*
X124402918Y-83829603D01*
X124440569Y-83873461D01*
X124466047Y-83893182D01*
X124471943Y-83898375D01*
X125053331Y-84479763D01*
X125111276Y-84540721D01*
X125111279Y-84540724D01*
X125158723Y-84573746D01*
X125162485Y-84576583D01*
X125190529Y-84599449D01*
X125207292Y-84613117D01*
X125207293Y-84613117D01*
X125207295Y-84613119D01*
X125220432Y-84619980D01*
X125235862Y-84628040D01*
X125242570Y-84632105D01*
X125269024Y-84650517D01*
X125269023Y-84650517D01*
X125322148Y-84673315D01*
X125326397Y-84675332D01*
X125377645Y-84702103D01*
X125408632Y-84710969D01*
X125416036Y-84713605D01*
X125445643Y-84726311D01*
X125445644Y-84726311D01*
X125445646Y-84726312D01*
X125502272Y-84737949D01*
X125506843Y-84739070D01*
X125562424Y-84754974D01*
X125594553Y-84757420D01*
X125602335Y-84758512D01*
X125633903Y-84765000D01*
X125691721Y-84765000D01*
X125696428Y-84765178D01*
X125730904Y-84767804D01*
X125754062Y-84769568D01*
X125754062Y-84769567D01*
X125754063Y-84769568D01*
X125786034Y-84765496D01*
X125793865Y-84765000D01*
X126372258Y-84765000D01*
X126439297Y-84784685D01*
X126460332Y-84802365D01*
X126460402Y-84802290D01*
X126462076Y-84803831D01*
X126463487Y-84805017D01*
X126464168Y-84805757D01*
X126464173Y-84805762D01*
X126464175Y-84805764D01*
X126641031Y-84968571D01*
X126668460Y-84986491D01*
X126713815Y-85039635D01*
X126723239Y-85108866D01*
X126693738Y-85172202D01*
X126668462Y-85194104D01*
X126641344Y-85211822D01*
X126641338Y-85211826D01*
X126464544Y-85374577D01*
X126316947Y-85564209D01*
X126202578Y-85775544D01*
X126202576Y-85775550D01*
X126124553Y-86002823D01*
X126106669Y-86109999D01*
X126106670Y-86110000D01*
X127189428Y-86110000D01*
X127166318Y-86145960D01*
X127125000Y-86286673D01*
X127125000Y-86433327D01*
X127166318Y-86574040D01*
X127189428Y-86610000D01*
X126106669Y-86610000D01*
X126124553Y-86717176D01*
X126202576Y-86944449D01*
X126202578Y-86944455D01*
X126316947Y-87155790D01*
X126464544Y-87345422D01*
X126641338Y-87508173D01*
X126641342Y-87508176D01*
X126842509Y-87639606D01*
X127062571Y-87736134D01*
X127295517Y-87795124D01*
X127384999Y-87802538D01*
X127384999Y-86806494D01*
X127489839Y-86854373D01*
X127598527Y-86870000D01*
X127671473Y-86870000D01*
X127780161Y-86854373D01*
X127885000Y-86806494D01*
X127885000Y-87802538D01*
X127974482Y-87795124D01*
X127974483Y-87795124D01*
X128207428Y-87736134D01*
X128427490Y-87639606D01*
X128628657Y-87508176D01*
X128628661Y-87508173D01*
X128805455Y-87345422D01*
X128953052Y-87155790D01*
X129067421Y-86944455D01*
X129067423Y-86944449D01*
X129145446Y-86717176D01*
X129163331Y-86610000D01*
X128080572Y-86610000D01*
X128103682Y-86574040D01*
X128145000Y-86433327D01*
X128145000Y-86286673D01*
X128103682Y-86145960D01*
X128080572Y-86110000D01*
X129163330Y-86110000D01*
X129163330Y-86109999D01*
X129145446Y-86002823D01*
X129067423Y-85775550D01*
X129067421Y-85775544D01*
X128953052Y-85564209D01*
X128805455Y-85374577D01*
X128628661Y-85211826D01*
X128628659Y-85211825D01*
X128601538Y-85194105D01*
X128556183Y-85140958D01*
X128546761Y-85071727D01*
X128576264Y-85008391D01*
X128601536Y-84986493D01*
X128628969Y-84968571D01*
X128805825Y-84805764D01*
X128940986Y-84632109D01*
X128953466Y-84616075D01*
X128953470Y-84616069D01*
X128953472Y-84616067D01*
X128953476Y-84616060D01*
X128975164Y-84575984D01*
X129024382Y-84526393D01*
X129084219Y-84511000D01*
X130787247Y-84511000D01*
X130790992Y-84511113D01*
X130852026Y-84514805D01*
X130852026Y-84514804D01*
X130852028Y-84514805D01*
X130912185Y-84503779D01*
X130915870Y-84503219D01*
X130976582Y-84495848D01*
X130985788Y-84492356D01*
X131007403Y-84486330D01*
X131017085Y-84484557D01*
X131072865Y-84459451D01*
X131076281Y-84458037D01*
X131133482Y-84436344D01*
X131141579Y-84430754D01*
X131161139Y-84419722D01*
X131170105Y-84415688D01*
X131188526Y-84401255D01*
X131253433Y-84375406D01*
X131322016Y-84388751D01*
X131372497Y-84437057D01*
X131388999Y-84498865D01*
X131389000Y-87607247D01*
X131388887Y-87610992D01*
X131385195Y-87672025D01*
X131385195Y-87672028D01*
X131396217Y-87732174D01*
X131396780Y-87735876D01*
X131404152Y-87796582D01*
X131407644Y-87805792D01*
X131413666Y-87827395D01*
X131415441Y-87837081D01*
X131440540Y-87892851D01*
X131441973Y-87896310D01*
X131463653Y-87953478D01*
X131463656Y-87953482D01*
X131469250Y-87961586D01*
X131480274Y-87981134D01*
X131484308Y-87990099D01*
X131484314Y-87990108D01*
X131522018Y-88038234D01*
X131524238Y-88041251D01*
X131558980Y-88091583D01*
X131604753Y-88132135D01*
X131607464Y-88134686D01*
X132132525Y-88659747D01*
X132622681Y-89149903D01*
X132656166Y-89211226D01*
X132659000Y-89237584D01*
X132659000Y-91817928D01*
X132639315Y-91884967D01*
X132586511Y-91930722D01*
X132517353Y-91940666D01*
X132491668Y-91934110D01*
X132417382Y-91906403D01*
X132417372Y-91906401D01*
X132357844Y-91900000D01*
X131610000Y-91900000D01*
X131610000Y-92926000D01*
X131590315Y-92993039D01*
X131537511Y-93038794D01*
X131486000Y-93050000D01*
X129909999Y-93050000D01*
X129897168Y-93062831D01*
X129835845Y-93096315D01*
X129766153Y-93091330D01*
X129710222Y-93049461D01*
X129688229Y-93020083D01*
X129667546Y-92992454D01*
X129667544Y-92992453D01*
X129667544Y-92992452D01*
X129552335Y-92906206D01*
X129552328Y-92906202D01*
X129417482Y-92855908D01*
X129417483Y-92855908D01*
X129357883Y-92849501D01*
X129357881Y-92849500D01*
X129357873Y-92849500D01*
X129357865Y-92849500D01*
X128488083Y-92849500D01*
X128421044Y-92829815D01*
X128400402Y-92813181D01*
X128137221Y-92550000D01*
X129910000Y-92550000D01*
X131110000Y-92550000D01*
X131110000Y-91900000D01*
X130362155Y-91900000D01*
X130302627Y-91906401D01*
X130302620Y-91906403D01*
X130167913Y-91956645D01*
X130167906Y-91956649D01*
X130052812Y-92042809D01*
X130052809Y-92042812D01*
X129966649Y-92157906D01*
X129966645Y-92157913D01*
X129916403Y-92292620D01*
X129916401Y-92292627D01*
X129910000Y-92352155D01*
X129910000Y-92550000D01*
X128137221Y-92550000D01*
X124134818Y-88547597D01*
X124101333Y-88486274D01*
X124098499Y-88459916D01*
X124098499Y-83809806D01*
X124118184Y-83742767D01*
X124170988Y-83697012D01*
X124240146Y-83687068D01*
X124303702Y-83716093D01*
G37*
%TD.AperFunction*%
%TD*%
M02*
