%TF.GenerationSoftware,KiCad,Pcbnew,7.0.1*%
%TF.CreationDate,2023-04-06T15:25:48-05:00*%
%TF.ProjectId,mqtt_particle_sensor,6d717474-5f70-4617-9274-69636c655f73,B*%
%TF.SameCoordinates,Original*%
%TF.FileFunction,Copper,L2,Bot*%
%TF.FilePolarity,Positive*%
%FSLAX46Y46*%
G04 Gerber Fmt 4.6, Leading zero omitted, Abs format (unit mm)*
G04 Created by KiCad (PCBNEW 7.0.1) date 2023-04-06 15:25:48*
%MOMM*%
%LPD*%
G01*
G04 APERTURE LIST*
G04 Aperture macros list*
%AMRoundRect*
0 Rectangle with rounded corners*
0 $1 Rounding radius*
0 $2 $3 $4 $5 $6 $7 $8 $9 X,Y pos of 4 corners*
0 Add a 4 corners polygon primitive as box body*
4,1,4,$2,$3,$4,$5,$6,$7,$8,$9,$2,$3,0*
0 Add four circle primitives for the rounded corners*
1,1,$1+$1,$2,$3*
1,1,$1+$1,$4,$5*
1,1,$1+$1,$6,$7*
1,1,$1+$1,$8,$9*
0 Add four rect primitives between the rounded corners*
20,1,$1+$1,$2,$3,$4,$5,0*
20,1,$1+$1,$4,$5,$6,$7,0*
20,1,$1+$1,$6,$7,$8,$9,0*
20,1,$1+$1,$8,$9,$2,$3,0*%
G04 Aperture macros list end*
%TA.AperFunction,ComponentPad*%
%ADD10R,3.500000X3.500000*%
%TD*%
%TA.AperFunction,ComponentPad*%
%ADD11RoundRect,0.750000X-1.000000X0.750000X-1.000000X-0.750000X1.000000X-0.750000X1.000000X0.750000X0*%
%TD*%
%TA.AperFunction,ComponentPad*%
%ADD12RoundRect,0.875000X-0.875000X0.875000X-0.875000X-0.875000X0.875000X-0.875000X0.875000X0.875000X0*%
%TD*%
%TA.AperFunction,ComponentPad*%
%ADD13RoundRect,0.200000X0.200000X0.450000X-0.200000X0.450000X-0.200000X-0.450000X0.200000X-0.450000X0*%
%TD*%
%TA.AperFunction,ComponentPad*%
%ADD14O,0.800000X1.300000*%
%TD*%
%TA.AperFunction,ComponentPad*%
%ADD15R,1.600000X1.600000*%
%TD*%
%TA.AperFunction,ComponentPad*%
%ADD16C,1.600000*%
%TD*%
%TA.AperFunction,ComponentPad*%
%ADD17R,2.100000X1.900000*%
%TD*%
%TA.AperFunction,ComponentPad*%
%ADD18O,2.100000X1.900000*%
%TD*%
%TA.AperFunction,ViaPad*%
%ADD19C,0.600000*%
%TD*%
%TA.AperFunction,Conductor*%
%ADD20C,0.381000*%
%TD*%
%TA.AperFunction,Conductor*%
%ADD21C,0.889000*%
%TD*%
G04 APERTURE END LIST*
D10*
%TO.P,J2,1*%
%TO.N,Net-(PS1-+VIN)*%
X63500000Y-53340000D03*
D11*
%TO.P,J2,2*%
%TO.N,GND*%
X63500000Y-47340000D03*
D12*
%TO.P,J2,3*%
%TO.N,N/C*%
X58800000Y-50340000D03*
%TD*%
D13*
%TO.P,U3,1,Vout*%
%TO.N,unconnected-(U3-Vout-Pad1)*%
X71465000Y-104200000D03*
D14*
%TO.P,U3,2,Vcc*%
%TO.N,+5V*%
X70215000Y-104200000D03*
%TO.P,U3,3*%
%TO.N,N/C*%
X68965000Y-104200000D03*
%TO.P,U3,4*%
X67715000Y-104200000D03*
%TO.P,U3,5,RES*%
%TO.N,HPM_RESET*%
X66465000Y-104200000D03*
%TO.P,U3,6,TX*%
%TO.N,UART_MISO*%
X65215000Y-104200000D03*
%TO.P,U3,7,RX*%
%TO.N,UART_MOSI*%
X63965000Y-104200000D03*
%TO.P,U3,8,GND*%
%TO.N,GND*%
X62715000Y-104200000D03*
%TD*%
D15*
%TO.P,C3,1*%
%TO.N,Net-(PS1-+VIN)*%
X50800000Y-63500000D03*
D16*
%TO.P,C3,2*%
%TO.N,GND*%
X50800000Y-66000000D03*
%TD*%
D17*
%TO.P,A1,1,~{RST}*%
%TO.N,RESET*%
X127635000Y-63500000D03*
D18*
%TO.P,A1,2,A*%
%TO.N,unconnected-(A1-A-Pad2)*%
X127635000Y-66040000D03*
%TO.P,A1,3,EN*%
%TO.N,unconnected-(A1-EN-Pad3)*%
X127635000Y-68580000D03*
%TO.P,A1,4,16*%
%TO.N,RESET*%
X127635000Y-71120000D03*
%TO.P,A1,5,14*%
%TO.N,unconnected-(A1-14-Pad5)*%
X127635000Y-73660000D03*
%TO.P,A1,6,12*%
%TO.N,unconnected-(A1-12-Pad6)*%
X127635000Y-76200000D03*
%TO.P,A1,7,13*%
%TO.N,unconnected-(A1-13-Pad7)*%
X127635000Y-78740000D03*
%TO.P,A1,8,V+*%
%TO.N,+5V*%
X127635000Y-81280000D03*
%TO.P,A1,9,VBat*%
%TO.N,unconnected-(A1-VBat-Pad9)*%
X127635000Y-83820000D03*
%TO.P,A1,10,GND*%
%TO.N,GND*%
X127635000Y-86360000D03*
%TO.P,A1,11,GND*%
X107315000Y-86360000D03*
%TO.P,A1,12,LDO*%
%TO.N,unconnected-(A1-LDO-Pad12)*%
X107315000Y-83820000D03*
%TO.P,A1,13,3V*%
%TO.N,+3V3*%
X107315000Y-81280000D03*
%TO.P,A1,14,15*%
%TO.N,HPM_RESET*%
X107315000Y-78740000D03*
%TO.P,A1,15,2*%
%TO.N,unconnected-(A1-2-Pad15)*%
X107315000Y-76200000D03*
%TO.P,A1,16,0*%
%TO.N,ONLINE*%
X107315000Y-73660000D03*
%TO.P,A1,17,4*%
%TO.N,unconnected-(A1-4-Pad17)*%
X107315000Y-71120000D03*
%TO.P,A1,18,5*%
%TO.N,unconnected-(A1-5-Pad18)*%
X107315000Y-68580000D03*
%TO.P,A1,19,RX*%
%TO.N,UART_MISO*%
X107315000Y-66040000D03*
%TO.P,A1,20,TX*%
%TO.N,UART_MOSI*%
X107315000Y-63500000D03*
%TD*%
D19*
%TO.N,+3V3*%
X127000000Y-45720000D03*
%TO.N,RESET*%
X121920000Y-53340000D03*
%TO.N,+3V3*%
X81280000Y-45720000D03*
%TO.N,+5V*%
X117475000Y-74930000D03*
%TO.N,ONLINE*%
X131445000Y-97790000D03*
%TO.N,Net-(PS1-+VIN)*%
X111760000Y-53340000D03*
%TD*%
D20*
%TO.N,RESET*%
X121920000Y-60960000D02*
X124460000Y-63500000D01*
X121920000Y-53340000D02*
X121920000Y-60960000D01*
X124460000Y-63500000D02*
X127635000Y-63500000D01*
X127635000Y-63500000D02*
X129540000Y-63500000D01*
X129540000Y-71120000D02*
X127635000Y-71120000D01*
X130810000Y-64770000D02*
X130810000Y-69850000D01*
X129540000Y-63500000D02*
X130810000Y-64770000D01*
X130810000Y-69850000D02*
X129540000Y-71120000D01*
D21*
%TO.N,+5V*%
X127635000Y-81280000D02*
X123825000Y-81280000D01*
X123825000Y-81280000D02*
X117475000Y-74930000D01*
D20*
%TO.N,HPM_RESET*%
X66465000Y-89745000D02*
X66465000Y-104200000D01*
X105410000Y-78740000D02*
X101600000Y-82550000D01*
X73660000Y-82550000D02*
X66465000Y-89745000D01*
X107315000Y-78740000D02*
X105410000Y-78740000D01*
X101600000Y-82550000D02*
X73660000Y-82550000D01*
%TO.N,ONLINE*%
X107315000Y-73660000D02*
X131445000Y-97790000D01*
%TO.N,UART_MISO*%
X65215000Y-104200000D02*
X65215000Y-89090000D01*
X88265000Y-66040000D02*
X107315000Y-66040000D01*
X65215000Y-89090000D02*
X88265000Y-66040000D01*
%TO.N,UART_MOSI*%
X63965000Y-104200000D02*
X63965000Y-88435000D01*
X63965000Y-88435000D02*
X88900000Y-63500000D01*
X88900000Y-63500000D02*
X107315000Y-63500000D01*
D21*
%TO.N,Net-(PS1-+VIN)*%
X63500000Y-53340000D02*
X54610000Y-53340000D01*
X54610000Y-53340000D02*
X50800000Y-57150000D01*
X63500000Y-53340000D02*
X111760000Y-53340000D01*
X50800000Y-57150000D02*
X50800000Y-63500000D01*
%TD*%
%TA.AperFunction,Conductor*%
%TO.N,+3V3*%
G36*
X126918846Y-43680501D02*
G01*
X126934107Y-43680501D01*
X126997785Y-43680501D01*
X127002210Y-43680579D01*
X127503483Y-43698483D01*
X127512276Y-43699111D01*
X128008832Y-43752496D01*
X128017548Y-43753749D01*
X128509027Y-43842422D01*
X128517635Y-43844295D01*
X129001512Y-43967798D01*
X129009992Y-43970288D01*
X129483797Y-44127985D01*
X129483800Y-44127986D01*
X129492092Y-44131078D01*
X129953463Y-44322184D01*
X129961502Y-44325856D01*
X130408054Y-44549384D01*
X130415813Y-44553620D01*
X130845296Y-44808443D01*
X130852719Y-44813214D01*
X131189971Y-45047372D01*
X131262923Y-45098024D01*
X131270009Y-45103329D01*
X131658824Y-45416657D01*
X131665514Y-45422453D01*
X132031004Y-45762736D01*
X132037263Y-45768995D01*
X132377546Y-46134485D01*
X132383342Y-46141175D01*
X132696670Y-46529990D01*
X132701975Y-46537076D01*
X132871579Y-46781352D01*
X132986780Y-46947273D01*
X132991563Y-46954715D01*
X133246376Y-47384181D01*
X133250618Y-47391950D01*
X133474140Y-47838491D01*
X133477817Y-47846542D01*
X133668920Y-48307905D01*
X133672013Y-48316199D01*
X133829709Y-48790001D01*
X133832203Y-48798494D01*
X133955699Y-49282344D01*
X133957581Y-49290993D01*
X134046246Y-49782428D01*
X134047506Y-49791190D01*
X134100886Y-50287705D01*
X134101517Y-50296534D01*
X134119420Y-50797788D01*
X134119499Y-50802214D01*
X134119499Y-101597785D01*
X134119420Y-101602211D01*
X134101517Y-102103465D01*
X134100886Y-102112294D01*
X134047506Y-102608809D01*
X134046246Y-102617571D01*
X133957581Y-103109006D01*
X133955699Y-103117655D01*
X133832203Y-103601505D01*
X133829709Y-103609998D01*
X133672013Y-104083800D01*
X133668920Y-104092094D01*
X133477817Y-104553457D01*
X133474140Y-104561508D01*
X133250618Y-105008049D01*
X133246376Y-105015818D01*
X132991563Y-105445284D01*
X132986777Y-105452731D01*
X132701975Y-105862923D01*
X132696670Y-105870009D01*
X132383342Y-106258824D01*
X132377546Y-106265514D01*
X132037263Y-106631004D01*
X132031004Y-106637263D01*
X131665514Y-106977546D01*
X131658824Y-106983342D01*
X131270009Y-107296670D01*
X131262923Y-107301975D01*
X130852731Y-107586777D01*
X130845284Y-107591563D01*
X130415818Y-107846376D01*
X130408049Y-107850618D01*
X129961508Y-108074140D01*
X129953457Y-108077817D01*
X129492094Y-108268920D01*
X129483800Y-108272013D01*
X129009998Y-108429709D01*
X129001505Y-108432203D01*
X128517655Y-108555699D01*
X128509006Y-108557581D01*
X128017571Y-108646246D01*
X128008809Y-108647506D01*
X127512294Y-108700886D01*
X127503465Y-108701517D01*
X127002211Y-108719420D01*
X126997785Y-108719499D01*
X126918846Y-108719499D01*
X126918838Y-108719500D01*
X50802214Y-108719500D01*
X50797788Y-108719421D01*
X50296533Y-108701518D01*
X50287704Y-108700887D01*
X49791190Y-108647507D01*
X49782428Y-108646247D01*
X49290992Y-108557582D01*
X49282343Y-108555700D01*
X48798493Y-108432204D01*
X48790000Y-108429710D01*
X48316198Y-108272014D01*
X48307904Y-108268921D01*
X47846541Y-108077818D01*
X47838490Y-108074141D01*
X47391949Y-107850619D01*
X47384187Y-107846381D01*
X46954710Y-107591561D01*
X46947269Y-107586778D01*
X46537085Y-107301981D01*
X46529999Y-107296677D01*
X46141166Y-106983337D01*
X46134476Y-106977540D01*
X46094086Y-106939936D01*
X45982964Y-106836477D01*
X45768994Y-106637264D01*
X45762735Y-106631005D01*
X45422459Y-106265523D01*
X45416662Y-106258833D01*
X45103322Y-105870000D01*
X45098018Y-105862914D01*
X44813221Y-105452730D01*
X44808442Y-105445296D01*
X44553612Y-105015803D01*
X44549380Y-105008050D01*
X44549379Y-105008049D01*
X44325855Y-104561503D01*
X44322181Y-104553458D01*
X44298875Y-104497192D01*
X61814500Y-104497192D01*
X61821260Y-104561508D01*
X61829326Y-104638257D01*
X61887820Y-104818284D01*
X61982466Y-104982216D01*
X62109129Y-105122889D01*
X62262269Y-105234151D01*
X62435197Y-105311144D01*
X62620352Y-105350500D01*
X62620354Y-105350500D01*
X62809646Y-105350500D01*
X62809648Y-105350500D01*
X62933084Y-105324262D01*
X62994803Y-105311144D01*
X63167730Y-105234151D01*
X63267116Y-105161943D01*
X63314219Y-105140972D01*
X63365781Y-105140972D01*
X63412883Y-105161943D01*
X63512270Y-105234151D01*
X63512271Y-105234151D01*
X63512272Y-105234152D01*
X63685197Y-105311144D01*
X63870352Y-105350500D01*
X63870354Y-105350500D01*
X64059646Y-105350500D01*
X64059648Y-105350500D01*
X64183084Y-105324262D01*
X64244803Y-105311144D01*
X64417730Y-105234151D01*
X64517116Y-105161943D01*
X64564219Y-105140972D01*
X64615781Y-105140972D01*
X64662883Y-105161943D01*
X64762270Y-105234151D01*
X64762271Y-105234151D01*
X64762272Y-105234152D01*
X64935197Y-105311144D01*
X65120352Y-105350500D01*
X65120354Y-105350500D01*
X65309646Y-105350500D01*
X65309648Y-105350500D01*
X65433084Y-105324262D01*
X65494803Y-105311144D01*
X65667730Y-105234151D01*
X65767116Y-105161943D01*
X65814219Y-105140972D01*
X65865781Y-105140972D01*
X65912883Y-105161943D01*
X66012270Y-105234151D01*
X66012271Y-105234151D01*
X66012272Y-105234152D01*
X66185197Y-105311144D01*
X66370352Y-105350500D01*
X66370354Y-105350500D01*
X66559646Y-105350500D01*
X66559648Y-105350500D01*
X66683084Y-105324262D01*
X66744803Y-105311144D01*
X66917730Y-105234151D01*
X67017116Y-105161943D01*
X67064219Y-105140972D01*
X67115781Y-105140972D01*
X67162883Y-105161943D01*
X67262270Y-105234151D01*
X67262271Y-105234151D01*
X67262272Y-105234152D01*
X67435197Y-105311144D01*
X67620352Y-105350500D01*
X67620354Y-105350500D01*
X67809646Y-105350500D01*
X67809648Y-105350500D01*
X67933084Y-105324262D01*
X67994803Y-105311144D01*
X68167730Y-105234151D01*
X68267116Y-105161943D01*
X68314219Y-105140972D01*
X68365781Y-105140972D01*
X68412883Y-105161943D01*
X68512270Y-105234151D01*
X68512271Y-105234151D01*
X68512272Y-105234152D01*
X68685197Y-105311144D01*
X68870352Y-105350500D01*
X68870354Y-105350500D01*
X69059646Y-105350500D01*
X69059648Y-105350500D01*
X69183084Y-105324262D01*
X69244803Y-105311144D01*
X69417730Y-105234151D01*
X69517116Y-105161943D01*
X69564219Y-105140972D01*
X69615781Y-105140972D01*
X69662883Y-105161943D01*
X69762270Y-105234151D01*
X69762271Y-105234151D01*
X69762272Y-105234152D01*
X69935197Y-105311144D01*
X70120352Y-105350500D01*
X70120354Y-105350500D01*
X70309646Y-105350500D01*
X70309648Y-105350500D01*
X70433084Y-105324262D01*
X70494803Y-105311144D01*
X70667730Y-105234151D01*
X70696297Y-105213395D01*
X70739988Y-105193199D01*
X70788084Y-105191163D01*
X70833330Y-105207597D01*
X70975394Y-105293478D01*
X71137804Y-105344086D01*
X71184857Y-105348362D01*
X71208383Y-105350500D01*
X71208384Y-105350500D01*
X71721616Y-105350500D01*
X71721617Y-105350500D01*
X71739260Y-105348896D01*
X71792196Y-105344086D01*
X71954606Y-105293478D01*
X72100185Y-105205472D01*
X72220472Y-105085185D01*
X72308478Y-104939606D01*
X72359086Y-104777196D01*
X72365500Y-104706616D01*
X72365500Y-103693384D01*
X72359086Y-103622804D01*
X72308478Y-103460394D01*
X72220472Y-103314815D01*
X72220471Y-103314813D01*
X72100186Y-103194528D01*
X72012180Y-103141326D01*
X71954606Y-103106522D01*
X71792196Y-103055914D01*
X71792193Y-103055913D01*
X71721617Y-103049500D01*
X71721616Y-103049500D01*
X71208384Y-103049500D01*
X71208383Y-103049500D01*
X71137806Y-103055913D01*
X71097150Y-103068582D01*
X70975394Y-103106522D01*
X70975392Y-103106522D01*
X70975392Y-103106523D01*
X70833331Y-103192402D01*
X70788085Y-103208836D01*
X70739991Y-103206800D01*
X70696296Y-103186603D01*
X70667729Y-103165848D01*
X70494802Y-103088855D01*
X70309648Y-103049500D01*
X70309646Y-103049500D01*
X70120354Y-103049500D01*
X70120352Y-103049500D01*
X69935197Y-103088855D01*
X69762272Y-103165846D01*
X69662884Y-103238056D01*
X69615779Y-103259027D01*
X69564218Y-103259027D01*
X69517113Y-103238055D01*
X69489570Y-103218044D01*
X69417730Y-103165849D01*
X69417729Y-103165848D01*
X69417727Y-103165847D01*
X69244802Y-103088855D01*
X69059648Y-103049500D01*
X69059646Y-103049500D01*
X68870354Y-103049500D01*
X68870352Y-103049500D01*
X68685197Y-103088855D01*
X68512272Y-103165846D01*
X68412884Y-103238056D01*
X68365779Y-103259027D01*
X68314218Y-103259027D01*
X68267113Y-103238055D01*
X68239570Y-103218044D01*
X68167730Y-103165849D01*
X68167729Y-103165848D01*
X68167727Y-103165847D01*
X67994802Y-103088855D01*
X67809648Y-103049500D01*
X67809646Y-103049500D01*
X67620354Y-103049500D01*
X67620352Y-103049500D01*
X67435199Y-103088854D01*
X67330435Y-103135499D01*
X67270271Y-103145837D01*
X67212465Y-103126214D01*
X67171027Y-103081387D01*
X67156000Y-103022219D01*
X67156000Y-101667764D01*
X125145787Y-101667764D01*
X125175413Y-101937016D01*
X125243928Y-102199087D01*
X125349871Y-102448392D01*
X125490982Y-102679611D01*
X125580253Y-102786881D01*
X125664255Y-102887820D01*
X125865998Y-103068582D01*
X126091910Y-103218044D01*
X126145270Y-103243058D01*
X126337177Y-103333021D01*
X126596562Y-103411058D01*
X126596569Y-103411060D01*
X126864561Y-103450500D01*
X127067631Y-103450500D01*
X127067634Y-103450500D01*
X127270156Y-103435677D01*
X127270156Y-103435676D01*
X127534553Y-103376780D01*
X127787558Y-103280014D01*
X128023777Y-103147441D01*
X128238177Y-102981888D01*
X128426186Y-102786881D01*
X128583799Y-102566579D01*
X128707656Y-102325675D01*
X128795118Y-102069305D01*
X128844319Y-101802933D01*
X128854212Y-101532235D01*
X128824586Y-101262982D01*
X128756072Y-101000912D01*
X128650130Y-100751610D01*
X128509018Y-100520390D01*
X128509017Y-100520388D01*
X128335746Y-100312181D01*
X128230758Y-100218112D01*
X128134002Y-100131418D01*
X127908090Y-99981956D01*
X127908086Y-99981954D01*
X127662822Y-99866978D01*
X127403437Y-99788941D01*
X127403431Y-99788940D01*
X127135439Y-99749500D01*
X126932369Y-99749500D01*
X126932366Y-99749500D01*
X126729843Y-99764322D01*
X126465449Y-99823219D01*
X126212441Y-99919986D01*
X125976223Y-100052559D01*
X125761825Y-100218109D01*
X125573813Y-100413120D01*
X125416201Y-100633420D01*
X125292342Y-100874329D01*
X125204881Y-101130695D01*
X125155680Y-101397066D01*
X125145787Y-101667764D01*
X67156000Y-101667764D01*
X67156000Y-90082584D01*
X67165439Y-90035131D01*
X67192319Y-89994903D01*
X70707030Y-86480191D01*
X105764500Y-86480191D01*
X105804066Y-86717299D01*
X105882116Y-86944652D01*
X105996531Y-87156072D01*
X106127523Y-87324370D01*
X106144175Y-87345764D01*
X106321031Y-87508571D01*
X106522272Y-87640049D01*
X106742409Y-87736610D01*
X106975437Y-87795620D01*
X107047266Y-87801571D01*
X107155004Y-87810500D01*
X107155010Y-87810500D01*
X107474990Y-87810500D01*
X107474996Y-87810500D01*
X107572938Y-87802383D01*
X107654563Y-87795620D01*
X107887591Y-87736610D01*
X108107728Y-87640049D01*
X108308969Y-87508571D01*
X108485825Y-87345764D01*
X108633472Y-87156067D01*
X108747882Y-86944656D01*
X108825934Y-86717297D01*
X108865500Y-86480192D01*
X108865500Y-86239808D01*
X108825934Y-86002703D01*
X108747882Y-85775344D01*
X108633472Y-85563933D01*
X108633469Y-85563929D01*
X108633468Y-85563927D01*
X108485827Y-85374239D01*
X108485825Y-85374236D01*
X108308969Y-85211429D01*
X108281997Y-85193807D01*
X108240764Y-85149015D01*
X108225820Y-85089997D01*
X108240767Y-85030979D01*
X108281998Y-84986191D01*
X108308969Y-84968571D01*
X108485825Y-84805764D01*
X108633472Y-84616067D01*
X108747882Y-84404656D01*
X108825934Y-84177297D01*
X108865500Y-83940192D01*
X108865500Y-83699808D01*
X108825934Y-83462703D01*
X108747882Y-83235344D01*
X108633472Y-83023933D01*
X108633469Y-83023929D01*
X108633468Y-83023927D01*
X108485827Y-82834239D01*
X108485825Y-82834236D01*
X108308969Y-82671429D01*
X108308966Y-82671426D01*
X108281541Y-82653508D01*
X108240308Y-82608716D01*
X108225363Y-82549698D01*
X108240309Y-82490681D01*
X108281544Y-82445890D01*
X108308658Y-82428176D01*
X108485457Y-82265420D01*
X108633047Y-82075798D01*
X108747423Y-81864450D01*
X108825446Y-81637175D01*
X108843331Y-81530000D01*
X105786669Y-81530000D01*
X105804553Y-81637175D01*
X105882576Y-81864450D01*
X105996952Y-82075798D01*
X106144542Y-82265420D01*
X106321341Y-82428175D01*
X106348457Y-82445891D01*
X106389690Y-82490681D01*
X106404636Y-82549698D01*
X106389692Y-82608716D01*
X106348460Y-82653507D01*
X106321032Y-82671426D01*
X106144172Y-82834239D01*
X105996531Y-83023927D01*
X105882116Y-83235347D01*
X105804066Y-83462700D01*
X105764500Y-83699809D01*
X105764500Y-83940191D01*
X105804066Y-84177299D01*
X105882116Y-84404652D01*
X105996531Y-84616072D01*
X106127523Y-84784370D01*
X106144175Y-84805764D01*
X106249490Y-84902713D01*
X106321029Y-84968570D01*
X106321031Y-84968571D01*
X106347999Y-84986190D01*
X106389232Y-85030980D01*
X106404178Y-85089997D01*
X106389234Y-85149014D01*
X106348002Y-85193806D01*
X106321033Y-85211426D01*
X106144172Y-85374239D01*
X105996531Y-85563927D01*
X105882116Y-85775347D01*
X105804066Y-86002700D01*
X105764500Y-86239809D01*
X105764500Y-86480191D01*
X70707030Y-86480191D01*
X73909902Y-83277319D01*
X73950130Y-83250439D01*
X73997583Y-83241000D01*
X101575374Y-83241000D01*
X101582861Y-83241226D01*
X101642028Y-83244805D01*
X101642028Y-83244804D01*
X101642030Y-83244805D01*
X101700336Y-83234119D01*
X101707725Y-83232994D01*
X101766582Y-83225848D01*
X101775790Y-83222355D01*
X101797398Y-83216332D01*
X101807085Y-83214557D01*
X101861161Y-83190218D01*
X101868045Y-83187368D01*
X101923482Y-83166344D01*
X101931585Y-83160750D01*
X101951137Y-83149723D01*
X101960105Y-83145688D01*
X102006776Y-83109122D01*
X102012769Y-83104711D01*
X102061583Y-83071020D01*
X102100902Y-83026635D01*
X102106003Y-83021217D01*
X105659901Y-79467319D01*
X105700130Y-79440439D01*
X105747583Y-79431000D01*
X105865780Y-79431000D01*
X105929254Y-79448477D01*
X105974835Y-79495982D01*
X105996528Y-79536068D01*
X106144174Y-79725763D01*
X106321029Y-79888570D01*
X106321031Y-79888571D01*
X106348457Y-79906489D01*
X106389690Y-79951279D01*
X106404636Y-80010296D01*
X106389692Y-80069313D01*
X106348460Y-80114105D01*
X106321341Y-80131822D01*
X106144542Y-80294579D01*
X105996952Y-80484201D01*
X105882576Y-80695549D01*
X105804553Y-80922824D01*
X105786669Y-81029999D01*
X105786670Y-81030000D01*
X108843330Y-81030000D01*
X108843330Y-81029999D01*
X108825446Y-80922824D01*
X108747423Y-80695549D01*
X108633047Y-80484201D01*
X108485457Y-80294579D01*
X108308657Y-80131823D01*
X108281539Y-80114105D01*
X108240307Y-80069313D01*
X108225363Y-80010296D01*
X108240309Y-79951279D01*
X108281539Y-79906491D01*
X108308969Y-79888571D01*
X108485825Y-79725764D01*
X108633472Y-79536067D01*
X108747882Y-79324656D01*
X108825934Y-79097297D01*
X108865500Y-78860192D01*
X108865500Y-78619808D01*
X108825934Y-78382703D01*
X108747882Y-78155344D01*
X108633472Y-77943933D01*
X108633469Y-77943929D01*
X108633468Y-77943927D01*
X108485827Y-77754239D01*
X108485825Y-77754236D01*
X108308969Y-77591429D01*
X108281997Y-77573807D01*
X108240765Y-77529018D01*
X108225820Y-77470000D01*
X108240765Y-77410982D01*
X108281997Y-77366192D01*
X108308969Y-77348571D01*
X108485825Y-77185764D01*
X108633472Y-76996067D01*
X108747882Y-76784656D01*
X108825934Y-76557297D01*
X108844794Y-76444274D01*
X108873312Y-76383572D01*
X108929271Y-76346598D01*
X108996298Y-76344172D01*
X109054783Y-76377005D01*
X130646400Y-97968622D01*
X130675760Y-98015348D01*
X130719209Y-98139519D01*
X130815185Y-98292264D01*
X130942735Y-98419814D01*
X130942737Y-98419815D01*
X130942738Y-98419816D01*
X131095478Y-98515789D01*
X131265745Y-98575368D01*
X131445000Y-98595565D01*
X131624255Y-98575368D01*
X131794522Y-98515789D01*
X131947262Y-98419816D01*
X132074816Y-98292262D01*
X132170789Y-98139522D01*
X132230368Y-97969255D01*
X132250565Y-97790000D01*
X132230368Y-97610745D01*
X132170789Y-97440478D01*
X132074816Y-97287738D01*
X132074815Y-97287737D01*
X132074814Y-97287735D01*
X131947264Y-97160185D01*
X131794519Y-97064209D01*
X131670348Y-97020760D01*
X131623622Y-96991400D01*
X109634347Y-75002125D01*
X116527868Y-75002125D01*
X116561777Y-75191307D01*
X116633069Y-75369785D01*
X116738834Y-75530267D01*
X123147195Y-81938626D01*
X123149388Y-81940875D01*
X123206278Y-82000724D01*
X123231082Y-82017987D01*
X123251798Y-82032405D01*
X123259315Y-82038073D01*
X123302289Y-82073115D01*
X123302290Y-82073115D01*
X123302292Y-82073117D01*
X123327381Y-82086222D01*
X123340788Y-82094344D01*
X123364025Y-82110518D01*
X123414989Y-82132388D01*
X123423499Y-82136430D01*
X123472645Y-82162102D01*
X123499846Y-82169885D01*
X123514630Y-82175147D01*
X123540643Y-82186311D01*
X123594975Y-82197476D01*
X123604110Y-82199719D01*
X123657422Y-82214974D01*
X123660874Y-82215236D01*
X123685637Y-82217122D01*
X123701164Y-82219299D01*
X123728903Y-82225000D01*
X123784364Y-82225000D01*
X123793779Y-82225358D01*
X123797510Y-82225642D01*
X123849063Y-82229568D01*
X123873862Y-82226409D01*
X123877127Y-82225994D01*
X123892792Y-82225000D01*
X126371827Y-82225000D01*
X126426273Y-82237593D01*
X126454815Y-82260761D01*
X126456616Y-82258805D01*
X126641033Y-82428573D01*
X126668000Y-82446192D01*
X126709233Y-82490983D01*
X126724178Y-82550000D01*
X126709233Y-82609017D01*
X126668000Y-82653808D01*
X126641033Y-82671426D01*
X126464172Y-82834239D01*
X126316531Y-83023927D01*
X126202116Y-83235347D01*
X126124066Y-83462700D01*
X126084500Y-83699809D01*
X126084500Y-83940191D01*
X126124066Y-84177299D01*
X126202116Y-84404652D01*
X126316531Y-84616072D01*
X126447523Y-84784370D01*
X126464175Y-84805764D01*
X126569490Y-84902713D01*
X126641029Y-84968570D01*
X126641031Y-84968571D01*
X126667999Y-84986190D01*
X126709232Y-85030980D01*
X126724178Y-85089997D01*
X126709234Y-85149014D01*
X126668002Y-85193806D01*
X126641033Y-85211426D01*
X126464172Y-85374239D01*
X126316531Y-85563927D01*
X126202116Y-85775347D01*
X126124066Y-86002700D01*
X126084500Y-86239809D01*
X126084500Y-86480191D01*
X126124066Y-86717299D01*
X126202116Y-86944652D01*
X126316531Y-87156072D01*
X126447523Y-87324370D01*
X126464175Y-87345764D01*
X126641031Y-87508571D01*
X126842272Y-87640049D01*
X127062409Y-87736610D01*
X127295437Y-87795620D01*
X127367266Y-87801571D01*
X127475004Y-87810500D01*
X127475010Y-87810500D01*
X127794990Y-87810500D01*
X127794996Y-87810500D01*
X127892938Y-87802383D01*
X127974563Y-87795620D01*
X128207591Y-87736610D01*
X128427728Y-87640049D01*
X128628969Y-87508571D01*
X128805825Y-87345764D01*
X128953472Y-87156067D01*
X129067882Y-86944656D01*
X129145934Y-86717297D01*
X129185500Y-86480192D01*
X129185500Y-86239808D01*
X129145934Y-86002703D01*
X129067882Y-85775344D01*
X128953472Y-85563933D01*
X128953469Y-85563929D01*
X128953468Y-85563927D01*
X128805827Y-85374239D01*
X128805825Y-85374236D01*
X128628969Y-85211429D01*
X128601997Y-85193807D01*
X128560764Y-85149015D01*
X128545820Y-85089997D01*
X128560767Y-85030979D01*
X128601998Y-84986191D01*
X128628969Y-84968571D01*
X128805825Y-84805764D01*
X128953472Y-84616067D01*
X129067882Y-84404656D01*
X129145934Y-84177297D01*
X129185500Y-83940192D01*
X129185500Y-83699808D01*
X129145934Y-83462703D01*
X129067882Y-83235344D01*
X128953472Y-83023933D01*
X128953469Y-83023929D01*
X128953468Y-83023927D01*
X128805827Y-82834239D01*
X128805825Y-82834236D01*
X128628969Y-82671429D01*
X128601997Y-82653807D01*
X128560765Y-82609018D01*
X128545820Y-82550000D01*
X128560765Y-82490982D01*
X128601997Y-82446192D01*
X128628969Y-82428571D01*
X128805825Y-82265764D01*
X128953472Y-82076067D01*
X129067882Y-81864656D01*
X129145934Y-81637297D01*
X129185500Y-81400192D01*
X129185500Y-81159808D01*
X129145934Y-80922703D01*
X129067882Y-80695344D01*
X128953472Y-80483933D01*
X128953469Y-80483929D01*
X128953468Y-80483927D01*
X128809718Y-80299238D01*
X128805825Y-80294236D01*
X128628969Y-80131429D01*
X128601997Y-80113807D01*
X128560765Y-80069018D01*
X128545820Y-80010000D01*
X128560765Y-79950982D01*
X128601997Y-79906192D01*
X128628969Y-79888571D01*
X128805825Y-79725764D01*
X128953472Y-79536067D01*
X129067882Y-79324656D01*
X129145934Y-79097297D01*
X129185500Y-78860192D01*
X129185500Y-78619808D01*
X129145934Y-78382703D01*
X129067882Y-78155344D01*
X128953472Y-77943933D01*
X128953469Y-77943929D01*
X128953468Y-77943927D01*
X128805827Y-77754239D01*
X128805825Y-77754236D01*
X128628969Y-77591429D01*
X128601997Y-77573807D01*
X128560765Y-77529018D01*
X128545820Y-77470000D01*
X128560765Y-77410982D01*
X128601997Y-77366192D01*
X128628969Y-77348571D01*
X128805825Y-77185764D01*
X128953472Y-76996067D01*
X129067882Y-76784656D01*
X129145934Y-76557297D01*
X129185500Y-76320192D01*
X129185500Y-76079808D01*
X129145934Y-75842703D01*
X129067882Y-75615344D01*
X128953472Y-75403933D01*
X128953469Y-75403929D01*
X128953468Y-75403927D01*
X128805827Y-75214239D01*
X128805825Y-75214236D01*
X128628969Y-75051429D01*
X128601997Y-75033807D01*
X128560765Y-74989018D01*
X128545820Y-74930000D01*
X128560765Y-74870982D01*
X128601997Y-74826192D01*
X128628969Y-74808571D01*
X128805825Y-74645764D01*
X128953472Y-74456067D01*
X129067882Y-74244656D01*
X129145934Y-74017297D01*
X129185500Y-73780192D01*
X129185500Y-73539808D01*
X129145934Y-73302703D01*
X129067882Y-73075344D01*
X128953472Y-72863933D01*
X128953469Y-72863929D01*
X128953468Y-72863927D01*
X128805827Y-72674239D01*
X128805825Y-72674236D01*
X128628969Y-72511429D01*
X128601997Y-72493807D01*
X128560765Y-72449018D01*
X128545820Y-72390000D01*
X128560765Y-72330982D01*
X128601997Y-72286192D01*
X128628969Y-72268571D01*
X128805825Y-72105764D01*
X128953472Y-71916067D01*
X128975164Y-71875982D01*
X129020746Y-71828477D01*
X129084220Y-71811000D01*
X129515374Y-71811000D01*
X129522861Y-71811226D01*
X129582028Y-71814805D01*
X129582028Y-71814804D01*
X129582030Y-71814805D01*
X129640336Y-71804119D01*
X129647725Y-71802994D01*
X129706582Y-71795848D01*
X129715790Y-71792355D01*
X129737398Y-71786332D01*
X129747085Y-71784557D01*
X129801161Y-71760218D01*
X129808045Y-71757368D01*
X129863482Y-71736344D01*
X129871585Y-71730750D01*
X129891137Y-71719723D01*
X129900105Y-71715688D01*
X129946776Y-71679122D01*
X129952769Y-71674711D01*
X130001583Y-71641020D01*
X130040902Y-71596635D01*
X130046003Y-71591217D01*
X131281217Y-70356003D01*
X131286635Y-70350902D01*
X131331020Y-70311583D01*
X131364719Y-70262760D01*
X131369100Y-70256806D01*
X131405688Y-70210106D01*
X131409727Y-70201128D01*
X131420754Y-70181578D01*
X131426344Y-70173482D01*
X131447372Y-70118032D01*
X131450229Y-70111138D01*
X131474557Y-70057085D01*
X131476332Y-70047398D01*
X131482355Y-70025790D01*
X131485848Y-70016582D01*
X131492994Y-69957725D01*
X131494119Y-69950336D01*
X131504805Y-69892030D01*
X131501226Y-69832861D01*
X131501000Y-69825374D01*
X131501000Y-64794626D01*
X131501226Y-64787139D01*
X131501261Y-64786546D01*
X131504805Y-64727972D01*
X131494115Y-64669641D01*
X131492991Y-64662253D01*
X131492419Y-64657545D01*
X131485848Y-64603418D01*
X131482355Y-64594208D01*
X131476332Y-64572602D01*
X131474557Y-64562915D01*
X131450225Y-64508851D01*
X131447361Y-64501936D01*
X131441228Y-64485764D01*
X131426344Y-64446518D01*
X131420752Y-64438417D01*
X131409727Y-64418870D01*
X131405688Y-64409894D01*
X131405687Y-64409893D01*
X131405687Y-64409892D01*
X131386882Y-64385890D01*
X131369132Y-64363233D01*
X131364703Y-64357214D01*
X131340234Y-64321766D01*
X131331020Y-64308417D01*
X131286639Y-64269099D01*
X131281201Y-64263979D01*
X130046027Y-63028805D01*
X130040893Y-63023352D01*
X130001582Y-62978979D01*
X129952793Y-62945303D01*
X129946759Y-62940863D01*
X129900104Y-62904311D01*
X129891132Y-62900273D01*
X129871585Y-62889249D01*
X129863482Y-62883656D01*
X129838114Y-62874035D01*
X129808044Y-62862630D01*
X129801143Y-62859772D01*
X129801134Y-62859768D01*
X129747085Y-62835443D01*
X129747083Y-62835442D01*
X129739311Y-62834018D01*
X129737398Y-62833667D01*
X129715788Y-62827643D01*
X129706583Y-62824152D01*
X129647735Y-62817006D01*
X129640332Y-62815879D01*
X129582029Y-62805195D01*
X129582028Y-62805195D01*
X129530896Y-62808287D01*
X129522861Y-62808774D01*
X129515374Y-62809000D01*
X129309499Y-62809000D01*
X129247499Y-62792387D01*
X129202112Y-62747000D01*
X129185499Y-62685000D01*
X129185499Y-62502130D01*
X129185499Y-62502127D01*
X129179091Y-62442517D01*
X129128796Y-62307669D01*
X129042546Y-62192454D01*
X128927331Y-62106204D01*
X128792483Y-62055909D01*
X128732873Y-62049500D01*
X128732869Y-62049500D01*
X126537130Y-62049500D01*
X126477515Y-62055909D01*
X126342669Y-62106204D01*
X126227454Y-62192454D01*
X126141204Y-62307668D01*
X126090909Y-62442516D01*
X126084500Y-62502131D01*
X126084500Y-62685000D01*
X126067887Y-62747000D01*
X126022500Y-62792387D01*
X125960500Y-62809000D01*
X124797584Y-62809000D01*
X124750131Y-62799561D01*
X124709903Y-62772681D01*
X122647319Y-60710097D01*
X122620439Y-60669869D01*
X122611000Y-60622416D01*
X122611000Y-53780612D01*
X122630006Y-53714640D01*
X122645789Y-53689522D01*
X122705368Y-53519255D01*
X122725565Y-53340000D01*
X122705368Y-53160745D01*
X122645789Y-52990478D01*
X122549816Y-52837738D01*
X122549815Y-52837737D01*
X122549814Y-52837735D01*
X122422264Y-52710185D01*
X122359867Y-52670978D01*
X122269522Y-52614211D01*
X122099255Y-52554632D01*
X122099253Y-52554631D01*
X122099251Y-52554631D01*
X121920000Y-52534434D01*
X121740748Y-52554631D01*
X121740745Y-52554631D01*
X121740745Y-52554632D01*
X121570478Y-52614211D01*
X121570476Y-52614211D01*
X121570476Y-52614212D01*
X121417735Y-52710185D01*
X121290185Y-52837735D01*
X121194212Y-52990476D01*
X121134631Y-53160748D01*
X121114434Y-53340000D01*
X121134631Y-53519251D01*
X121134631Y-53519253D01*
X121134632Y-53519255D01*
X121194211Y-53689522D01*
X121194212Y-53689523D01*
X121209994Y-53714640D01*
X121229000Y-53780612D01*
X121229000Y-60935374D01*
X121228774Y-60942861D01*
X121225195Y-61002029D01*
X121235879Y-61060332D01*
X121237006Y-61067735D01*
X121244152Y-61126583D01*
X121247643Y-61135788D01*
X121253668Y-61157400D01*
X121255442Y-61167083D01*
X121279772Y-61221143D01*
X121282630Y-61228044D01*
X121285776Y-61236337D01*
X121303656Y-61283482D01*
X121309249Y-61291585D01*
X121320273Y-61311132D01*
X121324311Y-61320104D01*
X121360863Y-61366759D01*
X121365303Y-61372793D01*
X121398979Y-61421582D01*
X121443352Y-61460893D01*
X121448805Y-61466027D01*
X123953979Y-63971201D01*
X123959099Y-63976639D01*
X123998417Y-64021020D01*
X124029129Y-64042219D01*
X124047214Y-64054703D01*
X124053233Y-64059132D01*
X124075890Y-64076882D01*
X124099892Y-64095687D01*
X124099893Y-64095687D01*
X124099894Y-64095688D01*
X124108870Y-64099727D01*
X124128417Y-64110752D01*
X124136518Y-64116344D01*
X124191942Y-64137363D01*
X124198851Y-64140225D01*
X124252915Y-64164557D01*
X124262602Y-64166332D01*
X124284208Y-64172355D01*
X124293418Y-64175848D01*
X124352276Y-64182994D01*
X124359630Y-64184113D01*
X124417971Y-64194805D01*
X124477137Y-64191226D01*
X124484625Y-64191000D01*
X125960501Y-64191000D01*
X126022501Y-64207613D01*
X126067888Y-64253000D01*
X126084501Y-64315000D01*
X126084501Y-64497872D01*
X126090909Y-64557483D01*
X126141204Y-64692331D01*
X126227454Y-64807546D01*
X126342669Y-64893796D01*
X126375338Y-64905980D01*
X126423155Y-64938093D01*
X126451305Y-64988345D01*
X126453713Y-65045895D01*
X126429859Y-65098324D01*
X126316529Y-65243931D01*
X126202116Y-65455347D01*
X126124066Y-65682700D01*
X126084500Y-65919809D01*
X126084500Y-66160191D01*
X126124066Y-66397299D01*
X126202116Y-66624652D01*
X126202117Y-66624655D01*
X126202118Y-66624656D01*
X126279323Y-66767319D01*
X126316531Y-66836072D01*
X126444158Y-67000046D01*
X126464175Y-67025764D01*
X126578022Y-67130567D01*
X126641033Y-67188573D01*
X126668000Y-67206192D01*
X126709233Y-67250983D01*
X126724178Y-67310000D01*
X126709233Y-67369017D01*
X126668000Y-67413808D01*
X126641033Y-67431426D01*
X126464172Y-67594239D01*
X126316531Y-67783927D01*
X126202116Y-67995347D01*
X126124066Y-68222700D01*
X126084500Y-68459809D01*
X126084500Y-68700191D01*
X126124066Y-68937299D01*
X126202116Y-69164652D01*
X126316531Y-69376072D01*
X126447523Y-69544370D01*
X126464175Y-69565764D01*
X126620922Y-69710059D01*
X126641033Y-69728573D01*
X126668000Y-69746192D01*
X126709233Y-69790983D01*
X126724178Y-69850000D01*
X126709233Y-69909017D01*
X126668000Y-69953808D01*
X126641033Y-69971426D01*
X126464172Y-70134239D01*
X126316531Y-70323927D01*
X126202116Y-70535347D01*
X126124066Y-70762700D01*
X126084500Y-70999809D01*
X126084500Y-71240191D01*
X126124066Y-71477299D01*
X126202116Y-71704652D01*
X126202117Y-71704655D01*
X126202118Y-71704656D01*
X126255579Y-71803444D01*
X126316531Y-71916072D01*
X126447523Y-72084370D01*
X126464175Y-72105764D01*
X126620922Y-72250059D01*
X126641033Y-72268573D01*
X126668000Y-72286192D01*
X126709233Y-72330983D01*
X126724178Y-72390000D01*
X126709233Y-72449017D01*
X126668000Y-72493808D01*
X126641033Y-72511426D01*
X126464172Y-72674239D01*
X126316531Y-72863927D01*
X126202116Y-73075347D01*
X126124066Y-73302700D01*
X126084500Y-73539809D01*
X126084500Y-73780191D01*
X126124066Y-74017299D01*
X126202116Y-74244652D01*
X126202117Y-74244655D01*
X126202118Y-74244656D01*
X126228397Y-74293216D01*
X126316531Y-74456072D01*
X126446282Y-74622775D01*
X126464175Y-74645764D01*
X126620922Y-74790059D01*
X126641033Y-74808573D01*
X126668000Y-74826192D01*
X126709233Y-74870983D01*
X126724178Y-74930000D01*
X126709233Y-74989017D01*
X126668000Y-75033808D01*
X126641033Y-75051426D01*
X126464172Y-75214239D01*
X126316531Y-75403927D01*
X126202116Y-75615347D01*
X126124066Y-75842700D01*
X126103726Y-75964592D01*
X126084500Y-76079808D01*
X126084500Y-76320192D01*
X126095076Y-76383572D01*
X126124066Y-76557299D01*
X126202116Y-76784652D01*
X126202117Y-76784655D01*
X126202118Y-76784656D01*
X126252541Y-76877830D01*
X126316531Y-76996072D01*
X126375165Y-77071404D01*
X126464175Y-77185764D01*
X126620922Y-77330059D01*
X126641033Y-77348573D01*
X126668000Y-77366192D01*
X126709233Y-77410983D01*
X126724178Y-77470000D01*
X126709233Y-77529017D01*
X126668000Y-77573808D01*
X126641033Y-77591426D01*
X126464172Y-77754239D01*
X126316531Y-77943927D01*
X126202116Y-78155347D01*
X126124066Y-78382700D01*
X126084500Y-78619809D01*
X126084500Y-78860191D01*
X126124066Y-79097299D01*
X126202116Y-79324652D01*
X126202117Y-79324655D01*
X126202118Y-79324656D01*
X126279323Y-79467319D01*
X126316531Y-79536072D01*
X126447523Y-79704370D01*
X126464175Y-79725764D01*
X126620922Y-79870059D01*
X126641033Y-79888573D01*
X126668000Y-79906192D01*
X126709233Y-79950983D01*
X126724178Y-80010000D01*
X126709233Y-80069017D01*
X126668000Y-80113808D01*
X126641033Y-80131426D01*
X126456616Y-80301195D01*
X126454815Y-80299238D01*
X126426273Y-80322407D01*
X126371827Y-80335000D01*
X124267794Y-80335000D01*
X124220341Y-80325561D01*
X124180113Y-80298681D01*
X118109335Y-74227903D01*
X118031425Y-74164376D01*
X117997708Y-74136883D01*
X117827355Y-74047898D01*
X117827354Y-74047897D01*
X117827353Y-74047897D01*
X117642575Y-73995025D01*
X117480123Y-73982654D01*
X117450937Y-73980432D01*
X117450936Y-73980432D01*
X117260285Y-74004712D01*
X117078422Y-74066875D01*
X117078420Y-74066875D01*
X117078420Y-74066876D01*
X116939548Y-74148626D01*
X116912789Y-74164378D01*
X116770183Y-74293216D01*
X116656423Y-74448138D01*
X116576182Y-74622775D01*
X116532737Y-74809993D01*
X116527868Y-75002125D01*
X109634347Y-75002125D01*
X108835581Y-74203359D01*
X108802453Y-74143626D01*
X108805981Y-74075414D01*
X108825934Y-74017297D01*
X108865500Y-73780192D01*
X108865500Y-73539808D01*
X108825934Y-73302703D01*
X108747882Y-73075344D01*
X108633472Y-72863933D01*
X108633469Y-72863929D01*
X108633468Y-72863927D01*
X108485827Y-72674239D01*
X108485825Y-72674236D01*
X108308969Y-72511429D01*
X108281997Y-72493807D01*
X108240765Y-72449018D01*
X108225820Y-72390000D01*
X108240765Y-72330982D01*
X108281997Y-72286192D01*
X108308969Y-72268571D01*
X108485825Y-72105764D01*
X108633472Y-71916067D01*
X108747882Y-71704656D01*
X108825934Y-71477297D01*
X108865500Y-71240192D01*
X108865500Y-70999808D01*
X108825934Y-70762703D01*
X108747882Y-70535344D01*
X108633472Y-70323933D01*
X108633469Y-70323929D01*
X108633468Y-70323927D01*
X108516371Y-70173482D01*
X108485825Y-70134236D01*
X108308969Y-69971429D01*
X108281997Y-69953807D01*
X108240765Y-69909018D01*
X108225820Y-69850000D01*
X108240765Y-69790982D01*
X108281997Y-69746192D01*
X108308969Y-69728571D01*
X108485825Y-69565764D01*
X108633472Y-69376067D01*
X108747882Y-69164656D01*
X108825934Y-68937297D01*
X108865500Y-68700192D01*
X108865500Y-68459808D01*
X108825934Y-68222703D01*
X108747882Y-67995344D01*
X108633472Y-67783933D01*
X108633469Y-67783929D01*
X108633468Y-67783927D01*
X108485827Y-67594239D01*
X108485825Y-67594236D01*
X108308969Y-67431429D01*
X108281997Y-67413807D01*
X108240765Y-67369018D01*
X108225820Y-67310000D01*
X108240765Y-67250982D01*
X108281997Y-67206192D01*
X108308969Y-67188571D01*
X108485825Y-67025764D01*
X108633472Y-66836067D01*
X108747882Y-66624656D01*
X108825934Y-66397297D01*
X108865500Y-66160192D01*
X108865500Y-65919808D01*
X108825934Y-65682703D01*
X108747882Y-65455344D01*
X108633472Y-65243933D01*
X108633469Y-65243929D01*
X108633468Y-65243927D01*
X108490413Y-65060131D01*
X108485825Y-65054236D01*
X108308969Y-64891429D01*
X108308968Y-64891428D01*
X108281998Y-64873807D01*
X108240765Y-64829015D01*
X108225821Y-64769997D01*
X108240767Y-64710980D01*
X108281998Y-64666191D01*
X108308969Y-64648571D01*
X108485825Y-64485764D01*
X108633472Y-64296067D01*
X108747882Y-64084656D01*
X108825934Y-63857297D01*
X108865500Y-63620192D01*
X108865500Y-63379808D01*
X108825934Y-63142703D01*
X108747882Y-62915344D01*
X108633472Y-62703933D01*
X108633469Y-62703929D01*
X108633468Y-62703927D01*
X108485827Y-62514239D01*
X108485825Y-62514236D01*
X108308969Y-62351429D01*
X108107728Y-62219951D01*
X107887591Y-62123390D01*
X107654563Y-62064380D01*
X107654561Y-62064379D01*
X107654558Y-62064379D01*
X107474996Y-62049500D01*
X107474990Y-62049500D01*
X107155010Y-62049500D01*
X107155004Y-62049500D01*
X106975441Y-62064379D01*
X106975437Y-62064379D01*
X106975437Y-62064380D01*
X106742409Y-62123390D01*
X106742406Y-62123391D01*
X106742407Y-62123391D01*
X106522384Y-62219902D01*
X106522272Y-62219951D01*
X106321031Y-62351429D01*
X106321029Y-62351430D01*
X106321030Y-62351430D01*
X106144174Y-62514236D01*
X105996528Y-62703931D01*
X105974835Y-62744018D01*
X105929254Y-62791523D01*
X105865780Y-62809000D01*
X88924626Y-62809000D01*
X88917139Y-62808774D01*
X88909103Y-62808287D01*
X88857972Y-62805195D01*
X88857971Y-62805195D01*
X88799668Y-62815879D01*
X88792266Y-62817005D01*
X88733418Y-62824152D01*
X88733416Y-62824152D01*
X88733413Y-62824153D01*
X88724203Y-62827645D01*
X88702604Y-62833666D01*
X88692916Y-62835441D01*
X88638865Y-62859768D01*
X88631956Y-62862630D01*
X88592914Y-62877437D01*
X88576515Y-62883657D01*
X88568415Y-62889248D01*
X88548876Y-62900268D01*
X88539897Y-62904309D01*
X88493237Y-62940863D01*
X88487211Y-62945297D01*
X88438418Y-62978979D01*
X88399105Y-63023352D01*
X88393973Y-63028803D01*
X63493804Y-87928972D01*
X63488352Y-87934104D01*
X63443980Y-87973415D01*
X63410298Y-88022212D01*
X63405861Y-88028243D01*
X63369312Y-88074894D01*
X63369312Y-88074895D01*
X63365269Y-88083875D01*
X63354252Y-88103409D01*
X63348656Y-88111515D01*
X63327632Y-88166950D01*
X63324768Y-88173864D01*
X63300441Y-88227917D01*
X63298666Y-88237604D01*
X63292645Y-88259203D01*
X63289153Y-88268413D01*
X63282006Y-88327266D01*
X63280879Y-88334668D01*
X63270195Y-88392971D01*
X63273774Y-88452139D01*
X63274000Y-88459626D01*
X63274000Y-103022219D01*
X63258973Y-103081387D01*
X63217535Y-103126214D01*
X63159729Y-103145837D01*
X63099565Y-103135499D01*
X62994800Y-103088854D01*
X62809648Y-103049500D01*
X62809646Y-103049500D01*
X62620354Y-103049500D01*
X62620352Y-103049500D01*
X62435197Y-103088855D01*
X62262269Y-103165848D01*
X62109129Y-103277110D01*
X61982466Y-103417783D01*
X61887820Y-103581715D01*
X61829326Y-103761742D01*
X61829325Y-103761744D01*
X61829326Y-103761744D01*
X61814500Y-103902808D01*
X61814500Y-104497192D01*
X44298875Y-104497192D01*
X44131078Y-104092095D01*
X44127985Y-104083801D01*
X44067745Y-103902808D01*
X43970287Y-103609993D01*
X43967795Y-103601506D01*
X43962744Y-103581715D01*
X43844294Y-103117636D01*
X43842421Y-103109028D01*
X43753748Y-102617548D01*
X43752495Y-102608832D01*
X43699110Y-102112277D01*
X43698482Y-102103484D01*
X43682919Y-101667764D01*
X48945787Y-101667764D01*
X48975413Y-101937016D01*
X49043928Y-102199087D01*
X49149871Y-102448392D01*
X49290982Y-102679611D01*
X49380253Y-102786881D01*
X49464255Y-102887820D01*
X49665998Y-103068582D01*
X49891910Y-103218044D01*
X49945270Y-103243058D01*
X50137177Y-103333021D01*
X50396562Y-103411058D01*
X50396569Y-103411060D01*
X50664561Y-103450500D01*
X50867631Y-103450500D01*
X50867634Y-103450500D01*
X51070156Y-103435677D01*
X51070155Y-103435677D01*
X51334553Y-103376780D01*
X51587558Y-103280014D01*
X51823777Y-103147441D01*
X52038177Y-102981888D01*
X52226186Y-102786881D01*
X52383799Y-102566579D01*
X52507656Y-102325675D01*
X52595118Y-102069305D01*
X52644319Y-101802933D01*
X52654212Y-101532235D01*
X52624586Y-101262982D01*
X52556072Y-101000912D01*
X52450130Y-100751610D01*
X52309018Y-100520390D01*
X52309017Y-100520388D01*
X52135746Y-100312181D01*
X52030758Y-100218112D01*
X51934002Y-100131418D01*
X51708090Y-99981956D01*
X51708086Y-99981954D01*
X51462822Y-99866978D01*
X51203437Y-99788941D01*
X51203431Y-99788940D01*
X50935439Y-99749500D01*
X50732369Y-99749500D01*
X50732366Y-99749500D01*
X50529843Y-99764322D01*
X50265449Y-99823219D01*
X50012441Y-99919986D01*
X49776223Y-100052559D01*
X49561825Y-100218109D01*
X49373813Y-100413120D01*
X49216201Y-100633420D01*
X49092342Y-100874329D01*
X49004881Y-101130695D01*
X48955680Y-101397066D01*
X48945787Y-101667764D01*
X43682919Y-101667764D01*
X43680578Y-101602211D01*
X43680500Y-101597786D01*
X43680500Y-90699999D01*
X59164340Y-90699999D01*
X59184936Y-90935407D01*
X59246097Y-91163662D01*
X59246097Y-91163663D01*
X59345965Y-91377829D01*
X59481505Y-91571401D01*
X59648599Y-91738495D01*
X59842171Y-91874035D01*
X60056337Y-91973903D01*
X60284592Y-92035063D01*
X60461032Y-92050500D01*
X60461034Y-92050500D01*
X60578966Y-92050500D01*
X60578968Y-92050500D01*
X60696594Y-92040208D01*
X60755408Y-92035063D01*
X60983663Y-91973903D01*
X61197829Y-91874035D01*
X61391401Y-91738495D01*
X61558495Y-91571401D01*
X61694035Y-91377830D01*
X61793903Y-91163663D01*
X61855063Y-90935408D01*
X61875659Y-90700000D01*
X61855063Y-90464592D01*
X61793903Y-90236337D01*
X61694035Y-90022171D01*
X61558495Y-89828599D01*
X61391401Y-89661505D01*
X61197829Y-89525965D01*
X60983663Y-89426097D01*
X60983662Y-89426096D01*
X60755407Y-89364936D01*
X60578968Y-89349500D01*
X60578966Y-89349500D01*
X60461034Y-89349500D01*
X60461032Y-89349500D01*
X60284592Y-89364936D01*
X60056336Y-89426097D01*
X59842170Y-89525965D01*
X59648598Y-89661505D01*
X59481508Y-89828595D01*
X59345964Y-90022172D01*
X59246097Y-90236337D01*
X59184936Y-90464592D01*
X59164340Y-90699999D01*
X43680500Y-90699999D01*
X43680500Y-66000000D01*
X49494531Y-66000000D01*
X49514364Y-66226689D01*
X49573261Y-66446497D01*
X49669432Y-66652735D01*
X49799953Y-66839140D01*
X49960859Y-67000046D01*
X50147264Y-67130567D01*
X50147265Y-67130567D01*
X50147266Y-67130568D01*
X50353504Y-67226739D01*
X50573308Y-67285635D01*
X50800000Y-67305468D01*
X51026692Y-67285635D01*
X51246496Y-67226739D01*
X51452734Y-67130568D01*
X51639139Y-67000047D01*
X51800047Y-66839139D01*
X51930568Y-66652734D01*
X52026739Y-66446496D01*
X52085635Y-66226692D01*
X52105468Y-66000000D01*
X52085635Y-65773308D01*
X52026739Y-65553504D01*
X51930568Y-65347266D01*
X51929117Y-65345194D01*
X51800046Y-65160859D01*
X51643162Y-65003975D01*
X51609916Y-64943730D01*
X51613908Y-64875037D01*
X51653907Y-64819048D01*
X51694046Y-64802633D01*
X51692890Y-64799534D01*
X51709229Y-64793439D01*
X51842331Y-64743796D01*
X51957546Y-64657546D01*
X52043796Y-64542331D01*
X52094091Y-64407483D01*
X52100500Y-64347873D01*
X52100499Y-62652128D01*
X52094091Y-62592517D01*
X52043796Y-62457669D01*
X51957546Y-62342454D01*
X51842331Y-62256204D01*
X51825663Y-62249987D01*
X51783430Y-62223550D01*
X51755012Y-62182620D01*
X51745000Y-62133807D01*
X51745000Y-61700000D01*
X59164340Y-61700000D01*
X59184936Y-61935407D01*
X59230701Y-62106204D01*
X59246097Y-62163663D01*
X59345965Y-62377829D01*
X59481505Y-62571401D01*
X59648599Y-62738495D01*
X59842171Y-62874035D01*
X60056337Y-62973903D01*
X60261229Y-63028803D01*
X60284592Y-63035063D01*
X60461032Y-63050500D01*
X60461034Y-63050500D01*
X60578966Y-63050500D01*
X60578968Y-63050500D01*
X60696593Y-63040208D01*
X60755408Y-63035063D01*
X60983663Y-62973903D01*
X61197829Y-62874035D01*
X61391401Y-62738495D01*
X61558495Y-62571401D01*
X61694035Y-62377830D01*
X61793903Y-62163663D01*
X61855063Y-61935408D01*
X61875659Y-61700000D01*
X61855063Y-61464592D01*
X61793903Y-61236337D01*
X61694035Y-61022171D01*
X61558495Y-60828599D01*
X61391401Y-60661505D01*
X61197829Y-60525965D01*
X60983663Y-60426097D01*
X60983662Y-60426096D01*
X60755407Y-60364936D01*
X60578968Y-60349500D01*
X60578966Y-60349500D01*
X60461034Y-60349500D01*
X60461032Y-60349500D01*
X60284592Y-60364936D01*
X60056336Y-60426097D01*
X59842170Y-60525965D01*
X59648598Y-60661505D01*
X59481508Y-60828595D01*
X59481505Y-60828598D01*
X59481505Y-60828599D01*
X59406741Y-60935374D01*
X59345964Y-61022172D01*
X59246097Y-61236337D01*
X59184936Y-61464592D01*
X59164340Y-61700000D01*
X51745000Y-61700000D01*
X51745000Y-57592794D01*
X51754439Y-57545341D01*
X51781319Y-57505113D01*
X54965113Y-54321319D01*
X55005341Y-54294439D01*
X55052794Y-54285000D01*
X61125501Y-54285000D01*
X61187501Y-54301613D01*
X61232888Y-54347000D01*
X61249501Y-54409000D01*
X61249501Y-55137872D01*
X61255909Y-55197483D01*
X61306204Y-55332331D01*
X61392454Y-55447546D01*
X61507669Y-55533796D01*
X61642517Y-55584091D01*
X61702127Y-55590500D01*
X65297872Y-55590499D01*
X65357483Y-55584091D01*
X65492331Y-55533796D01*
X65607546Y-55447546D01*
X65693796Y-55332331D01*
X65744091Y-55197483D01*
X65750500Y-55137873D01*
X65750500Y-54409000D01*
X65767113Y-54347000D01*
X65812500Y-54301613D01*
X65874500Y-54285000D01*
X111807918Y-54285000D01*
X111807920Y-54285000D01*
X111951208Y-54270429D01*
X112134588Y-54212893D01*
X112302632Y-54119621D01*
X112448461Y-53994431D01*
X112566104Y-53842449D01*
X112650745Y-53669896D01*
X112698919Y-53483837D01*
X112708654Y-53291890D01*
X112688563Y-53160748D01*
X112679550Y-53101911D01*
X112612800Y-52921681D01*
X112511137Y-52758576D01*
X112378722Y-52619277D01*
X112371443Y-52614211D01*
X112220975Y-52509482D01*
X112044357Y-52433689D01*
X111856097Y-52395000D01*
X111856095Y-52395000D01*
X65874499Y-52395000D01*
X65812499Y-52378387D01*
X65767112Y-52333000D01*
X65750499Y-52271000D01*
X65750499Y-51542130D01*
X65750499Y-51542127D01*
X65744091Y-51482517D01*
X65693796Y-51347669D01*
X65607546Y-51232454D01*
X65492331Y-51146204D01*
X65357483Y-51095909D01*
X65297873Y-51089500D01*
X65297869Y-51089500D01*
X61702130Y-51089500D01*
X61642515Y-51095909D01*
X61507669Y-51146204D01*
X61392454Y-51232454D01*
X61306203Y-51347671D01*
X61288572Y-51394940D01*
X61247064Y-51450600D01*
X61182142Y-51475221D01*
X61114163Y-51461083D01*
X61064441Y-51412620D01*
X61048566Y-51345026D01*
X61050500Y-51308628D01*
X61050500Y-50867764D01*
X125145787Y-50867764D01*
X125175413Y-51137016D01*
X125200364Y-51232454D01*
X125243928Y-51399088D01*
X125334418Y-51612029D01*
X125349871Y-51648392D01*
X125490982Y-51879611D01*
X125580253Y-51986881D01*
X125664255Y-52087820D01*
X125865998Y-52268582D01*
X126091910Y-52418044D01*
X126158150Y-52449096D01*
X126337177Y-52533021D01*
X126596562Y-52611058D01*
X126596569Y-52611060D01*
X126864561Y-52650500D01*
X127067631Y-52650500D01*
X127067634Y-52650500D01*
X127270156Y-52635677D01*
X127270156Y-52635676D01*
X127534553Y-52576780D01*
X127787558Y-52480014D01*
X128023777Y-52347441D01*
X128238177Y-52181888D01*
X128426186Y-51986881D01*
X128583799Y-51766579D01*
X128707656Y-51525675D01*
X128795118Y-51269305D01*
X128844319Y-51002933D01*
X128854212Y-50732235D01*
X128824586Y-50462982D01*
X128756072Y-50200912D01*
X128650130Y-49951610D01*
X128552227Y-49791190D01*
X128509017Y-49720388D01*
X128335746Y-49512181D01*
X128232239Y-49419439D01*
X128134002Y-49331418D01*
X127908090Y-49181956D01*
X127908086Y-49181954D01*
X127662822Y-49066978D01*
X127403437Y-48988941D01*
X127403431Y-48988940D01*
X127135439Y-48949500D01*
X126932369Y-48949500D01*
X126932366Y-48949500D01*
X126729843Y-48964322D01*
X126465449Y-49023219D01*
X126212441Y-49119986D01*
X125976223Y-49252559D01*
X125761825Y-49418109D01*
X125573813Y-49613120D01*
X125416201Y-49833420D01*
X125292342Y-50074329D01*
X125204881Y-50330695D01*
X125155680Y-50597066D01*
X125145787Y-50867764D01*
X61050500Y-50867764D01*
X61050500Y-49371369D01*
X61047705Y-49318761D01*
X61042335Y-49290993D01*
X61003245Y-49088874D01*
X60920574Y-48869810D01*
X60802070Y-48667868D01*
X60651142Y-48488858D01*
X60472132Y-48337930D01*
X60270190Y-48219426D01*
X60097389Y-48154214D01*
X61249500Y-48154214D01*
X61259904Y-48286416D01*
X61314902Y-48504681D01*
X61407992Y-48709625D01*
X61536180Y-48894654D01*
X61695345Y-49053819D01*
X61880374Y-49182007D01*
X62085318Y-49275097D01*
X62303583Y-49330095D01*
X62303584Y-49330095D01*
X62303588Y-49330096D01*
X62435783Y-49340500D01*
X64564216Y-49340499D01*
X64696412Y-49330096D01*
X64741404Y-49318759D01*
X64914681Y-49275097D01*
X64964300Y-49252559D01*
X65119626Y-49182007D01*
X65304654Y-49053819D01*
X65463819Y-48894654D01*
X65592007Y-48709626D01*
X65685096Y-48504683D01*
X65726090Y-48341998D01*
X65740095Y-48286416D01*
X65740095Y-48286415D01*
X65740096Y-48286412D01*
X65750500Y-48154217D01*
X65750499Y-46525784D01*
X65740096Y-46393588D01*
X65727525Y-46343699D01*
X65685097Y-46175318D01*
X65592007Y-45970374D01*
X65463819Y-45785345D01*
X65304654Y-45626180D01*
X65119625Y-45497992D01*
X64914681Y-45404902D01*
X64696416Y-45349904D01*
X64630314Y-45344701D01*
X64564217Y-45339500D01*
X64564213Y-45339500D01*
X62435785Y-45339500D01*
X62303583Y-45349904D01*
X62085318Y-45404902D01*
X61880374Y-45497992D01*
X61695345Y-45626180D01*
X61536180Y-45785345D01*
X61407992Y-45970374D01*
X61314902Y-46175318D01*
X61259904Y-46393583D01*
X61249500Y-46525786D01*
X61249500Y-48154214D01*
X60097389Y-48154214D01*
X60051126Y-48136755D01*
X60051123Y-48136754D01*
X60051122Y-48136754D01*
X59821238Y-48092294D01*
X59768631Y-48089500D01*
X59768622Y-48089500D01*
X57831378Y-48089500D01*
X57831369Y-48089500D01*
X57778761Y-48092294D01*
X57548877Y-48136754D01*
X57548874Y-48136754D01*
X57548874Y-48136755D01*
X57502603Y-48154217D01*
X57329807Y-48219427D01*
X57127868Y-48337930D01*
X56948858Y-48488858D01*
X56797930Y-48667868D01*
X56679427Y-48869807D01*
X56679425Y-48869810D01*
X56679426Y-48869810D01*
X56605018Y-49066980D01*
X56596754Y-49088877D01*
X56552294Y-49318761D01*
X56549500Y-49371369D01*
X56549500Y-51308631D01*
X56552294Y-51361238D01*
X56587279Y-51542130D01*
X56596755Y-51591126D01*
X56679426Y-51810190D01*
X56797930Y-52012132D01*
X56948798Y-52191071D01*
X56976907Y-52254597D01*
X56966441Y-52323272D01*
X56920684Y-52375541D01*
X56853997Y-52395000D01*
X54623526Y-52395000D01*
X54620385Y-52394960D01*
X54619176Y-52394929D01*
X54537873Y-52392868D01*
X54483292Y-52402651D01*
X54473963Y-52403960D01*
X54418787Y-52409571D01*
X54391788Y-52418042D01*
X54376550Y-52421782D01*
X54348697Y-52426774D01*
X54297188Y-52447349D01*
X54288315Y-52450508D01*
X54235411Y-52467107D01*
X54210675Y-52480837D01*
X54196498Y-52487570D01*
X54170209Y-52498071D01*
X54123902Y-52528589D01*
X54115848Y-52533469D01*
X54067367Y-52560379D01*
X54045899Y-52578808D01*
X54033372Y-52588253D01*
X54009733Y-52603833D01*
X53970516Y-52643050D01*
X53963608Y-52649453D01*
X53921536Y-52685571D01*
X53904216Y-52707946D01*
X53893844Y-52719722D01*
X50141370Y-56472197D01*
X50139123Y-56474388D01*
X50079275Y-56531279D01*
X50047591Y-56576800D01*
X50041921Y-56584320D01*
X50006882Y-56627293D01*
X49993779Y-56652375D01*
X49985650Y-56665792D01*
X49969483Y-56689020D01*
X49947612Y-56739985D01*
X49943572Y-56748493D01*
X49917896Y-56797648D01*
X49910113Y-56824849D01*
X49904850Y-56839634D01*
X49893688Y-56865644D01*
X49882525Y-56919961D01*
X49880281Y-56929106D01*
X49865026Y-56982424D01*
X49862877Y-57010637D01*
X49860697Y-57026177D01*
X49855000Y-57053902D01*
X49855000Y-57109364D01*
X49854642Y-57118779D01*
X49850432Y-57174064D01*
X49854006Y-57202127D01*
X49855000Y-57217792D01*
X49855000Y-62133807D01*
X49844988Y-62182620D01*
X49816570Y-62223550D01*
X49774336Y-62249987D01*
X49763907Y-62253877D01*
X49757668Y-62256204D01*
X49642454Y-62342454D01*
X49556204Y-62457668D01*
X49505909Y-62592516D01*
X49499500Y-62652130D01*
X49499500Y-64347869D01*
X49501427Y-64365789D01*
X49505909Y-64407483D01*
X49556204Y-64542331D01*
X49642454Y-64657546D01*
X49757669Y-64743796D01*
X49827926Y-64770000D01*
X49907110Y-64799534D01*
X49905953Y-64802633D01*
X49946092Y-64819047D01*
X49986091Y-64875036D01*
X49990083Y-64943730D01*
X49956838Y-65003975D01*
X49799950Y-65160863D01*
X49669432Y-65347264D01*
X49573261Y-65553502D01*
X49514364Y-65773310D01*
X49494531Y-66000000D01*
X43680500Y-66000000D01*
X43680500Y-50867764D01*
X48945787Y-50867764D01*
X48975413Y-51137016D01*
X49000364Y-51232454D01*
X49043928Y-51399088D01*
X49134418Y-51612029D01*
X49149871Y-51648392D01*
X49290982Y-51879611D01*
X49380253Y-51986881D01*
X49464255Y-52087820D01*
X49665998Y-52268582D01*
X49891910Y-52418044D01*
X49958150Y-52449096D01*
X50137177Y-52533021D01*
X50396562Y-52611058D01*
X50396569Y-52611060D01*
X50664561Y-52650500D01*
X50867631Y-52650500D01*
X50867634Y-52650500D01*
X51070156Y-52635677D01*
X51070156Y-52635676D01*
X51334553Y-52576780D01*
X51587558Y-52480014D01*
X51823777Y-52347441D01*
X52038177Y-52181888D01*
X52226186Y-51986881D01*
X52383799Y-51766579D01*
X52507656Y-51525675D01*
X52595118Y-51269305D01*
X52644319Y-51002933D01*
X52654212Y-50732235D01*
X52624586Y-50462982D01*
X52556072Y-50200912D01*
X52450130Y-49951610D01*
X52352227Y-49791190D01*
X52309017Y-49720388D01*
X52135746Y-49512181D01*
X52032239Y-49419439D01*
X51934002Y-49331418D01*
X51708090Y-49181956D01*
X51708086Y-49181954D01*
X51462822Y-49066978D01*
X51203437Y-48988941D01*
X51203431Y-48988940D01*
X50935439Y-48949500D01*
X50732369Y-48949500D01*
X50732366Y-48949500D01*
X50529843Y-48964322D01*
X50265449Y-49023219D01*
X50012441Y-49119986D01*
X49776223Y-49252559D01*
X49561825Y-49418109D01*
X49373813Y-49613120D01*
X49216201Y-49833420D01*
X49092342Y-50074329D01*
X49004881Y-50330695D01*
X48955680Y-50597066D01*
X48945787Y-50867764D01*
X43680500Y-50867764D01*
X43680500Y-50802214D01*
X43680579Y-50797788D01*
X43687748Y-50597066D01*
X43698482Y-50296513D01*
X43699110Y-50287724D01*
X43752495Y-49791163D01*
X43753748Y-49782455D01*
X43842422Y-49290965D01*
X43844293Y-49282369D01*
X43967799Y-48798478D01*
X43970289Y-48790001D01*
X44127989Y-48316186D01*
X44131078Y-48307904D01*
X44139979Y-48286416D01*
X44322188Y-47846524D01*
X44325858Y-47838491D01*
X44549389Y-47391932D01*
X44553605Y-47384208D01*
X44808450Y-46954690D01*
X44813213Y-46947280D01*
X45098025Y-46537076D01*
X45103322Y-46529999D01*
X45416679Y-46141145D01*
X45422441Y-46134496D01*
X45762742Y-45768986D01*
X45768993Y-45762736D01*
X46134496Y-45422441D01*
X46141145Y-45416679D01*
X46530005Y-45103317D01*
X46537085Y-45098018D01*
X46947268Y-44813222D01*
X46947280Y-44813213D01*
X46954690Y-44808450D01*
X47384208Y-44553605D01*
X47391932Y-44549389D01*
X47838506Y-44325850D01*
X47846524Y-44322188D01*
X48307915Y-44131073D01*
X48316186Y-44127989D01*
X48790014Y-43970284D01*
X48798478Y-43967799D01*
X49282369Y-43844293D01*
X49290965Y-43842422D01*
X49782455Y-43753748D01*
X49791163Y-43752495D01*
X50287724Y-43699110D01*
X50296513Y-43698482D01*
X50797788Y-43680578D01*
X50802214Y-43680500D01*
X50865892Y-43680500D01*
X126918838Y-43680500D01*
X126918846Y-43680501D01*
G37*
%TD.AperFunction*%
%TD*%
M02*
