%TF.GenerationSoftware,KiCad,Pcbnew,7.0.1*%
%TF.CreationDate,2023-04-06T15:25:49-05:00*%
%TF.ProjectId,mqtt_particle_sensor,6d717474-5f70-4617-9274-69636c655f73,B*%
%TF.SameCoordinates,Original*%
%TF.FileFunction,Legend,Bot*%
%TF.FilePolarity,Positive*%
%FSLAX46Y46*%
G04 Gerber Fmt 4.6, Leading zero omitted, Abs format (unit mm)*
G04 Created by KiCad (PCBNEW 7.0.1) date 2023-04-06 15:25:49*
%MOMM*%
%LPD*%
G01*
G04 APERTURE LIST*
%ADD10C,0.150000*%
%ADD11C,0.120000*%
G04 APERTURE END LIST*
D10*
X51147380Y-93622380D02*
X51623571Y-93955713D01*
X51147380Y-94193808D02*
X52147380Y-94193808D01*
X52147380Y-94193808D02*
X52147380Y-93812856D01*
X52147380Y-93812856D02*
X52099761Y-93717618D01*
X52099761Y-93717618D02*
X52052142Y-93669999D01*
X52052142Y-93669999D02*
X51956904Y-93622380D01*
X51956904Y-93622380D02*
X51814047Y-93622380D01*
X51814047Y-93622380D02*
X51718809Y-93669999D01*
X51718809Y-93669999D02*
X51671190Y-93717618D01*
X51671190Y-93717618D02*
X51623571Y-93812856D01*
X51623571Y-93812856D02*
X51623571Y-94193808D01*
X51671190Y-93193808D02*
X51671190Y-92860475D01*
X51147380Y-92717618D02*
X51147380Y-93193808D01*
X51147380Y-93193808D02*
X52147380Y-93193808D01*
X52147380Y-93193808D02*
X52147380Y-92717618D01*
X52147380Y-92431903D02*
X51147380Y-92098570D01*
X51147380Y-92098570D02*
X52147380Y-91765237D01*
X51147380Y-91431903D02*
X52147380Y-91431903D01*
X51195000Y-91003332D02*
X51147380Y-90860475D01*
X51147380Y-90860475D02*
X51147380Y-90622380D01*
X51147380Y-90622380D02*
X51195000Y-90527142D01*
X51195000Y-90527142D02*
X51242619Y-90479523D01*
X51242619Y-90479523D02*
X51337857Y-90431904D01*
X51337857Y-90431904D02*
X51433095Y-90431904D01*
X51433095Y-90431904D02*
X51528333Y-90479523D01*
X51528333Y-90479523D02*
X51575952Y-90527142D01*
X51575952Y-90527142D02*
X51623571Y-90622380D01*
X51623571Y-90622380D02*
X51671190Y-90812856D01*
X51671190Y-90812856D02*
X51718809Y-90908094D01*
X51718809Y-90908094D02*
X51766428Y-90955713D01*
X51766428Y-90955713D02*
X51861666Y-91003332D01*
X51861666Y-91003332D02*
X51956904Y-91003332D01*
X51956904Y-91003332D02*
X52052142Y-90955713D01*
X52052142Y-90955713D02*
X52099761Y-90908094D01*
X52099761Y-90908094D02*
X52147380Y-90812856D01*
X52147380Y-90812856D02*
X52147380Y-90574761D01*
X52147380Y-90574761D02*
X52099761Y-90431904D01*
X51147380Y-90003332D02*
X52147380Y-90003332D01*
X52147380Y-89336666D02*
X52147380Y-89146190D01*
X52147380Y-89146190D02*
X52099761Y-89050952D01*
X52099761Y-89050952D02*
X52004523Y-88955714D01*
X52004523Y-88955714D02*
X51814047Y-88908095D01*
X51814047Y-88908095D02*
X51480714Y-88908095D01*
X51480714Y-88908095D02*
X51290238Y-88955714D01*
X51290238Y-88955714D02*
X51195000Y-89050952D01*
X51195000Y-89050952D02*
X51147380Y-89146190D01*
X51147380Y-89146190D02*
X51147380Y-89336666D01*
X51147380Y-89336666D02*
X51195000Y-89431904D01*
X51195000Y-89431904D02*
X51290238Y-89527142D01*
X51290238Y-89527142D02*
X51480714Y-89574761D01*
X51480714Y-89574761D02*
X51814047Y-89574761D01*
X51814047Y-89574761D02*
X52004523Y-89527142D01*
X52004523Y-89527142D02*
X52099761Y-89431904D01*
X52099761Y-89431904D02*
X52147380Y-89336666D01*
X51147380Y-88479523D02*
X52147380Y-88479523D01*
X52147380Y-88479523D02*
X51147380Y-87908095D01*
X51147380Y-87908095D02*
X52147380Y-87908095D01*
X51671190Y-86336666D02*
X51623571Y-86193809D01*
X51623571Y-86193809D02*
X51575952Y-86146190D01*
X51575952Y-86146190D02*
X51480714Y-86098571D01*
X51480714Y-86098571D02*
X51337857Y-86098571D01*
X51337857Y-86098571D02*
X51242619Y-86146190D01*
X51242619Y-86146190D02*
X51195000Y-86193809D01*
X51195000Y-86193809D02*
X51147380Y-86289047D01*
X51147380Y-86289047D02*
X51147380Y-86669999D01*
X51147380Y-86669999D02*
X52147380Y-86669999D01*
X52147380Y-86669999D02*
X52147380Y-86336666D01*
X52147380Y-86336666D02*
X52099761Y-86241428D01*
X52099761Y-86241428D02*
X52052142Y-86193809D01*
X52052142Y-86193809D02*
X51956904Y-86146190D01*
X51956904Y-86146190D02*
X51861666Y-86146190D01*
X51861666Y-86146190D02*
X51766428Y-86193809D01*
X51766428Y-86193809D02*
X51718809Y-86241428D01*
X51718809Y-86241428D02*
X51671190Y-86336666D01*
X51671190Y-86336666D02*
X51671190Y-86669999D01*
X49813095Y-94336666D02*
X49813095Y-93860476D01*
X49527380Y-94431904D02*
X50527380Y-94098571D01*
X50527380Y-94098571D02*
X49527380Y-93765238D01*
X49527380Y-93431904D02*
X50527380Y-93431904D01*
X50527380Y-93431904D02*
X50527380Y-93050952D01*
X50527380Y-93050952D02*
X50479761Y-92955714D01*
X50479761Y-92955714D02*
X50432142Y-92908095D01*
X50432142Y-92908095D02*
X50336904Y-92860476D01*
X50336904Y-92860476D02*
X50194047Y-92860476D01*
X50194047Y-92860476D02*
X50098809Y-92908095D01*
X50098809Y-92908095D02*
X50051190Y-92955714D01*
X50051190Y-92955714D02*
X50003571Y-93050952D01*
X50003571Y-93050952D02*
X50003571Y-93431904D01*
X49527380Y-91860476D02*
X50003571Y-92193809D01*
X49527380Y-92431904D02*
X50527380Y-92431904D01*
X50527380Y-92431904D02*
X50527380Y-92050952D01*
X50527380Y-92050952D02*
X50479761Y-91955714D01*
X50479761Y-91955714D02*
X50432142Y-91908095D01*
X50432142Y-91908095D02*
X50336904Y-91860476D01*
X50336904Y-91860476D02*
X50194047Y-91860476D01*
X50194047Y-91860476D02*
X50098809Y-91908095D01*
X50098809Y-91908095D02*
X50051190Y-91955714D01*
X50051190Y-91955714D02*
X50003571Y-92050952D01*
X50003571Y-92050952D02*
X50003571Y-92431904D01*
X49527380Y-91431904D02*
X50527380Y-91431904D01*
X49527380Y-90479524D02*
X49527380Y-90955714D01*
X49527380Y-90955714D02*
X50527380Y-90955714D01*
X50432142Y-89431904D02*
X50479761Y-89384285D01*
X50479761Y-89384285D02*
X50527380Y-89289047D01*
X50527380Y-89289047D02*
X50527380Y-89050952D01*
X50527380Y-89050952D02*
X50479761Y-88955714D01*
X50479761Y-88955714D02*
X50432142Y-88908095D01*
X50432142Y-88908095D02*
X50336904Y-88860476D01*
X50336904Y-88860476D02*
X50241666Y-88860476D01*
X50241666Y-88860476D02*
X50098809Y-88908095D01*
X50098809Y-88908095D02*
X49527380Y-89479523D01*
X49527380Y-89479523D02*
X49527380Y-88860476D01*
X50527380Y-88241428D02*
X50527380Y-88146190D01*
X50527380Y-88146190D02*
X50479761Y-88050952D01*
X50479761Y-88050952D02*
X50432142Y-88003333D01*
X50432142Y-88003333D02*
X50336904Y-87955714D01*
X50336904Y-87955714D02*
X50146428Y-87908095D01*
X50146428Y-87908095D02*
X49908333Y-87908095D01*
X49908333Y-87908095D02*
X49717857Y-87955714D01*
X49717857Y-87955714D02*
X49622619Y-88003333D01*
X49622619Y-88003333D02*
X49575000Y-88050952D01*
X49575000Y-88050952D02*
X49527380Y-88146190D01*
X49527380Y-88146190D02*
X49527380Y-88241428D01*
X49527380Y-88241428D02*
X49575000Y-88336666D01*
X49575000Y-88336666D02*
X49622619Y-88384285D01*
X49622619Y-88384285D02*
X49717857Y-88431904D01*
X49717857Y-88431904D02*
X49908333Y-88479523D01*
X49908333Y-88479523D02*
X50146428Y-88479523D01*
X50146428Y-88479523D02*
X50336904Y-88431904D01*
X50336904Y-88431904D02*
X50432142Y-88384285D01*
X50432142Y-88384285D02*
X50479761Y-88336666D01*
X50479761Y-88336666D02*
X50527380Y-88241428D01*
X50432142Y-87527142D02*
X50479761Y-87479523D01*
X50479761Y-87479523D02*
X50527380Y-87384285D01*
X50527380Y-87384285D02*
X50527380Y-87146190D01*
X50527380Y-87146190D02*
X50479761Y-87050952D01*
X50479761Y-87050952D02*
X50432142Y-87003333D01*
X50432142Y-87003333D02*
X50336904Y-86955714D01*
X50336904Y-86955714D02*
X50241666Y-86955714D01*
X50241666Y-86955714D02*
X50098809Y-87003333D01*
X50098809Y-87003333D02*
X49527380Y-87574761D01*
X49527380Y-87574761D02*
X49527380Y-86955714D01*
X50527380Y-86622380D02*
X50527380Y-86003333D01*
X50527380Y-86003333D02*
X50146428Y-86336666D01*
X50146428Y-86336666D02*
X50146428Y-86193809D01*
X50146428Y-86193809D02*
X50098809Y-86098571D01*
X50098809Y-86098571D02*
X50051190Y-86050952D01*
X50051190Y-86050952D02*
X49955952Y-86003333D01*
X49955952Y-86003333D02*
X49717857Y-86003333D01*
X49717857Y-86003333D02*
X49622619Y-86050952D01*
X49622619Y-86050952D02*
X49575000Y-86098571D01*
X49575000Y-86098571D02*
X49527380Y-86193809D01*
X49527380Y-86193809D02*
X49527380Y-86479523D01*
X49527380Y-86479523D02*
X49575000Y-86574761D01*
X49575000Y-86574761D02*
X49622619Y-86622380D01*
X106631428Y-100442619D02*
X106631428Y-99442619D01*
X106202857Y-100442619D02*
X106202857Y-99918809D01*
X106202857Y-99918809D02*
X106250476Y-99823571D01*
X106250476Y-99823571D02*
X106345714Y-99775952D01*
X106345714Y-99775952D02*
X106488571Y-99775952D01*
X106488571Y-99775952D02*
X106583809Y-99823571D01*
X106583809Y-99823571D02*
X106631428Y-99871190D01*
X105869523Y-99775952D02*
X105488571Y-99775952D01*
X105726666Y-99442619D02*
X105726666Y-100299761D01*
X105726666Y-100299761D02*
X105679047Y-100395000D01*
X105679047Y-100395000D02*
X105583809Y-100442619D01*
X105583809Y-100442619D02*
X105488571Y-100442619D01*
X105298094Y-99775952D02*
X104917142Y-99775952D01*
X105155237Y-99442619D02*
X105155237Y-100299761D01*
X105155237Y-100299761D02*
X105107618Y-100395000D01*
X105107618Y-100395000D02*
X105012380Y-100442619D01*
X105012380Y-100442619D02*
X104917142Y-100442619D01*
X104583808Y-99775952D02*
X104583808Y-100775952D01*
X104583808Y-99823571D02*
X104488570Y-99775952D01*
X104488570Y-99775952D02*
X104298094Y-99775952D01*
X104298094Y-99775952D02*
X104202856Y-99823571D01*
X104202856Y-99823571D02*
X104155237Y-99871190D01*
X104155237Y-99871190D02*
X104107618Y-99966428D01*
X104107618Y-99966428D02*
X104107618Y-100252142D01*
X104107618Y-100252142D02*
X104155237Y-100347380D01*
X104155237Y-100347380D02*
X104202856Y-100395000D01*
X104202856Y-100395000D02*
X104298094Y-100442619D01*
X104298094Y-100442619D02*
X104488570Y-100442619D01*
X104488570Y-100442619D02*
X104583808Y-100395000D01*
X103726665Y-100395000D02*
X103631427Y-100442619D01*
X103631427Y-100442619D02*
X103440951Y-100442619D01*
X103440951Y-100442619D02*
X103345713Y-100395000D01*
X103345713Y-100395000D02*
X103298094Y-100299761D01*
X103298094Y-100299761D02*
X103298094Y-100252142D01*
X103298094Y-100252142D02*
X103345713Y-100156904D01*
X103345713Y-100156904D02*
X103440951Y-100109285D01*
X103440951Y-100109285D02*
X103583808Y-100109285D01*
X103583808Y-100109285D02*
X103679046Y-100061666D01*
X103679046Y-100061666D02*
X103726665Y-99966428D01*
X103726665Y-99966428D02*
X103726665Y-99918809D01*
X103726665Y-99918809D02*
X103679046Y-99823571D01*
X103679046Y-99823571D02*
X103583808Y-99775952D01*
X103583808Y-99775952D02*
X103440951Y-99775952D01*
X103440951Y-99775952D02*
X103345713Y-99823571D01*
X102869522Y-100347380D02*
X102821903Y-100395000D01*
X102821903Y-100395000D02*
X102869522Y-100442619D01*
X102869522Y-100442619D02*
X102917141Y-100395000D01*
X102917141Y-100395000D02*
X102869522Y-100347380D01*
X102869522Y-100347380D02*
X102869522Y-100442619D01*
X102869522Y-99823571D02*
X102821903Y-99871190D01*
X102821903Y-99871190D02*
X102869522Y-99918809D01*
X102869522Y-99918809D02*
X102917141Y-99871190D01*
X102917141Y-99871190D02*
X102869522Y-99823571D01*
X102869522Y-99823571D02*
X102869522Y-99918809D01*
X101679047Y-99395000D02*
X102536189Y-100680714D01*
X100631428Y-99395000D02*
X101488570Y-100680714D01*
X99869523Y-99775952D02*
X99869523Y-100585476D01*
X99869523Y-100585476D02*
X99917142Y-100680714D01*
X99917142Y-100680714D02*
X99964761Y-100728333D01*
X99964761Y-100728333D02*
X100059999Y-100775952D01*
X100059999Y-100775952D02*
X100202856Y-100775952D01*
X100202856Y-100775952D02*
X100298094Y-100728333D01*
X99869523Y-100395000D02*
X99964761Y-100442619D01*
X99964761Y-100442619D02*
X100155237Y-100442619D01*
X100155237Y-100442619D02*
X100250475Y-100395000D01*
X100250475Y-100395000D02*
X100298094Y-100347380D01*
X100298094Y-100347380D02*
X100345713Y-100252142D01*
X100345713Y-100252142D02*
X100345713Y-99966428D01*
X100345713Y-99966428D02*
X100298094Y-99871190D01*
X100298094Y-99871190D02*
X100250475Y-99823571D01*
X100250475Y-99823571D02*
X100155237Y-99775952D01*
X100155237Y-99775952D02*
X99964761Y-99775952D01*
X99964761Y-99775952D02*
X99869523Y-99823571D01*
X99393332Y-100442619D02*
X99393332Y-99775952D01*
X99393332Y-99442619D02*
X99440951Y-99490238D01*
X99440951Y-99490238D02*
X99393332Y-99537857D01*
X99393332Y-99537857D02*
X99345713Y-99490238D01*
X99345713Y-99490238D02*
X99393332Y-99442619D01*
X99393332Y-99442619D02*
X99393332Y-99537857D01*
X99059999Y-99775952D02*
X98679047Y-99775952D01*
X98917142Y-99442619D02*
X98917142Y-100299761D01*
X98917142Y-100299761D02*
X98869523Y-100395000D01*
X98869523Y-100395000D02*
X98774285Y-100442619D01*
X98774285Y-100442619D02*
X98679047Y-100442619D01*
X98345713Y-100442619D02*
X98345713Y-99442619D01*
X97917142Y-100442619D02*
X97917142Y-99918809D01*
X97917142Y-99918809D02*
X97964761Y-99823571D01*
X97964761Y-99823571D02*
X98059999Y-99775952D01*
X98059999Y-99775952D02*
X98202856Y-99775952D01*
X98202856Y-99775952D02*
X98298094Y-99823571D01*
X98298094Y-99823571D02*
X98345713Y-99871190D01*
X97012380Y-99775952D02*
X97012380Y-100442619D01*
X97440951Y-99775952D02*
X97440951Y-100299761D01*
X97440951Y-100299761D02*
X97393332Y-100395000D01*
X97393332Y-100395000D02*
X97298094Y-100442619D01*
X97298094Y-100442619D02*
X97155237Y-100442619D01*
X97155237Y-100442619D02*
X97059999Y-100395000D01*
X97059999Y-100395000D02*
X97012380Y-100347380D01*
X96536189Y-100442619D02*
X96536189Y-99442619D01*
X96536189Y-99823571D02*
X96440951Y-99775952D01*
X96440951Y-99775952D02*
X96250475Y-99775952D01*
X96250475Y-99775952D02*
X96155237Y-99823571D01*
X96155237Y-99823571D02*
X96107618Y-99871190D01*
X96107618Y-99871190D02*
X96059999Y-99966428D01*
X96059999Y-99966428D02*
X96059999Y-100252142D01*
X96059999Y-100252142D02*
X96107618Y-100347380D01*
X96107618Y-100347380D02*
X96155237Y-100395000D01*
X96155237Y-100395000D02*
X96250475Y-100442619D01*
X96250475Y-100442619D02*
X96440951Y-100442619D01*
X96440951Y-100442619D02*
X96536189Y-100395000D01*
X95631427Y-100347380D02*
X95583808Y-100395000D01*
X95583808Y-100395000D02*
X95631427Y-100442619D01*
X95631427Y-100442619D02*
X95679046Y-100395000D01*
X95679046Y-100395000D02*
X95631427Y-100347380D01*
X95631427Y-100347380D02*
X95631427Y-100442619D01*
X94726666Y-100395000D02*
X94821904Y-100442619D01*
X94821904Y-100442619D02*
X95012380Y-100442619D01*
X95012380Y-100442619D02*
X95107618Y-100395000D01*
X95107618Y-100395000D02*
X95155237Y-100347380D01*
X95155237Y-100347380D02*
X95202856Y-100252142D01*
X95202856Y-100252142D02*
X95202856Y-99966428D01*
X95202856Y-99966428D02*
X95155237Y-99871190D01*
X95155237Y-99871190D02*
X95107618Y-99823571D01*
X95107618Y-99823571D02*
X95012380Y-99775952D01*
X95012380Y-99775952D02*
X94821904Y-99775952D01*
X94821904Y-99775952D02*
X94726666Y-99823571D01*
X94155237Y-100442619D02*
X94250475Y-100395000D01*
X94250475Y-100395000D02*
X94298094Y-100347380D01*
X94298094Y-100347380D02*
X94345713Y-100252142D01*
X94345713Y-100252142D02*
X94345713Y-99966428D01*
X94345713Y-99966428D02*
X94298094Y-99871190D01*
X94298094Y-99871190D02*
X94250475Y-99823571D01*
X94250475Y-99823571D02*
X94155237Y-99775952D01*
X94155237Y-99775952D02*
X94012380Y-99775952D01*
X94012380Y-99775952D02*
X93917142Y-99823571D01*
X93917142Y-99823571D02*
X93869523Y-99871190D01*
X93869523Y-99871190D02*
X93821904Y-99966428D01*
X93821904Y-99966428D02*
X93821904Y-100252142D01*
X93821904Y-100252142D02*
X93869523Y-100347380D01*
X93869523Y-100347380D02*
X93917142Y-100395000D01*
X93917142Y-100395000D02*
X94012380Y-100442619D01*
X94012380Y-100442619D02*
X94155237Y-100442619D01*
X93393332Y-100442619D02*
X93393332Y-99775952D01*
X93393332Y-99871190D02*
X93345713Y-99823571D01*
X93345713Y-99823571D02*
X93250475Y-99775952D01*
X93250475Y-99775952D02*
X93107618Y-99775952D01*
X93107618Y-99775952D02*
X93012380Y-99823571D01*
X93012380Y-99823571D02*
X92964761Y-99918809D01*
X92964761Y-99918809D02*
X92964761Y-100442619D01*
X92964761Y-99918809D02*
X92917142Y-99823571D01*
X92917142Y-99823571D02*
X92821904Y-99775952D01*
X92821904Y-99775952D02*
X92679047Y-99775952D01*
X92679047Y-99775952D02*
X92583808Y-99823571D01*
X92583808Y-99823571D02*
X92536189Y-99918809D01*
X92536189Y-99918809D02*
X92536189Y-100442619D01*
X91345714Y-99395000D02*
X92202856Y-100680714D01*
X109012380Y-101395952D02*
X109012380Y-102062619D01*
X109440951Y-101395952D02*
X109440951Y-101919761D01*
X109440951Y-101919761D02*
X109393332Y-102015000D01*
X109393332Y-102015000D02*
X109298094Y-102062619D01*
X109298094Y-102062619D02*
X109155237Y-102062619D01*
X109155237Y-102062619D02*
X109059999Y-102015000D01*
X109059999Y-102015000D02*
X109012380Y-101967380D01*
X108631427Y-101395952D02*
X108440951Y-102062619D01*
X108440951Y-102062619D02*
X108250475Y-101586428D01*
X108250475Y-101586428D02*
X108059999Y-102062619D01*
X108059999Y-102062619D02*
X107869523Y-101395952D01*
X107488570Y-101681666D02*
X106726666Y-101681666D01*
X106250475Y-102062619D02*
X106250475Y-101395952D01*
X106250475Y-101491190D02*
X106202856Y-101443571D01*
X106202856Y-101443571D02*
X106107618Y-101395952D01*
X106107618Y-101395952D02*
X105964761Y-101395952D01*
X105964761Y-101395952D02*
X105869523Y-101443571D01*
X105869523Y-101443571D02*
X105821904Y-101538809D01*
X105821904Y-101538809D02*
X105821904Y-102062619D01*
X105821904Y-101538809D02*
X105774285Y-101443571D01*
X105774285Y-101443571D02*
X105679047Y-101395952D01*
X105679047Y-101395952D02*
X105536190Y-101395952D01*
X105536190Y-101395952D02*
X105440951Y-101443571D01*
X105440951Y-101443571D02*
X105393332Y-101538809D01*
X105393332Y-101538809D02*
X105393332Y-102062619D01*
X104488571Y-102062619D02*
X104488571Y-101538809D01*
X104488571Y-101538809D02*
X104536190Y-101443571D01*
X104536190Y-101443571D02*
X104631428Y-101395952D01*
X104631428Y-101395952D02*
X104821904Y-101395952D01*
X104821904Y-101395952D02*
X104917142Y-101443571D01*
X104488571Y-102015000D02*
X104583809Y-102062619D01*
X104583809Y-102062619D02*
X104821904Y-102062619D01*
X104821904Y-102062619D02*
X104917142Y-102015000D01*
X104917142Y-102015000D02*
X104964761Y-101919761D01*
X104964761Y-101919761D02*
X104964761Y-101824523D01*
X104964761Y-101824523D02*
X104917142Y-101729285D01*
X104917142Y-101729285D02*
X104821904Y-101681666D01*
X104821904Y-101681666D02*
X104583809Y-101681666D01*
X104583809Y-101681666D02*
X104488571Y-101634047D01*
X103583809Y-102062619D02*
X103583809Y-101062619D01*
X103583809Y-102015000D02*
X103679047Y-102062619D01*
X103679047Y-102062619D02*
X103869523Y-102062619D01*
X103869523Y-102062619D02*
X103964761Y-102015000D01*
X103964761Y-102015000D02*
X104012380Y-101967380D01*
X104012380Y-101967380D02*
X104059999Y-101872142D01*
X104059999Y-101872142D02*
X104059999Y-101586428D01*
X104059999Y-101586428D02*
X104012380Y-101491190D01*
X104012380Y-101491190D02*
X103964761Y-101443571D01*
X103964761Y-101443571D02*
X103869523Y-101395952D01*
X103869523Y-101395952D02*
X103679047Y-101395952D01*
X103679047Y-101395952D02*
X103583809Y-101443571D01*
X103107618Y-102062619D02*
X103107618Y-101395952D01*
X103107618Y-101062619D02*
X103155237Y-101110238D01*
X103155237Y-101110238D02*
X103107618Y-101157857D01*
X103107618Y-101157857D02*
X103059999Y-101110238D01*
X103059999Y-101110238D02*
X103107618Y-101062619D01*
X103107618Y-101062619D02*
X103107618Y-101157857D01*
X102679047Y-102015000D02*
X102583809Y-102062619D01*
X102583809Y-102062619D02*
X102393333Y-102062619D01*
X102393333Y-102062619D02*
X102298095Y-102015000D01*
X102298095Y-102015000D02*
X102250476Y-101919761D01*
X102250476Y-101919761D02*
X102250476Y-101872142D01*
X102250476Y-101872142D02*
X102298095Y-101776904D01*
X102298095Y-101776904D02*
X102393333Y-101729285D01*
X102393333Y-101729285D02*
X102536190Y-101729285D01*
X102536190Y-101729285D02*
X102631428Y-101681666D01*
X102631428Y-101681666D02*
X102679047Y-101586428D01*
X102679047Y-101586428D02*
X102679047Y-101538809D01*
X102679047Y-101538809D02*
X102631428Y-101443571D01*
X102631428Y-101443571D02*
X102536190Y-101395952D01*
X102536190Y-101395952D02*
X102393333Y-101395952D01*
X102393333Y-101395952D02*
X102298095Y-101443571D01*
X101679047Y-102062619D02*
X101774285Y-102015000D01*
X101774285Y-102015000D02*
X101821904Y-101967380D01*
X101821904Y-101967380D02*
X101869523Y-101872142D01*
X101869523Y-101872142D02*
X101869523Y-101586428D01*
X101869523Y-101586428D02*
X101821904Y-101491190D01*
X101821904Y-101491190D02*
X101774285Y-101443571D01*
X101774285Y-101443571D02*
X101679047Y-101395952D01*
X101679047Y-101395952D02*
X101536190Y-101395952D01*
X101536190Y-101395952D02*
X101440952Y-101443571D01*
X101440952Y-101443571D02*
X101393333Y-101491190D01*
X101393333Y-101491190D02*
X101345714Y-101586428D01*
X101345714Y-101586428D02*
X101345714Y-101872142D01*
X101345714Y-101872142D02*
X101393333Y-101967380D01*
X101393333Y-101967380D02*
X101440952Y-102015000D01*
X101440952Y-102015000D02*
X101536190Y-102062619D01*
X101536190Y-102062619D02*
X101679047Y-102062619D01*
X100917142Y-101395952D02*
X100917142Y-102062619D01*
X100917142Y-101491190D02*
X100869523Y-101443571D01*
X100869523Y-101443571D02*
X100774285Y-101395952D01*
X100774285Y-101395952D02*
X100631428Y-101395952D01*
X100631428Y-101395952D02*
X100536190Y-101443571D01*
X100536190Y-101443571D02*
X100488571Y-101538809D01*
X100488571Y-101538809D02*
X100488571Y-102062619D01*
X100012380Y-101681666D02*
X99250476Y-101681666D01*
X98345714Y-102015000D02*
X98440952Y-102062619D01*
X98440952Y-102062619D02*
X98631428Y-102062619D01*
X98631428Y-102062619D02*
X98726666Y-102015000D01*
X98726666Y-102015000D02*
X98774285Y-101967380D01*
X98774285Y-101967380D02*
X98821904Y-101872142D01*
X98821904Y-101872142D02*
X98821904Y-101586428D01*
X98821904Y-101586428D02*
X98774285Y-101491190D01*
X98774285Y-101491190D02*
X98726666Y-101443571D01*
X98726666Y-101443571D02*
X98631428Y-101395952D01*
X98631428Y-101395952D02*
X98440952Y-101395952D01*
X98440952Y-101395952D02*
X98345714Y-101443571D01*
X97917142Y-102062619D02*
X97917142Y-101062619D01*
X97488571Y-102062619D02*
X97488571Y-101538809D01*
X97488571Y-101538809D02*
X97536190Y-101443571D01*
X97536190Y-101443571D02*
X97631428Y-101395952D01*
X97631428Y-101395952D02*
X97774285Y-101395952D01*
X97774285Y-101395952D02*
X97869523Y-101443571D01*
X97869523Y-101443571D02*
X97917142Y-101491190D01*
X96631428Y-102015000D02*
X96726666Y-102062619D01*
X96726666Y-102062619D02*
X96917142Y-102062619D01*
X96917142Y-102062619D02*
X97012380Y-102015000D01*
X97012380Y-102015000D02*
X97059999Y-101919761D01*
X97059999Y-101919761D02*
X97059999Y-101538809D01*
X97059999Y-101538809D02*
X97012380Y-101443571D01*
X97012380Y-101443571D02*
X96917142Y-101395952D01*
X96917142Y-101395952D02*
X96726666Y-101395952D01*
X96726666Y-101395952D02*
X96631428Y-101443571D01*
X96631428Y-101443571D02*
X96583809Y-101538809D01*
X96583809Y-101538809D02*
X96583809Y-101634047D01*
X96583809Y-101634047D02*
X97059999Y-101729285D01*
X96155237Y-102062619D02*
X96155237Y-101395952D01*
X96155237Y-101491190D02*
X96107618Y-101443571D01*
X96107618Y-101443571D02*
X96012380Y-101395952D01*
X96012380Y-101395952D02*
X95869523Y-101395952D01*
X95869523Y-101395952D02*
X95774285Y-101443571D01*
X95774285Y-101443571D02*
X95726666Y-101538809D01*
X95726666Y-101538809D02*
X95726666Y-102062619D01*
X95726666Y-101538809D02*
X95679047Y-101443571D01*
X95679047Y-101443571D02*
X95583809Y-101395952D01*
X95583809Y-101395952D02*
X95440952Y-101395952D01*
X95440952Y-101395952D02*
X95345713Y-101443571D01*
X95345713Y-101443571D02*
X95298094Y-101538809D01*
X95298094Y-101538809D02*
X95298094Y-102062619D01*
X94821904Y-101681666D02*
X94060000Y-101681666D01*
X93631428Y-102015000D02*
X93536190Y-102062619D01*
X93536190Y-102062619D02*
X93345714Y-102062619D01*
X93345714Y-102062619D02*
X93250476Y-102015000D01*
X93250476Y-102015000D02*
X93202857Y-101919761D01*
X93202857Y-101919761D02*
X93202857Y-101872142D01*
X93202857Y-101872142D02*
X93250476Y-101776904D01*
X93250476Y-101776904D02*
X93345714Y-101729285D01*
X93345714Y-101729285D02*
X93488571Y-101729285D01*
X93488571Y-101729285D02*
X93583809Y-101681666D01*
X93583809Y-101681666D02*
X93631428Y-101586428D01*
X93631428Y-101586428D02*
X93631428Y-101538809D01*
X93631428Y-101538809D02*
X93583809Y-101443571D01*
X93583809Y-101443571D02*
X93488571Y-101395952D01*
X93488571Y-101395952D02*
X93345714Y-101395952D01*
X93345714Y-101395952D02*
X93250476Y-101443571D01*
X92774285Y-102062619D02*
X92774285Y-101062619D01*
X92345714Y-102062619D02*
X92345714Y-101538809D01*
X92345714Y-101538809D02*
X92393333Y-101443571D01*
X92393333Y-101443571D02*
X92488571Y-101395952D01*
X92488571Y-101395952D02*
X92631428Y-101395952D01*
X92631428Y-101395952D02*
X92726666Y-101443571D01*
X92726666Y-101443571D02*
X92774285Y-101491190D01*
X91726666Y-102062619D02*
X91821904Y-102015000D01*
X91821904Y-102015000D02*
X91869523Y-101967380D01*
X91869523Y-101967380D02*
X91917142Y-101872142D01*
X91917142Y-101872142D02*
X91917142Y-101586428D01*
X91917142Y-101586428D02*
X91869523Y-101491190D01*
X91869523Y-101491190D02*
X91821904Y-101443571D01*
X91821904Y-101443571D02*
X91726666Y-101395952D01*
X91726666Y-101395952D02*
X91583809Y-101395952D01*
X91583809Y-101395952D02*
X91488571Y-101443571D01*
X91488571Y-101443571D02*
X91440952Y-101491190D01*
X91440952Y-101491190D02*
X91393333Y-101586428D01*
X91393333Y-101586428D02*
X91393333Y-101872142D01*
X91393333Y-101872142D02*
X91440952Y-101967380D01*
X91440952Y-101967380D02*
X91488571Y-102015000D01*
X91488571Y-102015000D02*
X91583809Y-102062619D01*
X91583809Y-102062619D02*
X91726666Y-102062619D01*
X90964761Y-101395952D02*
X90964761Y-102395952D01*
X90964761Y-101443571D02*
X90869523Y-101395952D01*
X90869523Y-101395952D02*
X90679047Y-101395952D01*
X90679047Y-101395952D02*
X90583809Y-101443571D01*
X90583809Y-101443571D02*
X90536190Y-101491190D01*
X90536190Y-101491190D02*
X90488571Y-101586428D01*
X90488571Y-101586428D02*
X90488571Y-101872142D01*
X90488571Y-101872142D02*
X90536190Y-101967380D01*
X90536190Y-101967380D02*
X90583809Y-102015000D01*
X90583809Y-102015000D02*
X90679047Y-102062619D01*
X90679047Y-102062619D02*
X90869523Y-102062619D01*
X90869523Y-102062619D02*
X90964761Y-102015000D01*
X90107618Y-102015000D02*
X90012380Y-102062619D01*
X90012380Y-102062619D02*
X89821904Y-102062619D01*
X89821904Y-102062619D02*
X89726666Y-102015000D01*
X89726666Y-102015000D02*
X89679047Y-101919761D01*
X89679047Y-101919761D02*
X89679047Y-101872142D01*
X89679047Y-101872142D02*
X89726666Y-101776904D01*
X89726666Y-101776904D02*
X89821904Y-101729285D01*
X89821904Y-101729285D02*
X89964761Y-101729285D01*
X89964761Y-101729285D02*
X90059999Y-101681666D01*
X90059999Y-101681666D02*
X90107618Y-101586428D01*
X90107618Y-101586428D02*
X90107618Y-101538809D01*
X90107618Y-101538809D02*
X90059999Y-101443571D01*
X90059999Y-101443571D02*
X89964761Y-101395952D01*
X89964761Y-101395952D02*
X89821904Y-101395952D01*
X89821904Y-101395952D02*
X89726666Y-101443571D01*
X88536190Y-101015000D02*
X89393332Y-102300714D01*
X107060000Y-103682619D02*
X107060000Y-103015952D01*
X107060000Y-103111190D02*
X107012381Y-103063571D01*
X107012381Y-103063571D02*
X106917143Y-103015952D01*
X106917143Y-103015952D02*
X106774286Y-103015952D01*
X106774286Y-103015952D02*
X106679048Y-103063571D01*
X106679048Y-103063571D02*
X106631429Y-103158809D01*
X106631429Y-103158809D02*
X106631429Y-103682619D01*
X106631429Y-103158809D02*
X106583810Y-103063571D01*
X106583810Y-103063571D02*
X106488572Y-103015952D01*
X106488572Y-103015952D02*
X106345715Y-103015952D01*
X106345715Y-103015952D02*
X106250476Y-103063571D01*
X106250476Y-103063571D02*
X106202857Y-103158809D01*
X106202857Y-103158809D02*
X106202857Y-103682619D01*
X105298096Y-103015952D02*
X105298096Y-104015952D01*
X105298096Y-103635000D02*
X105393334Y-103682619D01*
X105393334Y-103682619D02*
X105583810Y-103682619D01*
X105583810Y-103682619D02*
X105679048Y-103635000D01*
X105679048Y-103635000D02*
X105726667Y-103587380D01*
X105726667Y-103587380D02*
X105774286Y-103492142D01*
X105774286Y-103492142D02*
X105774286Y-103206428D01*
X105774286Y-103206428D02*
X105726667Y-103111190D01*
X105726667Y-103111190D02*
X105679048Y-103063571D01*
X105679048Y-103063571D02*
X105583810Y-103015952D01*
X105583810Y-103015952D02*
X105393334Y-103015952D01*
X105393334Y-103015952D02*
X105298096Y-103063571D01*
X104964762Y-103015952D02*
X104583810Y-103015952D01*
X104821905Y-102682619D02*
X104821905Y-103539761D01*
X104821905Y-103539761D02*
X104774286Y-103635000D01*
X104774286Y-103635000D02*
X104679048Y-103682619D01*
X104679048Y-103682619D02*
X104583810Y-103682619D01*
X104393333Y-103015952D02*
X104012381Y-103015952D01*
X104250476Y-102682619D02*
X104250476Y-103539761D01*
X104250476Y-103539761D02*
X104202857Y-103635000D01*
X104202857Y-103635000D02*
X104107619Y-103682619D01*
X104107619Y-103682619D02*
X104012381Y-103682619D01*
X103679047Y-103301666D02*
X102917143Y-103301666D01*
X102440952Y-103015952D02*
X102440952Y-104015952D01*
X102440952Y-103063571D02*
X102345714Y-103015952D01*
X102345714Y-103015952D02*
X102155238Y-103015952D01*
X102155238Y-103015952D02*
X102060000Y-103063571D01*
X102060000Y-103063571D02*
X102012381Y-103111190D01*
X102012381Y-103111190D02*
X101964762Y-103206428D01*
X101964762Y-103206428D02*
X101964762Y-103492142D01*
X101964762Y-103492142D02*
X102012381Y-103587380D01*
X102012381Y-103587380D02*
X102060000Y-103635000D01*
X102060000Y-103635000D02*
X102155238Y-103682619D01*
X102155238Y-103682619D02*
X102345714Y-103682619D01*
X102345714Y-103682619D02*
X102440952Y-103635000D01*
X101107619Y-103682619D02*
X101107619Y-103158809D01*
X101107619Y-103158809D02*
X101155238Y-103063571D01*
X101155238Y-103063571D02*
X101250476Y-103015952D01*
X101250476Y-103015952D02*
X101440952Y-103015952D01*
X101440952Y-103015952D02*
X101536190Y-103063571D01*
X101107619Y-103635000D02*
X101202857Y-103682619D01*
X101202857Y-103682619D02*
X101440952Y-103682619D01*
X101440952Y-103682619D02*
X101536190Y-103635000D01*
X101536190Y-103635000D02*
X101583809Y-103539761D01*
X101583809Y-103539761D02*
X101583809Y-103444523D01*
X101583809Y-103444523D02*
X101536190Y-103349285D01*
X101536190Y-103349285D02*
X101440952Y-103301666D01*
X101440952Y-103301666D02*
X101202857Y-103301666D01*
X101202857Y-103301666D02*
X101107619Y-103254047D01*
X100631428Y-103682619D02*
X100631428Y-103015952D01*
X100631428Y-103206428D02*
X100583809Y-103111190D01*
X100583809Y-103111190D02*
X100536190Y-103063571D01*
X100536190Y-103063571D02*
X100440952Y-103015952D01*
X100440952Y-103015952D02*
X100345714Y-103015952D01*
X100155237Y-103015952D02*
X99774285Y-103015952D01*
X100012380Y-102682619D02*
X100012380Y-103539761D01*
X100012380Y-103539761D02*
X99964761Y-103635000D01*
X99964761Y-103635000D02*
X99869523Y-103682619D01*
X99869523Y-103682619D02*
X99774285Y-103682619D01*
X99440951Y-103682619D02*
X99440951Y-103015952D01*
X99440951Y-102682619D02*
X99488570Y-102730238D01*
X99488570Y-102730238D02*
X99440951Y-102777857D01*
X99440951Y-102777857D02*
X99393332Y-102730238D01*
X99393332Y-102730238D02*
X99440951Y-102682619D01*
X99440951Y-102682619D02*
X99440951Y-102777857D01*
X98536190Y-103635000D02*
X98631428Y-103682619D01*
X98631428Y-103682619D02*
X98821904Y-103682619D01*
X98821904Y-103682619D02*
X98917142Y-103635000D01*
X98917142Y-103635000D02*
X98964761Y-103587380D01*
X98964761Y-103587380D02*
X99012380Y-103492142D01*
X99012380Y-103492142D02*
X99012380Y-103206428D01*
X99012380Y-103206428D02*
X98964761Y-103111190D01*
X98964761Y-103111190D02*
X98917142Y-103063571D01*
X98917142Y-103063571D02*
X98821904Y-103015952D01*
X98821904Y-103015952D02*
X98631428Y-103015952D01*
X98631428Y-103015952D02*
X98536190Y-103063571D01*
X97964761Y-103682619D02*
X98059999Y-103635000D01*
X98059999Y-103635000D02*
X98107618Y-103539761D01*
X98107618Y-103539761D02*
X98107618Y-102682619D01*
X97202856Y-103635000D02*
X97298094Y-103682619D01*
X97298094Y-103682619D02*
X97488570Y-103682619D01*
X97488570Y-103682619D02*
X97583808Y-103635000D01*
X97583808Y-103635000D02*
X97631427Y-103539761D01*
X97631427Y-103539761D02*
X97631427Y-103158809D01*
X97631427Y-103158809D02*
X97583808Y-103063571D01*
X97583808Y-103063571D02*
X97488570Y-103015952D01*
X97488570Y-103015952D02*
X97298094Y-103015952D01*
X97298094Y-103015952D02*
X97202856Y-103063571D01*
X97202856Y-103063571D02*
X97155237Y-103158809D01*
X97155237Y-103158809D02*
X97155237Y-103254047D01*
X97155237Y-103254047D02*
X97631427Y-103349285D01*
X96726665Y-103301666D02*
X95964761Y-103301666D01*
X95536189Y-103635000D02*
X95440951Y-103682619D01*
X95440951Y-103682619D02*
X95250475Y-103682619D01*
X95250475Y-103682619D02*
X95155237Y-103635000D01*
X95155237Y-103635000D02*
X95107618Y-103539761D01*
X95107618Y-103539761D02*
X95107618Y-103492142D01*
X95107618Y-103492142D02*
X95155237Y-103396904D01*
X95155237Y-103396904D02*
X95250475Y-103349285D01*
X95250475Y-103349285D02*
X95393332Y-103349285D01*
X95393332Y-103349285D02*
X95488570Y-103301666D01*
X95488570Y-103301666D02*
X95536189Y-103206428D01*
X95536189Y-103206428D02*
X95536189Y-103158809D01*
X95536189Y-103158809D02*
X95488570Y-103063571D01*
X95488570Y-103063571D02*
X95393332Y-103015952D01*
X95393332Y-103015952D02*
X95250475Y-103015952D01*
X95250475Y-103015952D02*
X95155237Y-103063571D01*
X94298094Y-103635000D02*
X94393332Y-103682619D01*
X94393332Y-103682619D02*
X94583808Y-103682619D01*
X94583808Y-103682619D02*
X94679046Y-103635000D01*
X94679046Y-103635000D02*
X94726665Y-103539761D01*
X94726665Y-103539761D02*
X94726665Y-103158809D01*
X94726665Y-103158809D02*
X94679046Y-103063571D01*
X94679046Y-103063571D02*
X94583808Y-103015952D01*
X94583808Y-103015952D02*
X94393332Y-103015952D01*
X94393332Y-103015952D02*
X94298094Y-103063571D01*
X94298094Y-103063571D02*
X94250475Y-103158809D01*
X94250475Y-103158809D02*
X94250475Y-103254047D01*
X94250475Y-103254047D02*
X94726665Y-103349285D01*
X93821903Y-103015952D02*
X93821903Y-103682619D01*
X93821903Y-103111190D02*
X93774284Y-103063571D01*
X93774284Y-103063571D02*
X93679046Y-103015952D01*
X93679046Y-103015952D02*
X93536189Y-103015952D01*
X93536189Y-103015952D02*
X93440951Y-103063571D01*
X93440951Y-103063571D02*
X93393332Y-103158809D01*
X93393332Y-103158809D02*
X93393332Y-103682619D01*
X92964760Y-103635000D02*
X92869522Y-103682619D01*
X92869522Y-103682619D02*
X92679046Y-103682619D01*
X92679046Y-103682619D02*
X92583808Y-103635000D01*
X92583808Y-103635000D02*
X92536189Y-103539761D01*
X92536189Y-103539761D02*
X92536189Y-103492142D01*
X92536189Y-103492142D02*
X92583808Y-103396904D01*
X92583808Y-103396904D02*
X92679046Y-103349285D01*
X92679046Y-103349285D02*
X92821903Y-103349285D01*
X92821903Y-103349285D02*
X92917141Y-103301666D01*
X92917141Y-103301666D02*
X92964760Y-103206428D01*
X92964760Y-103206428D02*
X92964760Y-103158809D01*
X92964760Y-103158809D02*
X92917141Y-103063571D01*
X92917141Y-103063571D02*
X92821903Y-103015952D01*
X92821903Y-103015952D02*
X92679046Y-103015952D01*
X92679046Y-103015952D02*
X92583808Y-103063571D01*
X91964760Y-103682619D02*
X92059998Y-103635000D01*
X92059998Y-103635000D02*
X92107617Y-103587380D01*
X92107617Y-103587380D02*
X92155236Y-103492142D01*
X92155236Y-103492142D02*
X92155236Y-103206428D01*
X92155236Y-103206428D02*
X92107617Y-103111190D01*
X92107617Y-103111190D02*
X92059998Y-103063571D01*
X92059998Y-103063571D02*
X91964760Y-103015952D01*
X91964760Y-103015952D02*
X91821903Y-103015952D01*
X91821903Y-103015952D02*
X91726665Y-103063571D01*
X91726665Y-103063571D02*
X91679046Y-103111190D01*
X91679046Y-103111190D02*
X91631427Y-103206428D01*
X91631427Y-103206428D02*
X91631427Y-103492142D01*
X91631427Y-103492142D02*
X91679046Y-103587380D01*
X91679046Y-103587380D02*
X91726665Y-103635000D01*
X91726665Y-103635000D02*
X91821903Y-103682619D01*
X91821903Y-103682619D02*
X91964760Y-103682619D01*
X91202855Y-103682619D02*
X91202855Y-103015952D01*
X91202855Y-103206428D02*
X91155236Y-103111190D01*
X91155236Y-103111190D02*
X91107617Y-103063571D01*
X91107617Y-103063571D02*
X91012379Y-103015952D01*
X91012379Y-103015952D02*
X90917141Y-103015952D01*
%TO.C,A1*%
X118189285Y-56326904D02*
X117713095Y-56326904D01*
X118284523Y-56612619D02*
X117951190Y-55612619D01*
X117951190Y-55612619D02*
X117617857Y-56612619D01*
X116760714Y-56612619D02*
X117332142Y-56612619D01*
X117046428Y-56612619D02*
X117046428Y-55612619D01*
X117046428Y-55612619D02*
X117141666Y-55755476D01*
X117141666Y-55755476D02*
X117236904Y-55850714D01*
X117236904Y-55850714D02*
X117332142Y-55898333D01*
D11*
X130425000Y-58650000D02*
X130425000Y-56900000D01*
X130425000Y-56900000D02*
X128675000Y-56900000D01*
X130295000Y-59690000D02*
X130295000Y-92710000D01*
X129005000Y-87730000D02*
X126265000Y-87730000D01*
X129005000Y-62130000D02*
X129005000Y-87730000D01*
X127635000Y-95370000D02*
X107315000Y-95370000D01*
X127635000Y-57030000D02*
X107315000Y-57030000D01*
X126265000Y-87730000D02*
X126265000Y-62130000D01*
X126265000Y-62130000D02*
X129005000Y-62130000D01*
X108685000Y-87730000D02*
X105945000Y-87730000D01*
X108685000Y-62130000D02*
X108685000Y-87730000D01*
X105945000Y-87730000D02*
X105945000Y-62130000D01*
X105945000Y-62130000D02*
X108685000Y-62130000D01*
X104655000Y-59690000D02*
X104655000Y-92710000D01*
X127635000Y-95370000D02*
G75*
G03*
X130295000Y-92710000I0J2660000D01*
G01*
X130295000Y-59690000D02*
G75*
G03*
X127635000Y-57030000I-2660000J0D01*
G01*
X104655000Y-92710000D02*
G75*
G03*
X107315000Y-95370000I2660000J0D01*
G01*
X107315000Y-57030000D02*
G75*
G03*
X104655000Y-59690000I0J-2660000D01*
G01*
%TD*%
M02*
