%TF.GenerationSoftware,KiCad,Pcbnew,7.0.6*%
%TF.CreationDate,2023-08-07T10:19:30-05:00*%
%TF.ProjectId,mqtt_particle_sensor,6d717474-5f70-4617-9274-69636c655f73,C*%
%TF.SameCoordinates,Original*%
%TF.FileFunction,Legend,Bot*%
%TF.FilePolarity,Positive*%
%FSLAX46Y46*%
G04 Gerber Fmt 4.6, Leading zero omitted, Abs format (unit mm)*
G04 Created by KiCad (PCBNEW 7.0.6) date 2023-08-07 10:19:30*
%MOMM*%
%LPD*%
G01*
G04 APERTURE LIST*
%ADD10C,0.150000*%
%ADD11C,0.010000*%
%ADD12C,0.120000*%
G04 APERTURE END LIST*
D10*
X99417619Y-52420180D02*
X99084286Y-52896371D01*
X98846191Y-52420180D02*
X98846191Y-53420180D01*
X98846191Y-53420180D02*
X99227143Y-53420180D01*
X99227143Y-53420180D02*
X99322381Y-53372561D01*
X99322381Y-53372561D02*
X99370000Y-53324942D01*
X99370000Y-53324942D02*
X99417619Y-53229704D01*
X99417619Y-53229704D02*
X99417619Y-53086847D01*
X99417619Y-53086847D02*
X99370000Y-52991609D01*
X99370000Y-52991609D02*
X99322381Y-52943990D01*
X99322381Y-52943990D02*
X99227143Y-52896371D01*
X99227143Y-52896371D02*
X98846191Y-52896371D01*
X99846191Y-52943990D02*
X100179524Y-52943990D01*
X100322381Y-52420180D02*
X99846191Y-52420180D01*
X99846191Y-52420180D02*
X99846191Y-53420180D01*
X99846191Y-53420180D02*
X100322381Y-53420180D01*
X100608096Y-53420180D02*
X100941429Y-52420180D01*
X100941429Y-52420180D02*
X101274762Y-53420180D01*
X101608096Y-52420180D02*
X101608096Y-53420180D01*
X102036667Y-52467800D02*
X102179524Y-52420180D01*
X102179524Y-52420180D02*
X102417619Y-52420180D01*
X102417619Y-52420180D02*
X102512857Y-52467800D01*
X102512857Y-52467800D02*
X102560476Y-52515419D01*
X102560476Y-52515419D02*
X102608095Y-52610657D01*
X102608095Y-52610657D02*
X102608095Y-52705895D01*
X102608095Y-52705895D02*
X102560476Y-52801133D01*
X102560476Y-52801133D02*
X102512857Y-52848752D01*
X102512857Y-52848752D02*
X102417619Y-52896371D01*
X102417619Y-52896371D02*
X102227143Y-52943990D01*
X102227143Y-52943990D02*
X102131905Y-52991609D01*
X102131905Y-52991609D02*
X102084286Y-53039228D01*
X102084286Y-53039228D02*
X102036667Y-53134466D01*
X102036667Y-53134466D02*
X102036667Y-53229704D01*
X102036667Y-53229704D02*
X102084286Y-53324942D01*
X102084286Y-53324942D02*
X102131905Y-53372561D01*
X102131905Y-53372561D02*
X102227143Y-53420180D01*
X102227143Y-53420180D02*
X102465238Y-53420180D01*
X102465238Y-53420180D02*
X102608095Y-53372561D01*
X103036667Y-52420180D02*
X103036667Y-53420180D01*
X103703333Y-53420180D02*
X103893809Y-53420180D01*
X103893809Y-53420180D02*
X103989047Y-53372561D01*
X103989047Y-53372561D02*
X104084285Y-53277323D01*
X104084285Y-53277323D02*
X104131904Y-53086847D01*
X104131904Y-53086847D02*
X104131904Y-52753514D01*
X104131904Y-52753514D02*
X104084285Y-52563038D01*
X104084285Y-52563038D02*
X103989047Y-52467800D01*
X103989047Y-52467800D02*
X103893809Y-52420180D01*
X103893809Y-52420180D02*
X103703333Y-52420180D01*
X103703333Y-52420180D02*
X103608095Y-52467800D01*
X103608095Y-52467800D02*
X103512857Y-52563038D01*
X103512857Y-52563038D02*
X103465238Y-52753514D01*
X103465238Y-52753514D02*
X103465238Y-53086847D01*
X103465238Y-53086847D02*
X103512857Y-53277323D01*
X103512857Y-53277323D02*
X103608095Y-53372561D01*
X103608095Y-53372561D02*
X103703333Y-53420180D01*
X104560476Y-52420180D02*
X104560476Y-53420180D01*
X104560476Y-53420180D02*
X105131904Y-52420180D01*
X105131904Y-52420180D02*
X105131904Y-53420180D01*
X106941428Y-52515419D02*
X106893809Y-52467800D01*
X106893809Y-52467800D02*
X106750952Y-52420180D01*
X106750952Y-52420180D02*
X106655714Y-52420180D01*
X106655714Y-52420180D02*
X106512857Y-52467800D01*
X106512857Y-52467800D02*
X106417619Y-52563038D01*
X106417619Y-52563038D02*
X106370000Y-52658276D01*
X106370000Y-52658276D02*
X106322381Y-52848752D01*
X106322381Y-52848752D02*
X106322381Y-52991609D01*
X106322381Y-52991609D02*
X106370000Y-53182085D01*
X106370000Y-53182085D02*
X106417619Y-53277323D01*
X106417619Y-53277323D02*
X106512857Y-53372561D01*
X106512857Y-53372561D02*
X106655714Y-53420180D01*
X106655714Y-53420180D02*
X106750952Y-53420180D01*
X106750952Y-53420180D02*
X106893809Y-53372561D01*
X106893809Y-53372561D02*
X106941428Y-53324942D01*
X99369999Y-51810180D02*
X99369999Y-51095895D01*
X99369999Y-51095895D02*
X99322380Y-50953038D01*
X99322380Y-50953038D02*
X99227142Y-50857800D01*
X99227142Y-50857800D02*
X99084285Y-50810180D01*
X99084285Y-50810180D02*
X98989047Y-50810180D01*
X99846190Y-51810180D02*
X99846190Y-51000657D01*
X99846190Y-51000657D02*
X99893809Y-50905419D01*
X99893809Y-50905419D02*
X99941428Y-50857800D01*
X99941428Y-50857800D02*
X100036666Y-50810180D01*
X100036666Y-50810180D02*
X100227142Y-50810180D01*
X100227142Y-50810180D02*
X100322380Y-50857800D01*
X100322380Y-50857800D02*
X100369999Y-50905419D01*
X100369999Y-50905419D02*
X100417618Y-51000657D01*
X100417618Y-51000657D02*
X100417618Y-51810180D01*
X101369999Y-50810180D02*
X100893809Y-50810180D01*
X100893809Y-50810180D02*
X100893809Y-51810180D01*
X101893809Y-51286371D02*
X101893809Y-50810180D01*
X101560476Y-51810180D02*
X101893809Y-51286371D01*
X101893809Y-51286371D02*
X102227142Y-51810180D01*
X103274762Y-51714942D02*
X103322381Y-51762561D01*
X103322381Y-51762561D02*
X103417619Y-51810180D01*
X103417619Y-51810180D02*
X103655714Y-51810180D01*
X103655714Y-51810180D02*
X103750952Y-51762561D01*
X103750952Y-51762561D02*
X103798571Y-51714942D01*
X103798571Y-51714942D02*
X103846190Y-51619704D01*
X103846190Y-51619704D02*
X103846190Y-51524466D01*
X103846190Y-51524466D02*
X103798571Y-51381609D01*
X103798571Y-51381609D02*
X103227143Y-50810180D01*
X103227143Y-50810180D02*
X103846190Y-50810180D01*
X104465238Y-51810180D02*
X104560476Y-51810180D01*
X104560476Y-51810180D02*
X104655714Y-51762561D01*
X104655714Y-51762561D02*
X104703333Y-51714942D01*
X104703333Y-51714942D02*
X104750952Y-51619704D01*
X104750952Y-51619704D02*
X104798571Y-51429228D01*
X104798571Y-51429228D02*
X104798571Y-51191133D01*
X104798571Y-51191133D02*
X104750952Y-51000657D01*
X104750952Y-51000657D02*
X104703333Y-50905419D01*
X104703333Y-50905419D02*
X104655714Y-50857800D01*
X104655714Y-50857800D02*
X104560476Y-50810180D01*
X104560476Y-50810180D02*
X104465238Y-50810180D01*
X104465238Y-50810180D02*
X104370000Y-50857800D01*
X104370000Y-50857800D02*
X104322381Y-50905419D01*
X104322381Y-50905419D02*
X104274762Y-51000657D01*
X104274762Y-51000657D02*
X104227143Y-51191133D01*
X104227143Y-51191133D02*
X104227143Y-51429228D01*
X104227143Y-51429228D02*
X104274762Y-51619704D01*
X104274762Y-51619704D02*
X104322381Y-51714942D01*
X104322381Y-51714942D02*
X104370000Y-51762561D01*
X104370000Y-51762561D02*
X104465238Y-51810180D01*
X105179524Y-51714942D02*
X105227143Y-51762561D01*
X105227143Y-51762561D02*
X105322381Y-51810180D01*
X105322381Y-51810180D02*
X105560476Y-51810180D01*
X105560476Y-51810180D02*
X105655714Y-51762561D01*
X105655714Y-51762561D02*
X105703333Y-51714942D01*
X105703333Y-51714942D02*
X105750952Y-51619704D01*
X105750952Y-51619704D02*
X105750952Y-51524466D01*
X105750952Y-51524466D02*
X105703333Y-51381609D01*
X105703333Y-51381609D02*
X105131905Y-50810180D01*
X105131905Y-50810180D02*
X105750952Y-50810180D01*
X106084286Y-51810180D02*
X106703333Y-51810180D01*
X106703333Y-51810180D02*
X106370000Y-51429228D01*
X106370000Y-51429228D02*
X106512857Y-51429228D01*
X106512857Y-51429228D02*
X106608095Y-51381609D01*
X106608095Y-51381609D02*
X106655714Y-51333990D01*
X106655714Y-51333990D02*
X106703333Y-51238752D01*
X106703333Y-51238752D02*
X106703333Y-51000657D01*
X106703333Y-51000657D02*
X106655714Y-50905419D01*
X106655714Y-50905419D02*
X106608095Y-50857800D01*
X106608095Y-50857800D02*
X106512857Y-50810180D01*
X106512857Y-50810180D02*
X106227143Y-50810180D01*
X106227143Y-50810180D02*
X106131905Y-50857800D01*
X106131905Y-50857800D02*
X106084286Y-50905419D01*
X106631428Y-100444819D02*
X106631428Y-99444819D01*
X106202857Y-100444819D02*
X106202857Y-99921009D01*
X106202857Y-99921009D02*
X106250476Y-99825771D01*
X106250476Y-99825771D02*
X106345714Y-99778152D01*
X106345714Y-99778152D02*
X106488571Y-99778152D01*
X106488571Y-99778152D02*
X106583809Y-99825771D01*
X106583809Y-99825771D02*
X106631428Y-99873390D01*
X105869523Y-99778152D02*
X105488571Y-99778152D01*
X105726666Y-99444819D02*
X105726666Y-100301961D01*
X105726666Y-100301961D02*
X105679047Y-100397200D01*
X105679047Y-100397200D02*
X105583809Y-100444819D01*
X105583809Y-100444819D02*
X105488571Y-100444819D01*
X105298094Y-99778152D02*
X104917142Y-99778152D01*
X105155237Y-99444819D02*
X105155237Y-100301961D01*
X105155237Y-100301961D02*
X105107618Y-100397200D01*
X105107618Y-100397200D02*
X105012380Y-100444819D01*
X105012380Y-100444819D02*
X104917142Y-100444819D01*
X104583808Y-99778152D02*
X104583808Y-100778152D01*
X104583808Y-99825771D02*
X104488570Y-99778152D01*
X104488570Y-99778152D02*
X104298094Y-99778152D01*
X104298094Y-99778152D02*
X104202856Y-99825771D01*
X104202856Y-99825771D02*
X104155237Y-99873390D01*
X104155237Y-99873390D02*
X104107618Y-99968628D01*
X104107618Y-99968628D02*
X104107618Y-100254342D01*
X104107618Y-100254342D02*
X104155237Y-100349580D01*
X104155237Y-100349580D02*
X104202856Y-100397200D01*
X104202856Y-100397200D02*
X104298094Y-100444819D01*
X104298094Y-100444819D02*
X104488570Y-100444819D01*
X104488570Y-100444819D02*
X104583808Y-100397200D01*
X103726665Y-100397200D02*
X103631427Y-100444819D01*
X103631427Y-100444819D02*
X103440951Y-100444819D01*
X103440951Y-100444819D02*
X103345713Y-100397200D01*
X103345713Y-100397200D02*
X103298094Y-100301961D01*
X103298094Y-100301961D02*
X103298094Y-100254342D01*
X103298094Y-100254342D02*
X103345713Y-100159104D01*
X103345713Y-100159104D02*
X103440951Y-100111485D01*
X103440951Y-100111485D02*
X103583808Y-100111485D01*
X103583808Y-100111485D02*
X103679046Y-100063866D01*
X103679046Y-100063866D02*
X103726665Y-99968628D01*
X103726665Y-99968628D02*
X103726665Y-99921009D01*
X103726665Y-99921009D02*
X103679046Y-99825771D01*
X103679046Y-99825771D02*
X103583808Y-99778152D01*
X103583808Y-99778152D02*
X103440951Y-99778152D01*
X103440951Y-99778152D02*
X103345713Y-99825771D01*
X102869522Y-100349580D02*
X102821903Y-100397200D01*
X102821903Y-100397200D02*
X102869522Y-100444819D01*
X102869522Y-100444819D02*
X102917141Y-100397200D01*
X102917141Y-100397200D02*
X102869522Y-100349580D01*
X102869522Y-100349580D02*
X102869522Y-100444819D01*
X102869522Y-99825771D02*
X102821903Y-99873390D01*
X102821903Y-99873390D02*
X102869522Y-99921009D01*
X102869522Y-99921009D02*
X102917141Y-99873390D01*
X102917141Y-99873390D02*
X102869522Y-99825771D01*
X102869522Y-99825771D02*
X102869522Y-99921009D01*
X101679047Y-99397200D02*
X102536189Y-100682914D01*
X100631428Y-99397200D02*
X101488570Y-100682914D01*
X99869523Y-99778152D02*
X99869523Y-100587676D01*
X99869523Y-100587676D02*
X99917142Y-100682914D01*
X99917142Y-100682914D02*
X99964761Y-100730533D01*
X99964761Y-100730533D02*
X100059999Y-100778152D01*
X100059999Y-100778152D02*
X100202856Y-100778152D01*
X100202856Y-100778152D02*
X100298094Y-100730533D01*
X99869523Y-100397200D02*
X99964761Y-100444819D01*
X99964761Y-100444819D02*
X100155237Y-100444819D01*
X100155237Y-100444819D02*
X100250475Y-100397200D01*
X100250475Y-100397200D02*
X100298094Y-100349580D01*
X100298094Y-100349580D02*
X100345713Y-100254342D01*
X100345713Y-100254342D02*
X100345713Y-99968628D01*
X100345713Y-99968628D02*
X100298094Y-99873390D01*
X100298094Y-99873390D02*
X100250475Y-99825771D01*
X100250475Y-99825771D02*
X100155237Y-99778152D01*
X100155237Y-99778152D02*
X99964761Y-99778152D01*
X99964761Y-99778152D02*
X99869523Y-99825771D01*
X99393332Y-100444819D02*
X99393332Y-99778152D01*
X99393332Y-99444819D02*
X99440951Y-99492438D01*
X99440951Y-99492438D02*
X99393332Y-99540057D01*
X99393332Y-99540057D02*
X99345713Y-99492438D01*
X99345713Y-99492438D02*
X99393332Y-99444819D01*
X99393332Y-99444819D02*
X99393332Y-99540057D01*
X99059999Y-99778152D02*
X98679047Y-99778152D01*
X98917142Y-99444819D02*
X98917142Y-100301961D01*
X98917142Y-100301961D02*
X98869523Y-100397200D01*
X98869523Y-100397200D02*
X98774285Y-100444819D01*
X98774285Y-100444819D02*
X98679047Y-100444819D01*
X98345713Y-100444819D02*
X98345713Y-99444819D01*
X97917142Y-100444819D02*
X97917142Y-99921009D01*
X97917142Y-99921009D02*
X97964761Y-99825771D01*
X97964761Y-99825771D02*
X98059999Y-99778152D01*
X98059999Y-99778152D02*
X98202856Y-99778152D01*
X98202856Y-99778152D02*
X98298094Y-99825771D01*
X98298094Y-99825771D02*
X98345713Y-99873390D01*
X97012380Y-99778152D02*
X97012380Y-100444819D01*
X97440951Y-99778152D02*
X97440951Y-100301961D01*
X97440951Y-100301961D02*
X97393332Y-100397200D01*
X97393332Y-100397200D02*
X97298094Y-100444819D01*
X97298094Y-100444819D02*
X97155237Y-100444819D01*
X97155237Y-100444819D02*
X97059999Y-100397200D01*
X97059999Y-100397200D02*
X97012380Y-100349580D01*
X96536189Y-100444819D02*
X96536189Y-99444819D01*
X96536189Y-99825771D02*
X96440951Y-99778152D01*
X96440951Y-99778152D02*
X96250475Y-99778152D01*
X96250475Y-99778152D02*
X96155237Y-99825771D01*
X96155237Y-99825771D02*
X96107618Y-99873390D01*
X96107618Y-99873390D02*
X96059999Y-99968628D01*
X96059999Y-99968628D02*
X96059999Y-100254342D01*
X96059999Y-100254342D02*
X96107618Y-100349580D01*
X96107618Y-100349580D02*
X96155237Y-100397200D01*
X96155237Y-100397200D02*
X96250475Y-100444819D01*
X96250475Y-100444819D02*
X96440951Y-100444819D01*
X96440951Y-100444819D02*
X96536189Y-100397200D01*
X95631427Y-100349580D02*
X95583808Y-100397200D01*
X95583808Y-100397200D02*
X95631427Y-100444819D01*
X95631427Y-100444819D02*
X95679046Y-100397200D01*
X95679046Y-100397200D02*
X95631427Y-100349580D01*
X95631427Y-100349580D02*
X95631427Y-100444819D01*
X94726666Y-100397200D02*
X94821904Y-100444819D01*
X94821904Y-100444819D02*
X95012380Y-100444819D01*
X95012380Y-100444819D02*
X95107618Y-100397200D01*
X95107618Y-100397200D02*
X95155237Y-100349580D01*
X95155237Y-100349580D02*
X95202856Y-100254342D01*
X95202856Y-100254342D02*
X95202856Y-99968628D01*
X95202856Y-99968628D02*
X95155237Y-99873390D01*
X95155237Y-99873390D02*
X95107618Y-99825771D01*
X95107618Y-99825771D02*
X95012380Y-99778152D01*
X95012380Y-99778152D02*
X94821904Y-99778152D01*
X94821904Y-99778152D02*
X94726666Y-99825771D01*
X94155237Y-100444819D02*
X94250475Y-100397200D01*
X94250475Y-100397200D02*
X94298094Y-100349580D01*
X94298094Y-100349580D02*
X94345713Y-100254342D01*
X94345713Y-100254342D02*
X94345713Y-99968628D01*
X94345713Y-99968628D02*
X94298094Y-99873390D01*
X94298094Y-99873390D02*
X94250475Y-99825771D01*
X94250475Y-99825771D02*
X94155237Y-99778152D01*
X94155237Y-99778152D02*
X94012380Y-99778152D01*
X94012380Y-99778152D02*
X93917142Y-99825771D01*
X93917142Y-99825771D02*
X93869523Y-99873390D01*
X93869523Y-99873390D02*
X93821904Y-99968628D01*
X93821904Y-99968628D02*
X93821904Y-100254342D01*
X93821904Y-100254342D02*
X93869523Y-100349580D01*
X93869523Y-100349580D02*
X93917142Y-100397200D01*
X93917142Y-100397200D02*
X94012380Y-100444819D01*
X94012380Y-100444819D02*
X94155237Y-100444819D01*
X93393332Y-100444819D02*
X93393332Y-99778152D01*
X93393332Y-99873390D02*
X93345713Y-99825771D01*
X93345713Y-99825771D02*
X93250475Y-99778152D01*
X93250475Y-99778152D02*
X93107618Y-99778152D01*
X93107618Y-99778152D02*
X93012380Y-99825771D01*
X93012380Y-99825771D02*
X92964761Y-99921009D01*
X92964761Y-99921009D02*
X92964761Y-100444819D01*
X92964761Y-99921009D02*
X92917142Y-99825771D01*
X92917142Y-99825771D02*
X92821904Y-99778152D01*
X92821904Y-99778152D02*
X92679047Y-99778152D01*
X92679047Y-99778152D02*
X92583808Y-99825771D01*
X92583808Y-99825771D02*
X92536189Y-99921009D01*
X92536189Y-99921009D02*
X92536189Y-100444819D01*
X91345714Y-99397200D02*
X92202856Y-100682914D01*
X109012380Y-101388152D02*
X109012380Y-102054819D01*
X109440951Y-101388152D02*
X109440951Y-101911961D01*
X109440951Y-101911961D02*
X109393332Y-102007200D01*
X109393332Y-102007200D02*
X109298094Y-102054819D01*
X109298094Y-102054819D02*
X109155237Y-102054819D01*
X109155237Y-102054819D02*
X109059999Y-102007200D01*
X109059999Y-102007200D02*
X109012380Y-101959580D01*
X108631427Y-101388152D02*
X108440951Y-102054819D01*
X108440951Y-102054819D02*
X108250475Y-101578628D01*
X108250475Y-101578628D02*
X108059999Y-102054819D01*
X108059999Y-102054819D02*
X107869523Y-101388152D01*
X107488570Y-101673866D02*
X106726666Y-101673866D01*
X106250475Y-102054819D02*
X106250475Y-101388152D01*
X106250475Y-101483390D02*
X106202856Y-101435771D01*
X106202856Y-101435771D02*
X106107618Y-101388152D01*
X106107618Y-101388152D02*
X105964761Y-101388152D01*
X105964761Y-101388152D02*
X105869523Y-101435771D01*
X105869523Y-101435771D02*
X105821904Y-101531009D01*
X105821904Y-101531009D02*
X105821904Y-102054819D01*
X105821904Y-101531009D02*
X105774285Y-101435771D01*
X105774285Y-101435771D02*
X105679047Y-101388152D01*
X105679047Y-101388152D02*
X105536190Y-101388152D01*
X105536190Y-101388152D02*
X105440951Y-101435771D01*
X105440951Y-101435771D02*
X105393332Y-101531009D01*
X105393332Y-101531009D02*
X105393332Y-102054819D01*
X104488571Y-102054819D02*
X104488571Y-101531009D01*
X104488571Y-101531009D02*
X104536190Y-101435771D01*
X104536190Y-101435771D02*
X104631428Y-101388152D01*
X104631428Y-101388152D02*
X104821904Y-101388152D01*
X104821904Y-101388152D02*
X104917142Y-101435771D01*
X104488571Y-102007200D02*
X104583809Y-102054819D01*
X104583809Y-102054819D02*
X104821904Y-102054819D01*
X104821904Y-102054819D02*
X104917142Y-102007200D01*
X104917142Y-102007200D02*
X104964761Y-101911961D01*
X104964761Y-101911961D02*
X104964761Y-101816723D01*
X104964761Y-101816723D02*
X104917142Y-101721485D01*
X104917142Y-101721485D02*
X104821904Y-101673866D01*
X104821904Y-101673866D02*
X104583809Y-101673866D01*
X104583809Y-101673866D02*
X104488571Y-101626247D01*
X103583809Y-102054819D02*
X103583809Y-101054819D01*
X103583809Y-102007200D02*
X103679047Y-102054819D01*
X103679047Y-102054819D02*
X103869523Y-102054819D01*
X103869523Y-102054819D02*
X103964761Y-102007200D01*
X103964761Y-102007200D02*
X104012380Y-101959580D01*
X104012380Y-101959580D02*
X104059999Y-101864342D01*
X104059999Y-101864342D02*
X104059999Y-101578628D01*
X104059999Y-101578628D02*
X104012380Y-101483390D01*
X104012380Y-101483390D02*
X103964761Y-101435771D01*
X103964761Y-101435771D02*
X103869523Y-101388152D01*
X103869523Y-101388152D02*
X103679047Y-101388152D01*
X103679047Y-101388152D02*
X103583809Y-101435771D01*
X103107618Y-102054819D02*
X103107618Y-101388152D01*
X103107618Y-101054819D02*
X103155237Y-101102438D01*
X103155237Y-101102438D02*
X103107618Y-101150057D01*
X103107618Y-101150057D02*
X103059999Y-101102438D01*
X103059999Y-101102438D02*
X103107618Y-101054819D01*
X103107618Y-101054819D02*
X103107618Y-101150057D01*
X102679047Y-102007200D02*
X102583809Y-102054819D01*
X102583809Y-102054819D02*
X102393333Y-102054819D01*
X102393333Y-102054819D02*
X102298095Y-102007200D01*
X102298095Y-102007200D02*
X102250476Y-101911961D01*
X102250476Y-101911961D02*
X102250476Y-101864342D01*
X102250476Y-101864342D02*
X102298095Y-101769104D01*
X102298095Y-101769104D02*
X102393333Y-101721485D01*
X102393333Y-101721485D02*
X102536190Y-101721485D01*
X102536190Y-101721485D02*
X102631428Y-101673866D01*
X102631428Y-101673866D02*
X102679047Y-101578628D01*
X102679047Y-101578628D02*
X102679047Y-101531009D01*
X102679047Y-101531009D02*
X102631428Y-101435771D01*
X102631428Y-101435771D02*
X102536190Y-101388152D01*
X102536190Y-101388152D02*
X102393333Y-101388152D01*
X102393333Y-101388152D02*
X102298095Y-101435771D01*
X101679047Y-102054819D02*
X101774285Y-102007200D01*
X101774285Y-102007200D02*
X101821904Y-101959580D01*
X101821904Y-101959580D02*
X101869523Y-101864342D01*
X101869523Y-101864342D02*
X101869523Y-101578628D01*
X101869523Y-101578628D02*
X101821904Y-101483390D01*
X101821904Y-101483390D02*
X101774285Y-101435771D01*
X101774285Y-101435771D02*
X101679047Y-101388152D01*
X101679047Y-101388152D02*
X101536190Y-101388152D01*
X101536190Y-101388152D02*
X101440952Y-101435771D01*
X101440952Y-101435771D02*
X101393333Y-101483390D01*
X101393333Y-101483390D02*
X101345714Y-101578628D01*
X101345714Y-101578628D02*
X101345714Y-101864342D01*
X101345714Y-101864342D02*
X101393333Y-101959580D01*
X101393333Y-101959580D02*
X101440952Y-102007200D01*
X101440952Y-102007200D02*
X101536190Y-102054819D01*
X101536190Y-102054819D02*
X101679047Y-102054819D01*
X100917142Y-101388152D02*
X100917142Y-102054819D01*
X100917142Y-101483390D02*
X100869523Y-101435771D01*
X100869523Y-101435771D02*
X100774285Y-101388152D01*
X100774285Y-101388152D02*
X100631428Y-101388152D01*
X100631428Y-101388152D02*
X100536190Y-101435771D01*
X100536190Y-101435771D02*
X100488571Y-101531009D01*
X100488571Y-101531009D02*
X100488571Y-102054819D01*
X100012380Y-101673866D02*
X99250476Y-101673866D01*
X98345714Y-102007200D02*
X98440952Y-102054819D01*
X98440952Y-102054819D02*
X98631428Y-102054819D01*
X98631428Y-102054819D02*
X98726666Y-102007200D01*
X98726666Y-102007200D02*
X98774285Y-101959580D01*
X98774285Y-101959580D02*
X98821904Y-101864342D01*
X98821904Y-101864342D02*
X98821904Y-101578628D01*
X98821904Y-101578628D02*
X98774285Y-101483390D01*
X98774285Y-101483390D02*
X98726666Y-101435771D01*
X98726666Y-101435771D02*
X98631428Y-101388152D01*
X98631428Y-101388152D02*
X98440952Y-101388152D01*
X98440952Y-101388152D02*
X98345714Y-101435771D01*
X97917142Y-102054819D02*
X97917142Y-101054819D01*
X97488571Y-102054819D02*
X97488571Y-101531009D01*
X97488571Y-101531009D02*
X97536190Y-101435771D01*
X97536190Y-101435771D02*
X97631428Y-101388152D01*
X97631428Y-101388152D02*
X97774285Y-101388152D01*
X97774285Y-101388152D02*
X97869523Y-101435771D01*
X97869523Y-101435771D02*
X97917142Y-101483390D01*
X96631428Y-102007200D02*
X96726666Y-102054819D01*
X96726666Y-102054819D02*
X96917142Y-102054819D01*
X96917142Y-102054819D02*
X97012380Y-102007200D01*
X97012380Y-102007200D02*
X97059999Y-101911961D01*
X97059999Y-101911961D02*
X97059999Y-101531009D01*
X97059999Y-101531009D02*
X97012380Y-101435771D01*
X97012380Y-101435771D02*
X96917142Y-101388152D01*
X96917142Y-101388152D02*
X96726666Y-101388152D01*
X96726666Y-101388152D02*
X96631428Y-101435771D01*
X96631428Y-101435771D02*
X96583809Y-101531009D01*
X96583809Y-101531009D02*
X96583809Y-101626247D01*
X96583809Y-101626247D02*
X97059999Y-101721485D01*
X96155237Y-102054819D02*
X96155237Y-101388152D01*
X96155237Y-101483390D02*
X96107618Y-101435771D01*
X96107618Y-101435771D02*
X96012380Y-101388152D01*
X96012380Y-101388152D02*
X95869523Y-101388152D01*
X95869523Y-101388152D02*
X95774285Y-101435771D01*
X95774285Y-101435771D02*
X95726666Y-101531009D01*
X95726666Y-101531009D02*
X95726666Y-102054819D01*
X95726666Y-101531009D02*
X95679047Y-101435771D01*
X95679047Y-101435771D02*
X95583809Y-101388152D01*
X95583809Y-101388152D02*
X95440952Y-101388152D01*
X95440952Y-101388152D02*
X95345713Y-101435771D01*
X95345713Y-101435771D02*
X95298094Y-101531009D01*
X95298094Y-101531009D02*
X95298094Y-102054819D01*
X94821904Y-101673866D02*
X94060000Y-101673866D01*
X93631428Y-102007200D02*
X93536190Y-102054819D01*
X93536190Y-102054819D02*
X93345714Y-102054819D01*
X93345714Y-102054819D02*
X93250476Y-102007200D01*
X93250476Y-102007200D02*
X93202857Y-101911961D01*
X93202857Y-101911961D02*
X93202857Y-101864342D01*
X93202857Y-101864342D02*
X93250476Y-101769104D01*
X93250476Y-101769104D02*
X93345714Y-101721485D01*
X93345714Y-101721485D02*
X93488571Y-101721485D01*
X93488571Y-101721485D02*
X93583809Y-101673866D01*
X93583809Y-101673866D02*
X93631428Y-101578628D01*
X93631428Y-101578628D02*
X93631428Y-101531009D01*
X93631428Y-101531009D02*
X93583809Y-101435771D01*
X93583809Y-101435771D02*
X93488571Y-101388152D01*
X93488571Y-101388152D02*
X93345714Y-101388152D01*
X93345714Y-101388152D02*
X93250476Y-101435771D01*
X92774285Y-102054819D02*
X92774285Y-101054819D01*
X92345714Y-102054819D02*
X92345714Y-101531009D01*
X92345714Y-101531009D02*
X92393333Y-101435771D01*
X92393333Y-101435771D02*
X92488571Y-101388152D01*
X92488571Y-101388152D02*
X92631428Y-101388152D01*
X92631428Y-101388152D02*
X92726666Y-101435771D01*
X92726666Y-101435771D02*
X92774285Y-101483390D01*
X91726666Y-102054819D02*
X91821904Y-102007200D01*
X91821904Y-102007200D02*
X91869523Y-101959580D01*
X91869523Y-101959580D02*
X91917142Y-101864342D01*
X91917142Y-101864342D02*
X91917142Y-101578628D01*
X91917142Y-101578628D02*
X91869523Y-101483390D01*
X91869523Y-101483390D02*
X91821904Y-101435771D01*
X91821904Y-101435771D02*
X91726666Y-101388152D01*
X91726666Y-101388152D02*
X91583809Y-101388152D01*
X91583809Y-101388152D02*
X91488571Y-101435771D01*
X91488571Y-101435771D02*
X91440952Y-101483390D01*
X91440952Y-101483390D02*
X91393333Y-101578628D01*
X91393333Y-101578628D02*
X91393333Y-101864342D01*
X91393333Y-101864342D02*
X91440952Y-101959580D01*
X91440952Y-101959580D02*
X91488571Y-102007200D01*
X91488571Y-102007200D02*
X91583809Y-102054819D01*
X91583809Y-102054819D02*
X91726666Y-102054819D01*
X90964761Y-101388152D02*
X90964761Y-102388152D01*
X90964761Y-101435771D02*
X90869523Y-101388152D01*
X90869523Y-101388152D02*
X90679047Y-101388152D01*
X90679047Y-101388152D02*
X90583809Y-101435771D01*
X90583809Y-101435771D02*
X90536190Y-101483390D01*
X90536190Y-101483390D02*
X90488571Y-101578628D01*
X90488571Y-101578628D02*
X90488571Y-101864342D01*
X90488571Y-101864342D02*
X90536190Y-101959580D01*
X90536190Y-101959580D02*
X90583809Y-102007200D01*
X90583809Y-102007200D02*
X90679047Y-102054819D01*
X90679047Y-102054819D02*
X90869523Y-102054819D01*
X90869523Y-102054819D02*
X90964761Y-102007200D01*
X90107618Y-102007200D02*
X90012380Y-102054819D01*
X90012380Y-102054819D02*
X89821904Y-102054819D01*
X89821904Y-102054819D02*
X89726666Y-102007200D01*
X89726666Y-102007200D02*
X89679047Y-101911961D01*
X89679047Y-101911961D02*
X89679047Y-101864342D01*
X89679047Y-101864342D02*
X89726666Y-101769104D01*
X89726666Y-101769104D02*
X89821904Y-101721485D01*
X89821904Y-101721485D02*
X89964761Y-101721485D01*
X89964761Y-101721485D02*
X90059999Y-101673866D01*
X90059999Y-101673866D02*
X90107618Y-101578628D01*
X90107618Y-101578628D02*
X90107618Y-101531009D01*
X90107618Y-101531009D02*
X90059999Y-101435771D01*
X90059999Y-101435771D02*
X89964761Y-101388152D01*
X89964761Y-101388152D02*
X89821904Y-101388152D01*
X89821904Y-101388152D02*
X89726666Y-101435771D01*
X88536190Y-101007200D02*
X89393332Y-102292914D01*
X107060000Y-103664819D02*
X107060000Y-102998152D01*
X107060000Y-103093390D02*
X107012381Y-103045771D01*
X107012381Y-103045771D02*
X106917143Y-102998152D01*
X106917143Y-102998152D02*
X106774286Y-102998152D01*
X106774286Y-102998152D02*
X106679048Y-103045771D01*
X106679048Y-103045771D02*
X106631429Y-103141009D01*
X106631429Y-103141009D02*
X106631429Y-103664819D01*
X106631429Y-103141009D02*
X106583810Y-103045771D01*
X106583810Y-103045771D02*
X106488572Y-102998152D01*
X106488572Y-102998152D02*
X106345715Y-102998152D01*
X106345715Y-102998152D02*
X106250476Y-103045771D01*
X106250476Y-103045771D02*
X106202857Y-103141009D01*
X106202857Y-103141009D02*
X106202857Y-103664819D01*
X105298096Y-102998152D02*
X105298096Y-103998152D01*
X105298096Y-103617200D02*
X105393334Y-103664819D01*
X105393334Y-103664819D02*
X105583810Y-103664819D01*
X105583810Y-103664819D02*
X105679048Y-103617200D01*
X105679048Y-103617200D02*
X105726667Y-103569580D01*
X105726667Y-103569580D02*
X105774286Y-103474342D01*
X105774286Y-103474342D02*
X105774286Y-103188628D01*
X105774286Y-103188628D02*
X105726667Y-103093390D01*
X105726667Y-103093390D02*
X105679048Y-103045771D01*
X105679048Y-103045771D02*
X105583810Y-102998152D01*
X105583810Y-102998152D02*
X105393334Y-102998152D01*
X105393334Y-102998152D02*
X105298096Y-103045771D01*
X104964762Y-102998152D02*
X104583810Y-102998152D01*
X104821905Y-102664819D02*
X104821905Y-103521961D01*
X104821905Y-103521961D02*
X104774286Y-103617200D01*
X104774286Y-103617200D02*
X104679048Y-103664819D01*
X104679048Y-103664819D02*
X104583810Y-103664819D01*
X104393333Y-102998152D02*
X104012381Y-102998152D01*
X104250476Y-102664819D02*
X104250476Y-103521961D01*
X104250476Y-103521961D02*
X104202857Y-103617200D01*
X104202857Y-103617200D02*
X104107619Y-103664819D01*
X104107619Y-103664819D02*
X104012381Y-103664819D01*
X103679047Y-103283866D02*
X102917143Y-103283866D01*
X102440952Y-102998152D02*
X102440952Y-103998152D01*
X102440952Y-103045771D02*
X102345714Y-102998152D01*
X102345714Y-102998152D02*
X102155238Y-102998152D01*
X102155238Y-102998152D02*
X102060000Y-103045771D01*
X102060000Y-103045771D02*
X102012381Y-103093390D01*
X102012381Y-103093390D02*
X101964762Y-103188628D01*
X101964762Y-103188628D02*
X101964762Y-103474342D01*
X101964762Y-103474342D02*
X102012381Y-103569580D01*
X102012381Y-103569580D02*
X102060000Y-103617200D01*
X102060000Y-103617200D02*
X102155238Y-103664819D01*
X102155238Y-103664819D02*
X102345714Y-103664819D01*
X102345714Y-103664819D02*
X102440952Y-103617200D01*
X101107619Y-103664819D02*
X101107619Y-103141009D01*
X101107619Y-103141009D02*
X101155238Y-103045771D01*
X101155238Y-103045771D02*
X101250476Y-102998152D01*
X101250476Y-102998152D02*
X101440952Y-102998152D01*
X101440952Y-102998152D02*
X101536190Y-103045771D01*
X101107619Y-103617200D02*
X101202857Y-103664819D01*
X101202857Y-103664819D02*
X101440952Y-103664819D01*
X101440952Y-103664819D02*
X101536190Y-103617200D01*
X101536190Y-103617200D02*
X101583809Y-103521961D01*
X101583809Y-103521961D02*
X101583809Y-103426723D01*
X101583809Y-103426723D02*
X101536190Y-103331485D01*
X101536190Y-103331485D02*
X101440952Y-103283866D01*
X101440952Y-103283866D02*
X101202857Y-103283866D01*
X101202857Y-103283866D02*
X101107619Y-103236247D01*
X100631428Y-103664819D02*
X100631428Y-102998152D01*
X100631428Y-103188628D02*
X100583809Y-103093390D01*
X100583809Y-103093390D02*
X100536190Y-103045771D01*
X100536190Y-103045771D02*
X100440952Y-102998152D01*
X100440952Y-102998152D02*
X100345714Y-102998152D01*
X100155237Y-102998152D02*
X99774285Y-102998152D01*
X100012380Y-102664819D02*
X100012380Y-103521961D01*
X100012380Y-103521961D02*
X99964761Y-103617200D01*
X99964761Y-103617200D02*
X99869523Y-103664819D01*
X99869523Y-103664819D02*
X99774285Y-103664819D01*
X99440951Y-103664819D02*
X99440951Y-102998152D01*
X99440951Y-102664819D02*
X99488570Y-102712438D01*
X99488570Y-102712438D02*
X99440951Y-102760057D01*
X99440951Y-102760057D02*
X99393332Y-102712438D01*
X99393332Y-102712438D02*
X99440951Y-102664819D01*
X99440951Y-102664819D02*
X99440951Y-102760057D01*
X98536190Y-103617200D02*
X98631428Y-103664819D01*
X98631428Y-103664819D02*
X98821904Y-103664819D01*
X98821904Y-103664819D02*
X98917142Y-103617200D01*
X98917142Y-103617200D02*
X98964761Y-103569580D01*
X98964761Y-103569580D02*
X99012380Y-103474342D01*
X99012380Y-103474342D02*
X99012380Y-103188628D01*
X99012380Y-103188628D02*
X98964761Y-103093390D01*
X98964761Y-103093390D02*
X98917142Y-103045771D01*
X98917142Y-103045771D02*
X98821904Y-102998152D01*
X98821904Y-102998152D02*
X98631428Y-102998152D01*
X98631428Y-102998152D02*
X98536190Y-103045771D01*
X97964761Y-103664819D02*
X98059999Y-103617200D01*
X98059999Y-103617200D02*
X98107618Y-103521961D01*
X98107618Y-103521961D02*
X98107618Y-102664819D01*
X97202856Y-103617200D02*
X97298094Y-103664819D01*
X97298094Y-103664819D02*
X97488570Y-103664819D01*
X97488570Y-103664819D02*
X97583808Y-103617200D01*
X97583808Y-103617200D02*
X97631427Y-103521961D01*
X97631427Y-103521961D02*
X97631427Y-103141009D01*
X97631427Y-103141009D02*
X97583808Y-103045771D01*
X97583808Y-103045771D02*
X97488570Y-102998152D01*
X97488570Y-102998152D02*
X97298094Y-102998152D01*
X97298094Y-102998152D02*
X97202856Y-103045771D01*
X97202856Y-103045771D02*
X97155237Y-103141009D01*
X97155237Y-103141009D02*
X97155237Y-103236247D01*
X97155237Y-103236247D02*
X97631427Y-103331485D01*
X96726665Y-103283866D02*
X95964761Y-103283866D01*
X95536189Y-103617200D02*
X95440951Y-103664819D01*
X95440951Y-103664819D02*
X95250475Y-103664819D01*
X95250475Y-103664819D02*
X95155237Y-103617200D01*
X95155237Y-103617200D02*
X95107618Y-103521961D01*
X95107618Y-103521961D02*
X95107618Y-103474342D01*
X95107618Y-103474342D02*
X95155237Y-103379104D01*
X95155237Y-103379104D02*
X95250475Y-103331485D01*
X95250475Y-103331485D02*
X95393332Y-103331485D01*
X95393332Y-103331485D02*
X95488570Y-103283866D01*
X95488570Y-103283866D02*
X95536189Y-103188628D01*
X95536189Y-103188628D02*
X95536189Y-103141009D01*
X95536189Y-103141009D02*
X95488570Y-103045771D01*
X95488570Y-103045771D02*
X95393332Y-102998152D01*
X95393332Y-102998152D02*
X95250475Y-102998152D01*
X95250475Y-102998152D02*
X95155237Y-103045771D01*
X94298094Y-103617200D02*
X94393332Y-103664819D01*
X94393332Y-103664819D02*
X94583808Y-103664819D01*
X94583808Y-103664819D02*
X94679046Y-103617200D01*
X94679046Y-103617200D02*
X94726665Y-103521961D01*
X94726665Y-103521961D02*
X94726665Y-103141009D01*
X94726665Y-103141009D02*
X94679046Y-103045771D01*
X94679046Y-103045771D02*
X94583808Y-102998152D01*
X94583808Y-102998152D02*
X94393332Y-102998152D01*
X94393332Y-102998152D02*
X94298094Y-103045771D01*
X94298094Y-103045771D02*
X94250475Y-103141009D01*
X94250475Y-103141009D02*
X94250475Y-103236247D01*
X94250475Y-103236247D02*
X94726665Y-103331485D01*
X93821903Y-102998152D02*
X93821903Y-103664819D01*
X93821903Y-103093390D02*
X93774284Y-103045771D01*
X93774284Y-103045771D02*
X93679046Y-102998152D01*
X93679046Y-102998152D02*
X93536189Y-102998152D01*
X93536189Y-102998152D02*
X93440951Y-103045771D01*
X93440951Y-103045771D02*
X93393332Y-103141009D01*
X93393332Y-103141009D02*
X93393332Y-103664819D01*
X92964760Y-103617200D02*
X92869522Y-103664819D01*
X92869522Y-103664819D02*
X92679046Y-103664819D01*
X92679046Y-103664819D02*
X92583808Y-103617200D01*
X92583808Y-103617200D02*
X92536189Y-103521961D01*
X92536189Y-103521961D02*
X92536189Y-103474342D01*
X92536189Y-103474342D02*
X92583808Y-103379104D01*
X92583808Y-103379104D02*
X92679046Y-103331485D01*
X92679046Y-103331485D02*
X92821903Y-103331485D01*
X92821903Y-103331485D02*
X92917141Y-103283866D01*
X92917141Y-103283866D02*
X92964760Y-103188628D01*
X92964760Y-103188628D02*
X92964760Y-103141009D01*
X92964760Y-103141009D02*
X92917141Y-103045771D01*
X92917141Y-103045771D02*
X92821903Y-102998152D01*
X92821903Y-102998152D02*
X92679046Y-102998152D01*
X92679046Y-102998152D02*
X92583808Y-103045771D01*
X91964760Y-103664819D02*
X92059998Y-103617200D01*
X92059998Y-103617200D02*
X92107617Y-103569580D01*
X92107617Y-103569580D02*
X92155236Y-103474342D01*
X92155236Y-103474342D02*
X92155236Y-103188628D01*
X92155236Y-103188628D02*
X92107617Y-103093390D01*
X92107617Y-103093390D02*
X92059998Y-103045771D01*
X92059998Y-103045771D02*
X91964760Y-102998152D01*
X91964760Y-102998152D02*
X91821903Y-102998152D01*
X91821903Y-102998152D02*
X91726665Y-103045771D01*
X91726665Y-103045771D02*
X91679046Y-103093390D01*
X91679046Y-103093390D02*
X91631427Y-103188628D01*
X91631427Y-103188628D02*
X91631427Y-103474342D01*
X91631427Y-103474342D02*
X91679046Y-103569580D01*
X91679046Y-103569580D02*
X91726665Y-103617200D01*
X91726665Y-103617200D02*
X91821903Y-103664819D01*
X91821903Y-103664819D02*
X91964760Y-103664819D01*
X91202855Y-103664819D02*
X91202855Y-102998152D01*
X91202855Y-103188628D02*
X91155236Y-103093390D01*
X91155236Y-103093390D02*
X91107617Y-103045771D01*
X91107617Y-103045771D02*
X91012379Y-102998152D01*
X91012379Y-102998152D02*
X90917141Y-102998152D01*
X118189285Y-56319104D02*
X117713095Y-56319104D01*
X118284523Y-56604819D02*
X117951190Y-55604819D01*
X117951190Y-55604819D02*
X117617857Y-56604819D01*
X116760714Y-56604819D02*
X117332142Y-56604819D01*
X117046428Y-56604819D02*
X117046428Y-55604819D01*
X117046428Y-55604819D02*
X117141666Y-55747676D01*
X117141666Y-55747676D02*
X117236904Y-55842914D01*
X117236904Y-55842914D02*
X117332142Y-55890533D01*
%TO.C,REF\u002A\u002A*%
D11*
X101938487Y-96567689D02*
X102074848Y-96631770D01*
X102186598Y-96742584D01*
X102209761Y-96777273D01*
X102228973Y-96816590D01*
X102242598Y-96866145D01*
X102251877Y-96935568D01*
X102258050Y-97034490D01*
X102262357Y-97172539D01*
X102266038Y-97359346D01*
X102275180Y-97877542D01*
X102198383Y-97848344D01*
X102128068Y-97821520D01*
X102075424Y-97795706D01*
X102041060Y-97762431D01*
X102021093Y-97711510D01*
X102011639Y-97632761D01*
X102008814Y-97515999D01*
X102008736Y-97351042D01*
X102008336Y-97219558D01*
X102005951Y-97093394D01*
X102000259Y-97007223D01*
X101989961Y-96950672D01*
X101973755Y-96913370D01*
X101950345Y-96884943D01*
X101892793Y-96844827D01*
X101796112Y-96829706D01*
X101700465Y-96867917D01*
X101694152Y-96872810D01*
X101674477Y-96895413D01*
X101659963Y-96931664D01*
X101649394Y-96990511D01*
X101641555Y-97080901D01*
X101635227Y-97211779D01*
X101629195Y-97392095D01*
X101614598Y-97874907D01*
X101490517Y-97819283D01*
X101366437Y-97763659D01*
X101366437Y-97322851D01*
X101366951Y-97203098D01*
X101371380Y-97036506D01*
X101382594Y-96912468D01*
X101403272Y-96820987D01*
X101436093Y-96752066D01*
X101483736Y-96695707D01*
X101548877Y-96641914D01*
X101642571Y-96587719D01*
X101790175Y-96552339D01*
X101938487Y-96567689D01*
G36*
X101938487Y-96567689D02*
G01*
X102074848Y-96631770D01*
X102186598Y-96742584D01*
X102209761Y-96777273D01*
X102228973Y-96816590D01*
X102242598Y-96866145D01*
X102251877Y-96935568D01*
X102258050Y-97034490D01*
X102262357Y-97172539D01*
X102266038Y-97359346D01*
X102275180Y-97877542D01*
X102198383Y-97848344D01*
X102128068Y-97821520D01*
X102075424Y-97795706D01*
X102041060Y-97762431D01*
X102021093Y-97711510D01*
X102011639Y-97632761D01*
X102008814Y-97515999D01*
X102008736Y-97351042D01*
X102008336Y-97219558D01*
X102005951Y-97093394D01*
X102000259Y-97007223D01*
X101989961Y-96950672D01*
X101973755Y-96913370D01*
X101950345Y-96884943D01*
X101892793Y-96844827D01*
X101796112Y-96829706D01*
X101700465Y-96867917D01*
X101694152Y-96872810D01*
X101674477Y-96895413D01*
X101659963Y-96931664D01*
X101649394Y-96990511D01*
X101641555Y-97080901D01*
X101635227Y-97211779D01*
X101629195Y-97392095D01*
X101614598Y-97874907D01*
X101490517Y-97819283D01*
X101366437Y-97763659D01*
X101366437Y-97322851D01*
X101366951Y-97203098D01*
X101371380Y-97036506D01*
X101382594Y-96912468D01*
X101403272Y-96820987D01*
X101436093Y-96752066D01*
X101483736Y-96695707D01*
X101548877Y-96641914D01*
X101642571Y-96587719D01*
X101790175Y-96552339D01*
X101938487Y-96567689D01*
G37*
X104510778Y-97339502D02*
X104513668Y-97563736D01*
X104514471Y-97628785D01*
X104517040Y-97846260D01*
X104517556Y-98012672D01*
X104514437Y-98133846D01*
X104506100Y-98215607D01*
X104490962Y-98263781D01*
X104467441Y-98284194D01*
X104433956Y-98282672D01*
X104388923Y-98265039D01*
X104330761Y-98237121D01*
X104318332Y-98231164D01*
X104266578Y-98202006D01*
X104239550Y-98167314D01*
X104229207Y-98109470D01*
X104227509Y-98010857D01*
X104227433Y-97833793D01*
X104045038Y-97833793D01*
X103932840Y-97828880D01*
X103844620Y-97808953D01*
X103771358Y-97768678D01*
X103765896Y-97764741D01*
X103691558Y-97698243D01*
X103639823Y-97617908D01*
X103607196Y-97512758D01*
X103590182Y-97371815D01*
X103586030Y-97212588D01*
X103877241Y-97212588D01*
X103877291Y-97239276D01*
X103880064Y-97359738D01*
X103888967Y-97438484D01*
X103906617Y-97489618D01*
X103935632Y-97527241D01*
X103937440Y-97529038D01*
X104008753Y-97577720D01*
X104077865Y-97572921D01*
X104155925Y-97513971D01*
X104175019Y-97493823D01*
X104203142Y-97452515D01*
X104219000Y-97398787D01*
X104226009Y-97317326D01*
X104227586Y-97192821D01*
X104226220Y-97117445D01*
X104211402Y-96980362D01*
X104177579Y-96890548D01*
X104121389Y-96841460D01*
X104039472Y-96826552D01*
X104004956Y-96829729D01*
X103945235Y-96861254D01*
X103905752Y-96931505D01*
X103883942Y-97046583D01*
X103877241Y-97212588D01*
X103586030Y-97212588D01*
X103585287Y-97184101D01*
X103586371Y-97047122D01*
X103591307Y-96943364D01*
X103602272Y-96871412D01*
X103621438Y-96817500D01*
X103650977Y-96767864D01*
X103678092Y-96729931D01*
X103776550Y-96627522D01*
X103888100Y-96571903D01*
X104028246Y-96554297D01*
X104188635Y-96571847D01*
X104327288Y-96634797D01*
X104436951Y-96745824D01*
X104445218Y-96757578D01*
X104464499Y-96788813D01*
X104479269Y-96824507D01*
X104490254Y-96872364D01*
X104498174Y-96940087D01*
X104503753Y-97035382D01*
X104507713Y-97165952D01*
X104508188Y-97192821D01*
X104510778Y-97339502D01*
G36*
X104510778Y-97339502D02*
G01*
X104513668Y-97563736D01*
X104514471Y-97628785D01*
X104517040Y-97846260D01*
X104517556Y-98012672D01*
X104514437Y-98133846D01*
X104506100Y-98215607D01*
X104490962Y-98263781D01*
X104467441Y-98284194D01*
X104433956Y-98282672D01*
X104388923Y-98265039D01*
X104330761Y-98237121D01*
X104318332Y-98231164D01*
X104266578Y-98202006D01*
X104239550Y-98167314D01*
X104229207Y-98109470D01*
X104227509Y-98010857D01*
X104227433Y-97833793D01*
X104045038Y-97833793D01*
X103932840Y-97828880D01*
X103844620Y-97808953D01*
X103771358Y-97768678D01*
X103765896Y-97764741D01*
X103691558Y-97698243D01*
X103639823Y-97617908D01*
X103607196Y-97512758D01*
X103590182Y-97371815D01*
X103586030Y-97212588D01*
X103877241Y-97212588D01*
X103877291Y-97239276D01*
X103880064Y-97359738D01*
X103888967Y-97438484D01*
X103906617Y-97489618D01*
X103935632Y-97527241D01*
X103937440Y-97529038D01*
X104008753Y-97577720D01*
X104077865Y-97572921D01*
X104155925Y-97513971D01*
X104175019Y-97493823D01*
X104203142Y-97452515D01*
X104219000Y-97398787D01*
X104226009Y-97317326D01*
X104227586Y-97192821D01*
X104226220Y-97117445D01*
X104211402Y-96980362D01*
X104177579Y-96890548D01*
X104121389Y-96841460D01*
X104039472Y-96826552D01*
X104004956Y-96829729D01*
X103945235Y-96861254D01*
X103905752Y-96931505D01*
X103883942Y-97046583D01*
X103877241Y-97212588D01*
X103586030Y-97212588D01*
X103585287Y-97184101D01*
X103586371Y-97047122D01*
X103591307Y-96943364D01*
X103602272Y-96871412D01*
X103621438Y-96817500D01*
X103650977Y-96767864D01*
X103678092Y-96729931D01*
X103776550Y-96627522D01*
X103888100Y-96571903D01*
X104028246Y-96554297D01*
X104188635Y-96571847D01*
X104327288Y-96634797D01*
X104436951Y-96745824D01*
X104445218Y-96757578D01*
X104464499Y-96788813D01*
X104479269Y-96824507D01*
X104490254Y-96872364D01*
X104498174Y-96940087D01*
X104503753Y-97035382D01*
X104507713Y-97165952D01*
X104508188Y-97192821D01*
X104510778Y-97339502D01*
G37*
X97512553Y-97235287D02*
X97510219Y-97349135D01*
X97493739Y-97504320D01*
X97457883Y-97620612D01*
X97398455Y-97709411D01*
X97311257Y-97782119D01*
X97228195Y-97824150D01*
X97088709Y-97847538D01*
X96949412Y-97821965D01*
X96823510Y-97750694D01*
X96724210Y-97636991D01*
X96712219Y-97616024D01*
X96696384Y-97579291D01*
X96684638Y-97532415D01*
X96676378Y-97467355D01*
X96670998Y-97376070D01*
X96667892Y-97250519D01*
X96667797Y-97239379D01*
X96870345Y-97239379D01*
X96871035Y-97345644D01*
X96875400Y-97441762D01*
X96886192Y-97503811D01*
X96906126Y-97545502D01*
X96937916Y-97580543D01*
X96945364Y-97587279D01*
X97041060Y-97636992D01*
X97142312Y-97631905D01*
X97236614Y-97572362D01*
X97264694Y-97541514D01*
X97288196Y-97500618D01*
X97301322Y-97444080D01*
X97307030Y-97357657D01*
X97308276Y-97227106D01*
X97307661Y-97127487D01*
X97303407Y-97030251D01*
X97292682Y-96967502D01*
X97272707Y-96925382D01*
X97240704Y-96890032D01*
X97221905Y-96874114D01*
X97124492Y-96831235D01*
X97022437Y-96837985D01*
X96933825Y-96894123D01*
X96914749Y-96916382D01*
X96891486Y-96958293D01*
X96878036Y-97016822D01*
X96871841Y-97105880D01*
X96870345Y-97239379D01*
X96667797Y-97239379D01*
X96666457Y-97082661D01*
X96666086Y-96864455D01*
X96665977Y-96187072D01*
X96760862Y-96226819D01*
X96785949Y-96237699D01*
X96825881Y-96262268D01*
X96848739Y-96299475D01*
X96861301Y-96364541D01*
X96870345Y-96472687D01*
X96878605Y-96569788D01*
X96889523Y-96633535D01*
X96905165Y-96657323D01*
X96928736Y-96650943D01*
X96988801Y-96628525D01*
X97096145Y-96622967D01*
X97211624Y-96643728D01*
X97311257Y-96688455D01*
X97366072Y-96729856D01*
X97436452Y-96810632D01*
X97481528Y-96914195D01*
X97505496Y-97051947D01*
X97512239Y-97227106D01*
X97512553Y-97235287D01*
G36*
X97512553Y-97235287D02*
G01*
X97510219Y-97349135D01*
X97493739Y-97504320D01*
X97457883Y-97620612D01*
X97398455Y-97709411D01*
X97311257Y-97782119D01*
X97228195Y-97824150D01*
X97088709Y-97847538D01*
X96949412Y-97821965D01*
X96823510Y-97750694D01*
X96724210Y-97636991D01*
X96712219Y-97616024D01*
X96696384Y-97579291D01*
X96684638Y-97532415D01*
X96676378Y-97467355D01*
X96670998Y-97376070D01*
X96667892Y-97250519D01*
X96667797Y-97239379D01*
X96870345Y-97239379D01*
X96871035Y-97345644D01*
X96875400Y-97441762D01*
X96886192Y-97503811D01*
X96906126Y-97545502D01*
X96937916Y-97580543D01*
X96945364Y-97587279D01*
X97041060Y-97636992D01*
X97142312Y-97631905D01*
X97236614Y-97572362D01*
X97264694Y-97541514D01*
X97288196Y-97500618D01*
X97301322Y-97444080D01*
X97307030Y-97357657D01*
X97308276Y-97227106D01*
X97307661Y-97127487D01*
X97303407Y-97030251D01*
X97292682Y-96967502D01*
X97272707Y-96925382D01*
X97240704Y-96890032D01*
X97221905Y-96874114D01*
X97124492Y-96831235D01*
X97022437Y-96837985D01*
X96933825Y-96894123D01*
X96914749Y-96916382D01*
X96891486Y-96958293D01*
X96878036Y-97016822D01*
X96871841Y-97105880D01*
X96870345Y-97239379D01*
X96667797Y-97239379D01*
X96666457Y-97082661D01*
X96666086Y-96864455D01*
X96665977Y-96187072D01*
X96760862Y-96226819D01*
X96785949Y-96237699D01*
X96825881Y-96262268D01*
X96848739Y-96299475D01*
X96861301Y-96364541D01*
X96870345Y-96472687D01*
X96878605Y-96569788D01*
X96889523Y-96633535D01*
X96905165Y-96657323D01*
X96928736Y-96650943D01*
X96988801Y-96628525D01*
X97096145Y-96622967D01*
X97211624Y-96643728D01*
X97311257Y-96688455D01*
X97366072Y-96729856D01*
X97436452Y-96810632D01*
X97481528Y-96914195D01*
X97505496Y-97051947D01*
X97512239Y-97227106D01*
X97512553Y-97235287D01*
G37*
X96352410Y-96630970D02*
X96416442Y-96656066D01*
X96490805Y-96689947D01*
X96490805Y-97668727D01*
X96398415Y-97761117D01*
X96377310Y-97781835D01*
X96318847Y-97827885D01*
X96259886Y-97842801D01*
X96172150Y-97835934D01*
X96136429Y-97831494D01*
X96044301Y-97822102D01*
X95979885Y-97818361D01*
X95960778Y-97818933D01*
X95882390Y-97825126D01*
X95787620Y-97835934D01*
X95757298Y-97839647D01*
X95680911Y-97841107D01*
X95625022Y-97818047D01*
X95561355Y-97761117D01*
X95468965Y-97668727D01*
X95468965Y-97145455D01*
X95469685Y-96990821D01*
X95471929Y-96843391D01*
X95475421Y-96726653D01*
X95479876Y-96649840D01*
X95485013Y-96622184D01*
X95486090Y-96622258D01*
X95523407Y-96636019D01*
X95586457Y-96666344D01*
X95671854Y-96710505D01*
X95679893Y-97169965D01*
X95687931Y-97629425D01*
X95863103Y-97629425D01*
X95871092Y-97125805D01*
X95873624Y-96988904D01*
X95877249Y-96842579D01*
X95881177Y-96726411D01*
X95885080Y-96649809D01*
X95888632Y-96622184D01*
X95889653Y-96622281D01*
X95925051Y-96632443D01*
X95990126Y-96654235D01*
X96082069Y-96686287D01*
X96082516Y-97128661D01*
X96082964Y-97205507D01*
X96086069Y-97354834D01*
X96091622Y-97479544D01*
X96099033Y-97568379D01*
X96107714Y-97610083D01*
X96138771Y-97632389D01*
X96202152Y-97639278D01*
X96271839Y-97629425D01*
X96279827Y-97125805D01*
X96282686Y-96997828D01*
X96288614Y-96846348D01*
X96296365Y-96727530D01*
X96305343Y-96649950D01*
X96314948Y-96622184D01*
X96352410Y-96630970D01*
G36*
X96352410Y-96630970D02*
G01*
X96416442Y-96656066D01*
X96490805Y-96689947D01*
X96490805Y-97668727D01*
X96398415Y-97761117D01*
X96377310Y-97781835D01*
X96318847Y-97827885D01*
X96259886Y-97842801D01*
X96172150Y-97835934D01*
X96136429Y-97831494D01*
X96044301Y-97822102D01*
X95979885Y-97818361D01*
X95960778Y-97818933D01*
X95882390Y-97825126D01*
X95787620Y-97835934D01*
X95757298Y-97839647D01*
X95680911Y-97841107D01*
X95625022Y-97818047D01*
X95561355Y-97761117D01*
X95468965Y-97668727D01*
X95468965Y-97145455D01*
X95469685Y-96990821D01*
X95471929Y-96843391D01*
X95475421Y-96726653D01*
X95479876Y-96649840D01*
X95485013Y-96622184D01*
X95486090Y-96622258D01*
X95523407Y-96636019D01*
X95586457Y-96666344D01*
X95671854Y-96710505D01*
X95679893Y-97169965D01*
X95687931Y-97629425D01*
X95863103Y-97629425D01*
X95871092Y-97125805D01*
X95873624Y-96988904D01*
X95877249Y-96842579D01*
X95881177Y-96726411D01*
X95885080Y-96649809D01*
X95888632Y-96622184D01*
X95889653Y-96622281D01*
X95925051Y-96632443D01*
X95990126Y-96654235D01*
X96082069Y-96686287D01*
X96082516Y-97128661D01*
X96082964Y-97205507D01*
X96086069Y-97354834D01*
X96091622Y-97479544D01*
X96099033Y-97568379D01*
X96107714Y-97610083D01*
X96138771Y-97632389D01*
X96202152Y-97639278D01*
X96271839Y-97629425D01*
X96279827Y-97125805D01*
X96282686Y-96997828D01*
X96288614Y-96846348D01*
X96296365Y-96727530D01*
X96305343Y-96649950D01*
X96314948Y-96622184D01*
X96352410Y-96630970D01*
G37*
X93996725Y-96634619D02*
X94117261Y-96679393D01*
X94167388Y-96713034D01*
X94218152Y-96761236D01*
X94254362Y-96822551D01*
X94278393Y-96906024D01*
X94292618Y-97020697D01*
X94299412Y-97175613D01*
X94301149Y-97379814D01*
X94300809Y-97485341D01*
X94299101Y-97629541D01*
X94296201Y-97744620D01*
X94292384Y-97820822D01*
X94287925Y-97848391D01*
X94258909Y-97839272D01*
X94200339Y-97814509D01*
X94198581Y-97813707D01*
X94168167Y-97797785D01*
X94147712Y-97775938D01*
X94135240Y-97737672D01*
X94128777Y-97672495D01*
X94126348Y-97569913D01*
X94125977Y-97419433D01*
X94125229Y-97323974D01*
X94117256Y-97144571D01*
X94098998Y-97013163D01*
X94068526Y-96922859D01*
X94023912Y-96866767D01*
X93963226Y-96837994D01*
X93954807Y-96835989D01*
X93841139Y-96834423D01*
X93752492Y-96885348D01*
X93691265Y-96987445D01*
X93680346Y-97016961D01*
X93655458Y-97082283D01*
X93642854Y-97112300D01*
X93616969Y-97108164D01*
X93560439Y-97085717D01*
X93507715Y-97048647D01*
X93483678Y-96978587D01*
X93490847Y-96928406D01*
X93534897Y-96826618D01*
X93606123Y-96731235D01*
X93689415Y-96665269D01*
X93724310Y-96650018D01*
X93856443Y-96624521D01*
X93996725Y-96634619D01*
G36*
X93996725Y-96634619D02*
G01*
X94117261Y-96679393D01*
X94167388Y-96713034D01*
X94218152Y-96761236D01*
X94254362Y-96822551D01*
X94278393Y-96906024D01*
X94292618Y-97020697D01*
X94299412Y-97175613D01*
X94301149Y-97379814D01*
X94300809Y-97485341D01*
X94299101Y-97629541D01*
X94296201Y-97744620D01*
X94292384Y-97820822D01*
X94287925Y-97848391D01*
X94258909Y-97839272D01*
X94200339Y-97814509D01*
X94198581Y-97813707D01*
X94168167Y-97797785D01*
X94147712Y-97775938D01*
X94135240Y-97737672D01*
X94128777Y-97672495D01*
X94126348Y-97569913D01*
X94125977Y-97419433D01*
X94125229Y-97323974D01*
X94117256Y-97144571D01*
X94098998Y-97013163D01*
X94068526Y-96922859D01*
X94023912Y-96866767D01*
X93963226Y-96837994D01*
X93954807Y-96835989D01*
X93841139Y-96834423D01*
X93752492Y-96885348D01*
X93691265Y-96987445D01*
X93680346Y-97016961D01*
X93655458Y-97082283D01*
X93642854Y-97112300D01*
X93616969Y-97108164D01*
X93560439Y-97085717D01*
X93507715Y-97048647D01*
X93483678Y-96978587D01*
X93490847Y-96928406D01*
X93534897Y-96826618D01*
X93606123Y-96731235D01*
X93689415Y-96665269D01*
X93724310Y-96650018D01*
X93856443Y-96624521D01*
X93996725Y-96634619D01*
G37*
X99289175Y-87163045D02*
X99441895Y-87164039D01*
X99551792Y-87166593D01*
X99626235Y-87171445D01*
X99672594Y-87179331D01*
X99698239Y-87190988D01*
X99710539Y-87207153D01*
X99716865Y-87228563D01*
X99717047Y-87229332D01*
X99727441Y-87279663D01*
X99746339Y-87376888D01*
X99771802Y-87510810D01*
X99801890Y-87671235D01*
X99834664Y-87847967D01*
X99837337Y-87862428D01*
X99870010Y-88033959D01*
X99900413Y-88184625D01*
X99926568Y-88305267D01*
X99946496Y-88386729D01*
X99958220Y-88419852D01*
X99958282Y-88419905D01*
X99995229Y-88438229D01*
X100071057Y-88468677D01*
X100169425Y-88504685D01*
X100174965Y-88506640D01*
X100300724Y-88554170D01*
X100447011Y-88613783D01*
X100583293Y-88673056D01*
X100807390Y-88774765D01*
X101303618Y-88435897D01*
X101338570Y-88412063D01*
X101488280Y-88310755D01*
X101621867Y-88221575D01*
X101731343Y-88149773D01*
X101808718Y-88100603D01*
X101846004Y-88079317D01*
X101871552Y-88084196D01*
X101929555Y-88122002D01*
X102019195Y-88196870D01*
X102142957Y-88310903D01*
X102303328Y-88466205D01*
X102317679Y-88480341D01*
X102444933Y-88606999D01*
X102557969Y-88721745D01*
X102649867Y-88817391D01*
X102713707Y-88886746D01*
X102742570Y-88922620D01*
X102742664Y-88922794D01*
X102746331Y-88950106D01*
X102732808Y-88994408D01*
X102698684Y-89061761D01*
X102640548Y-89158226D01*
X102554988Y-89289863D01*
X102438594Y-89462734D01*
X102418759Y-89491912D01*
X102318445Y-89639726D01*
X102229923Y-89770577D01*
X102158465Y-89876643D01*
X102109343Y-89950102D01*
X102087831Y-89983130D01*
X102086208Y-89990126D01*
X102096387Y-90042326D01*
X102126879Y-90127561D01*
X102172712Y-90231291D01*
X102235000Y-90366951D01*
X102304548Y-90527921D01*
X102363609Y-90673621D01*
X102378252Y-90711333D01*
X102416600Y-90807622D01*
X102444770Y-90874704D01*
X102457497Y-90899885D01*
X102471545Y-90901767D01*
X102534681Y-90912651D01*
X102638019Y-90931449D01*
X102770809Y-90956115D01*
X102922297Y-90984604D01*
X103081732Y-91014873D01*
X103238361Y-91044875D01*
X103381433Y-91072566D01*
X103500195Y-91095900D01*
X103583896Y-91112833D01*
X103621782Y-91121320D01*
X103628063Y-91123713D01*
X103643373Y-91136619D01*
X103654763Y-91164096D01*
X103662803Y-91213446D01*
X103668064Y-91291973D01*
X103671116Y-91406980D01*
X103672529Y-91565770D01*
X103672873Y-91775645D01*
X103672873Y-92413906D01*
X103519598Y-92444160D01*
X103501057Y-92447785D01*
X103402596Y-92466569D01*
X103266448Y-92492093D01*
X103108087Y-92521468D01*
X102942988Y-92551806D01*
X102877973Y-92564009D01*
X102732697Y-92593697D01*
X102611626Y-92621770D01*
X102525886Y-92645536D01*
X102486601Y-92662301D01*
X102468799Y-92689694D01*
X102436389Y-92762174D01*
X102403234Y-92855977D01*
X102391564Y-92891103D01*
X102348604Y-93006409D01*
X102293192Y-93142876D01*
X102234353Y-93277954D01*
X102202884Y-93348509D01*
X102158051Y-93453895D01*
X102127240Y-93532818D01*
X102115785Y-93572053D01*
X102116422Y-93575014D01*
X102138150Y-93616639D01*
X102187146Y-93696969D01*
X102258438Y-93808220D01*
X102347054Y-93942605D01*
X102448023Y-94092340D01*
X102780261Y-94579931D01*
X102343771Y-95017149D01*
X102301555Y-95059221D01*
X102172470Y-95185153D01*
X102057107Y-95293754D01*
X101962224Y-95378903D01*
X101894582Y-95434482D01*
X101860938Y-95454368D01*
X101824402Y-95439238D01*
X101747890Y-95395801D01*
X101640196Y-95329270D01*
X101509767Y-95244867D01*
X101365052Y-95147816D01*
X101222910Y-95051964D01*
X101094678Y-94967557D01*
X100990054Y-94900850D01*
X100917171Y-94857024D01*
X100884158Y-94841264D01*
X100882223Y-94841408D01*
X100838369Y-94856945D01*
X100760598Y-94893121D01*
X100664392Y-94942785D01*
X100663381Y-94943329D01*
X100535605Y-95007326D01*
X100448051Y-95038591D01*
X100393726Y-95038677D01*
X100365641Y-95009138D01*
X100353752Y-94980061D01*
X100321668Y-94902188D01*
X100272247Y-94782475D01*
X100208118Y-94627286D01*
X100131911Y-94442984D01*
X100046255Y-94235933D01*
X99953781Y-94012496D01*
X99869962Y-93809226D01*
X99784678Y-93600649D01*
X99709222Y-93414263D01*
X99646126Y-93256407D01*
X99597923Y-93133419D01*
X99567144Y-93051639D01*
X99556322Y-93017406D01*
X99576991Y-92986015D01*
X99634409Y-92933602D01*
X99715688Y-92872704D01*
X99910820Y-92713387D01*
X100085445Y-92509807D01*
X100213235Y-92285808D01*
X100293402Y-92048003D01*
X100325160Y-91803007D01*
X100307722Y-91557433D01*
X100240301Y-91317895D01*
X100122111Y-91091007D01*
X99952364Y-90883383D01*
X99863856Y-90802527D01*
X99651804Y-90659559D01*
X99424905Y-90566352D01*
X99189791Y-90520687D01*
X98953094Y-90520344D01*
X98721446Y-90563105D01*
X98501478Y-90646750D01*
X98299822Y-90769061D01*
X98123111Y-90927817D01*
X97977977Y-91120801D01*
X97871050Y-91345793D01*
X97808964Y-91600575D01*
X97797569Y-91723377D01*
X97813246Y-91989434D01*
X97883846Y-92241856D01*
X98007282Y-92476182D01*
X98181466Y-92687952D01*
X98404311Y-92872704D01*
X98482561Y-92931123D01*
X98541244Y-92984110D01*
X98563678Y-93017356D01*
X98554732Y-93046339D01*
X98525703Y-93123996D01*
X98479026Y-93243451D01*
X98417231Y-93398362D01*
X98342850Y-93582392D01*
X98258412Y-93789200D01*
X98166449Y-94012446D01*
X98082771Y-94214742D01*
X97996366Y-94423686D01*
X97919138Y-94610498D01*
X97853716Y-94768814D01*
X97802731Y-94892269D01*
X97768812Y-94974498D01*
X97754590Y-95009138D01*
X97754425Y-95009548D01*
X97725972Y-95038798D01*
X97671382Y-95038463D01*
X97583609Y-95006980D01*
X97455608Y-94942785D01*
X97445532Y-94937380D01*
X97350481Y-94888750D01*
X97275424Y-94854328D01*
X97235842Y-94841264D01*
X97203400Y-94856702D01*
X97130895Y-94900258D01*
X97026565Y-94966751D01*
X96898539Y-95050998D01*
X96754948Y-95147816D01*
X96613468Y-95242734D01*
X96482611Y-95327490D01*
X96374292Y-95394496D01*
X96296960Y-95438529D01*
X96259062Y-95454368D01*
X96252607Y-95452357D01*
X96207609Y-95420658D01*
X96130727Y-95355181D01*
X96028721Y-95262048D01*
X95908351Y-95147381D01*
X95776379Y-95017300D01*
X95340039Y-94580232D01*
X96019733Y-93580440D01*
X95916402Y-93356886D01*
X95916096Y-93356225D01*
X95854046Y-93213714D01*
X95790640Y-93055018D01*
X95739558Y-92914368D01*
X95731827Y-92891683D01*
X95692852Y-92786370D01*
X95657707Y-92704534D01*
X95633195Y-92662301D01*
X95623212Y-92656337D01*
X95563286Y-92636329D01*
X95461532Y-92610442D01*
X95329068Y-92581370D01*
X95177011Y-92551806D01*
X95131466Y-92543467D01*
X94966685Y-92513107D01*
X94812930Y-92484509D01*
X94685678Y-92460564D01*
X94600402Y-92444160D01*
X94447126Y-92413906D01*
X94447126Y-91775645D01*
X94447160Y-91697165D01*
X94447808Y-91505703D01*
X94449720Y-91362812D01*
X94453469Y-91261189D01*
X94459622Y-91193531D01*
X94468751Y-91152536D01*
X94481427Y-91130900D01*
X94498218Y-91121320D01*
X94514474Y-91117439D01*
X94580748Y-91103710D01*
X94686479Y-91082745D01*
X94820915Y-91056588D01*
X94973302Y-91027283D01*
X95132890Y-90996877D01*
X95288925Y-90967413D01*
X95430657Y-90940937D01*
X95547331Y-90919494D01*
X95628197Y-90905128D01*
X95662503Y-90899885D01*
X95664822Y-90896720D01*
X95683474Y-90855642D01*
X95715753Y-90777044D01*
X95756391Y-90673621D01*
X95812788Y-90534273D01*
X95882214Y-90373226D01*
X95947288Y-90231291D01*
X95962202Y-90199432D01*
X96004047Y-90099669D01*
X96029118Y-90022721D01*
X96032426Y-89983130D01*
X96030720Y-89980325D01*
X96003631Y-89939005D01*
X95949927Y-89858740D01*
X95874877Y-89747350D01*
X95783746Y-89612655D01*
X95681800Y-89462476D01*
X95566930Y-89291851D01*
X95480761Y-89159311D01*
X95422131Y-89062112D01*
X95387650Y-88994234D01*
X95373926Y-88949656D01*
X95377568Y-88922361D01*
X95378794Y-88920313D01*
X95411747Y-88880536D01*
X95478927Y-88808052D01*
X95573419Y-88710046D01*
X95688306Y-88593702D01*
X95816672Y-88466205D01*
X95949831Y-88336821D01*
X96080269Y-88215209D01*
X96176119Y-88133156D01*
X96239866Y-88088560D01*
X96273996Y-88079317D01*
X96278456Y-88081393D01*
X96325421Y-88109385D01*
X96410685Y-88164084D01*
X96526259Y-88240237D01*
X96664154Y-88332592D01*
X96816381Y-88435897D01*
X97312610Y-88774765D01*
X97536707Y-88673056D01*
X97543219Y-88670109D01*
X97680804Y-88610504D01*
X97826767Y-88551222D01*
X97950575Y-88504685D01*
X97951122Y-88504493D01*
X98049414Y-88468497D01*
X98125081Y-88438095D01*
X98161780Y-88419852D01*
X98162374Y-88419190D01*
X98174833Y-88381831D01*
X98195336Y-88296871D01*
X98221907Y-88173469D01*
X98252567Y-88020782D01*
X98285336Y-87847967D01*
X98286478Y-87841774D01*
X98319193Y-87665431D01*
X98349155Y-87505743D01*
X98374425Y-87372905D01*
X98393065Y-87277113D01*
X98403135Y-87228563D01*
X98403779Y-87225873D01*
X98410408Y-87205088D01*
X98423841Y-87189466D01*
X98451446Y-87178270D01*
X98500593Y-87170762D01*
X98578653Y-87166205D01*
X98692994Y-87163863D01*
X98850986Y-87162998D01*
X99060000Y-87162874D01*
X99086262Y-87162874D01*
X99289175Y-87163045D01*
G36*
X99289175Y-87163045D02*
G01*
X99441895Y-87164039D01*
X99551792Y-87166593D01*
X99626235Y-87171445D01*
X99672594Y-87179331D01*
X99698239Y-87190988D01*
X99710539Y-87207153D01*
X99716865Y-87228563D01*
X99717047Y-87229332D01*
X99727441Y-87279663D01*
X99746339Y-87376888D01*
X99771802Y-87510810D01*
X99801890Y-87671235D01*
X99834664Y-87847967D01*
X99837337Y-87862428D01*
X99870010Y-88033959D01*
X99900413Y-88184625D01*
X99926568Y-88305267D01*
X99946496Y-88386729D01*
X99958220Y-88419852D01*
X99958282Y-88419905D01*
X99995229Y-88438229D01*
X100071057Y-88468677D01*
X100169425Y-88504685D01*
X100174965Y-88506640D01*
X100300724Y-88554170D01*
X100447011Y-88613783D01*
X100583293Y-88673056D01*
X100807390Y-88774765D01*
X101303618Y-88435897D01*
X101338570Y-88412063D01*
X101488280Y-88310755D01*
X101621867Y-88221575D01*
X101731343Y-88149773D01*
X101808718Y-88100603D01*
X101846004Y-88079317D01*
X101871552Y-88084196D01*
X101929555Y-88122002D01*
X102019195Y-88196870D01*
X102142957Y-88310903D01*
X102303328Y-88466205D01*
X102317679Y-88480341D01*
X102444933Y-88606999D01*
X102557969Y-88721745D01*
X102649867Y-88817391D01*
X102713707Y-88886746D01*
X102742570Y-88922620D01*
X102742664Y-88922794D01*
X102746331Y-88950106D01*
X102732808Y-88994408D01*
X102698684Y-89061761D01*
X102640548Y-89158226D01*
X102554988Y-89289863D01*
X102438594Y-89462734D01*
X102418759Y-89491912D01*
X102318445Y-89639726D01*
X102229923Y-89770577D01*
X102158465Y-89876643D01*
X102109343Y-89950102D01*
X102087831Y-89983130D01*
X102086208Y-89990126D01*
X102096387Y-90042326D01*
X102126879Y-90127561D01*
X102172712Y-90231291D01*
X102235000Y-90366951D01*
X102304548Y-90527921D01*
X102363609Y-90673621D01*
X102378252Y-90711333D01*
X102416600Y-90807622D01*
X102444770Y-90874704D01*
X102457497Y-90899885D01*
X102471545Y-90901767D01*
X102534681Y-90912651D01*
X102638019Y-90931449D01*
X102770809Y-90956115D01*
X102922297Y-90984604D01*
X103081732Y-91014873D01*
X103238361Y-91044875D01*
X103381433Y-91072566D01*
X103500195Y-91095900D01*
X103583896Y-91112833D01*
X103621782Y-91121320D01*
X103628063Y-91123713D01*
X103643373Y-91136619D01*
X103654763Y-91164096D01*
X103662803Y-91213446D01*
X103668064Y-91291973D01*
X103671116Y-91406980D01*
X103672529Y-91565770D01*
X103672873Y-91775645D01*
X103672873Y-92413906D01*
X103519598Y-92444160D01*
X103501057Y-92447785D01*
X103402596Y-92466569D01*
X103266448Y-92492093D01*
X103108087Y-92521468D01*
X102942988Y-92551806D01*
X102877973Y-92564009D01*
X102732697Y-92593697D01*
X102611626Y-92621770D01*
X102525886Y-92645536D01*
X102486601Y-92662301D01*
X102468799Y-92689694D01*
X102436389Y-92762174D01*
X102403234Y-92855977D01*
X102391564Y-92891103D01*
X102348604Y-93006409D01*
X102293192Y-93142876D01*
X102234353Y-93277954D01*
X102202884Y-93348509D01*
X102158051Y-93453895D01*
X102127240Y-93532818D01*
X102115785Y-93572053D01*
X102116422Y-93575014D01*
X102138150Y-93616639D01*
X102187146Y-93696969D01*
X102258438Y-93808220D01*
X102347054Y-93942605D01*
X102448023Y-94092340D01*
X102780261Y-94579931D01*
X102343771Y-95017149D01*
X102301555Y-95059221D01*
X102172470Y-95185153D01*
X102057107Y-95293754D01*
X101962224Y-95378903D01*
X101894582Y-95434482D01*
X101860938Y-95454368D01*
X101824402Y-95439238D01*
X101747890Y-95395801D01*
X101640196Y-95329270D01*
X101509767Y-95244867D01*
X101365052Y-95147816D01*
X101222910Y-95051964D01*
X101094678Y-94967557D01*
X100990054Y-94900850D01*
X100917171Y-94857024D01*
X100884158Y-94841264D01*
X100882223Y-94841408D01*
X100838369Y-94856945D01*
X100760598Y-94893121D01*
X100664392Y-94942785D01*
X100663381Y-94943329D01*
X100535605Y-95007326D01*
X100448051Y-95038591D01*
X100393726Y-95038677D01*
X100365641Y-95009138D01*
X100353752Y-94980061D01*
X100321668Y-94902188D01*
X100272247Y-94782475D01*
X100208118Y-94627286D01*
X100131911Y-94442984D01*
X100046255Y-94235933D01*
X99953781Y-94012496D01*
X99869962Y-93809226D01*
X99784678Y-93600649D01*
X99709222Y-93414263D01*
X99646126Y-93256407D01*
X99597923Y-93133419D01*
X99567144Y-93051639D01*
X99556322Y-93017406D01*
X99576991Y-92986015D01*
X99634409Y-92933602D01*
X99715688Y-92872704D01*
X99910820Y-92713387D01*
X100085445Y-92509807D01*
X100213235Y-92285808D01*
X100293402Y-92048003D01*
X100325160Y-91803007D01*
X100307722Y-91557433D01*
X100240301Y-91317895D01*
X100122111Y-91091007D01*
X99952364Y-90883383D01*
X99863856Y-90802527D01*
X99651804Y-90659559D01*
X99424905Y-90566352D01*
X99189791Y-90520687D01*
X98953094Y-90520344D01*
X98721446Y-90563105D01*
X98501478Y-90646750D01*
X98299822Y-90769061D01*
X98123111Y-90927817D01*
X97977977Y-91120801D01*
X97871050Y-91345793D01*
X97808964Y-91600575D01*
X97797569Y-91723377D01*
X97813246Y-91989434D01*
X97883846Y-92241856D01*
X98007282Y-92476182D01*
X98181466Y-92687952D01*
X98404311Y-92872704D01*
X98482561Y-92931123D01*
X98541244Y-92984110D01*
X98563678Y-93017356D01*
X98554732Y-93046339D01*
X98525703Y-93123996D01*
X98479026Y-93243451D01*
X98417231Y-93398362D01*
X98342850Y-93582392D01*
X98258412Y-93789200D01*
X98166449Y-94012446D01*
X98082771Y-94214742D01*
X97996366Y-94423686D01*
X97919138Y-94610498D01*
X97853716Y-94768814D01*
X97802731Y-94892269D01*
X97768812Y-94974498D01*
X97754590Y-95009138D01*
X97754425Y-95009548D01*
X97725972Y-95038798D01*
X97671382Y-95038463D01*
X97583609Y-95006980D01*
X97455608Y-94942785D01*
X97445532Y-94937380D01*
X97350481Y-94888750D01*
X97275424Y-94854328D01*
X97235842Y-94841264D01*
X97203400Y-94856702D01*
X97130895Y-94900258D01*
X97026565Y-94966751D01*
X96898539Y-95050998D01*
X96754948Y-95147816D01*
X96613468Y-95242734D01*
X96482611Y-95327490D01*
X96374292Y-95394496D01*
X96296960Y-95438529D01*
X96259062Y-95454368D01*
X96252607Y-95452357D01*
X96207609Y-95420658D01*
X96130727Y-95355181D01*
X96028721Y-95262048D01*
X95908351Y-95147381D01*
X95776379Y-95017300D01*
X95340039Y-94580232D01*
X96019733Y-93580440D01*
X95916402Y-93356886D01*
X95916096Y-93356225D01*
X95854046Y-93213714D01*
X95790640Y-93055018D01*
X95739558Y-92914368D01*
X95731827Y-92891683D01*
X95692852Y-92786370D01*
X95657707Y-92704534D01*
X95633195Y-92662301D01*
X95623212Y-92656337D01*
X95563286Y-92636329D01*
X95461532Y-92610442D01*
X95329068Y-92581370D01*
X95177011Y-92551806D01*
X95131466Y-92543467D01*
X94966685Y-92513107D01*
X94812930Y-92484509D01*
X94685678Y-92460564D01*
X94600402Y-92444160D01*
X94447126Y-92413906D01*
X94447126Y-91775645D01*
X94447160Y-91697165D01*
X94447808Y-91505703D01*
X94449720Y-91362812D01*
X94453469Y-91261189D01*
X94459622Y-91193531D01*
X94468751Y-91152536D01*
X94481427Y-91130900D01*
X94498218Y-91121320D01*
X94514474Y-91117439D01*
X94580748Y-91103710D01*
X94686479Y-91082745D01*
X94820915Y-91056588D01*
X94973302Y-91027283D01*
X95132890Y-90996877D01*
X95288925Y-90967413D01*
X95430657Y-90940937D01*
X95547331Y-90919494D01*
X95628197Y-90905128D01*
X95662503Y-90899885D01*
X95664822Y-90896720D01*
X95683474Y-90855642D01*
X95715753Y-90777044D01*
X95756391Y-90673621D01*
X95812788Y-90534273D01*
X95882214Y-90373226D01*
X95947288Y-90231291D01*
X95962202Y-90199432D01*
X96004047Y-90099669D01*
X96029118Y-90022721D01*
X96032426Y-89983130D01*
X96030720Y-89980325D01*
X96003631Y-89939005D01*
X95949927Y-89858740D01*
X95874877Y-89747350D01*
X95783746Y-89612655D01*
X95681800Y-89462476D01*
X95566930Y-89291851D01*
X95480761Y-89159311D01*
X95422131Y-89062112D01*
X95387650Y-88994234D01*
X95373926Y-88949656D01*
X95377568Y-88922361D01*
X95378794Y-88920313D01*
X95411747Y-88880536D01*
X95478927Y-88808052D01*
X95573419Y-88710046D01*
X95688306Y-88593702D01*
X95816672Y-88466205D01*
X95949831Y-88336821D01*
X96080269Y-88215209D01*
X96176119Y-88133156D01*
X96239866Y-88088560D01*
X96273996Y-88079317D01*
X96278456Y-88081393D01*
X96325421Y-88109385D01*
X96410685Y-88164084D01*
X96526259Y-88240237D01*
X96664154Y-88332592D01*
X96816381Y-88435897D01*
X97312610Y-88774765D01*
X97536707Y-88673056D01*
X97543219Y-88670109D01*
X97680804Y-88610504D01*
X97826767Y-88551222D01*
X97950575Y-88504685D01*
X97951122Y-88504493D01*
X98049414Y-88468497D01*
X98125081Y-88438095D01*
X98161780Y-88419852D01*
X98162374Y-88419190D01*
X98174833Y-88381831D01*
X98195336Y-88296871D01*
X98221907Y-88173469D01*
X98252567Y-88020782D01*
X98285336Y-87847967D01*
X98286478Y-87841774D01*
X98319193Y-87665431D01*
X98349155Y-87505743D01*
X98374425Y-87372905D01*
X98393065Y-87277113D01*
X98403135Y-87228563D01*
X98403779Y-87225873D01*
X98410408Y-87205088D01*
X98423841Y-87189466D01*
X98451446Y-87178270D01*
X98500593Y-87170762D01*
X98578653Y-87166205D01*
X98692994Y-87163863D01*
X98850986Y-87162998D01*
X99060000Y-87162874D01*
X99086262Y-87162874D01*
X99289175Y-87163045D01*
G37*
X99239995Y-96653674D02*
X99340355Y-96712191D01*
X99384505Y-96757784D01*
X99469347Y-96894072D01*
X99497931Y-97042658D01*
X99497931Y-97144882D01*
X99403963Y-97105372D01*
X99338977Y-97065504D01*
X99287763Y-96982734D01*
X99282504Y-96965669D01*
X99225903Y-96878724D01*
X99140594Y-96831758D01*
X99042641Y-96829741D01*
X98948106Y-96877644D01*
X98933993Y-96889998D01*
X98886797Y-96943683D01*
X98879003Y-96990488D01*
X98914706Y-97036446D01*
X98998003Y-97087588D01*
X99132988Y-97149948D01*
X99142118Y-97153897D01*
X99291969Y-97223772D01*
X99394316Y-97285672D01*
X99457320Y-97347476D01*
X99489138Y-97417062D01*
X99497931Y-97502308D01*
X99486409Y-97596816D01*
X99428228Y-97717785D01*
X99325875Y-97804688D01*
X99251843Y-97830778D01*
X99147367Y-97845055D01*
X99045917Y-97842006D01*
X98973472Y-97820467D01*
X98965777Y-97815104D01*
X98945341Y-97777632D01*
X98959522Y-97711591D01*
X98984161Y-97659753D01*
X99023670Y-97638172D01*
X99098602Y-97639246D01*
X99202630Y-97633055D01*
X99270605Y-97590311D01*
X99293563Y-97511189D01*
X99293542Y-97508916D01*
X99279629Y-97462986D01*
X99232303Y-97420845D01*
X99140287Y-97372272D01*
X99015151Y-97313790D01*
X98932268Y-97281975D01*
X98884420Y-97284025D01*
X98862063Y-97326051D01*
X98855649Y-97414162D01*
X98855632Y-97554469D01*
X98854917Y-97641081D01*
X98851635Y-97748041D01*
X98846300Y-97821250D01*
X98839585Y-97848391D01*
X98837790Y-97848206D01*
X98798982Y-97833498D01*
X98734709Y-97802456D01*
X98645880Y-97756521D01*
X98656436Y-97342628D01*
X98657171Y-97315179D01*
X98665555Y-97122517D01*
X98680366Y-96977309D01*
X98704629Y-96869887D01*
X98741364Y-96790584D01*
X98793597Y-96729730D01*
X98864348Y-96677658D01*
X98865657Y-96676842D01*
X98980056Y-96634360D01*
X99112365Y-96627184D01*
X99239995Y-96653674D01*
G36*
X99239995Y-96653674D02*
G01*
X99340355Y-96712191D01*
X99384505Y-96757784D01*
X99469347Y-96894072D01*
X99497931Y-97042658D01*
X99497931Y-97144882D01*
X99403963Y-97105372D01*
X99338977Y-97065504D01*
X99287763Y-96982734D01*
X99282504Y-96965669D01*
X99225903Y-96878724D01*
X99140594Y-96831758D01*
X99042641Y-96829741D01*
X98948106Y-96877644D01*
X98933993Y-96889998D01*
X98886797Y-96943683D01*
X98879003Y-96990488D01*
X98914706Y-97036446D01*
X98998003Y-97087588D01*
X99132988Y-97149948D01*
X99142118Y-97153897D01*
X99291969Y-97223772D01*
X99394316Y-97285672D01*
X99457320Y-97347476D01*
X99489138Y-97417062D01*
X99497931Y-97502308D01*
X99486409Y-97596816D01*
X99428228Y-97717785D01*
X99325875Y-97804688D01*
X99251843Y-97830778D01*
X99147367Y-97845055D01*
X99045917Y-97842006D01*
X98973472Y-97820467D01*
X98965777Y-97815104D01*
X98945341Y-97777632D01*
X98959522Y-97711591D01*
X98984161Y-97659753D01*
X99023670Y-97638172D01*
X99098602Y-97639246D01*
X99202630Y-97633055D01*
X99270605Y-97590311D01*
X99293563Y-97511189D01*
X99293542Y-97508916D01*
X99279629Y-97462986D01*
X99232303Y-97420845D01*
X99140287Y-97372272D01*
X99015151Y-97313790D01*
X98932268Y-97281975D01*
X98884420Y-97284025D01*
X98862063Y-97326051D01*
X98855649Y-97414162D01*
X98855632Y-97554469D01*
X98854917Y-97641081D01*
X98851635Y-97748041D01*
X98846300Y-97821250D01*
X98839585Y-97848391D01*
X98837790Y-97848206D01*
X98798982Y-97833498D01*
X98734709Y-97802456D01*
X98645880Y-97756521D01*
X98656436Y-97342628D01*
X98657171Y-97315179D01*
X98665555Y-97122517D01*
X98680366Y-96977309D01*
X98704629Y-96869887D01*
X98741364Y-96790584D01*
X98793597Y-96729730D01*
X98864348Y-96677658D01*
X98865657Y-96676842D01*
X98980056Y-96634360D01*
X99112365Y-96627184D01*
X99239995Y-96653674D01*
G37*
X105628965Y-97206092D02*
X105628938Y-97237744D01*
X105627355Y-97378918D01*
X105621916Y-97477285D01*
X105610643Y-97545990D01*
X105591561Y-97598181D01*
X105562694Y-97647004D01*
X105555592Y-97657135D01*
X105480444Y-97737012D01*
X105394820Y-97797253D01*
X105350852Y-97816802D01*
X105192861Y-97849408D01*
X105036613Y-97828317D01*
X104892618Y-97756249D01*
X104771385Y-97635922D01*
X104761150Y-97619803D01*
X104727847Y-97526205D01*
X104705405Y-97395879D01*
X104694516Y-97245371D01*
X104695740Y-97106147D01*
X104990384Y-97106147D01*
X104992706Y-97299020D01*
X104993639Y-97311433D01*
X105007242Y-97417857D01*
X105031465Y-97485346D01*
X105072365Y-97531584D01*
X105140941Y-97574895D01*
X105208764Y-97577172D01*
X105278621Y-97527241D01*
X105290771Y-97514102D01*
X105314575Y-97474785D01*
X105328628Y-97417674D01*
X105335313Y-97329256D01*
X105337011Y-97196019D01*
X105334101Y-97071222D01*
X105319582Y-96952326D01*
X105289610Y-96877184D01*
X105240589Y-96837893D01*
X105168924Y-96826552D01*
X105141632Y-96828807D01*
X105065176Y-96870160D01*
X105014650Y-96962900D01*
X104990384Y-97106147D01*
X104695740Y-97106147D01*
X104695871Y-97091227D01*
X104710161Y-96949992D01*
X104738075Y-96838213D01*
X104773949Y-96763766D01*
X104874939Y-96647968D01*
X105011779Y-96576015D01*
X105179283Y-96551281D01*
X105224019Y-96552619D01*
X105355758Y-96580008D01*
X105463968Y-96649007D01*
X105563276Y-96767864D01*
X105569184Y-96776681D01*
X105595921Y-96824108D01*
X105613312Y-96877714D01*
X105623312Y-96950549D01*
X105627878Y-97055659D01*
X105628893Y-97196019D01*
X105628965Y-97206092D01*
G36*
X105628965Y-97206092D02*
G01*
X105628938Y-97237744D01*
X105627355Y-97378918D01*
X105621916Y-97477285D01*
X105610643Y-97545990D01*
X105591561Y-97598181D01*
X105562694Y-97647004D01*
X105555592Y-97657135D01*
X105480444Y-97737012D01*
X105394820Y-97797253D01*
X105350852Y-97816802D01*
X105192861Y-97849408D01*
X105036613Y-97828317D01*
X104892618Y-97756249D01*
X104771385Y-97635922D01*
X104761150Y-97619803D01*
X104727847Y-97526205D01*
X104705405Y-97395879D01*
X104694516Y-97245371D01*
X104695740Y-97106147D01*
X104990384Y-97106147D01*
X104992706Y-97299020D01*
X104993639Y-97311433D01*
X105007242Y-97417857D01*
X105031465Y-97485346D01*
X105072365Y-97531584D01*
X105140941Y-97574895D01*
X105208764Y-97577172D01*
X105278621Y-97527241D01*
X105290771Y-97514102D01*
X105314575Y-97474785D01*
X105328628Y-97417674D01*
X105335313Y-97329256D01*
X105337011Y-97196019D01*
X105334101Y-97071222D01*
X105319582Y-96952326D01*
X105289610Y-96877184D01*
X105240589Y-96837893D01*
X105168924Y-96826552D01*
X105141632Y-96828807D01*
X105065176Y-96870160D01*
X105014650Y-96962900D01*
X104990384Y-97106147D01*
X104695740Y-97106147D01*
X104695871Y-97091227D01*
X104710161Y-96949992D01*
X104738075Y-96838213D01*
X104773949Y-96763766D01*
X104874939Y-96647968D01*
X105011779Y-96576015D01*
X105179283Y-96551281D01*
X105224019Y-96552619D01*
X105355758Y-96580008D01*
X105463968Y-96649007D01*
X105563276Y-96767864D01*
X105569184Y-96776681D01*
X105595921Y-96824108D01*
X105613312Y-96877714D01*
X105623312Y-96950549D01*
X105627878Y-97055659D01*
X105628893Y-97196019D01*
X105628965Y-97206092D01*
G37*
X98270872Y-96665536D02*
X98280090Y-96670638D01*
X98355381Y-96729080D01*
X98422698Y-96804215D01*
X98434439Y-96821196D01*
X98456883Y-96860825D01*
X98472918Y-96907858D01*
X98483945Y-96972492D01*
X98491365Y-97064923D01*
X98496579Y-97195349D01*
X98500989Y-97373965D01*
X98501614Y-97404162D01*
X98503620Y-97599941D01*
X98500792Y-97738603D01*
X98493088Y-97821103D01*
X98480466Y-97848391D01*
X98442267Y-97840220D01*
X98377374Y-97815463D01*
X98362094Y-97808223D01*
X98338227Y-97791835D01*
X98321769Y-97764893D01*
X98311005Y-97717833D01*
X98304219Y-97641088D01*
X98299693Y-97525095D01*
X98295713Y-97360287D01*
X98294622Y-97312112D01*
X98290407Y-97159960D01*
X98284936Y-97053476D01*
X98276554Y-96982565D01*
X98263606Y-96937129D01*
X98244439Y-96907072D01*
X98217398Y-96882296D01*
X98137337Y-96838861D01*
X98038846Y-96830498D01*
X97950719Y-96863734D01*
X97887314Y-96932548D01*
X97862988Y-97030920D01*
X97862311Y-97057658D01*
X97849024Y-97106065D01*
X97809796Y-97113450D01*
X97732983Y-97084624D01*
X97715192Y-97075378D01*
X97667109Y-97021006D01*
X97666157Y-96940161D01*
X97711968Y-96828352D01*
X97753990Y-96767419D01*
X97861435Y-96680859D01*
X97994057Y-96631920D01*
X98135867Y-96625260D01*
X98270872Y-96665536D01*
G36*
X98270872Y-96665536D02*
G01*
X98280090Y-96670638D01*
X98355381Y-96729080D01*
X98422698Y-96804215D01*
X98434439Y-96821196D01*
X98456883Y-96860825D01*
X98472918Y-96907858D01*
X98483945Y-96972492D01*
X98491365Y-97064923D01*
X98496579Y-97195349D01*
X98500989Y-97373965D01*
X98501614Y-97404162D01*
X98503620Y-97599941D01*
X98500792Y-97738603D01*
X98493088Y-97821103D01*
X98480466Y-97848391D01*
X98442267Y-97840220D01*
X98377374Y-97815463D01*
X98362094Y-97808223D01*
X98338227Y-97791835D01*
X98321769Y-97764893D01*
X98311005Y-97717833D01*
X98304219Y-97641088D01*
X98299693Y-97525095D01*
X98295713Y-97360287D01*
X98294622Y-97312112D01*
X98290407Y-97159960D01*
X98284936Y-97053476D01*
X98276554Y-96982565D01*
X98263606Y-96937129D01*
X98244439Y-96907072D01*
X98217398Y-96882296D01*
X98137337Y-96838861D01*
X98038846Y-96830498D01*
X97950719Y-96863734D01*
X97887314Y-96932548D01*
X97862988Y-97030920D01*
X97862311Y-97057658D01*
X97849024Y-97106065D01*
X97809796Y-97113450D01*
X97732983Y-97084624D01*
X97715192Y-97075378D01*
X97667109Y-97021006D01*
X97666157Y-96940161D01*
X97711968Y-96828352D01*
X97753990Y-96767419D01*
X97861435Y-96680859D01*
X97994057Y-96631920D01*
X98135867Y-96625260D01*
X98270872Y-96665536D01*
G37*
X100424885Y-96228997D02*
X100519770Y-96269020D01*
X100519770Y-97058706D01*
X100519769Y-97067920D01*
X100519377Y-97275083D01*
X100518329Y-97461432D01*
X100516722Y-97619453D01*
X100514655Y-97741630D01*
X100512225Y-97820448D01*
X100509529Y-97848391D01*
X100508475Y-97848297D01*
X100472647Y-97838144D01*
X100407345Y-97816339D01*
X100315402Y-97784288D01*
X100315402Y-97372991D01*
X100314818Y-97211385D01*
X100312104Y-97094177D01*
X100305858Y-97014415D01*
X100294680Y-96961531D01*
X100277168Y-96924957D01*
X100251922Y-96894123D01*
X100234710Y-96877725D01*
X100141636Y-96832307D01*
X100039051Y-96836328D01*
X99945043Y-96890032D01*
X99931358Y-96903359D01*
X99909439Y-96931032D01*
X99894440Y-96967614D01*
X99885053Y-97023000D01*
X99879968Y-97107088D01*
X99877877Y-97229773D01*
X99877471Y-97400951D01*
X99877276Y-97487769D01*
X99876010Y-97630565D01*
X99873761Y-97744923D01*
X99870758Y-97820860D01*
X99867230Y-97848391D01*
X99866176Y-97848297D01*
X99830348Y-97838144D01*
X99765046Y-97816339D01*
X99673103Y-97784288D01*
X99673149Y-97371109D01*
X99673218Y-97334326D01*
X99677081Y-97142580D01*
X99688950Y-96997586D01*
X99711725Y-96889510D01*
X99748307Y-96808519D01*
X99801595Y-96744778D01*
X99874490Y-96688455D01*
X99945586Y-96653199D01*
X100059255Y-96625946D01*
X100171060Y-96624398D01*
X100257011Y-96650910D01*
X100263473Y-96654571D01*
X100283401Y-96654179D01*
X100297019Y-96623506D01*
X100306846Y-96553188D01*
X100315402Y-96433857D01*
X100330000Y-96188973D01*
X100424885Y-96228997D01*
G36*
X100424885Y-96228997D02*
G01*
X100519770Y-96269020D01*
X100519770Y-97058706D01*
X100519769Y-97067920D01*
X100519377Y-97275083D01*
X100518329Y-97461432D01*
X100516722Y-97619453D01*
X100514655Y-97741630D01*
X100512225Y-97820448D01*
X100509529Y-97848391D01*
X100508475Y-97848297D01*
X100472647Y-97838144D01*
X100407345Y-97816339D01*
X100315402Y-97784288D01*
X100315402Y-97372991D01*
X100314818Y-97211385D01*
X100312104Y-97094177D01*
X100305858Y-97014415D01*
X100294680Y-96961531D01*
X100277168Y-96924957D01*
X100251922Y-96894123D01*
X100234710Y-96877725D01*
X100141636Y-96832307D01*
X100039051Y-96836328D01*
X99945043Y-96890032D01*
X99931358Y-96903359D01*
X99909439Y-96931032D01*
X99894440Y-96967614D01*
X99885053Y-97023000D01*
X99879968Y-97107088D01*
X99877877Y-97229773D01*
X99877471Y-97400951D01*
X99877276Y-97487769D01*
X99876010Y-97630565D01*
X99873761Y-97744923D01*
X99870758Y-97820860D01*
X99867230Y-97848391D01*
X99866176Y-97848297D01*
X99830348Y-97838144D01*
X99765046Y-97816339D01*
X99673103Y-97784288D01*
X99673149Y-97371109D01*
X99673218Y-97334326D01*
X99677081Y-97142580D01*
X99688950Y-96997586D01*
X99711725Y-96889510D01*
X99748307Y-96808519D01*
X99801595Y-96744778D01*
X99874490Y-96688455D01*
X99945586Y-96653199D01*
X100059255Y-96625946D01*
X100171060Y-96624398D01*
X100257011Y-96650910D01*
X100263473Y-96654571D01*
X100283401Y-96654179D01*
X100297019Y-96623506D01*
X100306846Y-96553188D01*
X100315402Y-96433857D01*
X100330000Y-96188973D01*
X100424885Y-96228997D01*
G37*
X103409452Y-97123329D02*
X103400168Y-97344639D01*
X103394926Y-97391526D01*
X103355868Y-97558409D01*
X103285290Y-97685326D01*
X103177955Y-97782602D01*
X103171888Y-97786616D01*
X103035440Y-97843706D01*
X102892973Y-97848786D01*
X102755696Y-97805311D01*
X102634819Y-97716734D01*
X102541552Y-97586509D01*
X102539986Y-97583369D01*
X102508993Y-97502501D01*
X102486292Y-97410593D01*
X102474250Y-97324311D01*
X102475237Y-97260321D01*
X102491623Y-97235287D01*
X102506179Y-97236809D01*
X102575792Y-97264496D01*
X102654697Y-97315409D01*
X102721820Y-97374343D01*
X102756087Y-97426094D01*
X102791707Y-97496291D01*
X102864711Y-97560138D01*
X102949485Y-97585632D01*
X102980558Y-97578261D01*
X103041891Y-97541154D01*
X103095315Y-97489644D01*
X103118161Y-97442913D01*
X103118154Y-97442740D01*
X103092233Y-97421280D01*
X103023127Y-97382565D01*
X102921249Y-97332037D01*
X102797011Y-97275134D01*
X102796328Y-97274833D01*
X102661355Y-97214738D01*
X102570884Y-97171440D01*
X102516039Y-97138179D01*
X102487944Y-97108194D01*
X102477724Y-97074726D01*
X102476503Y-97031015D01*
X102484996Y-96948244D01*
X102773219Y-96948244D01*
X102802970Y-96974265D01*
X102877101Y-97013256D01*
X102879274Y-97014359D01*
X102966733Y-97056009D01*
X103044974Y-97089235D01*
X103094611Y-97103291D01*
X103114521Y-97084503D01*
X103118161Y-97020124D01*
X103103035Y-96940001D01*
X103050597Y-96867189D01*
X102974677Y-96829439D01*
X102890040Y-96833251D01*
X102811447Y-96885121D01*
X102780555Y-96920965D01*
X102773219Y-96948244D01*
X102484996Y-96948244D01*
X102487251Y-96926265D01*
X102540389Y-96783949D01*
X102629342Y-96672111D01*
X102744448Y-96594676D01*
X102876045Y-96555568D01*
X103014472Y-96558711D01*
X103150065Y-96608030D01*
X103273164Y-96707447D01*
X103341366Y-96805829D01*
X103390356Y-96946261D01*
X103398322Y-97020124D01*
X103409452Y-97123329D01*
G36*
X103409452Y-97123329D02*
G01*
X103400168Y-97344639D01*
X103394926Y-97391526D01*
X103355868Y-97558409D01*
X103285290Y-97685326D01*
X103177955Y-97782602D01*
X103171888Y-97786616D01*
X103035440Y-97843706D01*
X102892973Y-97848786D01*
X102755696Y-97805311D01*
X102634819Y-97716734D01*
X102541552Y-97586509D01*
X102539986Y-97583369D01*
X102508993Y-97502501D01*
X102486292Y-97410593D01*
X102474250Y-97324311D01*
X102475237Y-97260321D01*
X102491623Y-97235287D01*
X102506179Y-97236809D01*
X102575792Y-97264496D01*
X102654697Y-97315409D01*
X102721820Y-97374343D01*
X102756087Y-97426094D01*
X102791707Y-97496291D01*
X102864711Y-97560138D01*
X102949485Y-97585632D01*
X102980558Y-97578261D01*
X103041891Y-97541154D01*
X103095315Y-97489644D01*
X103118161Y-97442913D01*
X103118154Y-97442740D01*
X103092233Y-97421280D01*
X103023127Y-97382565D01*
X102921249Y-97332037D01*
X102797011Y-97275134D01*
X102796328Y-97274833D01*
X102661355Y-97214738D01*
X102570884Y-97171440D01*
X102516039Y-97138179D01*
X102487944Y-97108194D01*
X102477724Y-97074726D01*
X102476503Y-97031015D01*
X102484996Y-96948244D01*
X102773219Y-96948244D01*
X102802970Y-96974265D01*
X102877101Y-97013256D01*
X102879274Y-97014359D01*
X102966733Y-97056009D01*
X103044974Y-97089235D01*
X103094611Y-97103291D01*
X103114521Y-97084503D01*
X103118161Y-97020124D01*
X103103035Y-96940001D01*
X103050597Y-96867189D01*
X102974677Y-96829439D01*
X102890040Y-96833251D01*
X102811447Y-96885121D01*
X102780555Y-96920965D01*
X102773219Y-96948244D01*
X102484996Y-96948244D01*
X102487251Y-96926265D01*
X102540389Y-96783949D01*
X102629342Y-96672111D01*
X102744448Y-96594676D01*
X102876045Y-96555568D01*
X103014472Y-96558711D01*
X103150065Y-96608030D01*
X103273164Y-96707447D01*
X103341366Y-96805829D01*
X103390356Y-96946261D01*
X103398322Y-97020124D01*
X103409452Y-97123329D01*
G37*
X94971628Y-96624810D02*
X95034194Y-96640702D01*
X95092446Y-96680322D01*
X95167418Y-96754076D01*
X95215633Y-96806163D01*
X95265858Y-96873786D01*
X95288510Y-96937168D01*
X95293793Y-97017584D01*
X95293793Y-97149201D01*
X95204035Y-97102785D01*
X95132904Y-97046225D01*
X95084183Y-96970040D01*
X95075814Y-96949326D01*
X95012056Y-96869041D01*
X94923470Y-96828784D01*
X94826873Y-96832702D01*
X94739080Y-96884943D01*
X94701936Y-96927370D01*
X94680300Y-96981647D01*
X94703461Y-97029954D01*
X94775479Y-97078545D01*
X94900410Y-97133677D01*
X94919368Y-97141292D01*
X95033105Y-97191125D01*
X95130706Y-97240265D01*
X95192803Y-97279080D01*
X95254999Y-97348411D01*
X95296346Y-97459051D01*
X95291957Y-97577782D01*
X95243037Y-97690148D01*
X95150797Y-97781690D01*
X95076110Y-97820658D01*
X94931832Y-97847944D01*
X94851656Y-97844263D01*
X94777435Y-97824360D01*
X94748960Y-97782598D01*
X94759608Y-97713820D01*
X94762705Y-97704726D01*
X94787268Y-97656498D01*
X94828165Y-97638245D01*
X94906079Y-97639466D01*
X94961091Y-97641126D01*
X95025459Y-97626881D01*
X95069561Y-97584292D01*
X95094680Y-97531857D01*
X95097481Y-97476929D01*
X95097352Y-97476608D01*
X95064785Y-97446928D01*
X94995083Y-97403735D01*
X94904898Y-97355461D01*
X94810883Y-97310539D01*
X94729689Y-97277402D01*
X94677968Y-97264483D01*
X94670274Y-97277134D01*
X94660588Y-97336668D01*
X94653954Y-97433887D01*
X94651494Y-97556437D01*
X94650922Y-97641263D01*
X94648225Y-97748094D01*
X94643821Y-97821257D01*
X94638270Y-97848391D01*
X94609254Y-97839272D01*
X94550684Y-97814509D01*
X94476322Y-97780627D01*
X94476322Y-97345933D01*
X94476797Y-97234508D01*
X94481293Y-97065301D01*
X94492747Y-96939769D01*
X94513828Y-96848363D01*
X94547206Y-96781532D01*
X94595550Y-96729726D01*
X94661531Y-96683393D01*
X94745594Y-96645156D01*
X94900807Y-96622184D01*
X94971628Y-96624810D01*
G36*
X94971628Y-96624810D02*
G01*
X95034194Y-96640702D01*
X95092446Y-96680322D01*
X95167418Y-96754076D01*
X95215633Y-96806163D01*
X95265858Y-96873786D01*
X95288510Y-96937168D01*
X95293793Y-97017584D01*
X95293793Y-97149201D01*
X95204035Y-97102785D01*
X95132904Y-97046225D01*
X95084183Y-96970040D01*
X95075814Y-96949326D01*
X95012056Y-96869041D01*
X94923470Y-96828784D01*
X94826873Y-96832702D01*
X94739080Y-96884943D01*
X94701936Y-96927370D01*
X94680300Y-96981647D01*
X94703461Y-97029954D01*
X94775479Y-97078545D01*
X94900410Y-97133677D01*
X94919368Y-97141292D01*
X95033105Y-97191125D01*
X95130706Y-97240265D01*
X95192803Y-97279080D01*
X95254999Y-97348411D01*
X95296346Y-97459051D01*
X95291957Y-97577782D01*
X95243037Y-97690148D01*
X95150797Y-97781690D01*
X95076110Y-97820658D01*
X94931832Y-97847944D01*
X94851656Y-97844263D01*
X94777435Y-97824360D01*
X94748960Y-97782598D01*
X94759608Y-97713820D01*
X94762705Y-97704726D01*
X94787268Y-97656498D01*
X94828165Y-97638245D01*
X94906079Y-97639466D01*
X94961091Y-97641126D01*
X95025459Y-97626881D01*
X95069561Y-97584292D01*
X95094680Y-97531857D01*
X95097481Y-97476929D01*
X95097352Y-97476608D01*
X95064785Y-97446928D01*
X94995083Y-97403735D01*
X94904898Y-97355461D01*
X94810883Y-97310539D01*
X94729689Y-97277402D01*
X94677968Y-97264483D01*
X94670274Y-97277134D01*
X94660588Y-97336668D01*
X94653954Y-97433887D01*
X94651494Y-97556437D01*
X94650922Y-97641263D01*
X94648225Y-97748094D01*
X94643821Y-97821257D01*
X94638270Y-97848391D01*
X94609254Y-97839272D01*
X94550684Y-97814509D01*
X94476322Y-97780627D01*
X94476322Y-97345933D01*
X94476797Y-97234508D01*
X94481293Y-97065301D01*
X94492747Y-96939769D01*
X94513828Y-96848363D01*
X94547206Y-96781532D01*
X94595550Y-96729726D01*
X94661531Y-96683393D01*
X94745594Y-96645156D01*
X94900807Y-96622184D01*
X94971628Y-96624810D01*
G37*
X93308313Y-97241136D02*
X93307744Y-97318946D01*
X93300612Y-97472254D01*
X93281948Y-97584441D01*
X93247537Y-97667554D01*
X93193162Y-97733641D01*
X93114610Y-97794747D01*
X93064630Y-97822535D01*
X92984513Y-97841251D01*
X92871970Y-97839774D01*
X92809050Y-97833845D01*
X92733153Y-97815742D01*
X92672487Y-97776391D01*
X92601912Y-97703066D01*
X92592482Y-97692356D01*
X92529034Y-97609938D01*
X92498762Y-97538156D01*
X92491034Y-97453034D01*
X92491034Y-97327946D01*
X92578447Y-97360940D01*
X92642175Y-97399509D01*
X92697567Y-97490008D01*
X92709131Y-97518983D01*
X92773788Y-97601041D01*
X92861804Y-97642347D01*
X92957637Y-97638633D01*
X93045747Y-97585632D01*
X93076028Y-97552582D01*
X93103489Y-97502720D01*
X93094899Y-97457416D01*
X93045463Y-97410790D01*
X92950389Y-97356958D01*
X92804885Y-97290039D01*
X92505632Y-97159056D01*
X92497691Y-97029298D01*
X92500676Y-96946649D01*
X92695652Y-96946649D01*
X92710453Y-96997815D01*
X92777797Y-97052442D01*
X92900027Y-97114597D01*
X92920253Y-97123601D01*
X93016970Y-97165493D01*
X93089334Y-97194958D01*
X93122961Y-97206092D01*
X93128056Y-97197896D01*
X93130101Y-97147853D01*
X93122812Y-97067414D01*
X93104452Y-96988753D01*
X93047188Y-96889651D01*
X92964524Y-96833808D01*
X92865784Y-96826250D01*
X92760289Y-96872000D01*
X92731053Y-96894876D01*
X92695652Y-96946649D01*
X92500676Y-96946649D01*
X92501196Y-96932255D01*
X92545336Y-96809617D01*
X92601050Y-96742034D01*
X92716561Y-96666540D01*
X92853588Y-96628403D01*
X92995237Y-96631422D01*
X93124617Y-96679393D01*
X93153099Y-96697813D01*
X93218428Y-96754811D01*
X93263106Y-96826916D01*
X93290641Y-96924853D01*
X93304541Y-97059351D01*
X93306378Y-97147853D01*
X93308313Y-97241136D01*
G36*
X93308313Y-97241136D02*
G01*
X93307744Y-97318946D01*
X93300612Y-97472254D01*
X93281948Y-97584441D01*
X93247537Y-97667554D01*
X93193162Y-97733641D01*
X93114610Y-97794747D01*
X93064630Y-97822535D01*
X92984513Y-97841251D01*
X92871970Y-97839774D01*
X92809050Y-97833845D01*
X92733153Y-97815742D01*
X92672487Y-97776391D01*
X92601912Y-97703066D01*
X92592482Y-97692356D01*
X92529034Y-97609938D01*
X92498762Y-97538156D01*
X92491034Y-97453034D01*
X92491034Y-97327946D01*
X92578447Y-97360940D01*
X92642175Y-97399509D01*
X92697567Y-97490008D01*
X92709131Y-97518983D01*
X92773788Y-97601041D01*
X92861804Y-97642347D01*
X92957637Y-97638633D01*
X93045747Y-97585632D01*
X93076028Y-97552582D01*
X93103489Y-97502720D01*
X93094899Y-97457416D01*
X93045463Y-97410790D01*
X92950389Y-97356958D01*
X92804885Y-97290039D01*
X92505632Y-97159056D01*
X92497691Y-97029298D01*
X92500676Y-96946649D01*
X92695652Y-96946649D01*
X92710453Y-96997815D01*
X92777797Y-97052442D01*
X92900027Y-97114597D01*
X92920253Y-97123601D01*
X93016970Y-97165493D01*
X93089334Y-97194958D01*
X93122961Y-97206092D01*
X93128056Y-97197896D01*
X93130101Y-97147853D01*
X93122812Y-97067414D01*
X93104452Y-96988753D01*
X93047188Y-96889651D01*
X92964524Y-96833808D01*
X92865784Y-96826250D01*
X92760289Y-96872000D01*
X92731053Y-96894876D01*
X92695652Y-96946649D01*
X92500676Y-96946649D01*
X92501196Y-96932255D01*
X92545336Y-96809617D01*
X92601050Y-96742034D01*
X92716561Y-96666540D01*
X92853588Y-96628403D01*
X92995237Y-96631422D01*
X93124617Y-96679393D01*
X93153099Y-96697813D01*
X93218428Y-96754811D01*
X93263106Y-96826916D01*
X93290641Y-96924853D01*
X93304541Y-97059351D01*
X93306378Y-97147853D01*
X93308313Y-97241136D01*
G37*
D12*
%TO.C,A1*%
X130425000Y-58650000D02*
X130425000Y-56900000D01*
X130425000Y-56900000D02*
X128675000Y-56900000D01*
X130295000Y-59690000D02*
X130295000Y-92710000D01*
X129005000Y-87730000D02*
X126265000Y-87730000D01*
X129005000Y-62130000D02*
X129005000Y-87730000D01*
X127635000Y-95370000D02*
X107315000Y-95370000D01*
X127635000Y-57030000D02*
X107315000Y-57030000D01*
X126265000Y-87730000D02*
X126265000Y-62130000D01*
X126265000Y-62130000D02*
X129005000Y-62130000D01*
X108685000Y-87730000D02*
X105945000Y-87730000D01*
X108685000Y-62130000D02*
X108685000Y-87730000D01*
X105945000Y-87730000D02*
X105945000Y-62130000D01*
X105945000Y-62130000D02*
X108685000Y-62130000D01*
X104655000Y-59690000D02*
X104655000Y-92710000D01*
X127635000Y-95370000D02*
G75*
G03*
X130295000Y-92710000I0J2660000D01*
G01*
X130295000Y-59690000D02*
G75*
G03*
X127635000Y-57030000I-2660000J0D01*
G01*
X104655000Y-92710000D02*
G75*
G03*
X107315000Y-95370000I2660000J0D01*
G01*
X107315000Y-57030000D02*
G75*
G03*
X104655000Y-59690000I0J-2660000D01*
G01*
%TD*%
M02*
