%TF.GenerationSoftware,KiCad,Pcbnew,7.0.6*%
%TF.CreationDate,2023-08-07T10:19:30-05:00*%
%TF.ProjectId,mqtt_particle_sensor,6d717474-5f70-4617-9274-69636c655f73,C*%
%TF.SameCoordinates,Original*%
%TF.FileFunction,Paste,Top*%
%TF.FilePolarity,Positive*%
%FSLAX46Y46*%
G04 Gerber Fmt 4.6, Leading zero omitted, Abs format (unit mm)*
G04 Created by KiCad (PCBNEW 7.0.6) date 2023-08-07 10:19:30*
%MOMM*%
%LPD*%
G01*
G04 APERTURE LIST*
G04 Aperture macros list*
%AMRoundRect*
0 Rectangle with rounded corners*
0 $1 Rounding radius*
0 $2 $3 $4 $5 $6 $7 $8 $9 X,Y pos of 4 corners*
0 Add a 4 corners polygon primitive as box body*
4,1,4,$2,$3,$4,$5,$6,$7,$8,$9,$2,$3,0*
0 Add four circle primitives for the rounded corners*
1,1,$1+$1,$2,$3*
1,1,$1+$1,$4,$5*
1,1,$1+$1,$6,$7*
1,1,$1+$1,$8,$9*
0 Add four rect primitives between the rounded corners*
20,1,$1+$1,$2,$3,$4,$5,0*
20,1,$1+$1,$4,$5,$6,$7,0*
20,1,$1+$1,$6,$7,$8,$9,0*
20,1,$1+$1,$8,$9,$2,$3,0*%
G04 Aperture macros list end*
%ADD10RoundRect,0.250000X0.400000X0.625000X-0.400000X0.625000X-0.400000X-0.625000X0.400000X-0.625000X0*%
%ADD11RoundRect,0.150000X-0.825000X-0.150000X0.825000X-0.150000X0.825000X0.150000X-0.825000X0.150000X0*%
%ADD12RoundRect,0.250000X-0.400000X-0.625000X0.400000X-0.625000X0.400000X0.625000X-0.400000X0.625000X0*%
%ADD13R,1.900000X0.800000*%
%ADD14RoundRect,0.250000X-0.650000X0.412500X-0.650000X-0.412500X0.650000X-0.412500X0.650000X0.412500X0*%
%ADD15RoundRect,0.250001X0.462499X0.624999X-0.462499X0.624999X-0.462499X-0.624999X0.462499X-0.624999X0*%
%ADD16RoundRect,0.250000X0.650000X-0.412500X0.650000X0.412500X-0.650000X0.412500X-0.650000X-0.412500X0*%
%ADD17R,2.500000X2.500000*%
%ADD18RoundRect,0.250000X-0.625000X0.400000X-0.625000X-0.400000X0.625000X-0.400000X0.625000X0.400000X0*%
%ADD19RoundRect,0.250000X-0.412500X-0.650000X0.412500X-0.650000X0.412500X0.650000X-0.412500X0.650000X0*%
G04 APERTURE END LIST*
D10*
%TO.C,R9*%
X50800000Y-76200000D03*
X47700000Y-76200000D03*
%TD*%
D11*
%TO.C,U1*%
X73725000Y-46355000D03*
X73725000Y-47625000D03*
X73725000Y-48895000D03*
X73725000Y-50165000D03*
X73725000Y-51435000D03*
X73725000Y-52705000D03*
X73725000Y-53975000D03*
X73725000Y-55245000D03*
X78675000Y-55245000D03*
X78675000Y-53975000D03*
X78675000Y-52705000D03*
X78675000Y-51435000D03*
X78675000Y-50165000D03*
X78675000Y-48895000D03*
X78675000Y-47625000D03*
X78675000Y-46355000D03*
%TD*%
D10*
%TO.C,R8*%
X50800000Y-71120000D03*
X47700000Y-71120000D03*
%TD*%
D12*
%TO.C,R3*%
X83260000Y-46990000D03*
X86360000Y-46990000D03*
%TD*%
D13*
%TO.C,Q1*%
X115340000Y-47310000D03*
X115340000Y-49210000D03*
X118340000Y-48260000D03*
%TD*%
D12*
%TO.C,R7*%
X115925000Y-104775000D03*
X119025000Y-104775000D03*
%TD*%
D14*
%TO.C,C2*%
X91440000Y-45173500D03*
X91440000Y-48298500D03*
%TD*%
D15*
%TO.C,D1*%
X113882500Y-80645000D03*
X110907500Y-80645000D03*
%TD*%
D13*
%TO.C,Q2*%
X131360000Y-94700000D03*
X131360000Y-92800000D03*
X128360000Y-93750000D03*
%TD*%
D10*
%TO.C,R2*%
X86360000Y-50800000D03*
X83260000Y-50800000D03*
%TD*%
D15*
%TO.C,D2*%
X123407500Y-80645000D03*
X120432500Y-80645000D03*
%TD*%
D16*
%TO.C,C5*%
X132080000Y-81280000D03*
X132080000Y-78155000D03*
%TD*%
D17*
%TO.C,PS1*%
X111975000Y-60040000D03*
X122975000Y-60040000D03*
X122975000Y-72040000D03*
X111975000Y-72040000D03*
%TD*%
D18*
%TO.C,R5*%
X121920000Y-45160000D03*
X121920000Y-48260000D03*
%TD*%
D10*
%TO.C,R4*%
X103150000Y-45720000D03*
X100050000Y-45720000D03*
%TD*%
%TO.C,R1*%
X86360000Y-54610000D03*
X83260000Y-54610000D03*
%TD*%
D19*
%TO.C,C4*%
X115277500Y-55880000D03*
X118402500Y-55880000D03*
%TD*%
D12*
%TO.C,R6*%
X115925000Y-100330000D03*
X119025000Y-100330000D03*
%TD*%
D16*
%TO.C,C1*%
X91440000Y-54902500D03*
X91440000Y-51777500D03*
%TD*%
M02*
